%TF.GenerationSoftware,KiCad,Pcbnew,10.0.3*%
%TF.CreationDate,2026-07-02T20:43:44-05:00*%
%TF.ProjectId,HEI_Shift_Light,4845495f-5368-4696-9674-5f4c69676874,rev?*%
%TF.SameCoordinates,Original*%
%TF.FileFunction,Copper,L1,Top*%
%TF.FilePolarity,Positive*%
%FSLAX46Y46*%
G04 Gerber Fmt 4.6, Leading zero omitted, Abs format (unit mm)*
G04 Created by KiCad (PCBNEW 10.0.3) date 2026-07-02 20:43:44*
%MOMM*%
%LPD*%
G01*
G04 APERTURE LIST*
G04 Aperture macros list*
%AMRoundRect*
0 Rectangle with rounded corners*
0 $1 Rounding radius*
0 $2 $3 $4 $5 $6 $7 $8 $9 X,Y pos of 4 corners*
0 Add a 4 corners polygon primitive as box body*
4,1,4,$2,$3,$4,$5,$6,$7,$8,$9,$2,$3,0*
0 Add four circle primitives for the rounded corners*
1,1,$1+$1,$2,$3*
1,1,$1+$1,$4,$5*
1,1,$1+$1,$6,$7*
1,1,$1+$1,$8,$9*
0 Add four rect primitives between the rounded corners*
20,1,$1+$1,$2,$3,$4,$5,0*
20,1,$1+$1,$4,$5,$6,$7,0*
20,1,$1+$1,$6,$7,$8,$9,0*
20,1,$1+$1,$8,$9,$2,$3,0*%
G04 Aperture macros list end*
%TA.AperFunction,SMDPad,CuDef*%
%ADD10R,1.000000X1.600000*%
%TD*%
%TA.AperFunction,SMDPad,CuDef*%
%ADD11R,0.600000X0.500000*%
%TD*%
%TA.AperFunction,SMDPad,CuDef*%
%ADD12R,0.600000X0.400000*%
%TD*%
%TA.AperFunction,ComponentPad*%
%ADD13C,3.600000*%
%TD*%
%TA.AperFunction,ConnectorPad*%
%ADD14C,5.600000*%
%TD*%
%TA.AperFunction,SMDPad,CuDef*%
%ADD15R,0.900000X0.500000*%
%TD*%
%TA.AperFunction,SMDPad,CuDef*%
%ADD16R,0.500000X0.600000*%
%TD*%
%TA.AperFunction,SMDPad,CuDef*%
%ADD17RoundRect,0.350000X0.350000X-0.650000X0.350000X0.650000X-0.350000X0.650000X-0.350000X-0.650000X0*%
%TD*%
%TA.AperFunction,SMDPad,CuDef*%
%ADD18RoundRect,0.250000X0.250000X-0.750000X0.250000X0.750000X-0.250000X0.750000X-0.250000X-0.750000X0*%
%TD*%
%TA.AperFunction,SMDPad,CuDef*%
%ADD19R,0.400000X0.600000*%
%TD*%
%TA.AperFunction,SMDPad,CuDef*%
%ADD20RoundRect,0.250000X0.900000X-1.000000X0.900000X1.000000X-0.900000X1.000000X-0.900000X-1.000000X0*%
%TD*%
%TA.AperFunction,SMDPad,CuDef*%
%ADD21R,0.800000X0.750000*%
%TD*%
%TA.AperFunction,SMDPad,CuDef*%
%ADD22R,0.750000X0.800000*%
%TD*%
%TA.AperFunction,SMDPad,CuDef*%
%ADD23RoundRect,0.112500X0.112500X-0.350000X0.112500X0.350000X-0.112500X0.350000X-0.112500X-0.350000X0*%
%TD*%
%TA.AperFunction,SMDPad,CuDef*%
%ADD24RoundRect,0.067500X0.067500X-0.097500X0.067500X0.097500X-0.067500X0.097500X-0.067500X-0.097500X0*%
%TD*%
%TA.AperFunction,SMDPad,CuDef*%
%ADD25RoundRect,0.250001X-0.702499X-1.144999X0.702499X-1.144999X0.702499X1.144999X-0.702499X1.144999X0*%
%TD*%
%TA.AperFunction,SMDPad,CuDef*%
%ADD26RoundRect,0.112500X-0.350000X-0.112500X0.350000X-0.112500X0.350000X0.112500X-0.350000X0.112500X0*%
%TD*%
%TA.AperFunction,SMDPad,CuDef*%
%ADD27R,0.250000X0.700000*%
%TD*%
%TA.AperFunction,SMDPad,CuDef*%
%ADD28R,1.190000X0.830000*%
%TD*%
%TA.AperFunction,ComponentPad*%
%ADD29R,1.700000X1.700000*%
%TD*%
%TA.AperFunction,ComponentPad*%
%ADD30C,2.362200*%
%TD*%
%TA.AperFunction,ComponentPad*%
%ADD31O,1.700000X1.700000*%
%TD*%
%TA.AperFunction,ComponentPad*%
%ADD32C,1.700000*%
%TD*%
%TA.AperFunction,ViaPad*%
%ADD33C,0.450000*%
%TD*%
%TA.AperFunction,Conductor*%
%ADD34C,0.200000*%
%TD*%
%TA.AperFunction,Conductor*%
%ADD35C,0.762000*%
%TD*%
%TA.AperFunction,Conductor*%
%ADD36C,0.381000*%
%TD*%
%TA.AperFunction,Conductor*%
%ADD37C,0.254000*%
%TD*%
%TA.AperFunction,Conductor*%
%ADD38C,0.408000*%
%TD*%
%TA.AperFunction,Conductor*%
%ADD39C,1.000000*%
%TD*%
G04 APERTURE END LIST*
D10*
%TO.P,C204,1*%
%TO.N,Vin*%
X114326800Y-86004400D03*
%TO.P,C204,2*%
%TO.N,GND*%
X111326800Y-86004400D03*
%TD*%
D11*
%TO.P,C503,1*%
%TO.N,Net-(C503-Pad1)*%
X131653400Y-77124400D03*
%TO.P,C503,2*%
%TO.N,GND*%
X132753400Y-77124400D03*
%TD*%
D12*
%TO.P,R504,1,1_1*%
%TO.N,+5V*%
X136020200Y-70343000D03*
%TO.P,R504,2,2_2*%
%TO.N,I2C_SDA*%
X136020200Y-71243000D03*
%TD*%
%TO.P,R204,1,1_1*%
%TO.N,Net-(U201-ILIM)*%
X111556800Y-87840400D03*
%TO.P,R204,2,2_2*%
%TO.N,Net-(U201-PAD)*%
X111556800Y-88740400D03*
%TD*%
D13*
%TO.P,H802,1,1_1*%
%TO.N,GND*%
X144526000Y-62230000D03*
D14*
X144526000Y-62230000D03*
%TD*%
D15*
%TO.P,R307,1,1_1*%
%TO.N,+5V*%
X135483600Y-82866800D03*
%TO.P,R307,2,2_2*%
%TO.N,Net-(Q302-D)*%
X135483600Y-84366800D03*
%TD*%
D16*
%TO.P,C604,1*%
%TO.N,+3.3V_USB*%
X119414100Y-105698200D03*
%TO.P,C604,2*%
%TO.N,GND_USB*%
X119414100Y-106798200D03*
%TD*%
D12*
%TO.P,R602,1,1_1*%
%TO.N,+5V*%
X127127000Y-97594000D03*
%TO.P,R602,2,2_2*%
%TO.N,USB_UART_RX*%
X127127000Y-98494000D03*
%TD*%
D11*
%TO.P,C202,1*%
%TO.N,/Input Power/VIN_FILT*%
X114392800Y-92608400D03*
%TO.P,C202,2*%
%TO.N,GND*%
X113292800Y-92608400D03*
%TD*%
D17*
%TO.P,D701,1,KB_1*%
%TO.N,Net-(D701-KB)*%
X153749600Y-96205400D03*
D18*
%TO.P,D701,2,KR_2*%
%TO.N,Net-(D701-KR)*%
X155549600Y-96205400D03*
D17*
%TO.P,D701,3,KG_3*%
%TO.N,Net-(D701-KG)*%
X157349600Y-96205400D03*
%TO.P,D701,4,AG_4*%
%TO.N,+5V*%
X157349600Y-91805400D03*
D18*
%TO.P,D701,5,AR_5*%
X155549600Y-91805400D03*
D17*
%TO.P,D701,6,AB_6*%
X153749600Y-91805400D03*
%TD*%
D19*
%TO.P,R603,1,1_1*%
%TO.N,/USB UART Bridge/CONN_USB+*%
X116424100Y-101930200D03*
%TO.P,R603,2,2_2*%
%TO.N,/USB UART Bridge/BRIDGE_USB+*%
X117324100Y-101930200D03*
%TD*%
D11*
%TO.P,C403,1*%
%TO.N,+5V*%
X118787000Y-71120000D03*
%TO.P,C403,2*%
%TO.N,GND*%
X117687000Y-71120000D03*
%TD*%
D20*
%TO.P,D201,1*%
%TO.N,/Input Power/VIN_BATT*%
X108254800Y-91456400D03*
%TO.P,D201,2*%
%TO.N,GND*%
X108254800Y-87156400D03*
%TD*%
D12*
%TO.P,R705,1,1_1*%
%TO.N,Net-(Q702-G)*%
X146468450Y-99433800D03*
%TO.P,R705,2,2_2*%
%TO.N,GND*%
X146468450Y-98533800D03*
%TD*%
D16*
%TO.P,C602,1*%
%TO.N,+5V_USB*%
X120430100Y-105698200D03*
%TO.P,C602,2*%
%TO.N,GND_USB*%
X120430100Y-106798200D03*
%TD*%
D21*
%TO.P,C610,1*%
%TO.N,+3.3V_USB*%
X126885000Y-104140000D03*
%TO.P,C610,2*%
%TO.N,GND_USB*%
X128385000Y-104140000D03*
%TD*%
%TO.P,C406,1*%
%TO.N,TACH_ANALOG*%
X121043000Y-70358000D03*
%TO.P,C406,2*%
%TO.N,GND*%
X122543000Y-70358000D03*
%TD*%
D13*
%TO.P,H813,1,1_1*%
%TO.N,GND*%
X99996540Y-109753400D03*
D14*
X99996540Y-109753400D03*
%TD*%
D19*
%TO.P,R405,1,1_1*%
%TO.N,Net-(U401-TACH+)*%
X121343000Y-72644000D03*
%TO.P,R405,2,2_2*%
%TO.N,GND*%
X122243000Y-72644000D03*
%TD*%
D11*
%TO.P,C405,1*%
%TO.N,Net-(U401-CP1)*%
X121243000Y-71628000D03*
%TO.P,C405,2*%
%TO.N,GND*%
X122343000Y-71628000D03*
%TD*%
D13*
%TO.P,H801,1,1_1*%
%TO.N,GND*%
X99517200Y-62204600D03*
D14*
X99517200Y-62204600D03*
%TD*%
D12*
%TO.P,R704,1,1_1*%
%TO.N,Net-(Q701-G)*%
X146468450Y-96131800D03*
%TO.P,R704,2,2_2*%
%TO.N,GND*%
X146468450Y-95231800D03*
%TD*%
%TO.P,R406,1,1_1*%
%TO.N,Net-(U401-EMIT)*%
X126365000Y-71940000D03*
%TO.P,R406,2,2_2*%
%TO.N,GND*%
X126365000Y-72840000D03*
%TD*%
D22*
%TO.P,C603,1*%
%TO.N,+5V_USB*%
X122174000Y-105245600D03*
%TO.P,C603,2*%
%TO.N,GND_USB*%
X122174000Y-103745600D03*
%TD*%
D19*
%TO.P,R604,1,1_1*%
%TO.N,/USB UART Bridge/CONN_USB-*%
X116424100Y-102946200D03*
%TO.P,R604,2,2_2*%
%TO.N,/USB UART Bridge/BRIDGE_USB-*%
X117324100Y-102946200D03*
%TD*%
%TO.P,R301,1,1_1*%
%TO.N,+5V*%
X127094400Y-93421200D03*
%TO.P,R301,2,2_2*%
%TO.N,POS5_PGOOD*%
X126194400Y-93421200D03*
%TD*%
D13*
%TO.P,H814,1,1_1*%
%TO.N,GND*%
X140284200Y-86842600D03*
D14*
X140284200Y-86842600D03*
%TD*%
D12*
%TO.P,R606,1,1_1*%
%TO.N,+3.3V_USB*%
X128143000Y-108122872D03*
%TO.P,R606,2,2_2*%
%TO.N,USB_UART_TX_ISO*%
X128143000Y-107222872D03*
%TD*%
D21*
%TO.P,C504,1*%
%TO.N,+5V*%
X134508200Y-76889000D03*
%TO.P,C504,2*%
%TO.N,GND*%
X136008200Y-76889000D03*
%TD*%
D23*
%TO.P,D601,1,K_1*%
%TO.N,/USB UART Bridge/CONN_USB+*%
X110006800Y-105873900D03*
%TO.P,D601,2,K_2*%
%TO.N,/USB UART Bridge/CONN_USB-*%
X111306800Y-105873900D03*
%TO.P,D601,3,A_3*%
%TO.N,GND_USB*%
X110656800Y-104098900D03*
%TD*%
D24*
%TO.P,D501,1,K1_1*%
%TO.N,PIC18F_ICSPCLK*%
X140951400Y-107087000D03*
%TO.P,D501,2,A_2*%
%TO.N,GND*%
X141451400Y-107087000D03*
%TO.P,D501,3,K2_3*%
%TO.N,PIC18F_ICSPDAT*%
X141951400Y-107087000D03*
%TO.P,D501,4,K3_4*%
%TO.N,~{PIC18F_MCLR}*%
X141951400Y-106407000D03*
%TO.P,D501,5,A_5*%
%TO.N,GND*%
X141451400Y-106407000D03*
%TO.P,D501,6,K4_6*%
%TO.N,+5V*%
X140951400Y-106407000D03*
%TD*%
D13*
%TO.P,H804,1,1_1*%
%TO.N,GND*%
X122097800Y-82219800D03*
D14*
X122097800Y-82219800D03*
%TD*%
D12*
%TO.P,R706,1,1_1*%
%TO.N,Net-(Q703-G)*%
X146468450Y-102964400D03*
%TO.P,R706,2,2_2*%
%TO.N,GND*%
X146468450Y-102064400D03*
%TD*%
%TO.P,R302,1,1_1*%
%TO.N,POS5_RUN*%
X127863600Y-83166800D03*
%TO.P,R302,2,2_2*%
%TO.N,VIN_PGOOD*%
X127863600Y-84066800D03*
%TD*%
D25*
%TO.P,L201,1,1_1*%
%TO.N,/Input Power/VIN_BATT*%
X108877300Y-95910400D03*
%TO.P,L201,2,2_2*%
%TO.N,/Input Power/VIN_FILT*%
X113728300Y-95910400D03*
%TD*%
D26*
%TO.P,Q301,1,G_1*%
%TO.N,POS5_RUN*%
X129135100Y-82966800D03*
%TO.P,Q301,2,S_2*%
%TO.N,GND*%
X129135100Y-84266800D03*
%TO.P,Q301,3,D_3*%
%TO.N,Net-(Q301-D)*%
X130910100Y-83616800D03*
%TD*%
D19*
%TO.P,R404,1,1_1*%
%TO.N,+5V*%
X122243000Y-73660000D03*
%TO.P,R404,2,2_2*%
%TO.N,Net-(U401-TACH+)*%
X121343000Y-73660000D03*
%TD*%
D27*
%TO.P,U601,1,USBDM_1*%
%TO.N,/USB UART Bridge/BRIDGE_USB-*%
X118543100Y-103838200D03*
%TO.P,U601,2,~{RESET}_2*%
%TO.N,unconnected-(U601-~{RESET}-Pad2)*%
X118993100Y-103838200D03*
%TO.P,U601,3,3V3OUT_3*%
%TO.N,+3.3V_USB*%
X119443100Y-103838200D03*
%TO.P,U601,4,VCC_4*%
%TO.N,+5V_USB*%
X119893100Y-103838200D03*
%TO.P,U601,5,GND_5*%
%TO.N,GND_USB*%
X120343100Y-103838200D03*
%TO.P,U601,6,CBUS0_6*%
%TO.N,unconnected-(U601-CBUS0-Pad6)*%
X120793100Y-103838200D03*
%TO.P,U601,7,TXD_7*%
%TO.N,USB_UART_RX_ISO*%
X120793100Y-101038200D03*
%TO.P,U601,8,~{RTS}_8*%
%TO.N,unconnected-(U601-~{RTS}-Pad8)*%
X120343100Y-101038200D03*
%TO.P,U601,9,VCCIO_9*%
%TO.N,+3.3V_USB*%
X119893100Y-101038200D03*
%TO.P,U601,10,RXD_10*%
%TO.N,USB_UART_TX_ISO*%
X119443100Y-101038200D03*
%TO.P,U601,11,~{CTS}_11*%
%TO.N,unconnected-(U601-~{CTS}-Pad11)*%
X118993100Y-101038200D03*
%TO.P,U601,12,USBDP_12*%
%TO.N,/USB UART Bridge/BRIDGE_USB+*%
X118543100Y-101038200D03*
D28*
%TO.P,U601,13,GND_13*%
%TO.N,GND_USB*%
X119073100Y-102853200D03*
X120263100Y-102853200D03*
X119073100Y-102023200D03*
X120263100Y-102023200D03*
%TD*%
D12*
%TO.P,R601,1,1_1*%
%TO.N,+5V*%
X128143000Y-97594000D03*
%TO.P,R601,2,2_2*%
%TO.N,USB_UART_TX*%
X128143000Y-98494000D03*
%TD*%
D26*
%TO.P,Q302,1,G_1*%
%TO.N,Net-(Q301-D)*%
X132208500Y-82966800D03*
%TO.P,Q302,2,S_2*%
%TO.N,GND*%
X132208500Y-84266800D03*
%TO.P,Q302,3,D_3*%
%TO.N,Net-(Q302-D)*%
X133983500Y-83616800D03*
%TD*%
D21*
%TO.P,C606,1*%
%TO.N,+5V*%
X126885000Y-101600000D03*
%TO.P,C606,2*%
%TO.N,GND*%
X128385000Y-101600000D03*
%TD*%
D11*
%TO.P,C605,1*%
%TO.N,+5V*%
X127085000Y-100330000D03*
%TO.P,C605,2*%
%TO.N,GND*%
X128185000Y-100330000D03*
%TD*%
D16*
%TO.P,C203,1*%
%TO.N,Net-(U201-DVDT)*%
X112572800Y-87740400D03*
%TO.P,C203,2*%
%TO.N,Net-(U201-PAD)*%
X112572800Y-88840400D03*
%TD*%
D12*
%TO.P,R605,1,1_1*%
%TO.N,+3.3V_USB*%
X127093505Y-108122872D03*
%TO.P,R605,2,2_2*%
%TO.N,USB_UART_RX_ISO*%
X127093505Y-107222872D03*
%TD*%
D11*
%TO.P,C609,1*%
%TO.N,+3.3V_USB*%
X127085000Y-105410000D03*
%TO.P,C609,2*%
%TO.N,GND_USB*%
X128185000Y-105410000D03*
%TD*%
D13*
%TO.P,H803,1,1_1*%
%TO.N,GND*%
X155600400Y-109753400D03*
D14*
X155600400Y-109753400D03*
%TD*%
D12*
%TO.P,R503,1,1_1*%
%TO.N,+5V*%
X135004200Y-70343000D03*
%TO.P,R503,2,2_2*%
%TO.N,I2C_SCL*%
X135004200Y-71243000D03*
%TD*%
D11*
%TO.P,C601,1*%
%TO.N,+3.3V_USB*%
X120227000Y-99923600D03*
%TO.P,C601,2*%
%TO.N,GND_USB*%
X121327000Y-99923600D03*
%TD*%
D29*
%TO.P,TP201,1,1_1*%
%TO.N,GND*%
X118846600Y-61823600D03*
%TD*%
D30*
%TO.P,J401,1,Pin_1_1*%
%TO.N,/Input Signal/TACH_IN*%
X104046006Y-70016356D03*
X99042206Y-70016356D03*
X104046006Y-77026756D03*
X99042206Y-77026756D03*
%TD*%
D29*
%TO.P,J501,1,Pin_1_1*%
%TO.N,~{PIC18F_MCLR}*%
X150220200Y-109753400D03*
D31*
%TO.P,J501,2,Pin_2_2*%
%TO.N,+5V*%
X147680200Y-109753400D03*
%TO.P,J501,3,Pin_3_3*%
%TO.N,GND*%
X145140200Y-109753400D03*
%TO.P,J501,4,Pin_4_4*%
%TO.N,PIC18F_ICSPDAT*%
X142600200Y-109753400D03*
%TO.P,J501,5,Pin_5_5*%
%TO.N,PIC18F_ICSPCLK*%
X140060200Y-109753400D03*
%TO.P,J501,6,Pin_6_6*%
%TO.N,unconnected-(J501-Pin_6-Pad6)*%
X137520200Y-109753400D03*
%TO.P,J501,7,Pin_7_7*%
%TO.N,unconnected-(J501-Pin_7-Pad7)*%
X134980200Y-109753400D03*
D32*
%TO.P,J501,8,Pin_8_8*%
%TO.N,unconnected-(J501-Pin_8-Pad8)*%
X132440200Y-109753400D03*
%TD*%
D30*
%TO.P,J201,1,Pin_1_1*%
%TO.N,/Input Power/VIN_BATT*%
X99015550Y-95796350D03*
X104019350Y-95796350D03*
X99015550Y-88785950D03*
X104019350Y-88785950D03*
%TD*%
D33*
%TO.N,Vin*%
X120700800Y-91846400D03*
X114350800Y-86512400D03*
X119684800Y-91846400D03*
X114350800Y-85496400D03*
%TO.N,GND*%
X107856374Y-62687199D03*
X141441000Y-105978800D03*
X120167400Y-72390000D03*
X145237200Y-107289600D03*
X107445237Y-99139270D03*
X107752382Y-86639400D03*
X133324600Y-77139800D03*
X108768382Y-87655400D03*
X129540000Y-101803200D03*
X123748800Y-88798400D03*
X123748800Y-89814400D03*
X123977400Y-93167200D03*
X119684800Y-89814400D03*
X146468450Y-94538800D03*
X135512200Y-74857000D03*
X141441000Y-107629800D03*
X122910600Y-72669400D03*
X106937237Y-99647270D03*
X107856374Y-61671199D03*
X129184400Y-84709000D03*
X120700800Y-89814400D03*
X121716800Y-89814400D03*
X127736600Y-73050400D03*
X146443050Y-97840800D03*
X119684800Y-88798400D03*
X111300008Y-86509329D03*
X122732800Y-88798400D03*
X123444000Y-70358000D03*
X135512200Y-73841000D03*
X127736600Y-73050400D03*
X146468450Y-101396800D03*
X107953237Y-98631270D03*
X108768382Y-86639400D03*
X111300008Y-85493329D03*
X132207000Y-84785200D03*
X123469400Y-92659200D03*
X106840374Y-61671199D03*
X107752382Y-87655400D03*
X107953237Y-99647270D03*
X106840374Y-62687199D03*
X129540000Y-99110800D03*
X123977400Y-92151200D03*
X112496600Y-93421200D03*
X117729000Y-70434200D03*
X135966200Y-77647800D03*
X135004200Y-74349000D03*
X106937237Y-98631270D03*
X108260382Y-87147400D03*
X134496200Y-73841000D03*
X107348374Y-62179199D03*
X122961400Y-92151200D03*
X123063000Y-71602600D03*
X122732800Y-89814400D03*
X121716800Y-88798400D03*
X134496200Y-74857000D03*
X115951000Y-72390000D03*
X111633000Y-73177400D03*
X122961400Y-93167200D03*
X120700800Y-88798400D03*
%TO.N,Net-(C503-Pad1)*%
X132101800Y-77149800D03*
%TO.N,+5V*%
X147650200Y-107289600D03*
X125755400Y-101777800D03*
X155549600Y-93167200D03*
X125730000Y-99136200D03*
X157353000Y-93167200D03*
X128143000Y-97104200D03*
X135483600Y-82372200D03*
X127228600Y-89814400D03*
X140944600Y-105638600D03*
X127228600Y-88798400D03*
X153746200Y-93167200D03*
X111633000Y-71856600D03*
X126212600Y-89814400D03*
X125196600Y-88798400D03*
X125196600Y-89814400D03*
X135001000Y-69926200D03*
X133324600Y-76504800D03*
X128244600Y-89814400D03*
X122910600Y-73685400D03*
X127025400Y-96139000D03*
X130200400Y-70866000D03*
X123139200Y-90398600D03*
X129768600Y-81534000D03*
X134543800Y-77647800D03*
X118389400Y-70434200D03*
X136017000Y-69926200D03*
X126212600Y-88798400D03*
X128244600Y-88798400D03*
X127076200Y-93929200D03*
X127127000Y-97104200D03*
%TO.N,I2C_SDA*%
X117068600Y-68580000D03*
X136017000Y-72009000D03*
%TO.N,Net-(U201-ILIM)*%
X111683800Y-87471500D03*
%TO.N,Net-(U201-PAD)*%
X113080800Y-89306400D03*
X111556800Y-90322400D03*
X111556800Y-89306400D03*
X112318800Y-89814400D03*
X113080800Y-90322400D03*
%TO.N,+3.3V_USB*%
X127101600Y-108635800D03*
X120599200Y-99923600D03*
X125730000Y-106680000D03*
X118922800Y-105689400D03*
X128143000Y-108635800D03*
X125755400Y-104038400D03*
%TO.N,GND_USB*%
X129540000Y-106705400D03*
X120263100Y-102853200D03*
X105587800Y-104038400D03*
X107721400Y-106146600D03*
X120263100Y-102023200D03*
X119405400Y-107442000D03*
X129540000Y-104063800D03*
X121335800Y-100558600D03*
X114325400Y-106197400D03*
X109372400Y-104089200D03*
X112420400Y-104165400D03*
X119073100Y-102853200D03*
X120421400Y-107442000D03*
X122174000Y-103047800D03*
X110642400Y-104978200D03*
X119073100Y-102023200D03*
%TO.N,USB_UART_RX*%
X127127000Y-99110800D03*
X129311400Y-98526600D03*
%TO.N,/Input Power/VIN_FILT*%
X113238782Y-96418400D03*
X114254782Y-96418400D03*
X113238782Y-95402400D03*
X114935000Y-92608400D03*
X113746782Y-95910400D03*
X114254782Y-95402400D03*
%TO.N,Net-(D701-KB)*%
X153746200Y-94818200D03*
%TO.N,Net-(D701-KR)*%
X155549600Y-94818200D03*
%TO.N,Net-(D701-KG)*%
X157327600Y-94818200D03*
%TO.N,/USB UART Bridge/CONN_USB+*%
X110388400Y-105943400D03*
X115974099Y-101930200D03*
%TO.N,Net-(Q702-G)*%
X146468450Y-99161600D03*
%TO.N,+5V_USB*%
X108127800Y-103886000D03*
%TO.N,TACH_ANALOG*%
X119507000Y-68656200D03*
X119507000Y-70815200D03*
%TO.N,Net-(U401-TACH+)*%
X121335800Y-74295000D03*
%TO.N,Net-(U401-CP1)*%
X120015000Y-71704200D03*
%TO.N,Net-(Q701-G)*%
X146443050Y-95783400D03*
%TO.N,Net-(U401-EMIT)*%
X124968000Y-71780400D03*
%TO.N,/USB UART Bridge/CONN_USB-*%
X111429800Y-108178600D03*
X115974099Y-102946200D03*
%TO.N,POS5_PGOOD*%
X125704600Y-93395800D03*
X133248400Y-94538800D03*
%TO.N,USB_UART_TX_ISO*%
X124206000Y-106883200D03*
X128143000Y-106680000D03*
%TO.N,~{PIC18F_MCLR}*%
X133324600Y-75844400D03*
X139090400Y-76225400D03*
%TO.N,Net-(Q703-G)*%
X146443050Y-102666800D03*
%TO.N,POS5_RUN*%
X122504200Y-90424000D03*
%TO.N,VIN_PGOOD*%
X127863600Y-84683600D03*
%TO.N,Net-(Q301-D)*%
X132207000Y-83515200D03*
%TO.N,USB_UART_RX_ISO*%
X127101600Y-106680000D03*
%TO.N,USB_UART_TX*%
X128143000Y-99110800D03*
%TO.N,Net-(U201-DVDT)*%
X112369600Y-87369900D03*
%TO.N,I2C_SCL*%
X116890800Y-70434200D03*
X134950200Y-71882000D03*
%TO.N,TACH_PULSE*%
X118440200Y-74320400D03*
X139954000Y-73126600D03*
%TO.N,LED_B*%
X132384800Y-73939400D03*
X145313400Y-94411800D03*
%TO.N,LED_R*%
X132130800Y-75285600D03*
X144068800Y-92583000D03*
%TO.N,LED_G*%
X132130800Y-74574400D03*
X145313400Y-101295200D03*
%TD*%
%TO.N,GND*%
D34*
X128385000Y-101600000D02*
X129336800Y-101600000D01*
X122343000Y-71628000D02*
X123037600Y-71628000D01*
D35*
X99996540Y-101577860D02*
X101927130Y-99647270D01*
D34*
X122543000Y-70358000D02*
X123444000Y-70358000D01*
X128385000Y-101130800D02*
X128185000Y-100930800D01*
X141451400Y-107619400D02*
X141441000Y-107629800D01*
D35*
X101927130Y-99647270D02*
X106937237Y-99647270D01*
D34*
X146468450Y-97866200D02*
X146443050Y-97840800D01*
X129135100Y-84659700D02*
X129184400Y-84709000D01*
X126365000Y-72840000D02*
X127526200Y-72840000D01*
X132208500Y-84266800D02*
X132208500Y-84783700D01*
X132208500Y-84783700D02*
X132207000Y-84785200D01*
X122885200Y-72644000D02*
X122910600Y-72669400D01*
X135966200Y-77647800D02*
X135966200Y-76931000D01*
X129135100Y-84266800D02*
X129135100Y-84659700D01*
D35*
X99996540Y-109753400D02*
X99996540Y-101577860D01*
D34*
X112496600Y-92811600D02*
X112496600Y-93421200D01*
X113292800Y-92608400D02*
X112699800Y-92608400D01*
X117687000Y-70476200D02*
X117729000Y-70434200D01*
X135966200Y-76931000D02*
X136008200Y-76889000D01*
X128185000Y-100930800D02*
X128185000Y-100330000D01*
X129336800Y-101600000D02*
X129540000Y-101803200D01*
X141451400Y-105989200D02*
X141441000Y-105978800D01*
X123037600Y-71628000D02*
X123063000Y-71602600D01*
X146468450Y-94538800D02*
X146468450Y-95231800D01*
X128385000Y-101600000D02*
X128385000Y-101130800D01*
X146468450Y-98533800D02*
X146468450Y-97866200D01*
X112699800Y-92608400D02*
X112496600Y-92811600D01*
X122243000Y-72644000D02*
X122885200Y-72644000D01*
X133309200Y-77124400D02*
X133324600Y-77139800D01*
X132753400Y-77124400D02*
X133309200Y-77124400D01*
X141451400Y-106407000D02*
X141451400Y-105989200D01*
X146468450Y-102064400D02*
X146468450Y-101396800D01*
X117687000Y-71120000D02*
X117687000Y-70476200D01*
X127526200Y-72840000D02*
X127736600Y-73050400D01*
X141451400Y-107087000D02*
X141451400Y-107619400D01*
%TO.N,Net-(C503-Pad1)*%
X131678800Y-77149800D02*
X131653400Y-77124400D01*
X132101800Y-77149800D02*
X131678800Y-77149800D01*
%TO.N,+5V*%
X122885200Y-73660000D02*
X122910600Y-73685400D01*
X135483600Y-82866800D02*
X135483600Y-82372200D01*
X127085000Y-100829200D02*
X126885000Y-101029200D01*
X136020200Y-70343000D02*
X136020200Y-69929400D01*
X157349600Y-93163800D02*
X157353000Y-93167200D01*
X153749600Y-91805400D02*
X153749600Y-93163800D01*
X135004200Y-69929400D02*
X135001000Y-69926200D01*
X128143000Y-97594000D02*
X128143000Y-97104200D01*
X157349600Y-91805400D02*
X157349600Y-93163800D01*
X136020200Y-69929400D02*
X136017000Y-69926200D01*
X125933200Y-101600000D02*
X125755400Y-101777800D01*
X155549600Y-91805400D02*
X155549600Y-93167200D01*
X127094400Y-93911000D02*
X127076200Y-93929200D01*
X127085000Y-100330000D02*
X127085000Y-100829200D01*
X140951400Y-105645400D02*
X140944600Y-105638600D01*
X122243000Y-73660000D02*
X122885200Y-73660000D01*
X134508200Y-77612200D02*
X134543800Y-77647800D01*
X134508200Y-76889000D02*
X134508200Y-77612200D01*
X118787000Y-71120000D02*
X118787000Y-70831800D01*
X127127000Y-97594000D02*
X127127000Y-97104200D01*
X140951400Y-106407000D02*
X140951400Y-105645400D01*
X126885000Y-101600000D02*
X125933200Y-101600000D01*
X126885000Y-101029200D02*
X126885000Y-101600000D01*
X153749600Y-93163800D02*
X153746200Y-93167200D01*
X135004200Y-70343000D02*
X135004200Y-69929400D01*
X127094400Y-93421200D02*
X127094400Y-93911000D01*
X118787000Y-70831800D02*
X118389400Y-70434200D01*
%TO.N,I2C_SDA*%
X136017000Y-71246200D02*
X136020200Y-71243000D01*
X117068600Y-68580000D02*
X118008400Y-67640200D01*
X137058400Y-71043800D02*
X136859200Y-71243000D01*
X136017000Y-72009000D02*
X136017000Y-71246200D01*
X135458200Y-67640200D02*
X137058400Y-69240400D01*
X137058400Y-69240400D02*
X137058400Y-71043800D01*
X136859200Y-71243000D02*
X136020200Y-71243000D01*
X118008400Y-67640200D02*
X135458200Y-67640200D01*
%TO.N,Net-(U201-ILIM)*%
X111556800Y-87840400D02*
X111556800Y-87598500D01*
X111556800Y-87598500D02*
X111683800Y-87471500D01*
%TO.N,Net-(U201-PAD)*%
X111656800Y-88840400D02*
X111556800Y-88740400D01*
X112572800Y-88840400D02*
X111656800Y-88840400D01*
X111556800Y-88740400D02*
X111556800Y-89306400D01*
%TO.N,Net-(Q302-D)*%
X135483600Y-83870800D02*
X135483600Y-84366800D01*
X133983500Y-83616800D02*
X135229600Y-83616800D01*
X135229600Y-83616800D02*
X135483600Y-83870800D01*
%TO.N,+3.3V_USB*%
X125857000Y-104140000D02*
X125755400Y-104038400D01*
X126885000Y-104140000D02*
X126885000Y-104583800D01*
X119443100Y-105669200D02*
X119443100Y-103838200D01*
X127093505Y-108627705D02*
X127101600Y-108635800D01*
X119893100Y-101038200D02*
X119893100Y-100578900D01*
X126885000Y-104583800D02*
X127085000Y-104783800D01*
D36*
X118931600Y-105698200D02*
X118922800Y-105689400D01*
D34*
X128143000Y-108122872D02*
X128143000Y-108635800D01*
D36*
X119414100Y-105698200D02*
X118931600Y-105698200D01*
D34*
X126885000Y-104140000D02*
X125857000Y-104140000D01*
X127085000Y-104783800D02*
X127085000Y-105410000D01*
X127093505Y-108122872D02*
X127093505Y-108627705D01*
D36*
X120227000Y-99923600D02*
X120599200Y-99923600D01*
D34*
X119414100Y-105698200D02*
X119443100Y-105669200D01*
X119893100Y-100578900D02*
X120227000Y-100245000D01*
X120227000Y-100245000D02*
X120227000Y-99923600D01*
%TO.N,GND_USB*%
X128385000Y-104140000D02*
X129463800Y-104140000D01*
X121327000Y-99923600D02*
X121327000Y-100549800D01*
X110656800Y-104098900D02*
X110656800Y-104963800D01*
X120430100Y-107433300D02*
X120421400Y-107442000D01*
X110656800Y-104963800D02*
X110642400Y-104978200D01*
D37*
X122174000Y-103745600D02*
X122174000Y-103047800D01*
D34*
X128385000Y-104609200D02*
X128185000Y-104809200D01*
X121327000Y-100549800D02*
X121335800Y-100558600D01*
X120430100Y-106798200D02*
X120430100Y-107433300D01*
X129463800Y-104140000D02*
X129540000Y-104063800D01*
X128385000Y-104140000D02*
X128385000Y-104609200D01*
X120343100Y-103838200D02*
X120343100Y-102933200D01*
X119414100Y-106798200D02*
X119414100Y-107433300D01*
X120343100Y-102933200D02*
X120263100Y-102853200D01*
X119414100Y-107433300D02*
X119405400Y-107442000D01*
X128185000Y-104809200D02*
X128185000Y-105410000D01*
%TO.N,USB_UART_RX*%
X128329397Y-99560800D02*
X129311400Y-98578797D01*
X127127000Y-99110800D02*
X127577000Y-99560800D01*
X127577000Y-99560800D02*
X128329397Y-99560800D01*
X127127000Y-99110800D02*
X127127000Y-98494000D01*
X129311400Y-98578797D02*
X129311400Y-98526600D01*
%TO.N,/Input Power/VIN_FILT*%
X114392800Y-92608400D02*
X114935000Y-92608400D01*
%TO.N,Net-(D701-KB)*%
X153749600Y-94821600D02*
X153746200Y-94818200D01*
X153749600Y-96205400D02*
X153749600Y-94821600D01*
%TO.N,Net-(D701-KR)*%
X155549600Y-96205400D02*
X155549600Y-94818200D01*
%TO.N,Net-(D701-KG)*%
X157349600Y-96205400D02*
X157349600Y-94840200D01*
X157349600Y-94840200D02*
X157327600Y-94818200D01*
%TO.N,/USB UART Bridge/CONN_USB+*%
D38*
X115974099Y-101930200D02*
X115745099Y-102159200D01*
X111314234Y-101676600D02*
X110377800Y-102613034D01*
X110318900Y-105873900D02*
X110388400Y-105943400D01*
X110006800Y-105873900D02*
X110318900Y-105873900D01*
X115745099Y-102159200D02*
X114491766Y-102159200D01*
X110377800Y-102613034D02*
X110377800Y-103252552D01*
X110063400Y-105123549D02*
X110006800Y-105180149D01*
X114491766Y-102159200D02*
X114009166Y-101676600D01*
X110063400Y-103566952D02*
X110063400Y-105123549D01*
X110377800Y-103252552D02*
X110063400Y-103566952D01*
X116424100Y-101930200D02*
X115974099Y-101930200D01*
X110006800Y-105180149D02*
X110006800Y-105873900D01*
X114009166Y-101676600D02*
X111314234Y-101676600D01*
%TO.N,/USB UART Bridge/BRIDGE_USB+*%
X118116100Y-101038200D02*
X118514100Y-101038200D01*
X117324100Y-101930200D02*
X117324100Y-101830200D01*
X117324100Y-101830200D02*
X118116100Y-101038200D01*
%TO.N,/Input Power/VIN_BATT*%
D39*
X108877300Y-94069100D02*
X108877300Y-95910400D01*
X108877300Y-95910400D02*
X104133400Y-95910400D01*
X104019350Y-88785950D02*
X99015550Y-88785950D01*
X104019350Y-95796350D02*
X104019350Y-88785950D01*
X108254800Y-91456400D02*
X108254800Y-93446600D01*
X108254800Y-93446600D02*
X108877300Y-94069100D01*
X104133400Y-95910400D02*
X104019350Y-95796350D01*
X99015550Y-88785950D02*
X99015550Y-95796350D01*
X99015550Y-95796350D02*
X104019350Y-95796350D01*
%TO.N,Net-(Q702-G)*%
D34*
X146468450Y-99433800D02*
X146468450Y-99161600D01*
%TO.N,+5V_USB*%
X119893100Y-103838200D02*
X119893100Y-104424500D01*
D37*
X120430100Y-105698200D02*
X121123800Y-105698200D01*
D36*
X108635800Y-107188000D02*
X108635800Y-104394000D01*
D34*
X119893100Y-104424500D02*
X120430100Y-104961500D01*
X120430100Y-104961500D02*
X120430100Y-105698200D01*
D37*
X121576400Y-105245600D02*
X122174000Y-105245600D01*
D36*
X110871000Y-109423200D02*
X108635800Y-107188000D01*
D37*
X121123800Y-105698200D02*
X121576400Y-105245600D01*
D36*
X122174000Y-105245600D02*
X122174000Y-108127800D01*
X122174000Y-108127800D02*
X120878600Y-109423200D01*
X120878600Y-109423200D02*
X110871000Y-109423200D01*
X108635800Y-104394000D02*
X108127800Y-103886000D01*
%TO.N,TACH_ANALOG*%
D34*
X121043000Y-70358000D02*
X119964200Y-70358000D01*
X119507000Y-68656200D02*
X119507000Y-70815200D01*
X119964200Y-70358000D02*
X119507000Y-70815200D01*
%TO.N,Net-(U401-TACH+)*%
X121343000Y-73660000D02*
X121343000Y-74287800D01*
X121343000Y-74287800D02*
X121335800Y-74295000D01*
X121343000Y-72644000D02*
X121343000Y-73660000D01*
%TO.N,Net-(U401-CP1)*%
X121243000Y-71628000D02*
X120091200Y-71628000D01*
X120091200Y-71628000D02*
X120015000Y-71704200D01*
%TO.N,Net-(Q701-G)*%
X146468450Y-95808800D02*
X146443050Y-95783400D01*
X146468450Y-96131800D02*
X146468450Y-95808800D01*
%TO.N,Net-(U401-EMIT)*%
X126365000Y-71940000D02*
X125127600Y-71940000D01*
X125127600Y-71940000D02*
X124968000Y-71780400D01*
%TO.N,/USB UART Bridge/CONN_USB-*%
D38*
X115974099Y-102946200D02*
X115745099Y-102717200D01*
X111235800Y-105109149D02*
X111306800Y-105180149D01*
X111306800Y-108055600D02*
X111429800Y-108178600D01*
X115745099Y-102717200D02*
X114260634Y-102717200D01*
X111306800Y-105873900D02*
X111306800Y-108055600D01*
X111545366Y-102234600D02*
X110935800Y-102844166D01*
X116424100Y-102946200D02*
X115974099Y-102946200D01*
X110935800Y-103252552D02*
X111235800Y-103552552D01*
X114260634Y-102717200D02*
X113778034Y-102234600D01*
X110935800Y-102844166D02*
X110935800Y-103252552D01*
X111235800Y-103552552D02*
X111235800Y-105109149D01*
X113778034Y-102234600D02*
X111545366Y-102234600D01*
X111306800Y-105180149D02*
X111306800Y-105873900D01*
%TO.N,/USB UART Bridge/BRIDGE_USB-*%
X117324100Y-103046200D02*
X118116100Y-103838200D01*
X117324100Y-102946200D02*
X117324100Y-103046200D01*
X118116100Y-103838200D02*
X118514100Y-103838200D01*
%TO.N,POS5_PGOOD*%
D34*
X126194400Y-93421200D02*
X126194400Y-94114200D01*
X126169000Y-93395800D02*
X126194400Y-93421200D01*
X126619000Y-94538800D02*
X133248400Y-94538800D01*
X125704600Y-93395800D02*
X126169000Y-93395800D01*
X126194400Y-94114200D02*
X126619000Y-94538800D01*
%TO.N,USB_UART_TX_ISO*%
X122123200Y-99212400D02*
X119761000Y-99212400D01*
X128143000Y-106680000D02*
X128143000Y-107222872D01*
X123342400Y-106019600D02*
X123342400Y-100431600D01*
X123342400Y-100431600D02*
X122123200Y-99212400D01*
X119761000Y-99212400D02*
X119443100Y-99530300D01*
X124206000Y-106883200D02*
X123342400Y-106019600D01*
X119443100Y-99530300D02*
X119443100Y-101038200D01*
%TO.N,PIC18F_ICSPCLK*%
X140537600Y-107087000D02*
X140951400Y-107087000D01*
X140060200Y-107564400D02*
X140537600Y-107087000D01*
X140060200Y-109753400D02*
X140060200Y-107564400D01*
%TO.N,PIC18F_ICSPDAT*%
X142600200Y-109753400D02*
X142600200Y-107345000D01*
X142342200Y-107087000D02*
X141951400Y-107087000D01*
X142600200Y-107345000D02*
X142342200Y-107087000D01*
%TO.N,~{PIC18F_MCLR}*%
X150220200Y-107345000D02*
X150220200Y-109753400D01*
X133324600Y-75844400D02*
X138709400Y-75844400D01*
X149282200Y-106407000D02*
X150220200Y-107345000D01*
X138709400Y-75844400D02*
X139090400Y-76225400D01*
X141951400Y-106407000D02*
X149282200Y-106407000D01*
%TO.N,Net-(Q703-G)*%
X146468450Y-102692200D02*
X146443050Y-102666800D01*
X146468450Y-102964400D02*
X146468450Y-102692200D01*
%TO.N,POS5_RUN*%
X129135100Y-82966800D02*
X128589800Y-82966800D01*
X126281600Y-83166800D02*
X127863600Y-83166800D01*
X125450600Y-87376000D02*
X125958600Y-86868000D01*
X122504200Y-90424000D02*
X122250200Y-90170000D01*
X122250200Y-90170000D02*
X122250200Y-88061800D01*
X122250200Y-88061800D02*
X122936000Y-87376000D01*
X125958600Y-86868000D02*
X125958600Y-83489800D01*
X128389800Y-83166800D02*
X127863600Y-83166800D01*
X125958600Y-83489800D02*
X126281600Y-83166800D01*
X122936000Y-87376000D02*
X125450600Y-87376000D01*
X128589800Y-82966800D02*
X128389800Y-83166800D01*
%TO.N,VIN_PGOOD*%
X127863600Y-84683600D02*
X127863600Y-84066800D01*
%TO.N,Net-(Q301-D)*%
X132208500Y-83513700D02*
X132207000Y-83515200D01*
X132208500Y-82966800D02*
X132208500Y-83513700D01*
X130910100Y-83616800D02*
X132105400Y-83616800D01*
X132105400Y-83616800D02*
X132207000Y-83515200D01*
%TO.N,USB_UART_RX_ISO*%
X121967800Y-101038200D02*
X122885200Y-101955600D01*
X126253928Y-107222872D02*
X127093505Y-107222872D01*
X127101600Y-106680000D02*
X127101600Y-107214777D01*
X122885200Y-101955600D02*
X122885200Y-106349800D01*
X126085600Y-107391200D02*
X126253928Y-107222872D01*
X122885200Y-106349800D02*
X123926600Y-107391200D01*
X127101600Y-107214777D02*
X127093505Y-107222872D01*
X123926600Y-107391200D02*
X126085600Y-107391200D01*
X120793100Y-101038200D02*
X121967800Y-101038200D01*
%TO.N,USB_UART_TX*%
X128143000Y-99110800D02*
X128143000Y-98494000D01*
%TO.N,Net-(U201-DVDT)*%
X112572800Y-87740400D02*
X112572800Y-87573100D01*
X112572800Y-87573100D02*
X112369600Y-87369900D01*
%TO.N,I2C_SCL*%
X117068600Y-70307200D02*
X116941600Y-70434200D01*
X118338600Y-68072000D02*
X117068600Y-69342000D01*
X116941600Y-70434200D02*
X116890800Y-70434200D01*
X117068600Y-69342000D02*
X117068600Y-70307200D01*
X134239000Y-71145400D02*
X134239000Y-69215000D01*
X133096000Y-68072000D02*
X118338600Y-68072000D01*
X134239000Y-69215000D02*
X133096000Y-68072000D01*
X135004200Y-71828000D02*
X134950200Y-71882000D01*
X135004200Y-71243000D02*
X135004200Y-71828000D01*
X134336600Y-71243000D02*
X134239000Y-71145400D01*
X135004200Y-71243000D02*
X134336600Y-71243000D01*
%TO.N,/Input Signal/TACH_IN*%
D39*
X104046006Y-70016356D02*
X99042206Y-70016356D01*
X104046006Y-77026756D02*
X104046006Y-70016356D01*
X99042206Y-77026756D02*
X99042206Y-70016356D01*
X99042206Y-77026756D02*
X104046006Y-77026756D01*
%TO.N,TACH_PULSE*%
D34*
X118999000Y-74879200D02*
X128854200Y-74879200D01*
X128854200Y-74879200D02*
X131191000Y-72542400D01*
X139369800Y-72542400D02*
X139954000Y-73126600D01*
X118440200Y-74320400D02*
X118999000Y-74879200D01*
X131191000Y-72542400D02*
X139369800Y-72542400D01*
%TO.N,LED_B*%
X145313400Y-85217000D02*
X141173200Y-81076800D01*
X141173200Y-75133200D02*
X139039600Y-72999600D01*
X133324600Y-72999600D02*
X132384800Y-73939400D01*
X145313400Y-94411800D02*
X145313400Y-85217000D01*
X139039600Y-72999600D02*
X133324600Y-72999600D01*
X141173200Y-81076800D02*
X141173200Y-75133200D01*
%TO.N,LED_R*%
X144068800Y-85623400D02*
X139827000Y-81381600D01*
X139827000Y-75920600D02*
X139213400Y-75307000D01*
X132152200Y-75307000D02*
X132130800Y-75285600D01*
X144068800Y-92583000D02*
X144068800Y-85623400D01*
X139213400Y-75307000D02*
X132152200Y-75307000D01*
X139827000Y-81381600D02*
X139827000Y-75920600D01*
%TO.N,LED_G*%
X144703800Y-85445600D02*
X144703800Y-93319600D01*
X143941800Y-100101400D02*
X145135600Y-101295200D01*
X145135600Y-101295200D02*
X145313400Y-101295200D01*
X140487400Y-75260200D02*
X140487400Y-81229200D01*
X132613400Y-74574400D02*
X133796800Y-73391000D01*
X140487400Y-81229200D02*
X144703800Y-85445600D01*
X133796800Y-73391000D02*
X138618200Y-73391000D01*
X138618200Y-73391000D02*
X140487400Y-75260200D01*
X143941800Y-94081600D02*
X143941800Y-100101400D01*
X132130800Y-74574400D02*
X132613400Y-74574400D01*
X144703800Y-93319600D02*
X143941800Y-94081600D01*
%TD*%
%TA.AperFunction,Conductor*%
%TO.N,Net-(U201-PAD)*%
G36*
X113486989Y-88498359D02*
G01*
X113495768Y-88501996D01*
X113495769Y-88501996D01*
X113495770Y-88501996D01*
X113495771Y-88501997D01*
X113495778Y-88502000D01*
X113529598Y-88535817D01*
X113531011Y-88539228D01*
X113533240Y-88544609D01*
X113538000Y-88568531D01*
X113538000Y-92155968D01*
X113533240Y-92179892D01*
X113529598Y-92188682D01*
X113495784Y-92222497D01*
X113489757Y-92224994D01*
X113486992Y-92226139D01*
X113463069Y-92230900D01*
X112980240Y-92230900D01*
X112961646Y-92234598D01*
X112961647Y-92234599D01*
X112949087Y-92237097D01*
X112946006Y-92237400D01*
X112943049Y-92238297D01*
X112900877Y-92266476D01*
X112872700Y-92308646D01*
X112872697Y-92308651D01*
X112872696Y-92308654D01*
X112870758Y-92318401D01*
X112861425Y-92340932D01*
X112854180Y-92351774D01*
X112820370Y-92376854D01*
X112817144Y-92377833D01*
X112815917Y-92378205D01*
X112797764Y-92380900D01*
X112654541Y-92380900D01*
X112570934Y-92415532D01*
X112570932Y-92415533D01*
X112303733Y-92682732D01*
X112303732Y-92682734D01*
X112269100Y-92766341D01*
X112269100Y-92812868D01*
X112264340Y-92836792D01*
X112260698Y-92845582D01*
X112226884Y-92879397D01*
X112220857Y-92881894D01*
X112218092Y-92883039D01*
X112194169Y-92887800D01*
X110542000Y-92887800D01*
X110497806Y-92869494D01*
X110479500Y-92825300D01*
X110479500Y-90244398D01*
X110461401Y-90054480D01*
X110461401Y-90054479D01*
X110402958Y-89859604D01*
X110388606Y-89824956D01*
X110306158Y-89667119D01*
X110179599Y-89507825D01*
X110179597Y-89507823D01*
X110179596Y-89507822D01*
X110023564Y-89377268D01*
X109844448Y-89280796D01*
X109844449Y-89280796D01*
X109809806Y-89266446D01*
X109809801Y-89266444D01*
X109809800Y-89266443D01*
X109809796Y-89266442D01*
X109721366Y-89239310D01*
X109684487Y-89208847D01*
X109677200Y-89179560D01*
X109677200Y-88568531D01*
X109681958Y-88544613D01*
X109681961Y-88544607D01*
X109685599Y-88535822D01*
X109719422Y-88501999D01*
X109728213Y-88498357D01*
X109752131Y-88493600D01*
X113463069Y-88493600D01*
X113486989Y-88498359D01*
G37*
%TD.AperFunction*%
%TD*%
%TA.AperFunction,Conductor*%
%TO.N,/Input Power/VIN_BATT*%
G36*
X105144952Y-87593552D02*
G01*
X106202715Y-88651315D01*
X106212680Y-88665699D01*
X106262789Y-88776019D01*
X106262792Y-88776023D01*
X106262793Y-88776026D01*
X106390981Y-88961054D01*
X106550146Y-89120219D01*
X106735174Y-89248407D01*
X106735178Y-89248408D01*
X106735180Y-89248410D01*
X106845501Y-89298520D01*
X106859885Y-89308485D01*
X107746800Y-90195400D01*
X109425000Y-90195400D01*
X109459648Y-90209752D01*
X109474000Y-90244400D01*
X109474000Y-94259400D01*
X109840648Y-94626048D01*
X109855000Y-94660696D01*
X109855000Y-97283800D01*
X109840648Y-97318448D01*
X109806000Y-97332800D01*
X97813600Y-97332800D01*
X97778952Y-97318448D01*
X97764600Y-97283800D01*
X97764600Y-87628200D01*
X97778952Y-87593552D01*
X97813600Y-87579200D01*
X105110304Y-87579200D01*
X105144952Y-87593552D01*
G37*
%TD.AperFunction*%
%TD*%
M02*
