%TF.GenerationSoftware,KiCad,Pcbnew,10.0.3*%
%TF.CreationDate,2026-07-02T20:43:44-05:00*%
%TF.ProjectId,HEI_Shift_Light,4845495f-5368-4696-9674-5f4c69676874,rev?*%
%TF.SameCoordinates,Original*%
%TF.FileFunction,Soldermask,Top*%
%TF.FilePolarity,Negative*%
%FSLAX46Y46*%
G04 Gerber Fmt 4.6, Leading zero omitted, Abs format (unit mm)*
G04 Created by KiCad (PCBNEW 10.0.3) date 2026-07-02 20:43:44*
%MOMM*%
%LPD*%
G01*
G04 APERTURE LIST*
G04 Aperture macros list*
%AMRoundRect*
0 Rectangle with rounded corners*
0 $1 Rounding radius*
0 $2 $3 $4 $5 $6 $7 $8 $9 X,Y pos of 4 corners*
0 Add a 4 corners polygon primitive as box body*
4,1,4,$2,$3,$4,$5,$6,$7,$8,$9,$2,$3,0*
0 Add four circle primitives for the rounded corners*
1,1,$1+$1,$2,$3*
1,1,$1+$1,$4,$5*
1,1,$1+$1,$6,$7*
1,1,$1+$1,$8,$9*
0 Add four rect primitives between the rounded corners*
20,1,$1+$1,$2,$3,$4,$5,0*
20,1,$1+$1,$4,$5,$6,$7,0*
20,1,$1+$1,$6,$7,$8,$9,0*
20,1,$1+$1,$8,$9,$2,$3,0*%
G04 Aperture macros list end*
%ADD10R,1.000000X1.600000*%
%ADD11R,0.600000X0.500000*%
%ADD12R,0.600000X0.400000*%
%ADD13C,3.600000*%
%ADD14C,5.600000*%
%ADD15R,0.900000X0.500000*%
%ADD16R,0.500000X0.600000*%
%ADD17RoundRect,0.350000X0.350000X-0.650000X0.350000X0.650000X-0.350000X0.650000X-0.350000X-0.650000X0*%
%ADD18RoundRect,0.250000X0.250000X-0.750000X0.250000X0.750000X-0.250000X0.750000X-0.250000X-0.750000X0*%
%ADD19R,0.400000X0.600000*%
%ADD20RoundRect,0.250000X0.900000X-1.000000X0.900000X1.000000X-0.900000X1.000000X-0.900000X-1.000000X0*%
%ADD21R,0.800000X0.750000*%
%ADD22R,0.750000X0.800000*%
%ADD23RoundRect,0.112500X0.112500X-0.350000X0.112500X0.350000X-0.112500X0.350000X-0.112500X-0.350000X0*%
%ADD24RoundRect,0.067500X0.067500X-0.097500X0.067500X0.097500X-0.067500X0.097500X-0.067500X-0.097500X0*%
%ADD25RoundRect,0.250001X-0.702499X-1.144999X0.702499X-1.144999X0.702499X1.144999X-0.702499X1.144999X0*%
%ADD26RoundRect,0.112500X-0.350000X-0.112500X0.350000X-0.112500X0.350000X0.112500X-0.350000X0.112500X0*%
%ADD27R,0.250000X0.700000*%
%ADD28R,1.190000X0.830000*%
%ADD29R,1.700000X1.700000*%
%ADD30C,2.362200*%
%ADD31O,1.700000X1.700000*%
%ADD32C,1.700000*%
%ADD33C,0.650000*%
G04 APERTURE END LIST*
D10*
%TO.C,C204*%
X114326800Y-86004400D03*
X111326800Y-86004400D03*
%TD*%
D11*
%TO.C,C503*%
X131653400Y-77124400D03*
X132753400Y-77124400D03*
%TD*%
D12*
%TO.C,R504*%
X136020200Y-70343000D03*
X136020200Y-71243000D03*
%TD*%
%TO.C,R204*%
X111556800Y-87840400D03*
X111556800Y-88740400D03*
%TD*%
D13*
%TO.C,H802*%
X144526000Y-62230000D03*
D14*
X144526000Y-62230000D03*
%TD*%
D15*
%TO.C,R307*%
X135483600Y-82866800D03*
X135483600Y-84366800D03*
%TD*%
D16*
%TO.C,C604*%
X119414100Y-105698200D03*
X119414100Y-106798200D03*
%TD*%
D12*
%TO.C,R602*%
X127127000Y-97594000D03*
X127127000Y-98494000D03*
%TD*%
D11*
%TO.C,C202*%
X114392800Y-92608400D03*
X113292800Y-92608400D03*
%TD*%
D17*
%TO.C,D701*%
X153749600Y-96205400D03*
D18*
X155549600Y-96205400D03*
D17*
X157349600Y-96205400D03*
X157349600Y-91805400D03*
D18*
X155549600Y-91805400D03*
D17*
X153749600Y-91805400D03*
%TD*%
D19*
%TO.C,R603*%
X116424100Y-101930200D03*
X117324100Y-101930200D03*
%TD*%
D11*
%TO.C,C403*%
X118787000Y-71120000D03*
X117687000Y-71120000D03*
%TD*%
D20*
%TO.C,D201*%
X108254800Y-91456400D03*
X108254800Y-87156400D03*
%TD*%
D12*
%TO.C,R705*%
X146468450Y-99433800D03*
X146468450Y-98533800D03*
%TD*%
D16*
%TO.C,C602*%
X120430100Y-105698200D03*
X120430100Y-106798200D03*
%TD*%
D21*
%TO.C,C610*%
X126885000Y-104140000D03*
X128385000Y-104140000D03*
%TD*%
%TO.C,C406*%
X121043000Y-70358000D03*
X122543000Y-70358000D03*
%TD*%
D13*
%TO.C,H813*%
X99996540Y-109753400D03*
D14*
X99996540Y-109753400D03*
%TD*%
D19*
%TO.C,R405*%
X121343000Y-72644000D03*
X122243000Y-72644000D03*
%TD*%
D11*
%TO.C,C405*%
X121243000Y-71628000D03*
X122343000Y-71628000D03*
%TD*%
D13*
%TO.C,H801*%
X99517200Y-62204600D03*
D14*
X99517200Y-62204600D03*
%TD*%
D12*
%TO.C,R704*%
X146468450Y-96131800D03*
X146468450Y-95231800D03*
%TD*%
%TO.C,R406*%
X126365000Y-71940000D03*
X126365000Y-72840000D03*
%TD*%
D22*
%TO.C,C603*%
X122174000Y-105245600D03*
X122174000Y-103745600D03*
%TD*%
D19*
%TO.C,R604*%
X116424100Y-102946200D03*
X117324100Y-102946200D03*
%TD*%
%TO.C,R301*%
X127094400Y-93421200D03*
X126194400Y-93421200D03*
%TD*%
D13*
%TO.C,H814*%
X140284200Y-86842600D03*
D14*
X140284200Y-86842600D03*
%TD*%
D12*
%TO.C,R606*%
X128143000Y-108122872D03*
X128143000Y-107222872D03*
%TD*%
D21*
%TO.C,C504*%
X134508200Y-76889000D03*
X136008200Y-76889000D03*
%TD*%
D23*
%TO.C,D601*%
X110006800Y-105873900D03*
X111306800Y-105873900D03*
X110656800Y-104098900D03*
%TD*%
D24*
%TO.C,D501*%
X140951400Y-107087000D03*
X141451400Y-107087000D03*
X141951400Y-107087000D03*
X141951400Y-106407000D03*
X141451400Y-106407000D03*
X140951400Y-106407000D03*
%TD*%
D13*
%TO.C,H804*%
X122097800Y-82219800D03*
D14*
X122097800Y-82219800D03*
%TD*%
D12*
%TO.C,R706*%
X146468450Y-102964400D03*
X146468450Y-102064400D03*
%TD*%
%TO.C,R302*%
X127863600Y-83166800D03*
X127863600Y-84066800D03*
%TD*%
D25*
%TO.C,L201*%
X108877300Y-95910400D03*
X113728300Y-95910400D03*
%TD*%
D26*
%TO.C,Q301*%
X129135100Y-82966800D03*
X129135100Y-84266800D03*
X130910100Y-83616800D03*
%TD*%
D19*
%TO.C,R404*%
X122243000Y-73660000D03*
X121343000Y-73660000D03*
%TD*%
D27*
%TO.C,U601*%
X118543100Y-103838200D03*
X118993100Y-103838200D03*
X119443100Y-103838200D03*
X119893100Y-103838200D03*
X120343100Y-103838200D03*
X120793100Y-103838200D03*
X120793100Y-101038200D03*
X120343100Y-101038200D03*
X119893100Y-101038200D03*
X119443100Y-101038200D03*
X118993100Y-101038200D03*
X118543100Y-101038200D03*
D28*
X119073100Y-102853200D03*
X120263100Y-102853200D03*
X119073100Y-102023200D03*
X120263100Y-102023200D03*
%TD*%
D12*
%TO.C,R601*%
X128143000Y-97594000D03*
X128143000Y-98494000D03*
%TD*%
D26*
%TO.C,Q302*%
X132208500Y-82966800D03*
X132208500Y-84266800D03*
X133983500Y-83616800D03*
%TD*%
D21*
%TO.C,C606*%
X126885000Y-101600000D03*
X128385000Y-101600000D03*
%TD*%
D11*
%TO.C,C605*%
X127085000Y-100330000D03*
X128185000Y-100330000D03*
%TD*%
D16*
%TO.C,C203*%
X112572800Y-87740400D03*
X112572800Y-88840400D03*
%TD*%
D12*
%TO.C,R605*%
X127093505Y-108122872D03*
X127093505Y-107222872D03*
%TD*%
D11*
%TO.C,C609*%
X127085000Y-105410000D03*
X128185000Y-105410000D03*
%TD*%
D13*
%TO.C,H803*%
X155600400Y-109753400D03*
D14*
X155600400Y-109753400D03*
%TD*%
D12*
%TO.C,R503*%
X135004200Y-70343000D03*
X135004200Y-71243000D03*
%TD*%
D11*
%TO.C,C601*%
X120227000Y-99923600D03*
X121327000Y-99923600D03*
%TD*%
D29*
%TO.C,TP201*%
X118846600Y-61823600D03*
%TD*%
D30*
%TO.C,J401*%
X104046006Y-70016356D03*
X99042206Y-70016356D03*
X104046006Y-77026756D03*
X99042206Y-77026756D03*
%TD*%
D29*
%TO.C,J501*%
X150220200Y-109753400D03*
D31*
X147680200Y-109753400D03*
X145140200Y-109753400D03*
X142600200Y-109753400D03*
X140060200Y-109753400D03*
X137520200Y-109753400D03*
X134980200Y-109753400D03*
D32*
X132440200Y-109753400D03*
%TD*%
D33*
%TO.C,J601*%
X114015000Y-108113600D03*
X108235000Y-108113600D03*
%TD*%
D30*
%TO.C,J201*%
X99015550Y-95796350D03*
X104019350Y-95796350D03*
X99015550Y-88785950D03*
X104019350Y-88785950D03*
%TD*%
M02*
