%TF.GenerationSoftware,KiCad,Pcbnew,10.0.3*%
%TF.CreationDate,2026-07-02T20:43:44-05:00*%
%TF.ProjectId,HEI_Shift_Light,4845495f-5368-4696-9674-5f4c69676874,rev?*%
%TF.SameCoordinates,Original*%
%TF.FileFunction,Copper,L4,Bot*%
%TF.FilePolarity,Positive*%
%FSLAX46Y46*%
G04 Gerber Fmt 4.6, Leading zero omitted, Abs format (unit mm)*
G04 Created by KiCad (PCBNEW 10.0.3) date 2026-07-02 20:43:44*
%MOMM*%
%LPD*%
G01*
G04 APERTURE LIST*
G04 Aperture macros list*
%AMRoundRect*
0 Rectangle with rounded corners*
0 $1 Rounding radius*
0 $2 $3 $4 $5 $6 $7 $8 $9 X,Y pos of 4 corners*
0 Add a 4 corners polygon primitive as box body*
4,1,4,$2,$3,$4,$5,$6,$7,$8,$9,$2,$3,0*
0 Add four circle primitives for the rounded corners*
1,1,$1+$1,$2,$3*
1,1,$1+$1,$4,$5*
1,1,$1+$1,$6,$7*
1,1,$1+$1,$8,$9*
0 Add four rect primitives between the rounded corners*
20,1,$1+$1,$2,$3,$4,$5,0*
20,1,$1+$1,$4,$5,$6,$7,0*
20,1,$1+$1,$6,$7,$8,$9,0*
20,1,$1+$1,$8,$9,$2,$3,0*%
%AMFreePoly0*
4,1,14,0.385355,0.085355,0.400000,0.050000,0.400000,0.000711,0.385355,-0.034644,0.334644,-0.085355,0.299289,-0.100000,-0.350000,-0.100000,-0.385355,-0.085355,-0.400000,-0.050000,-0.400000,0.050000,-0.385355,0.085355,-0.350000,0.100000,0.350000,0.100000,0.385355,0.085355,0.385355,0.085355,$1*%
%AMFreePoly1*
4,1,14,0.334644,0.085355,0.385355,0.034644,0.400000,-0.000711,0.400000,-0.050000,0.385355,-0.085355,0.350000,-0.100000,-0.350000,-0.100000,-0.385355,-0.085355,-0.400000,-0.050000,-0.400000,0.050000,-0.385355,0.085355,-0.350000,0.100000,0.299289,0.100000,0.334644,0.085355,0.334644,0.085355,$1*%
%AMFreePoly2*
4,1,14,0.085355,0.385355,0.100000,0.350000,0.100000,-0.350000,0.085355,-0.385355,0.050000,-0.400000,0.000711,-0.400000,-0.034644,-0.385355,-0.085355,-0.334644,-0.100000,-0.299289,-0.100000,0.350000,-0.085355,0.385355,-0.050000,0.400000,0.050000,0.400000,0.085355,0.385355,0.085355,0.385355,$1*%
%AMFreePoly3*
4,1,14,0.085355,0.385355,0.100000,0.350000,0.100000,-0.299289,0.085355,-0.334644,0.034644,-0.385355,-0.000711,-0.400000,-0.050000,-0.400000,-0.085355,-0.385355,-0.100000,-0.350000,-0.100000,0.350000,-0.085355,0.385355,-0.050000,0.400000,0.050000,0.400000,0.085355,0.385355,0.085355,0.385355,$1*%
%AMFreePoly4*
4,1,14,0.385355,0.085355,0.400000,0.050000,0.400000,-0.050000,0.385355,-0.085355,0.350000,-0.100000,-0.350000,-0.100000,-0.385355,-0.085355,-0.400000,-0.050000,-0.400000,-0.000711,-0.385355,0.034644,-0.334644,0.085355,-0.299289,0.100000,0.350000,0.100000,0.385355,0.085355,0.385355,0.085355,$1*%
%AMFreePoly5*
4,1,14,0.385355,0.085355,0.400000,0.050000,0.400000,-0.050000,0.385355,-0.085355,0.350000,-0.100000,-0.299289,-0.100000,-0.334644,-0.085355,-0.385355,-0.034644,-0.400000,0.000711,-0.400000,0.050000,-0.385355,0.085355,-0.350000,0.100000,0.350000,0.100000,0.385355,0.085355,0.385355,0.085355,$1*%
%AMFreePoly6*
4,1,14,0.034644,0.385355,0.085355,0.334644,0.100000,0.299289,0.100000,-0.350000,0.085355,-0.385355,0.050000,-0.400000,-0.050000,-0.400000,-0.085355,-0.385355,-0.100000,-0.350000,-0.100000,0.350000,-0.085355,0.385355,-0.050000,0.400000,-0.000711,0.400000,0.034644,0.385355,0.034644,0.385355,$1*%
%AMFreePoly7*
4,1,14,0.085355,0.385355,0.100000,0.350000,0.100000,-0.350000,0.085355,-0.385355,0.050000,-0.400000,-0.050000,-0.400000,-0.085355,-0.385355,-0.100000,-0.350000,-0.100000,0.299289,-0.085355,0.334644,-0.034644,0.385355,0.000711,0.400000,0.050000,0.400000,0.085355,0.385355,0.085355,0.385355,$1*%
G04 Aperture macros list end*
%TA.AperFunction,ComponentPad*%
%ADD10C,3.600000*%
%TD*%
%TA.AperFunction,ConnectorPad*%
%ADD11C,5.600000*%
%TD*%
%TA.AperFunction,ComponentPad*%
%ADD12R,1.700000X1.700000*%
%TD*%
%TA.AperFunction,SMDPad,CuDef*%
%ADD13R,0.600000X0.400000*%
%TD*%
%TA.AperFunction,SMDPad,CuDef*%
%ADD14C,1.000000*%
%TD*%
%TA.AperFunction,SMDPad,CuDef*%
%ADD15RoundRect,0.150000X-0.150000X0.825000X-0.150000X-0.825000X0.150000X-0.825000X0.150000X0.825000X0*%
%TD*%
%TA.AperFunction,SMDPad,CuDef*%
%ADD16RoundRect,0.112500X-0.350000X-0.112500X0.350000X-0.112500X0.350000X0.112500X-0.350000X0.112500X0*%
%TD*%
%TA.AperFunction,SMDPad,CuDef*%
%ADD17R,0.700000X1.300000*%
%TD*%
%TA.AperFunction,ComponentPad*%
%ADD18C,2.362200*%
%TD*%
%TA.AperFunction,SMDPad,CuDef*%
%ADD19R,0.400000X0.600000*%
%TD*%
%TA.AperFunction,SMDPad,CuDef*%
%ADD20R,1.200000X1.500000*%
%TD*%
%TA.AperFunction,SMDPad,CuDef*%
%ADD21R,0.600000X0.500000*%
%TD*%
%TA.AperFunction,SMDPad,CuDef*%
%ADD22RoundRect,0.112500X0.350000X0.112500X-0.350000X0.112500X-0.350000X-0.112500X0.350000X-0.112500X0*%
%TD*%
%TA.AperFunction,ComponentPad*%
%ADD23O,1.700000X1.700000*%
%TD*%
%TA.AperFunction,ComponentPad*%
%ADD24C,1.700000*%
%TD*%
%TA.AperFunction,SMDPad,CuDef*%
%ADD25R,0.500000X0.600000*%
%TD*%
%TA.AperFunction,SMDPad,CuDef*%
%ADD26R,0.900000X0.500000*%
%TD*%
%TA.AperFunction,SMDPad,CuDef*%
%ADD27RoundRect,0.150000X0.150000X0.425000X-0.150000X0.425000X-0.150000X-0.425000X0.150000X-0.425000X0*%
%TD*%
%TA.AperFunction,SMDPad,CuDef*%
%ADD28RoundRect,0.075000X0.075000X0.500000X-0.075000X0.500000X-0.075000X-0.500000X0.075000X-0.500000X0*%
%TD*%
%TA.AperFunction,SMDPad,CuDef*%
%ADD29RoundRect,0.250000X0.840000X0.750000X-0.840000X0.750000X-0.840000X-0.750000X0.840000X-0.750000X0*%
%TD*%
%TA.AperFunction,SMDPad,CuDef*%
%ADD30RoundRect,0.150000X-0.825000X-0.150000X0.825000X-0.150000X0.825000X0.150000X-0.825000X0.150000X0*%
%TD*%
%TA.AperFunction,SMDPad,CuDef*%
%ADD31RoundRect,0.087500X0.087500X-0.425000X0.087500X0.425000X-0.087500X0.425000X-0.087500X-0.425000X0*%
%TD*%
%TA.AperFunction,SMDPad,CuDef*%
%ADD32FreePoly0,0.000000*%
%TD*%
%TA.AperFunction,SMDPad,CuDef*%
%ADD33RoundRect,0.050000X-0.350000X-0.050000X0.350000X-0.050000X0.350000X0.050000X-0.350000X0.050000X0*%
%TD*%
%TA.AperFunction,SMDPad,CuDef*%
%ADD34FreePoly1,0.000000*%
%TD*%
%TA.AperFunction,SMDPad,CuDef*%
%ADD35FreePoly2,0.000000*%
%TD*%
%TA.AperFunction,SMDPad,CuDef*%
%ADD36RoundRect,0.050000X-0.050000X-0.350000X0.050000X-0.350000X0.050000X0.350000X-0.050000X0.350000X0*%
%TD*%
%TA.AperFunction,SMDPad,CuDef*%
%ADD37FreePoly3,0.000000*%
%TD*%
%TA.AperFunction,SMDPad,CuDef*%
%ADD38FreePoly4,0.000000*%
%TD*%
%TA.AperFunction,SMDPad,CuDef*%
%ADD39FreePoly5,0.000000*%
%TD*%
%TA.AperFunction,SMDPad,CuDef*%
%ADD40FreePoly6,0.000000*%
%TD*%
%TA.AperFunction,SMDPad,CuDef*%
%ADD41FreePoly7,0.000000*%
%TD*%
%TA.AperFunction,HeatsinkPad*%
%ADD42R,1.700000X1.700000*%
%TD*%
%TA.AperFunction,SMDPad,CuDef*%
%ADD43RoundRect,0.070000X0.070000X-0.355000X0.070000X0.355000X-0.070000X0.355000X-0.070000X-0.355000X0*%
%TD*%
%TA.AperFunction,SMDPad,CuDef*%
%ADD44R,0.700000X0.280000*%
%TD*%
%TA.AperFunction,SMDPad,CuDef*%
%ADD45R,2.400000X1.650000*%
%TD*%
%TA.AperFunction,SMDPad,CuDef*%
%ADD46R,0.750000X0.800000*%
%TD*%
%TA.AperFunction,SMDPad,CuDef*%
%ADD47RoundRect,0.062500X0.356250X0.062500X-0.356250X0.062500X-0.356250X-0.062500X0.356250X-0.062500X0*%
%TD*%
%TA.AperFunction,SMDPad,CuDef*%
%ADD48RoundRect,0.062500X0.062500X0.356250X-0.062500X0.356250X-0.062500X-0.356250X0.062500X-0.356250X0*%
%TD*%
%TA.AperFunction,HeatsinkPad*%
%ADD49R,1.675000X1.675000*%
%TD*%
%TA.AperFunction,SMDPad,CuDef*%
%ADD50R,1.600000X1.000000*%
%TD*%
%TA.AperFunction,SMDPad,CuDef*%
%ADD51R,1.000000X1.600000*%
%TD*%
%TA.AperFunction,SMDPad,CuDef*%
%ADD52RoundRect,0.250000X0.785000X1.045000X-0.785000X1.045000X-0.785000X-1.045000X0.785000X-1.045000X0*%
%TD*%
%TA.AperFunction,SMDPad,CuDef*%
%ADD53R,0.800000X0.750000*%
%TD*%
%TA.AperFunction,SMDPad,CuDef*%
%ADD54RoundRect,0.250000X1.000000X0.900000X-1.000000X0.900000X-1.000000X-0.900000X1.000000X-0.900000X0*%
%TD*%
%TA.AperFunction,ViaPad*%
%ADD55C,0.450000*%
%TD*%
%TA.AperFunction,Conductor*%
%ADD56C,0.200000*%
%TD*%
%TA.AperFunction,Conductor*%
%ADD57C,0.254000*%
%TD*%
%TA.AperFunction,Conductor*%
%ADD58C,0.381000*%
%TD*%
%TA.AperFunction,Conductor*%
%ADD59C,1.000000*%
%TD*%
G04 APERTURE END LIST*
D10*
%TO.P,H802,1,1_1*%
%TO.N,GND*%
X144526000Y-62230000D03*
D11*
X144526000Y-62230000D03*
%TD*%
D10*
%TO.P,H813,1,1_1*%
%TO.N,GND*%
X99996540Y-109753400D03*
D11*
X99996540Y-109753400D03*
%TD*%
D10*
%TO.P,H801,1,1_1*%
%TO.N,GND*%
X99517200Y-62204600D03*
D11*
X99517200Y-62204600D03*
%TD*%
D10*
%TO.P,H814,1,1_1*%
%TO.N,GND*%
X140284200Y-86842600D03*
D11*
X140284200Y-86842600D03*
%TD*%
D10*
%TO.P,H804,1,1_1*%
%TO.N,GND*%
X122097800Y-82219800D03*
D11*
X122097800Y-82219800D03*
%TD*%
D10*
%TO.P,H803,1,1_1*%
%TO.N,GND*%
X155600400Y-109753400D03*
D11*
X155600400Y-109753400D03*
%TD*%
D12*
%TO.P,TP201,1,1_1*%
%TO.N,GND*%
X118846600Y-61823600D03*
%TD*%
D13*
%TO.P,R407,1,1_1*%
%TO.N,TACH_ANALOG*%
X119507000Y-70300000D03*
%TO.P,R407,2,2_2*%
%TO.N,Net-(U402-W)*%
X119507000Y-69400000D03*
%TD*%
D14*
%TO.P,TP301,1,1_1*%
%TO.N,+5V*%
X128041400Y-87452200D03*
%TD*%
D15*
%TO.P,U602,1,VCC1_1*%
%TO.N,+5V*%
X125730000Y-100395000D03*
%TO.P,U602,2,OUTA_2*%
%TO.N,USB_UART_RX*%
X127000000Y-100395000D03*
%TO.P,U602,3,INB_3*%
%TO.N,USB_UART_TX*%
X128270000Y-100395000D03*
%TO.P,U602,4,GND1_4*%
%TO.N,GND*%
X129540000Y-100395000D03*
%TO.P,U602,5,GND2_5*%
%TO.N,GND_USB*%
X129540000Y-105345000D03*
%TO.P,U602,6,OUTB_6*%
%TO.N,USB_UART_TX_ISO*%
X128270000Y-105345000D03*
%TO.P,U602,7,INA_7*%
%TO.N,USB_UART_RX_ISO*%
X127000000Y-105345000D03*
%TO.P,U602,8,VCC2_8*%
%TO.N,+3.3V_USB*%
X125730000Y-105345000D03*
%TD*%
D16*
%TO.P,Q703,1,G_1*%
%TO.N,Net-(Q703-G)*%
X146469950Y-103164400D03*
%TO.P,Q703,2,S_2*%
%TO.N,GND*%
X146469950Y-101864400D03*
%TO.P,Q703,3,D_3*%
%TO.N,Net-(Q703-D)*%
X148244950Y-102514400D03*
%TD*%
D13*
%TO.P,R303,1,1_1*%
%TO.N,Net-(U301-FB)*%
X124358400Y-95257200D03*
%TO.P,R303,2,2_2*%
%TO.N,GND*%
X124358400Y-96157200D03*
%TD*%
D14*
%TO.P,TP501,1,1_1*%
%TO.N,C2OUT*%
X138560200Y-74095000D03*
%TD*%
D17*
%TO.P,R401,1,1_1*%
%TO.N,/Input Signal/TACH_IN*%
X105560295Y-66520158D03*
%TO.P,R401,2,2_2*%
%TO.N,/Input Signal/TACH_FILT*%
X107460295Y-66520158D03*
%TD*%
D18*
%TO.P,J401,1,Pin_1_1*%
%TO.N,/Input Signal/TACH_IN*%
X104046006Y-70016356D03*
X99042206Y-70016356D03*
X104046006Y-77026756D03*
X99042206Y-77026756D03*
%TD*%
D13*
%TO.P,R608,1,1_1*%
%TO.N,Net-(J601-CC2)*%
X109386800Y-105436400D03*
%TO.P,R608,2,2_2*%
%TO.N,GND_USB*%
X109386800Y-104536400D03*
%TD*%
D19*
%TO.P,R206,1,1_1*%
%TO.N,VIN_PGOOD*%
X112768800Y-86766400D03*
%TO.P,R206,2,2_2*%
%TO.N,GND*%
X111868800Y-86766400D03*
%TD*%
D20*
%TO.P,L301,1,1_1*%
%TO.N,Net-(L301-Pad1)*%
X128041400Y-92256600D03*
%TO.P,L301,2,2_2*%
%TO.N,+5V*%
X128041400Y-89556600D03*
%TD*%
D19*
%TO.P,R201,1,1_1*%
%TO.N,/Input Power/VIN_FILT*%
X114292800Y-92608400D03*
%TO.P,R201,2,2_2*%
%TO.N,Net-(U201-UVLO)*%
X113392800Y-92608400D03*
%TD*%
D21*
%TO.P,C401,1*%
%TO.N,TACH_PULSE*%
X118449000Y-72390000D03*
%TO.P,C401,2*%
%TO.N,GND*%
X119549000Y-72390000D03*
%TD*%
D17*
%TO.P,R402,1,1_1*%
%TO.N,/Input Signal/TACH_FILT*%
X113180295Y-66520158D03*
%TO.P,R402,2,2_2*%
%TO.N,TACH_PULSE*%
X115080295Y-66520158D03*
%TD*%
D22*
%TO.P,D301,1,A_1*%
%TO.N,unconnected-(D301-A-Pad1)*%
X130478300Y-80858600D03*
%TO.P,D301,2,K_2*%
%TO.N,Net-(D301-K)*%
X130478300Y-82158600D03*
%TO.P,D301,3,COM_3*%
%TO.N,+5V*%
X128703300Y-81508600D03*
%TD*%
D19*
%TO.P,R202,1,1_1*%
%TO.N,Net-(U201-UVLO)*%
X112514800Y-92608400D03*
%TO.P,R202,2,2_2*%
%TO.N,Net-(U201-OVP)*%
X111614800Y-92608400D03*
%TD*%
D12*
%TO.P,J501,1,Pin_1_1*%
%TO.N,~{PIC18F_MCLR}*%
X150220200Y-109753400D03*
D23*
%TO.P,J501,2,Pin_2_2*%
%TO.N,+5V*%
X147680200Y-109753400D03*
%TO.P,J501,3,Pin_3_3*%
%TO.N,GND*%
X145140200Y-109753400D03*
%TO.P,J501,4,Pin_4_4*%
%TO.N,PIC18F_ICSPDAT*%
X142600200Y-109753400D03*
%TO.P,J501,5,Pin_5_5*%
%TO.N,PIC18F_ICSPCLK*%
X140060200Y-109753400D03*
%TO.P,J501,6,Pin_6_6*%
%TO.N,unconnected-(J501-Pin_6-Pad6)*%
X137520200Y-109753400D03*
%TO.P,J501,7,Pin_7_7*%
%TO.N,unconnected-(J501-Pin_7-Pad7)*%
X134980200Y-109753400D03*
D24*
%TO.P,J501,8,Pin_8_8*%
%TO.N,unconnected-(J501-Pin_8-Pad8)*%
X132440200Y-109753400D03*
%TD*%
D13*
%TO.P,R304,1,1_1*%
%TO.N,+5V*%
X126390400Y-96157200D03*
%TO.P,R304,2,2_2*%
%TO.N,Net-(U301-FB)*%
X126390400Y-95257200D03*
%TD*%
%TO.P,R306,1,1_1*%
%TO.N,Net-(D301-K)*%
X132207000Y-84066800D03*
%TO.P,R306,2,2_2*%
%TO.N,Net-(Q301-D)*%
X132207000Y-83166800D03*
%TD*%
D25*
%TO.P,C303,1*%
%TO.N,Vin*%
X120675400Y-93125200D03*
%TO.P,C303,2*%
%TO.N,GND*%
X120675400Y-94225200D03*
%TD*%
D16*
%TO.P,D402,1,A_1*%
%TO.N,GND*%
X112505182Y-73167000D03*
%TO.P,D402,2,K_2*%
%TO.N,+5V*%
X112505182Y-71867000D03*
%TO.P,D402,3,COM_3*%
%TO.N,TACH_PULSE*%
X114280182Y-72517000D03*
%TD*%
D26*
%TO.P,R707,1,1_1*%
%TO.N,Net-(D701-KB)*%
X153771600Y-95414400D03*
%TO.P,R707,2,2_2*%
%TO.N,Net-(Q701-D)*%
X153771600Y-96914400D03*
%TD*%
D13*
%TO.P,R701,1,1_1*%
%TO.N,Net-(Q701-G)*%
X145328939Y-96131801D03*
%TO.P,R701,2,2_2*%
%TO.N,LED_B*%
X145328939Y-95231801D03*
%TD*%
D27*
%TO.P,J601,A1,GND_A1*%
%TO.N,GND_USB*%
X114325000Y-107038600D03*
%TO.P,J601,A4,VBUS_A4*%
%TO.N,Net-(J601-VBUS-PadA4)*%
X113525000Y-107038600D03*
D28*
%TO.P,J601,A5,CC1_A5*%
%TO.N,Net-(J601-CC1)*%
X112375000Y-107038600D03*
%TO.P,J601,A6,D+_A6*%
%TO.N,/USB UART Bridge/CONN_USB+*%
X111375000Y-107038600D03*
%TO.P,J601,A7,D-_A7*%
%TO.N,/USB UART Bridge/CONN_USB-*%
X110875000Y-107038600D03*
%TO.P,J601,A8,SBU1_A8*%
%TO.N,unconnected-(J601-SBU1-PadA8)*%
X109875000Y-107038600D03*
D27*
%TO.P,J601,A9,VBUS_A9*%
%TO.N,Net-(J601-VBUS-PadA4)*%
X108725000Y-107038600D03*
%TO.P,J601,A12,GND_A12*%
%TO.N,GND_USB*%
X107925000Y-107038600D03*
%TO.P,J601,B1,GND_B1*%
X107925000Y-107038600D03*
%TO.P,J601,B4,VBUS_B4*%
%TO.N,Net-(J601-VBUS-PadA4)*%
X108725000Y-107038600D03*
D28*
%TO.P,J601,B5,CC2_B5*%
%TO.N,Net-(J601-CC2)*%
X109375000Y-107038600D03*
%TO.P,J601,B6,D+_B6*%
%TO.N,/USB UART Bridge/CONN_USB+*%
X110375000Y-107038600D03*
%TO.P,J601,B7,D-_B7*%
%TO.N,/USB UART Bridge/CONN_USB-*%
X111875000Y-107038600D03*
%TO.P,J601,B8,SBU2_B8*%
%TO.N,unconnected-(J601-SBU2-PadB8)*%
X112875000Y-107038600D03*
D27*
%TO.P,J601,B9,VBUS_B9*%
%TO.N,Net-(J601-VBUS-PadA4)*%
X113525000Y-107038600D03*
%TO.P,J601,B12,GND_B12*%
%TO.N,GND_USB*%
X114325000Y-107038600D03*
D29*
%TO.P,J601,SH,SHIELD_SH*%
%TO.N,Net-(J601-SHIELD)*%
X116235000Y-111543600D03*
X116235000Y-107613600D03*
X106015000Y-111543600D03*
X106015000Y-107613600D03*
%TD*%
D30*
%TO.P,U401,1,TACH+_1*%
%TO.N,Net-(U401-TACH+)*%
X121350000Y-73025000D03*
%TO.P,U401,2,CP1_2*%
%TO.N,Net-(U401-CP1)*%
X121350000Y-71755000D03*
%TO.P,U401,3,CP2/IN+_3*%
%TO.N,TACH_ANALOG*%
X121350000Y-70485000D03*
%TO.P,U401,4,EMIT_4*%
%TO.N,Net-(U401-EMIT)*%
X121350000Y-69215000D03*
%TO.P,U401,5,COL_5*%
%TO.N,+5V*%
X126300000Y-69215000D03*
%TO.P,U401,6,V+_6*%
X126300000Y-70485000D03*
%TO.P,U401,7,IN-_7*%
%TO.N,Net-(U401-EMIT)*%
X126300000Y-71755000D03*
%TO.P,U401,8,GND_8*%
%TO.N,GND*%
X126300000Y-73025000D03*
%TD*%
D25*
%TO.P,C404,1*%
%TO.N,+5V*%
X128143000Y-71078000D03*
%TO.P,C404,2*%
%TO.N,GND*%
X128143000Y-72178000D03*
%TD*%
D21*
%TO.P,C607,1*%
%TO.N,/USB UART Bridge/CONN_USB+*%
X116578100Y-101930200D03*
%TO.P,C607,2*%
%TO.N,GND_USB*%
X117678100Y-101930200D03*
%TD*%
D26*
%TO.P,R708,1,1_1*%
%TO.N,Net-(D701-KR)*%
X155549600Y-95414400D03*
%TO.P,R708,2,2_2*%
%TO.N,Net-(Q702-D)*%
X155549600Y-96914400D03*
%TD*%
D31*
%TO.P,U402,1,VDD_1*%
%TO.N,+5V*%
X118379000Y-71195500D03*
%TO.P,U402,2,VSS_2*%
%TO.N,GND*%
X117729000Y-71195500D03*
%TO.P,U402,3,SCL_3*%
%TO.N,I2C_SCL*%
X117079000Y-71195500D03*
%TO.P,U402,4,SDA_4*%
%TO.N,I2C_SDA*%
X117079000Y-69520500D03*
%TO.P,U402,5,W_5*%
%TO.N,Net-(U402-W)*%
X118379000Y-69520500D03*
%TD*%
D21*
%TO.P,C501,1*%
%TO.N,+5V*%
X146955600Y-107289600D03*
%TO.P,C501,2*%
%TO.N,GND*%
X145855600Y-107289600D03*
%TD*%
D25*
%TO.P,C611,1*%
%TO.N,+5V_USB*%
X106846800Y-104436400D03*
%TO.P,C611,2*%
%TO.N,GND_USB*%
X106846800Y-105536400D03*
%TD*%
D32*
%TO.P,U501,1,~{MCLR}/RA3_1*%
%TO.N,~{PIC18F_MCLR}*%
X133554200Y-75149000D03*
D33*
%TO.P,U501,2,RC5_2*%
%TO.N,LED_R*%
X133554200Y-74749000D03*
%TO.P,U501,3,RC4_3*%
%TO.N,LED_G*%
X133554200Y-74349000D03*
%TO.P,U501,4,RC3_4*%
%TO.N,LED_B*%
X133554200Y-73949000D03*
D34*
%TO.P,U501,5,RC6_5*%
%TO.N,USB_UART_RX*%
X133554200Y-73549000D03*
D35*
%TO.P,U501,6,RC7_6*%
%TO.N,USB_UART_TX*%
X134204200Y-72899000D03*
D36*
%TO.P,U501,7,RB7_7*%
%TO.N,POS5_PGOOD*%
X134604200Y-72899000D03*
%TO.P,U501,8,RB6_8*%
%TO.N,I2C_SCL*%
X135004200Y-72899000D03*
%TO.P,U501,9,RB5_9*%
%TO.N,TACH_ANALOG*%
X135404200Y-72899000D03*
D37*
%TO.P,U501,10,RB4_10*%
%TO.N,I2C_SDA*%
X135804200Y-72899000D03*
D38*
%TO.P,U501,11,RC2_11*%
%TO.N,OPA1OUT*%
X136454200Y-73549000D03*
D33*
%TO.P,U501,12,RC1_12*%
%TO.N,C2OUT*%
X136454200Y-73949000D03*
%TO.P,U501,13,RC0_13*%
%TO.N,TACH_PULSE*%
X136454200Y-74349000D03*
%TO.P,U501,14,RA2_14*%
%TO.N,unconnected-(U501-RA2-Pad14)*%
X136454200Y-74749000D03*
D39*
%TO.P,U501,15,RA1_15*%
%TO.N,PIC18F_ICSPCLK*%
X136454200Y-75149000D03*
D40*
%TO.P,U501,16,RA0_16*%
%TO.N,PIC18F_ICSPDAT*%
X135804200Y-75799000D03*
D36*
%TO.P,U501,17,VSS_17*%
%TO.N,GND*%
X135404200Y-75799000D03*
%TO.P,U501,18,VDD_18*%
%TO.N,+5V*%
X135004200Y-75799000D03*
%TO.P,U501,19,RA5_19*%
%TO.N,CLKR*%
X134604200Y-75799000D03*
D41*
%TO.P,U501,20,RA4_20*%
%TO.N,unconnected-(U501-RA4-Pad20)*%
X134204200Y-75799000D03*
D42*
%TO.P,U501,21,EP_21*%
%TO.N,GND*%
X135004200Y-74349000D03*
%TD*%
D21*
%TO.P,C302,1*%
%TO.N,Net-(U301-SS{slash}TR)*%
X122030400Y-95453200D03*
%TO.P,C302,2*%
%TO.N,GND*%
X123130400Y-95453200D03*
%TD*%
D26*
%TO.P,R709,1,1_1*%
%TO.N,Net-(D701-KG)*%
X157327600Y-95414400D03*
%TO.P,R709,2,2_2*%
%TO.N,Net-(Q703-D)*%
X157327600Y-96914400D03*
%TD*%
D13*
%TO.P,R607,1,1_1*%
%TO.N,Net-(J601-CC1)*%
X112434800Y-105436400D03*
%TO.P,R607,2,2_2*%
%TO.N,GND_USB*%
X112434800Y-104536400D03*
%TD*%
D21*
%TO.P,C608,1*%
%TO.N,/USB UART Bridge/CONN_USB-*%
X116578100Y-102946200D03*
%TO.P,C608,2*%
%TO.N,GND_USB*%
X117678100Y-102946200D03*
%TD*%
D19*
%TO.P,R203,1,1_1*%
%TO.N,Net-(U201-OVP)*%
X110736800Y-92608400D03*
%TO.P,R203,2,2_2*%
%TO.N,Net-(U201-PAD)*%
X109836800Y-92608400D03*
%TD*%
D14*
%TO.P,TP503,1,1_1*%
%TO.N,CLKR*%
X132972200Y-78921000D03*
%TD*%
D19*
%TO.P,R205,1,1_1*%
%TO.N,Vin*%
X114546800Y-86766400D03*
%TO.P,R205,2,2_2*%
%TO.N,VIN_PGOOD*%
X113646800Y-86766400D03*
%TD*%
D14*
%TO.P,TP502,1,1_1*%
%TO.N,OPA1OUT*%
X138560200Y-72063000D03*
%TD*%
D43*
%TO.P,U201,1,IN_1*%
%TO.N,/Input Power/VIN_FILT*%
X113318800Y-91289400D03*
%TO.P,U201,2,UVLO_2*%
%TO.N,Net-(U201-UVLO)*%
X112818800Y-91289400D03*
%TO.P,U201,3,OVP_3*%
%TO.N,Net-(U201-OVP)*%
X112318800Y-91289400D03*
%TO.P,U201,4,~{SHDN}_4*%
%TO.N,unconnected-(U201-~{SHDN}-Pad4)*%
X111818800Y-91289400D03*
%TO.P,U201,5,RTN_5*%
%TO.N,Net-(U201-PAD)*%
X111318800Y-91289400D03*
%TO.P,U201,6,GND_6*%
%TO.N,GND*%
X111318800Y-88339400D03*
%TO.P,U201,7,ILIM_7*%
%TO.N,Net-(U201-ILIM)*%
X111818800Y-88339400D03*
%TO.P,U201,8,DVDT_8*%
%TO.N,Net-(U201-DVDT)*%
X112318800Y-88339400D03*
%TO.P,U201,9,~{FLT}_9*%
%TO.N,VIN_PGOOD*%
X112818800Y-88339400D03*
%TO.P,U201,10,OUT_10*%
%TO.N,Vin*%
X113318800Y-88339400D03*
D44*
%TO.P,U201,11,PAD_11*%
%TO.N,Net-(U201-PAD)*%
X110768800Y-90064400D03*
X113868800Y-90064400D03*
D45*
X112318800Y-89814400D03*
D44*
X110768800Y-89564400D03*
X113868800Y-89564400D03*
%TD*%
D16*
%TO.P,Q702,1,G_1*%
%TO.N,Net-(Q702-G)*%
X146469950Y-99633800D03*
%TO.P,Q702,2,S_2*%
%TO.N,GND*%
X146469950Y-98333800D03*
%TO.P,Q702,3,D_3*%
%TO.N,Net-(Q702-D)*%
X148244950Y-98983800D03*
%TD*%
D19*
%TO.P,R501,1,1_1*%
%TO.N,+5V*%
X132653400Y-77124400D03*
%TO.P,R501,2,2_2*%
%TO.N,Net-(C503-Pad1)*%
X131753400Y-77124400D03*
%TD*%
D13*
%TO.P,L601,1*%
%TO.N,Net-(J601-VBUS-PadA4)*%
X108116800Y-105436400D03*
%TO.P,L601,2*%
%TO.N,+5V_USB*%
X108116800Y-104536400D03*
%TD*%
%TO.P,L602,1*%
%TO.N,Net-(J601-SHIELD)*%
X105576800Y-105436400D03*
%TO.P,L602,2*%
%TO.N,GND_USB*%
X105576800Y-104536400D03*
%TD*%
D46*
%TO.P,C407,1*%
%TO.N,+5V*%
X129413000Y-70878000D03*
%TO.P,C407,2*%
%TO.N,GND*%
X129413000Y-72378000D03*
%TD*%
D13*
%TO.P,R703,1,1_1*%
%TO.N,Net-(Q703-G)*%
X145325450Y-102964400D03*
%TO.P,R703,2,2_2*%
%TO.N,LED_G*%
X145325450Y-102064400D03*
%TD*%
D47*
%TO.P,U301,1,SW_1*%
%TO.N,Net-(L301-Pad1)*%
X124925650Y-91909200D03*
%TO.P,U301,2,SW_2*%
X124925650Y-92409200D03*
%TO.P,U301,3,SW_3*%
X124925650Y-92909200D03*
%TO.P,U301,4,PG_4*%
%TO.N,POS5_PGOOD*%
X124925650Y-93409200D03*
D48*
%TO.P,U301,5,FB_5*%
%TO.N,Net-(U301-FB)*%
X124219400Y-94115450D03*
%TO.P,U301,6,AGND_6*%
%TO.N,GND*%
X123719400Y-94115450D03*
%TO.P,U301,7,FSW_7*%
X123219400Y-94115450D03*
%TO.P,U301,8,DEF_8*%
X122719400Y-94115450D03*
D47*
%TO.P,U301,9,SS/TR_9*%
%TO.N,Net-(U301-SS{slash}TR)*%
X122013150Y-93409200D03*
%TO.P,U301,10,AVIN_10*%
%TO.N,Vin*%
X122013150Y-92909200D03*
%TO.P,U301,11,PVIN_11*%
X122013150Y-92409200D03*
%TO.P,U301,12,PVIN_12*%
X122013150Y-91909200D03*
D48*
%TO.P,U301,13,EN_13*%
%TO.N,POS5_RUN*%
X122719400Y-91202950D03*
%TO.P,U301,14,VOS_14*%
%TO.N,+5V*%
X123219400Y-91202950D03*
%TO.P,U301,15,PGND_15*%
%TO.N,GND*%
X123719400Y-91202950D03*
%TO.P,U301,16,PGND_16*%
X124219400Y-91202950D03*
D49*
%TO.P,U301,17,EP_17*%
X123469400Y-92659200D03*
%TD*%
D50*
%TO.P,C301,1*%
%TO.N,Vin*%
X120167400Y-91619200D03*
%TO.P,C301,2*%
%TO.N,GND*%
X120167400Y-88619200D03*
%TD*%
D14*
%TO.P,TP202,1,1_1*%
%TO.N,Vin*%
X116941600Y-86766400D03*
%TD*%
D16*
%TO.P,Q701,1,G_1*%
%TO.N,Net-(Q701-G)*%
X146469950Y-96331800D03*
%TO.P,Q701,2,S_2*%
%TO.N,GND*%
X146469950Y-95031800D03*
%TO.P,Q701,3,D_3*%
%TO.N,Net-(Q701-D)*%
X148244950Y-95681800D03*
%TD*%
D18*
%TO.P,J201,1,Pin_1_1*%
%TO.N,/Input Power/VIN_BATT*%
X99015550Y-95796350D03*
X104019350Y-95796350D03*
X99015550Y-88785950D03*
X104019350Y-88785950D03*
%TD*%
D19*
%TO.P,R403,1,1_1*%
%TO.N,TACH_PULSE*%
X117493200Y-72390000D03*
%TO.P,R403,2,2_2*%
%TO.N,GND*%
X116593200Y-72390000D03*
%TD*%
D21*
%TO.P,C502,1*%
%TO.N,+5V*%
X134708200Y-76889000D03*
%TO.P,C502,2*%
%TO.N,GND*%
X135808200Y-76889000D03*
%TD*%
D51*
%TO.P,C304,1*%
%TO.N,+5V*%
X125223400Y-89230200D03*
%TO.P,C304,2*%
%TO.N,GND*%
X122223400Y-89230200D03*
%TD*%
D13*
%TO.P,R305,1,1_1*%
%TO.N,Net-(U301-FB)*%
X125374400Y-95257200D03*
%TO.P,R305,2,2_2*%
%TO.N,GND*%
X125374400Y-96157200D03*
%TD*%
D52*
%TO.P,C201,1*%
%TO.N,/Input Power/VIN_FILT*%
X113660800Y-98882200D03*
%TO.P,C201,2*%
%TO.N,GND*%
X107420800Y-98882200D03*
%TD*%
D13*
%TO.P,R702,1,1_1*%
%TO.N,Net-(Q702-G)*%
X145325450Y-99433800D03*
%TO.P,R702,2,2_2*%
%TO.N,LED_R*%
X145325450Y-98533800D03*
%TD*%
D21*
%TO.P,C402,1*%
%TO.N,TACH_PULSE*%
X118449000Y-73406000D03*
%TO.P,C402,2*%
%TO.N,Net-(U401-TACH+)*%
X119549000Y-73406000D03*
%TD*%
D19*
%TO.P,R502,1,1_1*%
%TO.N,~{PIC18F_MCLR}*%
X132646600Y-76064400D03*
%TO.P,R502,2,2_2*%
%TO.N,Net-(C503-Pad1)*%
X131746600Y-76064400D03*
%TD*%
D53*
%TO.P,C305,1*%
%TO.N,Net-(D301-K)*%
X130772600Y-83616800D03*
%TO.P,C305,2*%
%TO.N,GND*%
X129272600Y-83616800D03*
%TD*%
D54*
%TO.P,D401,1*%
%TO.N,/Input Signal/TACH_FILT*%
X111649400Y-62179200D03*
%TO.P,D401,2*%
%TO.N,GND*%
X107349400Y-62179200D03*
%TD*%
D55*
%TO.N,Vin*%
X120700800Y-91846400D03*
X114350800Y-86512400D03*
X119684800Y-91846400D03*
X114350800Y-85496400D03*
%TO.N,GND*%
X107856374Y-62687199D03*
X141441000Y-105978800D03*
X120167400Y-72390000D03*
X145237200Y-107289600D03*
X107445237Y-99139270D03*
X107752382Y-86639400D03*
X133324600Y-77139800D03*
X108768382Y-87655400D03*
X129540000Y-101803200D03*
X123748800Y-88798400D03*
X123748800Y-89814400D03*
X123977400Y-93167200D03*
X119684800Y-89814400D03*
X146468450Y-94538800D03*
X135512200Y-74857000D03*
X141441000Y-107629800D03*
X122910600Y-72669400D03*
X106937237Y-99647270D03*
X107856374Y-61671199D03*
X129184400Y-84709000D03*
X120700800Y-89814400D03*
X121716800Y-89814400D03*
X127736600Y-73050400D03*
X146443050Y-97840800D03*
X119684800Y-88798400D03*
X111300008Y-86509329D03*
X122732800Y-88798400D03*
X123444000Y-70358000D03*
X135512200Y-73841000D03*
X127736600Y-73050400D03*
X146468450Y-101396800D03*
X107953237Y-98631270D03*
X108768382Y-86639400D03*
X111300008Y-85493329D03*
X132207000Y-84785200D03*
X123469400Y-92659200D03*
X106840374Y-61671199D03*
X107752382Y-87655400D03*
X107953237Y-99647270D03*
X106840374Y-62687199D03*
X129540000Y-99110800D03*
X123977400Y-92151200D03*
X112496600Y-93421200D03*
X117729000Y-70434200D03*
X135966200Y-77647800D03*
X135004200Y-74349000D03*
X106937237Y-98631270D03*
X108260382Y-87147400D03*
X134496200Y-73841000D03*
X107348374Y-62179199D03*
X122961400Y-92151200D03*
X123063000Y-71602600D03*
X122732800Y-89814400D03*
X121716800Y-88798400D03*
X134496200Y-74857000D03*
X115951000Y-72390000D03*
X111633000Y-73177400D03*
X122961400Y-93167200D03*
X120700800Y-88798400D03*
%TO.N,Net-(C503-Pad1)*%
X132101800Y-77149800D03*
%TO.N,+5V*%
X147650200Y-107289600D03*
X125755400Y-101777800D03*
X155549600Y-93167200D03*
X125730000Y-99136200D03*
X157353000Y-93167200D03*
X128143000Y-97104200D03*
X135483600Y-82372200D03*
X127228600Y-89814400D03*
X140944600Y-105638600D03*
X127228600Y-88798400D03*
X153746200Y-93167200D03*
X111633000Y-71856600D03*
X126212600Y-89814400D03*
X125196600Y-88798400D03*
X125196600Y-89814400D03*
X135001000Y-69926200D03*
X133324600Y-76504800D03*
X128244600Y-89814400D03*
X122910600Y-73685400D03*
X127025400Y-96139000D03*
X130200400Y-70866000D03*
X123139200Y-90398600D03*
X129768600Y-81534000D03*
X134543800Y-77647800D03*
X118389400Y-70434200D03*
X136017000Y-69926200D03*
X126212600Y-88798400D03*
X128244600Y-88798400D03*
X127076200Y-93929200D03*
X127127000Y-97104200D03*
%TO.N,I2C_SDA*%
X117068600Y-68580000D03*
X136017000Y-72009000D03*
%TO.N,Net-(U201-ILIM)*%
X111683800Y-87471500D03*
%TO.N,Net-(U201-PAD)*%
X113080800Y-89306400D03*
X111556800Y-90322400D03*
X111556800Y-89306400D03*
X112318800Y-89814400D03*
X113080800Y-90322400D03*
%TO.N,+3.3V_USB*%
X127101600Y-108635800D03*
X120599200Y-99923600D03*
X125730000Y-106680000D03*
X118922800Y-105689400D03*
X128143000Y-108635800D03*
X125755400Y-104038400D03*
%TO.N,GND_USB*%
X129540000Y-106705400D03*
X120263100Y-102853200D03*
X105587800Y-104038400D03*
X107721400Y-106146600D03*
X120263100Y-102023200D03*
X119405400Y-107442000D03*
X129540000Y-104063800D03*
X121335800Y-100558600D03*
X114325400Y-106197400D03*
X109372400Y-104089200D03*
X112420400Y-104165400D03*
X119073100Y-102853200D03*
X120421400Y-107442000D03*
X122174000Y-103047800D03*
X110642400Y-104978200D03*
X119073100Y-102023200D03*
%TO.N,USB_UART_RX*%
X127127000Y-99110800D03*
X129311400Y-98526600D03*
%TO.N,/Input Power/VIN_FILT*%
X113238782Y-96418400D03*
X114254782Y-96418400D03*
X113238782Y-95402400D03*
X114935000Y-92608400D03*
X113746782Y-95910400D03*
X114254782Y-95402400D03*
%TO.N,Net-(D701-KB)*%
X153746200Y-94818200D03*
%TO.N,Net-(D701-KR)*%
X155549600Y-94818200D03*
%TO.N,Net-(D701-KG)*%
X157327600Y-94818200D03*
%TO.N,/USB UART Bridge/CONN_USB+*%
X110388400Y-105943400D03*
X115974099Y-101930200D03*
%TO.N,Net-(Q702-G)*%
X146468450Y-99161600D03*
%TO.N,+5V_USB*%
X108127800Y-103886000D03*
%TO.N,TACH_ANALOG*%
X119507000Y-68656200D03*
X119507000Y-70815200D03*
%TO.N,Net-(U401-TACH+)*%
X121335800Y-74295000D03*
%TO.N,Net-(U401-CP1)*%
X120015000Y-71704200D03*
%TO.N,Net-(Q701-G)*%
X146443050Y-95783400D03*
%TO.N,Net-(U401-EMIT)*%
X124968000Y-71780400D03*
%TO.N,/USB UART Bridge/CONN_USB-*%
X111429800Y-108178600D03*
X115974099Y-102946200D03*
%TO.N,POS5_PGOOD*%
X125704600Y-93395800D03*
X133248400Y-94538800D03*
%TO.N,USB_UART_TX_ISO*%
X124206000Y-106883200D03*
X128143000Y-106680000D03*
%TO.N,~{PIC18F_MCLR}*%
X133324600Y-75844400D03*
X139090400Y-76225400D03*
%TO.N,Net-(Q703-G)*%
X146443050Y-102666800D03*
%TO.N,POS5_RUN*%
X122504200Y-90424000D03*
%TO.N,VIN_PGOOD*%
X127863600Y-84683600D03*
%TO.N,Net-(Q301-D)*%
X132207000Y-83515200D03*
%TO.N,USB_UART_RX_ISO*%
X127101600Y-106680000D03*
%TO.N,USB_UART_TX*%
X128143000Y-99110800D03*
%TO.N,Net-(U201-DVDT)*%
X112369600Y-87369900D03*
%TO.N,I2C_SCL*%
X116890800Y-70434200D03*
X134950200Y-71882000D03*
%TO.N,TACH_PULSE*%
X118440200Y-74320400D03*
X139954000Y-73126600D03*
%TO.N,LED_B*%
X132384800Y-73939400D03*
X145313400Y-94411800D03*
%TO.N,LED_R*%
X132130800Y-75285600D03*
X144068800Y-92583000D03*
%TO.N,LED_G*%
X132130800Y-74574400D03*
X145313400Y-101295200D03*
%TD*%
%TO.N,Vin*%
D56*
X119862600Y-91924000D02*
X120167400Y-91619200D01*
X121250800Y-93125200D02*
X120675400Y-93125200D01*
X119862600Y-92887800D02*
X119862600Y-91924000D01*
X120675400Y-93125200D02*
X120100000Y-93125200D01*
X120100000Y-93125200D02*
X119862600Y-92887800D01*
X122013150Y-92909200D02*
X121466800Y-92909200D01*
X121466800Y-92909200D02*
X121250800Y-93125200D01*
%TO.N,GND*%
X145855600Y-107289600D02*
X145855600Y-109038000D01*
X126300000Y-73025000D02*
X127711200Y-73025000D01*
X123130400Y-96148400D02*
X123130400Y-95453200D01*
X135808200Y-77489800D02*
X135966200Y-77647800D01*
X112505182Y-73167000D02*
X111643400Y-73167000D01*
X135404200Y-74749000D02*
X135004200Y-74349000D01*
X123215400Y-94843600D02*
X123647200Y-94843600D01*
X129413000Y-73050400D02*
X129235200Y-73228200D01*
X122719400Y-94779400D02*
X122783600Y-94843600D01*
X129272600Y-84620800D02*
X129184400Y-84709000D01*
X111868800Y-86766400D02*
X111557079Y-86766400D01*
X145855600Y-107289600D02*
X145237200Y-107289600D01*
X116593200Y-72390000D02*
X115951000Y-72390000D01*
X111099600Y-88341200D02*
X111101400Y-88339400D01*
X122783600Y-94843600D02*
X123113800Y-94843600D01*
X111643400Y-73167000D02*
X111633000Y-73177400D01*
X121023800Y-96157200D02*
X123309800Y-96157200D01*
X123219400Y-94839600D02*
X123215400Y-94843600D01*
X123719400Y-94115450D02*
X123719400Y-92909200D01*
X123113800Y-94843600D02*
X123215400Y-94843600D01*
X119549000Y-72390000D02*
X120167400Y-72390000D01*
X123130400Y-95453200D02*
X123130400Y-94860200D01*
X146469950Y-95031800D02*
X146469950Y-94540300D01*
X123130400Y-94860200D02*
X123113800Y-94843600D01*
X135404200Y-75799000D02*
X135404200Y-74749000D01*
X135404200Y-75799000D02*
X135404200Y-76286600D01*
X135808200Y-76690600D02*
X135808200Y-76889000D01*
X127711200Y-73025000D02*
X127736600Y-73050400D01*
X129540000Y-100395000D02*
X129540000Y-99110800D01*
X128143000Y-72644000D02*
X127736600Y-73050400D01*
X123309800Y-96157200D02*
X123139200Y-96157200D01*
X117729000Y-71195500D02*
X117729000Y-70434200D01*
X146468450Y-101862900D02*
X146469950Y-101864400D01*
X129413000Y-72378000D02*
X129413000Y-73050400D01*
X124358400Y-96157200D02*
X123309800Y-96157200D01*
X146443050Y-98306900D02*
X146469950Y-98333800D01*
X127914400Y-73228200D02*
X127736600Y-73050400D01*
X123719400Y-94771400D02*
X123719400Y-94115450D01*
X125374400Y-96157200D02*
X124358400Y-96157200D01*
X110896400Y-86912937D02*
X110896400Y-88214200D01*
X146468450Y-101396800D02*
X146468450Y-101862900D01*
X111101400Y-88339400D02*
X111318800Y-88339400D01*
X111023400Y-88341200D02*
X111099600Y-88341200D01*
X135404200Y-76286600D02*
X135808200Y-76690600D01*
X129272600Y-83616800D02*
X129272600Y-84620800D01*
X111557079Y-86766400D02*
X111300008Y-86509329D01*
X129540000Y-101803200D02*
X129540000Y-100395000D01*
X123219400Y-94115450D02*
X123219400Y-94839600D01*
X135808200Y-76889000D02*
X135808200Y-77489800D01*
X111300008Y-86509329D02*
X110896400Y-86912937D01*
X123719400Y-92909200D02*
X123469400Y-92659200D01*
X128143000Y-72178000D02*
X128143000Y-72644000D01*
X120675400Y-95808800D02*
X121023800Y-96157200D01*
X146443050Y-97840800D02*
X146443050Y-98306900D01*
X145855600Y-109038000D02*
X145140200Y-109753400D01*
X146469950Y-94540300D02*
X146468450Y-94538800D01*
X123647200Y-94843600D02*
X123719400Y-94771400D01*
X123139200Y-96157200D02*
X123130400Y-96148400D01*
X129235200Y-73228200D02*
X127914400Y-73228200D01*
X110896400Y-88214200D02*
X111023400Y-88341200D01*
X122719400Y-94115450D02*
X122719400Y-94779400D01*
X120675400Y-94225200D02*
X120675400Y-95808800D01*
%TO.N,Net-(C503-Pad1)*%
X132076400Y-77124400D02*
X132101800Y-77149800D01*
X131746600Y-77117600D02*
X131753400Y-77124400D01*
X131753400Y-77124400D02*
X132076400Y-77124400D01*
X131746600Y-76064400D02*
X131746600Y-77117600D01*
%TO.N,+5V*%
X129743200Y-81508600D02*
X129768600Y-81534000D01*
X125755400Y-100420400D02*
X125730000Y-100395000D01*
X134708200Y-77483400D02*
X134543800Y-77647800D01*
X128740600Y-70878000D02*
X128540600Y-71078000D01*
X123219400Y-90656600D02*
X123219400Y-91202950D01*
X129413000Y-70878000D02*
X128740600Y-70878000D01*
X128117600Y-70485000D02*
X128143000Y-70459600D01*
X126390400Y-96157200D02*
X127007200Y-96157200D01*
X128703300Y-81508600D02*
X129743200Y-81508600D01*
X128540600Y-71078000D02*
X128143000Y-71078000D01*
X134708200Y-76600800D02*
X134708200Y-76889000D01*
X126300000Y-70485000D02*
X128117600Y-70485000D01*
X118389400Y-70434200D02*
X118389400Y-71185100D01*
X112505182Y-71867000D02*
X111643400Y-71867000D01*
X130188400Y-70878000D02*
X130200400Y-70866000D01*
X128041400Y-87452200D02*
X128041400Y-89556600D01*
X132653400Y-77124400D02*
X132664200Y-77113600D01*
X133046600Y-76564400D02*
X133046600Y-76504800D01*
X129413000Y-70878000D02*
X130188400Y-70878000D01*
X146955600Y-109028800D02*
X147680200Y-109753400D01*
X123139200Y-90398600D02*
X123139200Y-90576400D01*
X146955600Y-107289600D02*
X146955600Y-109028800D01*
X128143000Y-70459600D02*
X128143000Y-69570600D01*
X135004200Y-76304800D02*
X134708200Y-76600800D01*
X125755400Y-101777800D02*
X125755400Y-100420400D01*
X127007200Y-96157200D02*
X127025400Y-96139000D01*
X135004200Y-75799000D02*
X135004200Y-76304800D01*
X128143000Y-69570600D02*
X127787400Y-69215000D01*
X132782400Y-76564400D02*
X133046600Y-76564400D01*
X134708200Y-76889000D02*
X134708200Y-77483400D01*
X125730000Y-100395000D02*
X125730000Y-99136200D01*
X127787400Y-69215000D02*
X126300000Y-69215000D01*
X133046600Y-76504800D02*
X133324600Y-76504800D01*
X123139200Y-90576400D02*
X123219400Y-90656600D01*
X111643400Y-71867000D02*
X111633000Y-71856600D01*
X132664200Y-77113600D02*
X132664200Y-76682600D01*
X128143000Y-71078000D02*
X128143000Y-70459600D01*
X132664200Y-76682600D02*
X132782400Y-76564400D01*
X118389400Y-71185100D02*
X118379000Y-71195500D01*
X146955600Y-107289600D02*
X147650200Y-107289600D01*
%TO.N,I2C_SDA*%
X117079000Y-68590400D02*
X117068600Y-68580000D01*
X135804200Y-72221800D02*
X136017000Y-72009000D01*
X135804200Y-72899000D02*
X135804200Y-72221800D01*
X117079000Y-69520500D02*
X117079000Y-68590400D01*
%TO.N,Net-(U201-ILIM)*%
X111818800Y-87606500D02*
X111683800Y-87471500D01*
X111818800Y-88339400D02*
X111818800Y-87606500D01*
%TO.N,+3.3V_USB*%
X125730000Y-105345000D02*
X125730000Y-106680000D01*
X125755400Y-104038400D02*
X125755400Y-105319600D01*
X125755400Y-105319600D02*
X125730000Y-105345000D01*
%TO.N,GND_USB*%
X109386800Y-104536400D02*
X109386800Y-104103600D01*
X112434800Y-104536400D02*
X112434800Y-104179800D01*
D57*
X117678100Y-102946200D02*
X118980100Y-102946200D01*
D56*
X107925000Y-106350200D02*
X107721400Y-106146600D01*
X114325000Y-107038600D02*
X114325000Y-106197800D01*
X114325000Y-106197800D02*
X114325400Y-106197400D01*
X106846800Y-105536400D02*
X107111200Y-105536400D01*
X129540000Y-105345000D02*
X129540000Y-104063800D01*
X105576800Y-104049400D02*
X105587800Y-104038400D01*
X107925000Y-107038600D02*
X107925000Y-106350200D01*
D57*
X117678100Y-101930200D02*
X118980100Y-101930200D01*
X118980100Y-102946200D02*
X119073100Y-102853200D01*
D56*
X109386800Y-104103600D02*
X109372400Y-104089200D01*
X112434800Y-104179800D02*
X112420400Y-104165400D01*
D57*
X118980100Y-101930200D02*
X119073100Y-102023200D01*
D56*
X107111200Y-105536400D02*
X107721400Y-106146600D01*
X105576800Y-104536400D02*
X105576800Y-104049400D01*
X129540000Y-105345000D02*
X129540000Y-106705400D01*
%TO.N,USB_UART_RX*%
X133554200Y-73549000D02*
X132934200Y-73549000D01*
X134467600Y-82219800D02*
X134467600Y-96113600D01*
X130581400Y-78333600D02*
X134467600Y-82219800D01*
X130581400Y-74625200D02*
X130581400Y-78333600D01*
X127000000Y-99237800D02*
X127127000Y-99110800D01*
X127000000Y-100395000D02*
X127000000Y-99237800D01*
X132934200Y-73549000D02*
X132816600Y-73431400D01*
X132054600Y-98526600D02*
X134467600Y-96113600D01*
X132816600Y-73431400D02*
X131775200Y-73431400D01*
X129311400Y-98526600D02*
X132054600Y-98526600D01*
X131775200Y-73431400D02*
X130581400Y-74625200D01*
%TO.N,Net-(D701-KB)*%
X153746200Y-94818200D02*
X153746200Y-95389000D01*
X153746200Y-95389000D02*
X153771600Y-95414400D01*
%TO.N,Net-(D701-KR)*%
X155549600Y-94818200D02*
X155549600Y-95414400D01*
%TO.N,Net-(D701-KG)*%
X157327600Y-94818200D02*
X157327600Y-95414400D01*
%TO.N,/USB UART Bridge/CONN_USB+*%
D57*
X111375000Y-106168000D02*
X111150400Y-105943400D01*
X110375000Y-107038600D02*
X110375000Y-105956800D01*
X116578100Y-101930200D02*
X115974099Y-101930200D01*
X110375000Y-105956800D02*
X110388400Y-105943400D01*
X111375000Y-107038600D02*
X111375000Y-106168000D01*
X111150400Y-105943400D02*
X110388400Y-105943400D01*
%TO.N,Net-(Q702-G)*%
D56*
X145325450Y-99433800D02*
X145699250Y-99433800D01*
X145699250Y-99433800D02*
X145899250Y-99633800D01*
X145899250Y-99633800D02*
X146469950Y-99633800D01*
X146468450Y-99632300D02*
X146469950Y-99633800D01*
X146468450Y-99161600D02*
X146468450Y-99632300D01*
%TO.N,+5V_USB*%
D58*
X108127800Y-104525400D02*
X108116800Y-104536400D01*
D56*
X106846800Y-104436400D02*
X107408200Y-104436400D01*
X107508200Y-104536400D02*
X108116800Y-104536400D01*
D58*
X108127800Y-103886000D02*
X108127800Y-104525400D01*
D56*
X107408200Y-104436400D02*
X107508200Y-104536400D01*
%TO.N,TACH_ANALOG*%
X135534400Y-70408800D02*
X135404200Y-70539000D01*
X135534400Y-69037200D02*
X135534400Y-70408800D01*
X119507000Y-68656200D02*
X120523000Y-67640200D01*
X119507000Y-70300000D02*
X119906200Y-70300000D01*
X120091200Y-70485000D02*
X121350000Y-70485000D01*
X134137400Y-67640200D02*
X135534400Y-69037200D01*
X135404200Y-70539000D02*
X135404200Y-72899000D01*
X120523000Y-67640200D02*
X134137400Y-67640200D01*
X119906200Y-70300000D02*
X120091200Y-70485000D01*
X119507000Y-70815200D02*
X119507000Y-70300000D01*
%TO.N,Net-(U401-TACH+)*%
X121335800Y-73039200D02*
X121350000Y-73025000D01*
X121335800Y-74295000D02*
X121335800Y-73039200D01*
X119964200Y-73406000D02*
X120345200Y-73025000D01*
X119549000Y-73406000D02*
X119964200Y-73406000D01*
X120345200Y-73025000D02*
X121350000Y-73025000D01*
%TO.N,Net-(U401-CP1)*%
X120015000Y-71704200D02*
X121299200Y-71704200D01*
X121299200Y-71704200D02*
X121350000Y-71755000D01*
%TO.N,Net-(Q701-G)*%
X146469950Y-96331800D02*
X145924650Y-96331800D01*
X146443050Y-95783400D02*
X146443050Y-96304900D01*
X145924650Y-96331800D02*
X145724651Y-96131801D01*
X146443050Y-96304900D02*
X146469950Y-96331800D01*
X145724651Y-96131801D02*
X145328939Y-96131801D01*
%TO.N,Net-(U401-EMIT)*%
X121350000Y-69215000D02*
X124409200Y-69215000D01*
X124968000Y-69773800D02*
X124968000Y-71780400D01*
X124409200Y-69215000D02*
X124968000Y-69773800D01*
X124968000Y-71780400D02*
X126274600Y-71780400D01*
X126274600Y-71780400D02*
X126300000Y-71755000D01*
%TO.N,/USB UART Bridge/CONN_USB-*%
D57*
X110875000Y-107928600D02*
X111125000Y-108178600D01*
X111125000Y-108178600D02*
X111429800Y-108178600D01*
X116578100Y-102946200D02*
X115974099Y-102946200D01*
X110875000Y-107038600D02*
X110875000Y-107928600D01*
X111683800Y-108178600D02*
X111429800Y-108178600D01*
X111875000Y-107987400D02*
X111683800Y-108178600D01*
X111875000Y-107038600D02*
X111875000Y-107987400D01*
%TO.N,POS5_PGOOD*%
D56*
X125691200Y-93409200D02*
X125704600Y-93395800D01*
X129438400Y-74269600D02*
X131673600Y-72034400D01*
X134604200Y-72272600D02*
X134604200Y-72899000D01*
X129438400Y-78892400D02*
X129438400Y-74269600D01*
X131673600Y-72034400D02*
X134366000Y-72034400D01*
X124925650Y-93409200D02*
X125691200Y-93409200D01*
X133248400Y-94538800D02*
X133248400Y-82702400D01*
X134366000Y-72034400D02*
X134604200Y-72272600D01*
X133248400Y-82702400D02*
X129438400Y-78892400D01*
%TO.N,USB_UART_TX_ISO*%
X127685800Y-107492800D02*
X124815600Y-107492800D01*
X128270000Y-105345000D02*
X128270000Y-106553000D01*
X128270000Y-106553000D02*
X128143000Y-106680000D01*
X128143000Y-107035600D02*
X127685800Y-107492800D01*
X124815600Y-107492800D02*
X124206000Y-106883200D01*
X128143000Y-106680000D02*
X128143000Y-107035600D01*
%TO.N,PIC18F_ICSPCLK*%
X138328400Y-76098400D02*
X138328400Y-82854800D01*
X136454200Y-75149000D02*
X137379000Y-75149000D01*
X140060200Y-104398600D02*
X140060200Y-109753400D01*
X136118600Y-85064600D02*
X136118600Y-100457000D01*
X137379000Y-75149000D02*
X138328400Y-76098400D01*
X138328400Y-82854800D02*
X136118600Y-85064600D01*
X136118600Y-100457000D02*
X140060200Y-104398600D01*
%TO.N,PIC18F_ICSPDAT*%
X141127000Y-111226600D02*
X139420600Y-111226600D01*
X135382000Y-100812600D02*
X135382000Y-84302600D01*
X139420600Y-111226600D02*
X138760200Y-110566200D01*
X137236200Y-76098400D02*
X136936800Y-75799000D01*
X135382000Y-84302600D02*
X137236200Y-82448400D01*
X138760200Y-104190800D02*
X135382000Y-100812600D01*
X142600200Y-109753400D02*
X141127000Y-111226600D01*
X138760200Y-110566200D02*
X138760200Y-104190800D01*
X137236200Y-82448400D02*
X137236200Y-76098400D01*
X136936800Y-75799000D02*
X135804200Y-75799000D01*
%TO.N,~{PIC18F_MCLR}*%
X141046200Y-104368600D02*
X148844000Y-104368600D01*
X136728200Y-85242400D02*
X136728200Y-100050600D01*
X133104600Y-76064400D02*
X133324600Y-75844400D01*
X132832600Y-75149000D02*
X132646600Y-75335000D01*
X148844000Y-104368600D02*
X150220200Y-105744800D01*
X132646600Y-76064400D02*
X133104600Y-76064400D01*
X150220200Y-105744800D02*
X150220200Y-109753400D01*
X133554200Y-75149000D02*
X132832600Y-75149000D01*
X139090400Y-82880200D02*
X136728200Y-85242400D01*
X132646600Y-75335000D02*
X132646600Y-76064400D01*
X136728200Y-100050600D02*
X141046200Y-104368600D01*
X139090400Y-76225400D02*
X139090400Y-82880200D01*
%TO.N,Net-(Q703-G)*%
X146469950Y-102693700D02*
X146443050Y-102666800D01*
X145899250Y-103164400D02*
X146469950Y-103164400D01*
X146469950Y-103164400D02*
X146469950Y-102693700D01*
X145699250Y-102964400D02*
X145899250Y-103164400D01*
X145325450Y-102964400D02*
X145699250Y-102964400D01*
%TO.N,POS5_RUN*%
X122719400Y-90639200D02*
X122504200Y-90424000D01*
X122719400Y-91202950D02*
X122719400Y-90639200D01*
%TO.N,VIN_PGOOD*%
X112768800Y-79941000D02*
X112768800Y-86766400D01*
X112768800Y-86766400D02*
X113646800Y-86766400D01*
X112818800Y-88339400D02*
X112818800Y-87758900D01*
X112818800Y-87758900D02*
X113157000Y-87420700D01*
X113538000Y-87420700D02*
X113646800Y-87311900D01*
X127863600Y-79908400D02*
X126085600Y-78130400D01*
X113646800Y-87311900D02*
X113646800Y-86766400D01*
X114579400Y-78130400D02*
X112768800Y-79941000D01*
X126085600Y-78130400D02*
X114579400Y-78130400D01*
X127863600Y-84683600D02*
X127863600Y-79908400D01*
X113157000Y-87420700D02*
X113538000Y-87420700D01*
%TO.N,Net-(Q301-D)*%
X132207000Y-83515200D02*
X132207000Y-83166800D01*
%TO.N,USB_UART_RX_ISO*%
X127000000Y-105345000D02*
X127000000Y-106578400D01*
X127000000Y-106578400D02*
X127101600Y-106680000D01*
%TO.N,USB_UART_TX*%
X128143000Y-98831400D02*
X128143000Y-99110800D01*
X129997200Y-74422000D02*
X129997200Y-78740000D01*
X131800600Y-97967800D02*
X129006600Y-97967800D01*
X133908800Y-82651600D02*
X133908800Y-95859600D01*
X129997200Y-78740000D02*
X133908800Y-82651600D01*
X128270000Y-99237800D02*
X128143000Y-99110800D01*
X131520200Y-72899000D02*
X129997200Y-74422000D01*
X134204200Y-72899000D02*
X131520200Y-72899000D01*
X133908800Y-95859600D02*
X131800600Y-97967800D01*
X128270000Y-100395000D02*
X128270000Y-99237800D01*
X129006600Y-97967800D02*
X128143000Y-98831400D01*
%TO.N,Net-(U201-DVDT)*%
X112318800Y-88339400D02*
X112318800Y-87420700D01*
X112318800Y-87420700D02*
X112369600Y-87369900D01*
%TO.N,I2C_SCL*%
X117079000Y-70622400D02*
X116890800Y-70434200D01*
X135004200Y-71936000D02*
X134950200Y-71882000D01*
X135004200Y-72899000D02*
X135004200Y-71936000D01*
X117079000Y-71195500D02*
X117079000Y-70622400D01*
%TO.N,Net-(U402-W)*%
X119507000Y-69400000D02*
X118966400Y-69400000D01*
X118845900Y-69520500D02*
X118379000Y-69520500D01*
X118966400Y-69400000D02*
X118845900Y-69520500D01*
%TO.N,Net-(Q703-D)*%
X156540200Y-102514400D02*
X157327600Y-101727000D01*
X157327600Y-101727000D02*
X157327600Y-96914400D01*
X148244950Y-102514400D02*
X156540200Y-102514400D01*
%TO.N,Net-(U301-FB)*%
X124219400Y-94115450D02*
X124219400Y-94704600D01*
X124219400Y-94704600D02*
X124358400Y-94843600D01*
X124358400Y-94843600D02*
X124358400Y-95257200D01*
X124358400Y-95257200D02*
X126390400Y-95257200D01*
%TO.N,C2OUT*%
X138414200Y-73949000D02*
X138560200Y-74095000D01*
X136454200Y-73949000D02*
X138414200Y-73949000D01*
%TO.N,/Input Signal/TACH_IN*%
D59*
X104046006Y-66946794D02*
X104472642Y-66520158D01*
X104046006Y-70016356D02*
X104046006Y-66946794D01*
X104472642Y-66520158D02*
X105460295Y-66520158D01*
%TO.N,/Input Signal/TACH_FILT*%
X111649400Y-66511158D02*
X111658400Y-66520158D01*
X107460295Y-66520158D02*
X111658400Y-66520158D01*
X111658400Y-66520158D02*
X113180295Y-66520158D01*
X111649400Y-62179200D02*
X111649400Y-66511158D01*
%TO.N,Net-(J601-CC2)*%
D56*
X109375000Y-107038600D02*
X109375000Y-105448200D01*
X109375000Y-105448200D02*
X109386800Y-105436400D01*
%TO.N,Net-(U201-UVLO)*%
X113392800Y-92608400D02*
X112514800Y-92608400D01*
X112514800Y-92203100D02*
X112514800Y-92608400D01*
X112818800Y-91899100D02*
X112514800Y-92203100D01*
X112818800Y-91289400D02*
X112818800Y-91899100D01*
%TO.N,TACH_PULSE*%
X118449000Y-73406000D02*
X118449000Y-72390000D01*
X136454200Y-74349000D02*
X137315600Y-74349000D01*
X139954000Y-74701400D02*
X139954000Y-73126600D01*
X115976400Y-73406000D02*
X118449000Y-73406000D01*
X118440200Y-74320400D02*
X118440200Y-73414800D01*
X115080295Y-66520158D02*
X115080295Y-72509895D01*
X117493200Y-72390000D02*
X118449000Y-72390000D01*
X138226800Y-75260200D02*
X139395200Y-75260200D01*
X115073190Y-72517000D02*
X115080295Y-72509895D01*
X115080295Y-72509895D02*
X115976400Y-73406000D01*
X139395200Y-75260200D02*
X139954000Y-74701400D01*
X137315600Y-74349000D02*
X138226800Y-75260200D01*
X118440200Y-73414800D02*
X118449000Y-73406000D01*
X114280182Y-72517000D02*
X115073190Y-72517000D01*
%TO.N,Net-(D301-K)*%
X130706900Y-83551100D02*
X130772600Y-83616800D01*
X130478300Y-82158600D02*
X130706900Y-82387200D01*
X131216400Y-83616800D02*
X131666400Y-84066800D01*
X131666400Y-84066800D02*
X132207000Y-84066800D01*
X130772600Y-83616800D02*
X131216400Y-83616800D01*
X130706900Y-82387200D02*
X130706900Y-83551100D01*
%TO.N,Net-(U201-OVP)*%
X111614800Y-92188700D02*
X111614800Y-92608400D01*
X112318800Y-91289400D02*
X112318800Y-91865700D01*
X112115600Y-92068900D02*
X111734600Y-92068900D01*
X111734600Y-92068900D02*
X111614800Y-92188700D01*
X111614800Y-92608400D02*
X110736800Y-92608400D01*
X112318800Y-91865700D02*
X112115600Y-92068900D01*
%TO.N,Net-(Q701-D)*%
X151079200Y-95681800D02*
X148244950Y-95681800D01*
X152311800Y-96914400D02*
X151079200Y-95681800D01*
X153771600Y-96914400D02*
X152311800Y-96914400D01*
%TO.N,LED_B*%
X145328939Y-94427339D02*
X145313400Y-94411800D01*
X145328939Y-95231801D02*
X145328939Y-94427339D01*
X133554200Y-73949000D02*
X132394400Y-73949000D01*
X132394400Y-73949000D02*
X132384800Y-73939400D01*
%TO.N,Net-(J601-VBUS-PadA4)*%
X113525000Y-107649006D02*
X113525000Y-107038600D01*
X108116800Y-105754600D02*
X108116800Y-105436400D01*
X109829600Y-108712000D02*
X112462006Y-108712000D01*
X112462006Y-108712000D02*
X113525000Y-107649006D01*
X108725000Y-107038600D02*
X108725000Y-106362800D01*
X108725000Y-107038600D02*
X108725000Y-107607400D01*
X108725000Y-106362800D02*
X108116800Y-105754600D01*
X108725000Y-107607400D02*
X109829600Y-108712000D01*
%TO.N,Net-(J601-CC1)*%
X112375000Y-107038600D02*
X112375000Y-105496200D01*
X112375000Y-105496200D02*
X112434800Y-105436400D01*
%TO.N,Net-(J601-SHIELD)*%
D58*
X106015000Y-111543600D02*
X116235000Y-111543600D01*
X116235000Y-111543600D02*
X116235000Y-107613600D01*
X105576800Y-105856200D02*
X106015000Y-106294400D01*
X105576800Y-105436400D02*
X105576800Y-105856200D01*
X106015000Y-107613600D02*
X106015000Y-111543600D01*
X106015000Y-106294400D02*
X106015000Y-107613600D01*
%TO.N,Net-(Q702-D)*%
D56*
X148244950Y-98983800D02*
X155016200Y-98983800D01*
X155549600Y-98450400D02*
X155549600Y-96914400D01*
X155016200Y-98983800D02*
X155549600Y-98450400D01*
%TO.N,LED_R*%
X144068800Y-96951800D02*
X144068800Y-92583000D01*
X145325450Y-98208450D02*
X144068800Y-96951800D01*
X145325450Y-98533800D02*
X145325450Y-98208450D01*
X132232400Y-75285600D02*
X132130800Y-75285600D01*
X132769000Y-74749000D02*
X132232400Y-75285600D01*
X133554200Y-74749000D02*
X132769000Y-74749000D01*
%TO.N,LED_G*%
X132435600Y-74574400D02*
X132130800Y-74574400D01*
X133554200Y-74349000D02*
X132661000Y-74349000D01*
X132661000Y-74349000D02*
X132435600Y-74574400D01*
X145313400Y-102052350D02*
X145325450Y-102064400D01*
X145313400Y-101295200D02*
X145313400Y-102052350D01*
%TO.N,OPA1OUT*%
X137525000Y-73549000D02*
X138560200Y-72513800D01*
X138560200Y-72513800D02*
X138560200Y-72063000D01*
X136454200Y-73549000D02*
X137525000Y-73549000D01*
%TO.N,CLKR*%
X134604200Y-75799000D02*
X134604200Y-76199000D01*
X134061200Y-76586000D02*
X134061200Y-77832000D01*
X134604200Y-76199000D02*
X134364200Y-76439000D01*
X134208200Y-76439000D02*
X134061200Y-76586000D01*
X134364200Y-76439000D02*
X134208200Y-76439000D01*
X134061200Y-77832000D02*
X132972200Y-78921000D01*
%TO.N,Net-(U301-SS{slash}TR)*%
X122013150Y-93409200D02*
X122013150Y-95435950D01*
X122013150Y-95435950D02*
X122030400Y-95453200D01*
%TD*%
%TA.AperFunction,Conductor*%
%TO.N,Net-(U201-PAD)*%
G36*
X110872373Y-88511906D02*
G01*
X110894532Y-88534065D01*
X110894533Y-88534065D01*
X110894535Y-88534067D01*
X110978144Y-88568699D01*
X110978147Y-88568700D01*
X110988801Y-88568700D01*
X111032995Y-88587006D01*
X111051301Y-88631200D01*
X111051301Y-88713850D01*
X111057821Y-88746636D01*
X111062758Y-88771459D01*
X111062758Y-88771460D01*
X111062759Y-88771461D01*
X111106411Y-88836789D01*
X111171739Y-88880441D01*
X111229349Y-88891900D01*
X111408250Y-88891899D01*
X111465861Y-88880441D01*
X111531189Y-88836789D01*
X111531188Y-88836789D01*
X111534076Y-88834860D01*
X111580992Y-88825527D01*
X111603524Y-88834860D01*
X111671736Y-88880440D01*
X111671739Y-88880441D01*
X111729349Y-88891900D01*
X111908250Y-88891899D01*
X111965861Y-88880441D01*
X112031189Y-88836789D01*
X112031188Y-88836789D01*
X112034076Y-88834860D01*
X112080992Y-88825527D01*
X112103524Y-88834860D01*
X112171736Y-88880440D01*
X112171739Y-88880441D01*
X112229349Y-88891900D01*
X112408250Y-88891899D01*
X112465861Y-88880441D01*
X112531189Y-88836789D01*
X112531188Y-88836789D01*
X112534076Y-88834860D01*
X112580992Y-88825527D01*
X112603524Y-88834860D01*
X112671736Y-88880440D01*
X112671739Y-88880441D01*
X112729349Y-88891900D01*
X112908250Y-88891899D01*
X112965861Y-88880441D01*
X113031189Y-88836789D01*
X113031188Y-88836789D01*
X113034076Y-88834860D01*
X113080992Y-88825527D01*
X113103524Y-88834860D01*
X113171736Y-88880440D01*
X113171739Y-88880441D01*
X113229349Y-88891900D01*
X113408250Y-88891899D01*
X113408937Y-88891762D01*
X113463309Y-88880949D01*
X113510225Y-88890282D01*
X113536799Y-88930057D01*
X113538000Y-88942248D01*
X113538000Y-90686552D01*
X113519694Y-90730746D01*
X113475500Y-90749052D01*
X113463307Y-90747851D01*
X113408251Y-90736900D01*
X113408250Y-90736900D01*
X113229353Y-90736900D01*
X113171739Y-90748358D01*
X113103524Y-90793940D01*
X113056607Y-90803272D01*
X113034076Y-90793940D01*
X112966898Y-90749052D01*
X112965861Y-90748359D01*
X112965860Y-90748358D01*
X112919709Y-90739179D01*
X112908251Y-90736900D01*
X112908250Y-90736900D01*
X112729353Y-90736900D01*
X112671739Y-90748358D01*
X112603524Y-90793940D01*
X112556607Y-90803272D01*
X112534076Y-90793940D01*
X112466898Y-90749052D01*
X112465861Y-90748359D01*
X112465860Y-90748358D01*
X112419709Y-90739179D01*
X112408251Y-90736900D01*
X112408250Y-90736900D01*
X112229353Y-90736900D01*
X112171739Y-90748358D01*
X112103524Y-90793940D01*
X112056607Y-90803272D01*
X112034076Y-90793940D01*
X111966898Y-90749052D01*
X111965861Y-90748359D01*
X111965860Y-90748358D01*
X111919709Y-90739179D01*
X111908251Y-90736900D01*
X111908250Y-90736900D01*
X111729353Y-90736900D01*
X111671740Y-90748358D01*
X111606411Y-90792011D01*
X111562758Y-90857339D01*
X111551300Y-90914948D01*
X111551300Y-91663846D01*
X111562758Y-91721459D01*
X111606413Y-91786792D01*
X111606499Y-91786878D01*
X111606545Y-91786989D01*
X111609831Y-91791907D01*
X111608852Y-91792560D01*
X111624805Y-91831072D01*
X111606500Y-91875266D01*
X111605732Y-91876033D01*
X111605732Y-91876034D01*
X111485932Y-91995835D01*
X111421936Y-92059830D01*
X111421932Y-92059835D01*
X111387300Y-92143444D01*
X111386099Y-92149485D01*
X111383588Y-92148985D01*
X111368994Y-92184219D01*
X111359523Y-92191992D01*
X111322877Y-92216477D01*
X111294698Y-92258650D01*
X111294698Y-92258651D01*
X111287300Y-92295842D01*
X111287300Y-92318400D01*
X111268994Y-92362594D01*
X111224800Y-92380900D01*
X111126800Y-92380900D01*
X111082606Y-92362594D01*
X111064300Y-92318400D01*
X111064300Y-92295842D01*
X111062046Y-92284511D01*
X111056902Y-92258652D01*
X111056901Y-92258650D01*
X111028722Y-92216477D01*
X110986548Y-92188298D01*
X110949358Y-92180900D01*
X110524242Y-92180900D01*
X110509302Y-92183872D01*
X110487051Y-92188298D01*
X110487050Y-92188298D01*
X110444877Y-92216477D01*
X110416698Y-92258650D01*
X110416698Y-92258651D01*
X110409300Y-92295842D01*
X110409300Y-92825300D01*
X110390994Y-92869494D01*
X110346800Y-92887800D01*
X109739700Y-92887800D01*
X109695506Y-92869494D01*
X109677200Y-92825300D01*
X109677200Y-88556100D01*
X109695506Y-88511906D01*
X109739700Y-88493600D01*
X110828179Y-88493600D01*
X110872373Y-88511906D01*
G37*
%TD.AperFunction*%
%TD*%
%TA.AperFunction,Conductor*%
%TO.N,GND*%
G36*
X124292999Y-88065527D02*
G01*
X124299898Y-88068385D01*
X124315804Y-88084291D01*
X124326413Y-88094898D01*
X124329271Y-88101799D01*
X124333000Y-88120547D01*
X124333000Y-92016252D01*
X124329271Y-92035003D01*
X124326416Y-92041896D01*
X124299898Y-92068414D01*
X124293003Y-92071270D01*
X124274253Y-92075000D01*
X123528147Y-92075000D01*
X123509399Y-92071271D01*
X123502501Y-92068414D01*
X123475985Y-92041898D01*
X123473127Y-92034997D01*
X123469400Y-92016252D01*
X123469400Y-90530164D01*
X123469819Y-90523770D01*
X123470650Y-90517456D01*
X123471899Y-90511174D01*
X123489700Y-90444744D01*
X123489700Y-90352456D01*
X123489700Y-90352453D01*
X123489700Y-90352451D01*
X123465813Y-90263311D01*
X123465813Y-90263310D01*
X123446543Y-90229935D01*
X123420402Y-90184657D01*
X123419867Y-90183664D01*
X123419670Y-90183390D01*
X123419669Y-90183388D01*
X123354412Y-90118131D01*
X123327611Y-90102657D01*
X123327611Y-90102656D01*
X123293932Y-90083212D01*
X123274489Y-90071986D01*
X123274486Y-90071985D01*
X123274483Y-90071984D01*
X123274477Y-90071982D01*
X123185349Y-90048100D01*
X123185347Y-90048100D01*
X123185344Y-90048100D01*
X123095376Y-90048100D01*
X123088975Y-90047680D01*
X123073849Y-90045687D01*
X123066178Y-90043632D01*
X123063001Y-90043000D01*
X123063000Y-90043000D01*
X123062998Y-90043000D01*
X119438747Y-90043000D01*
X119419999Y-90039271D01*
X119413101Y-90036414D01*
X119386585Y-90009898D01*
X119383727Y-90002997D01*
X119380000Y-89984252D01*
X119380000Y-88120547D01*
X119383727Y-88101802D01*
X119386583Y-88094906D01*
X119413094Y-88068388D01*
X119420002Y-88065526D01*
X119438747Y-88061800D01*
X124274253Y-88061800D01*
X124292999Y-88065527D01*
G37*
%TD.AperFunction*%
%TD*%
%TA.AperFunction,Conductor*%
%TO.N,Vin*%
G36*
X122413648Y-91098752D02*
G01*
X122428000Y-91133400D01*
X122428000Y-92483200D01*
X122413648Y-92517848D01*
X122379000Y-92532200D01*
X119532400Y-92532200D01*
X120980200Y-91084400D01*
X122379000Y-91084400D01*
X122413648Y-91098752D01*
G37*
%TD.AperFunction*%
%TD*%
%TA.AperFunction,Conductor*%
%TO.N,Net-(L301-Pad1)*%
G36*
X128610999Y-91494527D02*
G01*
X128617898Y-91497385D01*
X128633804Y-91513291D01*
X128644413Y-91523898D01*
X128647271Y-91530799D01*
X128651000Y-91549547D01*
X128651000Y-92981452D01*
X128647271Y-93000203D01*
X128644416Y-93007096D01*
X128617898Y-93033614D01*
X128611003Y-93036470D01*
X128592253Y-93040200D01*
X124569547Y-93040200D01*
X124550799Y-93036471D01*
X124543901Y-93033614D01*
X124517385Y-93007098D01*
X124514527Y-93000197D01*
X124510800Y-92981452D01*
X124510800Y-91549547D01*
X124514527Y-91530802D01*
X124517383Y-91523906D01*
X124543894Y-91497388D01*
X124550802Y-91494526D01*
X124569547Y-91490800D01*
X128592253Y-91490800D01*
X128610999Y-91494527D01*
G37*
%TD.AperFunction*%
%TD*%
%TA.AperFunction,Conductor*%
%TO.N,/Input Power/VIN_FILT*%
G36*
X116204789Y-90835159D02*
G01*
X116213568Y-90838796D01*
X116213569Y-90838796D01*
X116213570Y-90838796D01*
X116213571Y-90838797D01*
X116213578Y-90838800D01*
X116245223Y-90870442D01*
X116247398Y-90872617D01*
X116251040Y-90881409D01*
X116255800Y-90905331D01*
X116255800Y-100102668D01*
X116251040Y-100126592D01*
X116247398Y-100135382D01*
X116213584Y-100169197D01*
X116207557Y-100171694D01*
X116204792Y-100172839D01*
X116180869Y-100177600D01*
X112698531Y-100177600D01*
X112674609Y-100172840D01*
X112669228Y-100170611D01*
X112665817Y-100169198D01*
X112665816Y-100169197D01*
X112631999Y-100135376D01*
X112631996Y-100135370D01*
X112631996Y-100135368D01*
X112628358Y-100126586D01*
X112623600Y-100102668D01*
X112623600Y-94678719D01*
X112628356Y-94654805D01*
X112637150Y-94633574D01*
X112650693Y-94613306D01*
X113157000Y-94107000D01*
X113157000Y-93110831D01*
X113161758Y-93086913D01*
X113165399Y-93078123D01*
X113199222Y-93044299D01*
X113208013Y-93040657D01*
X113231931Y-93035900D01*
X113605357Y-93035900D01*
X113605358Y-93035900D01*
X113642548Y-93028502D01*
X113684722Y-93000322D01*
X113712902Y-92958148D01*
X113720300Y-92920958D01*
X113720300Y-92295842D01*
X113712902Y-92258652D01*
X113712901Y-92258650D01*
X113712899Y-92258647D01*
X113684724Y-92216479D01*
X113684722Y-92216478D01*
X113684722Y-92216477D01*
X113642548Y-92188298D01*
X113642547Y-92188297D01*
X113620298Y-92183872D01*
X113605358Y-92180900D01*
X113605357Y-92180900D01*
X113231931Y-92180900D01*
X113208009Y-92176140D01*
X113202628Y-92173911D01*
X113199217Y-92172498D01*
X113194650Y-92167930D01*
X113165399Y-92138676D01*
X113165396Y-92138670D01*
X113165396Y-92138668D01*
X113161758Y-92129886D01*
X113157000Y-92105968D01*
X113157000Y-90950971D01*
X113175306Y-90906777D01*
X113184767Y-90899010D01*
X113213101Y-90880077D01*
X113235675Y-90870737D01*
X113236412Y-90870590D01*
X113248555Y-90869400D01*
X113389047Y-90869400D01*
X113401240Y-90870601D01*
X113437453Y-90877804D01*
X113437463Y-90877806D01*
X113442454Y-90878546D01*
X113450319Y-90879713D01*
X113462512Y-90880914D01*
X113526206Y-90871466D01*
X113570400Y-90853160D01*
X113595261Y-90839585D01*
X113595261Y-90839584D01*
X113598081Y-90838045D01*
X113628034Y-90830400D01*
X116180869Y-90830400D01*
X116204789Y-90835159D01*
G37*
%TD.AperFunction*%
%TD*%
%TA.AperFunction,Conductor*%
%TO.N,Vin*%
G36*
X118922589Y-85120159D02*
G01*
X118931368Y-85123796D01*
X118931369Y-85123796D01*
X118931370Y-85123796D01*
X118931371Y-85123797D01*
X118931378Y-85123800D01*
X118965198Y-85157617D01*
X118966611Y-85161028D01*
X118968840Y-85166409D01*
X118973600Y-85190331D01*
X118973600Y-91084400D01*
X120829312Y-91084400D01*
X120873506Y-91102706D01*
X120891812Y-91146900D01*
X120873506Y-91191094D01*
X119550706Y-92513894D01*
X119506512Y-92532200D01*
X119354600Y-92532200D01*
X116762531Y-92532200D01*
X116738609Y-92527440D01*
X116733228Y-92525211D01*
X116729817Y-92523798D01*
X116695999Y-92489976D01*
X116695996Y-92489970D01*
X116695996Y-92489968D01*
X116692358Y-92481186D01*
X116687600Y-92457268D01*
X116687600Y-90500200D01*
X114476531Y-90500200D01*
X114452609Y-90495440D01*
X114447228Y-90493211D01*
X114443817Y-90491798D01*
X114409999Y-90457976D01*
X114409996Y-90457970D01*
X114409996Y-90457968D01*
X114406358Y-90449186D01*
X114401600Y-90425268D01*
X114401600Y-88925400D01*
X113715660Y-88925400D01*
X113671466Y-88907094D01*
X113656814Y-88883957D01*
X113646972Y-88856449D01*
X113620398Y-88816674D01*
X113602231Y-88794935D01*
X113602230Y-88794934D01*
X113536075Y-88760327D01*
X113489160Y-88750994D01*
X113437466Y-88750994D01*
X113437465Y-88750994D01*
X113420395Y-88754388D01*
X113401234Y-88758199D01*
X113389045Y-88759399D01*
X113248551Y-88759399D01*
X113236344Y-88758195D01*
X113235613Y-88758049D01*
X113213099Y-88748720D01*
X113177144Y-88724694D01*
X113164637Y-88718009D01*
X113134291Y-88681031D01*
X113131600Y-88662889D01*
X113131600Y-87806152D01*
X113136356Y-87782238D01*
X113145150Y-87761007D01*
X113158693Y-87740739D01*
X113216939Y-87682493D01*
X113237207Y-87668950D01*
X113258438Y-87660156D01*
X113282352Y-87655400D01*
X113639600Y-87655400D01*
X113646523Y-87648476D01*
X113652065Y-87635095D01*
X113665613Y-87614820D01*
X113666868Y-87613565D01*
X113839665Y-87440768D01*
X113850275Y-87415153D01*
X113874300Y-87357153D01*
X113874300Y-87247205D01*
X113879057Y-87223289D01*
X113886177Y-87206098D01*
X113909194Y-87178051D01*
X113938721Y-87158323D01*
X113941971Y-87153460D01*
X113966902Y-87116148D01*
X113974300Y-87078958D01*
X113974300Y-86453842D01*
X113966902Y-86416652D01*
X113966901Y-86416650D01*
X113966899Y-86416647D01*
X113938724Y-86374479D01*
X113938722Y-86374478D01*
X113938722Y-86374477D01*
X113896548Y-86346298D01*
X113896547Y-86346297D01*
X113874298Y-86341872D01*
X113859358Y-86338900D01*
X113859357Y-86338900D01*
X113714531Y-86338900D01*
X113690609Y-86334140D01*
X113685228Y-86331911D01*
X113681817Y-86330498D01*
X113677250Y-86325930D01*
X113647999Y-86296676D01*
X113647996Y-86296670D01*
X113647996Y-86296668D01*
X113644358Y-86287886D01*
X113639600Y-86263968D01*
X113639600Y-85190331D01*
X113644358Y-85166413D01*
X113644361Y-85166407D01*
X113647999Y-85157622D01*
X113681823Y-85123799D01*
X113681828Y-85123797D01*
X113690613Y-85120157D01*
X113714531Y-85115400D01*
X118898669Y-85115400D01*
X118922589Y-85120159D01*
G37*
%TD.AperFunction*%
%TD*%
%TA.AperFunction,Conductor*%
%TO.N,+5V*%
G36*
X128636648Y-88355552D02*
G01*
X128651000Y-88390200D01*
X128651000Y-90273400D01*
X128636648Y-90308048D01*
X128602000Y-90322400D01*
X124737600Y-90322400D01*
X124702952Y-90308048D01*
X124688600Y-90273400D01*
X124688600Y-88390200D01*
X124702952Y-88355552D01*
X124737600Y-88341200D01*
X128602000Y-88341200D01*
X128636648Y-88355552D01*
G37*
%TD.AperFunction*%
%TD*%
M02*
