%TF.GenerationSoftware,KiCad,Pcbnew,10.0.3*%
%TF.CreationDate,2026-07-02T20:43:44-05:00*%
%TF.ProjectId,HEI_Shift_Light,4845495f-5368-4696-9674-5f4c69676874,rev?*%
%TF.SameCoordinates,Original*%
%TF.FileFunction,Legend,Top*%
%TF.FilePolarity,Positive*%
%FSLAX46Y46*%
G04 Gerber Fmt 4.6, Leading zero omitted, Abs format (unit mm)*
G04 Created by KiCad (PCBNEW 10.0.3) date 2026-07-02 20:43:44*
%MOMM*%
%LPD*%
G01*
G04 APERTURE LIST*
%ADD10C,0.100000*%
%ADD11C,0.150000*%
%ADD12C,0.120000*%
G04 APERTURE END LIST*
D10*
X135920798Y-112131019D02*
X135920798Y-112845304D01*
X135920798Y-112845304D02*
X135873179Y-112988161D01*
X135873179Y-112988161D02*
X135777941Y-113083400D01*
X135777941Y-113083400D02*
X135635084Y-113131019D01*
X135635084Y-113131019D02*
X135539846Y-113131019D01*
X136873179Y-113131019D02*
X136396989Y-113131019D01*
X136396989Y-113131019D02*
X136396989Y-112131019D01*
X137777941Y-113035780D02*
X137730322Y-113083400D01*
X137730322Y-113083400D02*
X137587465Y-113131019D01*
X137587465Y-113131019D02*
X137492227Y-113131019D01*
X137492227Y-113131019D02*
X137349370Y-113083400D01*
X137349370Y-113083400D02*
X137254132Y-112988161D01*
X137254132Y-112988161D02*
X137206513Y-112892923D01*
X137206513Y-112892923D02*
X137158894Y-112702447D01*
X137158894Y-112702447D02*
X137158894Y-112559590D01*
X137158894Y-112559590D02*
X137206513Y-112369114D01*
X137206513Y-112369114D02*
X137254132Y-112273876D01*
X137254132Y-112273876D02*
X137349370Y-112178638D01*
X137349370Y-112178638D02*
X137492227Y-112131019D01*
X137492227Y-112131019D02*
X137587465Y-112131019D01*
X137587465Y-112131019D02*
X137730322Y-112178638D01*
X137730322Y-112178638D02*
X137777941Y-112226257D01*
X138492227Y-112131019D02*
X138492227Y-112845304D01*
X138492227Y-112845304D02*
X138444608Y-112988161D01*
X138444608Y-112988161D02*
X138349370Y-113083400D01*
X138349370Y-113083400D02*
X138206513Y-113131019D01*
X138206513Y-113131019D02*
X138111275Y-113131019D01*
X139444608Y-113131019D02*
X138968418Y-113131019D01*
X138968418Y-113131019D02*
X138968418Y-112131019D01*
X140349370Y-113035780D02*
X140301751Y-113083400D01*
X140301751Y-113083400D02*
X140158894Y-113131019D01*
X140158894Y-113131019D02*
X140063656Y-113131019D01*
X140063656Y-113131019D02*
X139920799Y-113083400D01*
X139920799Y-113083400D02*
X139825561Y-112988161D01*
X139825561Y-112988161D02*
X139777942Y-112892923D01*
X139777942Y-112892923D02*
X139730323Y-112702447D01*
X139730323Y-112702447D02*
X139730323Y-112559590D01*
X139730323Y-112559590D02*
X139777942Y-112369114D01*
X139777942Y-112369114D02*
X139825561Y-112273876D01*
X139825561Y-112273876D02*
X139920799Y-112178638D01*
X139920799Y-112178638D02*
X140063656Y-112131019D01*
X140063656Y-112131019D02*
X140158894Y-112131019D01*
X140158894Y-112131019D02*
X140301751Y-112178638D01*
X140301751Y-112178638D02*
X140349370Y-112226257D01*
X141063656Y-112131019D02*
X141063656Y-112845304D01*
X141063656Y-112845304D02*
X141016037Y-112988161D01*
X141016037Y-112988161D02*
X140920799Y-113083400D01*
X140920799Y-113083400D02*
X140777942Y-113131019D01*
X140777942Y-113131019D02*
X140682704Y-113131019D01*
X142016037Y-113131019D02*
X141539847Y-113131019D01*
X141539847Y-113131019D02*
X141539847Y-112131019D01*
X142920799Y-113035780D02*
X142873180Y-113083400D01*
X142873180Y-113083400D02*
X142730323Y-113131019D01*
X142730323Y-113131019D02*
X142635085Y-113131019D01*
X142635085Y-113131019D02*
X142492228Y-113083400D01*
X142492228Y-113083400D02*
X142396990Y-112988161D01*
X142396990Y-112988161D02*
X142349371Y-112892923D01*
X142349371Y-112892923D02*
X142301752Y-112702447D01*
X142301752Y-112702447D02*
X142301752Y-112559590D01*
X142301752Y-112559590D02*
X142349371Y-112369114D01*
X142349371Y-112369114D02*
X142396990Y-112273876D01*
X142396990Y-112273876D02*
X142492228Y-112178638D01*
X142492228Y-112178638D02*
X142635085Y-112131019D01*
X142635085Y-112131019D02*
X142730323Y-112131019D01*
X142730323Y-112131019D02*
X142873180Y-112178638D01*
X142873180Y-112178638D02*
X142920799Y-112226257D01*
X143635085Y-112131019D02*
X143635085Y-112845304D01*
X143635085Y-112845304D02*
X143587466Y-112988161D01*
X143587466Y-112988161D02*
X143492228Y-113083400D01*
X143492228Y-113083400D02*
X143349371Y-113131019D01*
X143349371Y-113131019D02*
X143254133Y-113131019D01*
X144587466Y-113131019D02*
X144111276Y-113131019D01*
X144111276Y-113131019D02*
X144111276Y-112131019D01*
X145492228Y-113035780D02*
X145444609Y-113083400D01*
X145444609Y-113083400D02*
X145301752Y-113131019D01*
X145301752Y-113131019D02*
X145206514Y-113131019D01*
X145206514Y-113131019D02*
X145063657Y-113083400D01*
X145063657Y-113083400D02*
X144968419Y-112988161D01*
X144968419Y-112988161D02*
X144920800Y-112892923D01*
X144920800Y-112892923D02*
X144873181Y-112702447D01*
X144873181Y-112702447D02*
X144873181Y-112559590D01*
X144873181Y-112559590D02*
X144920800Y-112369114D01*
X144920800Y-112369114D02*
X144968419Y-112273876D01*
X144968419Y-112273876D02*
X145063657Y-112178638D01*
X145063657Y-112178638D02*
X145206514Y-112131019D01*
X145206514Y-112131019D02*
X145301752Y-112131019D01*
X145301752Y-112131019D02*
X145444609Y-112178638D01*
X145444609Y-112178638D02*
X145492228Y-112226257D01*
D11*
X152504419Y-95695875D02*
X151504419Y-95695875D01*
X151504419Y-95695875D02*
X151504419Y-95457780D01*
X151504419Y-95457780D02*
X151552038Y-95314923D01*
X151552038Y-95314923D02*
X151647276Y-95219685D01*
X151647276Y-95219685D02*
X151742514Y-95172066D01*
X151742514Y-95172066D02*
X151932990Y-95124447D01*
X151932990Y-95124447D02*
X152075847Y-95124447D01*
X152075847Y-95124447D02*
X152266323Y-95172066D01*
X152266323Y-95172066D02*
X152361561Y-95219685D01*
X152361561Y-95219685D02*
X152456800Y-95314923D01*
X152456800Y-95314923D02*
X152504419Y-95457780D01*
X152504419Y-95457780D02*
X152504419Y-95695875D01*
X151504419Y-94791113D02*
X151504419Y-94124447D01*
X151504419Y-94124447D02*
X152504419Y-94553018D01*
X151504419Y-93553018D02*
X151504419Y-93457780D01*
X151504419Y-93457780D02*
X151552038Y-93362542D01*
X151552038Y-93362542D02*
X151599657Y-93314923D01*
X151599657Y-93314923D02*
X151694895Y-93267304D01*
X151694895Y-93267304D02*
X151885371Y-93219685D01*
X151885371Y-93219685D02*
X152123466Y-93219685D01*
X152123466Y-93219685D02*
X152313942Y-93267304D01*
X152313942Y-93267304D02*
X152409180Y-93314923D01*
X152409180Y-93314923D02*
X152456800Y-93362542D01*
X152456800Y-93362542D02*
X152504419Y-93457780D01*
X152504419Y-93457780D02*
X152504419Y-93553018D01*
X152504419Y-93553018D02*
X152456800Y-93648256D01*
X152456800Y-93648256D02*
X152409180Y-93695875D01*
X152409180Y-93695875D02*
X152313942Y-93743494D01*
X152313942Y-93743494D02*
X152123466Y-93791113D01*
X152123466Y-93791113D02*
X151885371Y-93791113D01*
X151885371Y-93791113D02*
X151694895Y-93743494D01*
X151694895Y-93743494D02*
X151599657Y-93695875D01*
X151599657Y-93695875D02*
X151552038Y-93648256D01*
X151552038Y-93648256D02*
X151504419Y-93553018D01*
X152504419Y-92267304D02*
X152504419Y-92838732D01*
X152504419Y-92553018D02*
X151504419Y-92553018D01*
X151504419Y-92553018D02*
X151647276Y-92648256D01*
X151647276Y-92648256D02*
X151742514Y-92743494D01*
X151742514Y-92743494D02*
X151790133Y-92838732D01*
X115532114Y-99099019D02*
X115532114Y-99908542D01*
X115532114Y-99908542D02*
X115579733Y-100003780D01*
X115579733Y-100003780D02*
X115627352Y-100051400D01*
X115627352Y-100051400D02*
X115722590Y-100099019D01*
X115722590Y-100099019D02*
X115913066Y-100099019D01*
X115913066Y-100099019D02*
X116008304Y-100051400D01*
X116008304Y-100051400D02*
X116055923Y-100003780D01*
X116055923Y-100003780D02*
X116103542Y-99908542D01*
X116103542Y-99908542D02*
X116103542Y-99099019D01*
X117008304Y-99099019D02*
X116817828Y-99099019D01*
X116817828Y-99099019D02*
X116722590Y-99146638D01*
X116722590Y-99146638D02*
X116674971Y-99194257D01*
X116674971Y-99194257D02*
X116579733Y-99337114D01*
X116579733Y-99337114D02*
X116532114Y-99527590D01*
X116532114Y-99527590D02*
X116532114Y-99908542D01*
X116532114Y-99908542D02*
X116579733Y-100003780D01*
X116579733Y-100003780D02*
X116627352Y-100051400D01*
X116627352Y-100051400D02*
X116722590Y-100099019D01*
X116722590Y-100099019D02*
X116913066Y-100099019D01*
X116913066Y-100099019D02*
X117008304Y-100051400D01*
X117008304Y-100051400D02*
X117055923Y-100003780D01*
X117055923Y-100003780D02*
X117103542Y-99908542D01*
X117103542Y-99908542D02*
X117103542Y-99670447D01*
X117103542Y-99670447D02*
X117055923Y-99575209D01*
X117055923Y-99575209D02*
X117008304Y-99527590D01*
X117008304Y-99527590D02*
X116913066Y-99479971D01*
X116913066Y-99479971D02*
X116722590Y-99479971D01*
X116722590Y-99479971D02*
X116627352Y-99527590D01*
X116627352Y-99527590D02*
X116579733Y-99575209D01*
X116579733Y-99575209D02*
X116532114Y-99670447D01*
X117722590Y-99099019D02*
X117817828Y-99099019D01*
X117817828Y-99099019D02*
X117913066Y-99146638D01*
X117913066Y-99146638D02*
X117960685Y-99194257D01*
X117960685Y-99194257D02*
X118008304Y-99289495D01*
X118008304Y-99289495D02*
X118055923Y-99479971D01*
X118055923Y-99479971D02*
X118055923Y-99718066D01*
X118055923Y-99718066D02*
X118008304Y-99908542D01*
X118008304Y-99908542D02*
X117960685Y-100003780D01*
X117960685Y-100003780D02*
X117913066Y-100051400D01*
X117913066Y-100051400D02*
X117817828Y-100099019D01*
X117817828Y-100099019D02*
X117722590Y-100099019D01*
X117722590Y-100099019D02*
X117627352Y-100051400D01*
X117627352Y-100051400D02*
X117579733Y-100003780D01*
X117579733Y-100003780D02*
X117532114Y-99908542D01*
X117532114Y-99908542D02*
X117484495Y-99718066D01*
X117484495Y-99718066D02*
X117484495Y-99479971D01*
X117484495Y-99479971D02*
X117532114Y-99289495D01*
X117532114Y-99289495D02*
X117579733Y-99194257D01*
X117579733Y-99194257D02*
X117627352Y-99146638D01*
X117627352Y-99146638D02*
X117722590Y-99099019D01*
X119008304Y-100099019D02*
X118436876Y-100099019D01*
X118722590Y-100099019D02*
X118722590Y-99099019D01*
X118722590Y-99099019D02*
X118627352Y-99241876D01*
X118627352Y-99241876D02*
X118532114Y-99337114D01*
X118532114Y-99337114D02*
X118436876Y-99384733D01*
%TO.C,C204*%
D12*
X111826800Y-87024400D02*
X113826800Y-87024400D01*
X113826800Y-84984400D02*
X111826800Y-84984400D01*
%TO.C,C503*%
X131953400Y-77594400D02*
X132453400Y-77594400D01*
X132453400Y-76654400D02*
X131953400Y-76654400D01*
%TO.C,R504*%
X135490200Y-70543000D02*
X135490200Y-71043000D01*
X136550200Y-71043000D02*
X136550200Y-70543000D01*
%TO.C,R204*%
X111026800Y-88040400D02*
X111026800Y-88540400D01*
X112086800Y-88540400D02*
X112086800Y-88040400D01*
%TO.C,R307*%
X134803600Y-84116800D02*
X134803600Y-83116800D01*
X136163600Y-83116800D02*
X136163600Y-84116800D01*
%TO.C,C604*%
X118944100Y-105998200D02*
X118944100Y-106498200D01*
X119884100Y-106498200D02*
X119884100Y-105998200D01*
%TO.C,R602*%
X126597000Y-97794000D02*
X126597000Y-98294000D01*
X127657000Y-98294000D02*
X127657000Y-97794000D01*
%TO.C,C202*%
X113592800Y-93078400D02*
X114092800Y-93078400D01*
X114092800Y-92138400D02*
X113592800Y-92138400D01*
%TO.C,D701*%
X152799600Y-90405400D02*
X152799600Y-97155400D01*
X152799600Y-97155400D02*
X153249600Y-97605400D01*
X153249600Y-97605400D02*
X158299600Y-97605400D01*
X158299600Y-90405400D02*
X152799600Y-90405400D01*
X158299600Y-90405400D02*
X158299600Y-97605400D01*
%TO.C,R603*%
X116624100Y-102460200D02*
X117124100Y-102460200D01*
X117124100Y-101400200D02*
X116624100Y-101400200D01*
%TO.C,C403*%
X117987000Y-71590000D02*
X118487000Y-71590000D01*
X118487000Y-70650000D02*
X117987000Y-70650000D01*
%TO.C,D201*%
X106104800Y-92966400D02*
X106104800Y-87156400D01*
X106104800Y-92966400D02*
X110404800Y-92966400D01*
X110404800Y-92966400D02*
X110404800Y-87156400D01*
%TO.C,R705*%
X145938450Y-98733800D02*
X145938450Y-99233800D01*
X146998450Y-99233800D02*
X146998450Y-98733800D01*
%TO.C,C602*%
X119960100Y-105998200D02*
X119960100Y-106498200D01*
X120900100Y-106498200D02*
X120900100Y-105998200D01*
%TO.C,C610*%
X127285000Y-103540000D02*
X127985000Y-103540000D01*
X127985000Y-104740000D02*
X127285000Y-104740000D01*
%TO.C,C406*%
X121443000Y-69758000D02*
X122143000Y-69758000D01*
X122143000Y-70958000D02*
X121443000Y-70958000D01*
%TO.C,R405*%
X121543000Y-73174000D02*
X122043000Y-73174000D01*
X122043000Y-72114000D02*
X121543000Y-72114000D01*
%TO.C,C405*%
X121543000Y-72098000D02*
X122043000Y-72098000D01*
X122043000Y-71158000D02*
X121543000Y-71158000D01*
%TO.C,R704*%
X145938450Y-95431800D02*
X145938450Y-95931800D01*
X146998450Y-95931800D02*
X146998450Y-95431800D01*
%TO.C,R406*%
X125835000Y-72140000D02*
X125835000Y-72640000D01*
X126895000Y-72640000D02*
X126895000Y-72140000D01*
%TO.C,C603*%
X121574000Y-104845600D02*
X121574000Y-104145600D01*
X122774000Y-104145600D02*
X122774000Y-104845600D01*
%TO.C,R604*%
X116624100Y-103476200D02*
X117124100Y-103476200D01*
X117124100Y-102416200D02*
X116624100Y-102416200D01*
%TO.C,R301*%
X126394400Y-93951200D02*
X126894400Y-93951200D01*
X126894400Y-92891200D02*
X126394400Y-92891200D01*
%TO.C,R606*%
X127613000Y-107422872D02*
X127613000Y-107922872D01*
X128673000Y-107922872D02*
X128673000Y-107422872D01*
%TO.C,C504*%
X134908200Y-76289000D02*
X135608200Y-76289000D01*
X135608200Y-77489000D02*
X134908200Y-77489000D01*
%TO.C,D601*%
X109521800Y-104251400D02*
X110171800Y-104251400D01*
X109521800Y-105721400D02*
X109521800Y-104251400D01*
X110821800Y-105721400D02*
X110491800Y-105721400D01*
X111141800Y-104251400D02*
X111791800Y-104251400D01*
X111791800Y-104251400D02*
X111791800Y-105721400D01*
X110496800Y-106166400D02*
X110686800Y-106026400D01*
X110686800Y-106306400D01*
X110496800Y-106166400D01*
G36*
X110686800Y-106306400D02*
G01*
X110496800Y-106166400D01*
X110686800Y-106026400D01*
X110686800Y-106306400D01*
G37*
%TO.C,D501*%
X140481400Y-105987000D02*
X140481400Y-107017000D01*
X140981400Y-107507000D02*
X142421400Y-107507000D01*
X142421400Y-105987000D02*
X140481400Y-105987000D01*
X142421400Y-107507000D02*
X142421400Y-105987000D01*
X140611400Y-107347000D02*
X140611400Y-107627000D01*
X140331400Y-107347000D01*
X140611400Y-107347000D01*
G36*
X140611400Y-107627000D02*
G01*
X140331400Y-107347000D01*
X140611400Y-107347000D01*
X140611400Y-107627000D01*
G37*
%TO.C,R706*%
X145938450Y-102264400D02*
X145938450Y-102764400D01*
X146998450Y-102764400D02*
X146998450Y-102264400D01*
%TO.C,R302*%
X127333600Y-83366800D02*
X127333600Y-83866800D01*
X128393600Y-83866800D02*
X128393600Y-83366800D01*
%TO.C,L201*%
X108602800Y-93210400D02*
X114002800Y-93210400D01*
X108602800Y-94255400D02*
X108602800Y-93210400D01*
X108602800Y-98610400D02*
X108602800Y-97565400D01*
X114002800Y-93210400D02*
X114002800Y-94255400D01*
X114002800Y-97565400D02*
X114002800Y-98610400D01*
X114002800Y-98610400D02*
X108602800Y-98610400D01*
%TO.C,Q301*%
X129287600Y-82481800D02*
X130757600Y-82481800D01*
X129287600Y-83781800D02*
X129287600Y-83451800D01*
X130757600Y-82481800D02*
X130757600Y-83131800D01*
X130757600Y-84101800D02*
X130757600Y-84751800D01*
X130757600Y-84751800D02*
X129287600Y-84751800D01*
X128842600Y-83456800D02*
X128982600Y-83646800D01*
X128702600Y-83646800D01*
X128842600Y-83456800D01*
G36*
X128982600Y-83646800D02*
G01*
X128702600Y-83646800D01*
X128842600Y-83456800D01*
X128982600Y-83646800D01*
G37*
%TO.C,R404*%
X121543000Y-74190000D02*
X122043000Y-74190000D01*
X122043000Y-73130000D02*
X121543000Y-73130000D01*
%TO.C,U601*%
D11*
X118043100Y-104263200D02*
X118043100Y-101388200D01*
X121293100Y-103488200D02*
X121293100Y-101388200D01*
%TO.C,R601*%
D12*
X127613000Y-97794000D02*
X127613000Y-98294000D01*
X128673000Y-98294000D02*
X128673000Y-97794000D01*
%TO.C,Q302*%
X132361000Y-82481800D02*
X133831000Y-82481800D01*
X132361000Y-83781800D02*
X132361000Y-83451800D01*
X133831000Y-82481800D02*
X133831000Y-83131800D01*
X133831000Y-84101800D02*
X133831000Y-84751800D01*
X133831000Y-84751800D02*
X132361000Y-84751800D01*
X131916000Y-83456800D02*
X132056000Y-83646800D01*
X131776000Y-83646800D01*
X131916000Y-83456800D01*
G36*
X132056000Y-83646800D02*
G01*
X131776000Y-83646800D01*
X131916000Y-83456800D01*
X132056000Y-83646800D01*
G37*
%TO.C,C606*%
X127285000Y-101000000D02*
X127985000Y-101000000D01*
X127985000Y-102200000D02*
X127285000Y-102200000D01*
%TO.C,C605*%
X127385000Y-100800000D02*
X127885000Y-100800000D01*
X127885000Y-99860000D02*
X127385000Y-99860000D01*
%TO.C,C203*%
X112102800Y-88040400D02*
X112102800Y-88540400D01*
X113042800Y-88540400D02*
X113042800Y-88040400D01*
%TO.C,R605*%
X126563505Y-107422872D02*
X126563505Y-107922872D01*
X127623505Y-107922872D02*
X127623505Y-107422872D01*
%TO.C,C609*%
X127385000Y-105880000D02*
X127885000Y-105880000D01*
X127885000Y-104940000D02*
X127385000Y-104940000D01*
%TO.C,R503*%
X134474200Y-70543000D02*
X134474200Y-71043000D01*
X135534200Y-71043000D02*
X135534200Y-70543000D01*
%TO.C,C601*%
X120527000Y-100393600D02*
X121027000Y-100393600D01*
X121027000Y-99453600D02*
X120527000Y-99453600D01*
%TD*%
M02*
