M48
; DRILL file KiCad 10.0.3 date 2026-07-02T20:43:54
; FORMAT={-:-/ absolute / metric / decimal}
; #@! TF.CreationDate,2026-07-02T20:43:54-05:00
; #@! TF.GenerationSoftware,Kicad,Pcbnew,10.0.3
; #@! TF.FileFunction,Plated,1,4,PTH
FMAT,2
METRIC
; #@! TA.AperFunction,Plated,PTH,ViaDrill
T1C0.200
; #@! TA.AperFunction,Plated,PTH,ComponentDrill
T2C1.000
; #@! TA.AperFunction,Plated,PTH,ComponentDrill
T3C1.854
; #@! TA.AperFunction,Plated,PTH,ComponentDrill
T4C3.200
%
G90
G05
T1
X105.588Y-104.038
X106.84Y-61.671
X106.84Y-62.687
X106.937Y-98.631
X106.937Y-99.647
X107.348Y-62.179
X107.445Y-99.139
X107.721Y-106.147
X107.752Y-86.639
X107.752Y-87.655
X107.856Y-61.671
X107.856Y-62.687
X107.953Y-98.631
X107.953Y-99.647
X108.128Y-103.886
X108.26Y-87.147
X108.768Y-86.639
X108.768Y-87.655
X109.372Y-104.089
X110.388Y-105.943
X110.642Y-104.978
X111.3Y-85.493
X111.3Y-86.509
X111.43Y-108.179
X111.557Y-89.306
X111.557Y-90.322
X111.633Y-71.857
X111.633Y-73.177
X111.684Y-87.471
X112.319Y-89.814
X112.37Y-87.37
X112.42Y-104.165
X112.497Y-93.421
X113.081Y-89.306
X113.081Y-90.322
X113.239Y-95.402
X113.239Y-96.418
X113.747Y-95.91
X114.255Y-95.402
X114.255Y-96.418
X114.325Y-106.197
X114.351Y-85.496
X114.351Y-86.512
X114.935Y-92.608
X115.951Y-72.39
X115.974Y-101.93
X115.974Y-102.946
X116.891Y-70.434
X117.069Y-68.58
X117.729Y-70.434
X118.389Y-70.434
X118.44Y-74.32
X118.923Y-105.689
X119.073Y-102.023
X119.073Y-102.853
X119.405Y-107.442
X119.507Y-68.656
X119.507Y-70.815
X119.685Y-88.798
X119.685Y-89.814
X119.685Y-91.846
X120.015Y-71.704
X120.167Y-72.39
X120.263Y-102.023
X120.263Y-102.853
X120.421Y-107.442
X120.599Y-99.924
X120.701Y-88.798
X120.701Y-89.814
X120.701Y-91.846
X121.336Y-74.295
X121.336Y-100.559
X121.717Y-88.798
X121.717Y-89.814
X122.174Y-103.048
X122.504Y-90.424
X122.733Y-88.798
X122.733Y-89.814
X122.911Y-72.669
X122.911Y-73.685
X122.961Y-92.151
X122.961Y-93.167
X123.063Y-71.603
X123.139Y-90.399
X123.444Y-70.358
X123.469Y-92.659
X123.749Y-88.798
X123.749Y-89.814
X123.977Y-92.151
X123.977Y-93.167
X124.206Y-106.883
X124.968Y-71.78
X125.197Y-88.798
X125.197Y-89.814
X125.705Y-93.396
X125.73Y-99.136
X125.73Y-106.68
X125.755Y-101.778
X125.755Y-104.038
X126.213Y-88.798
X126.213Y-89.814
X127.025Y-96.139
X127.076Y-93.929
X127.102Y-106.68
X127.102Y-108.636
X127.127Y-97.104
X127.127Y-99.111
X127.229Y-88.798
X127.229Y-89.814
X127.737Y-73.05
X127.737Y-73.05
X127.864Y-84.684
X128.143Y-97.104
X128.143Y-99.111
X128.143Y-106.68
X128.143Y-108.636
X128.245Y-88.798
X128.245Y-89.814
X129.184Y-84.709
X129.311Y-98.527
X129.54Y-99.111
X129.54Y-101.803
X129.54Y-104.064
X129.54Y-106.705
X129.769Y-81.534
X130.2Y-70.866
X132.102Y-77.15
X132.131Y-74.574
X132.131Y-75.286
X132.207Y-83.515
X132.207Y-84.785
X132.385Y-73.939
X133.248Y-94.539
X133.325Y-75.844
X133.325Y-76.505
X133.325Y-77.14
X134.496Y-73.841
X134.496Y-74.857
X134.544Y-77.648
X134.95Y-71.882
X135.001Y-69.926
X135.004Y-74.349
X135.484Y-82.372
X135.512Y-73.841
X135.512Y-74.857
X135.966Y-77.648
X136.017Y-69.926
X136.017Y-72.009
X139.09Y-76.225
X139.954Y-73.127
X140.945Y-105.639
X141.441Y-105.979
X141.441Y-107.63
X144.069Y-92.583
X145.237Y-107.29
X145.313Y-94.412
X145.313Y-101.295
X146.443Y-95.783
X146.443Y-97.841
X146.443Y-102.667
X146.468Y-94.539
X146.468Y-99.162
X146.468Y-101.397
X147.65Y-107.29
X153.746Y-93.167
X153.746Y-94.818
X155.55Y-93.167
X155.55Y-94.818
X157.328Y-94.818
X157.353Y-93.167
T2
X118.847Y-61.824
X132.44Y-109.753
X134.98Y-109.753
X137.52Y-109.753
X140.06Y-109.753
X142.6Y-109.753
X145.14Y-109.753
X147.68Y-109.753
X150.22Y-109.753
T3
X99.016Y-88.786
X99.016Y-95.796
X99.042Y-70.016
X99.042Y-77.027
X104.019Y-88.786
X104.019Y-95.796
X104.046Y-70.016
X104.046Y-77.027
T4
X99.517Y-62.205
X99.997Y-109.753
X122.098Y-82.22
X140.284Y-86.843
X144.526Y-62.23
X155.6Y-109.753
M30
