%TF.GenerationSoftware,KiCad,Pcbnew,10.0.3*%
%TF.CreationDate,2026-07-02T20:43:44-05:00*%
%TF.ProjectId,HEI_Shift_Light,4845495f-5368-4696-9674-5f4c69676874,rev?*%
%TF.SameCoordinates,Original*%
%TF.FileFunction,Legend,Bot*%
%TF.FilePolarity,Positive*%
%FSLAX46Y46*%
G04 Gerber Fmt 4.6, Leading zero omitted, Abs format (unit mm)*
G04 Created by KiCad (PCBNEW 10.0.3) date 2026-07-02 20:43:44*
%MOMM*%
%LPD*%
G01*
G04 APERTURE LIST*
%ADD10C,0.200000*%
%ADD11C,0.150000*%
%ADD12C,0.010000*%
%ADD13C,0.120000*%
%ADD14C,0.152400*%
G04 APERTURE END LIST*
D10*
X141859923Y-93548331D02*
X141859923Y-92548331D01*
X141859923Y-93024521D02*
X141288495Y-93024521D01*
X141288495Y-93548331D02*
X141288495Y-92548331D01*
X140812304Y-93024521D02*
X140478971Y-93024521D01*
X140336114Y-93548331D02*
X140812304Y-93548331D01*
X140812304Y-93548331D02*
X140812304Y-92548331D01*
X140812304Y-92548331D02*
X140336114Y-92548331D01*
X139907542Y-93548331D02*
X139907542Y-92548331D01*
X138717066Y-93500712D02*
X138574209Y-93548331D01*
X138574209Y-93548331D02*
X138336114Y-93548331D01*
X138336114Y-93548331D02*
X138240876Y-93500712D01*
X138240876Y-93500712D02*
X138193257Y-93453092D01*
X138193257Y-93453092D02*
X138145638Y-93357854D01*
X138145638Y-93357854D02*
X138145638Y-93262616D01*
X138145638Y-93262616D02*
X138193257Y-93167378D01*
X138193257Y-93167378D02*
X138240876Y-93119759D01*
X138240876Y-93119759D02*
X138336114Y-93072140D01*
X138336114Y-93072140D02*
X138526590Y-93024521D01*
X138526590Y-93024521D02*
X138621828Y-92976902D01*
X138621828Y-92976902D02*
X138669447Y-92929283D01*
X138669447Y-92929283D02*
X138717066Y-92834045D01*
X138717066Y-92834045D02*
X138717066Y-92738807D01*
X138717066Y-92738807D02*
X138669447Y-92643569D01*
X138669447Y-92643569D02*
X138621828Y-92595950D01*
X138621828Y-92595950D02*
X138526590Y-92548331D01*
X138526590Y-92548331D02*
X138288495Y-92548331D01*
X138288495Y-92548331D02*
X138145638Y-92595950D01*
X137717066Y-93548331D02*
X137717066Y-92548331D01*
X137288495Y-93548331D02*
X137288495Y-93024521D01*
X137288495Y-93024521D02*
X137336114Y-92929283D01*
X137336114Y-92929283D02*
X137431352Y-92881664D01*
X137431352Y-92881664D02*
X137574209Y-92881664D01*
X137574209Y-92881664D02*
X137669447Y-92929283D01*
X137669447Y-92929283D02*
X137717066Y-92976902D01*
X136812304Y-93548331D02*
X136812304Y-92881664D01*
X136812304Y-92548331D02*
X136859923Y-92595950D01*
X136859923Y-92595950D02*
X136812304Y-92643569D01*
X136812304Y-92643569D02*
X136764685Y-92595950D01*
X136764685Y-92595950D02*
X136812304Y-92548331D01*
X136812304Y-92548331D02*
X136812304Y-92643569D01*
X136478971Y-92881664D02*
X136098019Y-92881664D01*
X136336114Y-93548331D02*
X136336114Y-92691188D01*
X136336114Y-92691188D02*
X136288495Y-92595950D01*
X136288495Y-92595950D02*
X136193257Y-92548331D01*
X136193257Y-92548331D02*
X136098019Y-92548331D01*
X135907542Y-92881664D02*
X135526590Y-92881664D01*
X135764685Y-92548331D02*
X135764685Y-93405473D01*
X135764685Y-93405473D02*
X135717066Y-93500712D01*
X135717066Y-93500712D02*
X135621828Y-93548331D01*
X135621828Y-93548331D02*
X135526590Y-93548331D01*
X133955161Y-93548331D02*
X134431351Y-93548331D01*
X134431351Y-93548331D02*
X134431351Y-92548331D01*
X133621827Y-93548331D02*
X133621827Y-92881664D01*
X133621827Y-92548331D02*
X133669446Y-92595950D01*
X133669446Y-92595950D02*
X133621827Y-92643569D01*
X133621827Y-92643569D02*
X133574208Y-92595950D01*
X133574208Y-92595950D02*
X133621827Y-92548331D01*
X133621827Y-92548331D02*
X133621827Y-92643569D01*
X132717066Y-92881664D02*
X132717066Y-93691188D01*
X132717066Y-93691188D02*
X132764685Y-93786426D01*
X132764685Y-93786426D02*
X132812304Y-93834045D01*
X132812304Y-93834045D02*
X132907542Y-93881664D01*
X132907542Y-93881664D02*
X133050399Y-93881664D01*
X133050399Y-93881664D02*
X133145637Y-93834045D01*
X132717066Y-93500712D02*
X132812304Y-93548331D01*
X132812304Y-93548331D02*
X133002780Y-93548331D01*
X133002780Y-93548331D02*
X133098018Y-93500712D01*
X133098018Y-93500712D02*
X133145637Y-93453092D01*
X133145637Y-93453092D02*
X133193256Y-93357854D01*
X133193256Y-93357854D02*
X133193256Y-93072140D01*
X133193256Y-93072140D02*
X133145637Y-92976902D01*
X133145637Y-92976902D02*
X133098018Y-92929283D01*
X133098018Y-92929283D02*
X133002780Y-92881664D01*
X133002780Y-92881664D02*
X132812304Y-92881664D01*
X132812304Y-92881664D02*
X132717066Y-92929283D01*
X132240875Y-93548331D02*
X132240875Y-92548331D01*
X131812304Y-93548331D02*
X131812304Y-93024521D01*
X131812304Y-93024521D02*
X131859923Y-92929283D01*
X131859923Y-92929283D02*
X131955161Y-92881664D01*
X131955161Y-92881664D02*
X132098018Y-92881664D01*
X132098018Y-92881664D02*
X132193256Y-92929283D01*
X132193256Y-92929283D02*
X132240875Y-92976902D01*
X131478970Y-92881664D02*
X131098018Y-92881664D01*
X131336113Y-92548331D02*
X131336113Y-93405473D01*
X131336113Y-93405473D02*
X131288494Y-93500712D01*
X131288494Y-93500712D02*
X131193256Y-93548331D01*
X131193256Y-93548331D02*
X131098018Y-93548331D01*
X139645638Y-95158275D02*
X139978971Y-94682084D01*
X140217066Y-95158275D02*
X140217066Y-94158275D01*
X140217066Y-94158275D02*
X139836114Y-94158275D01*
X139836114Y-94158275D02*
X139740876Y-94205894D01*
X139740876Y-94205894D02*
X139693257Y-94253513D01*
X139693257Y-94253513D02*
X139645638Y-94348751D01*
X139645638Y-94348751D02*
X139645638Y-94491608D01*
X139645638Y-94491608D02*
X139693257Y-94586846D01*
X139693257Y-94586846D02*
X139740876Y-94634465D01*
X139740876Y-94634465D02*
X139836114Y-94682084D01*
X139836114Y-94682084D02*
X140217066Y-94682084D01*
X138836114Y-95110656D02*
X138931352Y-95158275D01*
X138931352Y-95158275D02*
X139121828Y-95158275D01*
X139121828Y-95158275D02*
X139217066Y-95110656D01*
X139217066Y-95110656D02*
X139264685Y-95015417D01*
X139264685Y-95015417D02*
X139264685Y-94634465D01*
X139264685Y-94634465D02*
X139217066Y-94539227D01*
X139217066Y-94539227D02*
X139121828Y-94491608D01*
X139121828Y-94491608D02*
X138931352Y-94491608D01*
X138931352Y-94491608D02*
X138836114Y-94539227D01*
X138836114Y-94539227D02*
X138788495Y-94634465D01*
X138788495Y-94634465D02*
X138788495Y-94729703D01*
X138788495Y-94729703D02*
X139264685Y-94824941D01*
X138455161Y-94491608D02*
X138217066Y-95158275D01*
X138217066Y-95158275D02*
X137978971Y-94491608D01*
X137598018Y-95158275D02*
X137598018Y-94491608D01*
X137598018Y-94158275D02*
X137645637Y-94205894D01*
X137645637Y-94205894D02*
X137598018Y-94253513D01*
X137598018Y-94253513D02*
X137550399Y-94205894D01*
X137550399Y-94205894D02*
X137598018Y-94158275D01*
X137598018Y-94158275D02*
X137598018Y-94253513D01*
X137169447Y-95110656D02*
X137074209Y-95158275D01*
X137074209Y-95158275D02*
X136883733Y-95158275D01*
X136883733Y-95158275D02*
X136788495Y-95110656D01*
X136788495Y-95110656D02*
X136740876Y-95015417D01*
X136740876Y-95015417D02*
X136740876Y-94967798D01*
X136740876Y-94967798D02*
X136788495Y-94872560D01*
X136788495Y-94872560D02*
X136883733Y-94824941D01*
X136883733Y-94824941D02*
X137026590Y-94824941D01*
X137026590Y-94824941D02*
X137121828Y-94777322D01*
X137121828Y-94777322D02*
X137169447Y-94682084D01*
X137169447Y-94682084D02*
X137169447Y-94634465D01*
X137169447Y-94634465D02*
X137121828Y-94539227D01*
X137121828Y-94539227D02*
X137026590Y-94491608D01*
X137026590Y-94491608D02*
X136883733Y-94491608D01*
X136883733Y-94491608D02*
X136788495Y-94539227D01*
X136312304Y-95158275D02*
X136312304Y-94491608D01*
X136312304Y-94158275D02*
X136359923Y-94205894D01*
X136359923Y-94205894D02*
X136312304Y-94253513D01*
X136312304Y-94253513D02*
X136264685Y-94205894D01*
X136264685Y-94205894D02*
X136312304Y-94158275D01*
X136312304Y-94158275D02*
X136312304Y-94253513D01*
X135693257Y-95158275D02*
X135788495Y-95110656D01*
X135788495Y-95110656D02*
X135836114Y-95063036D01*
X135836114Y-95063036D02*
X135883733Y-94967798D01*
X135883733Y-94967798D02*
X135883733Y-94682084D01*
X135883733Y-94682084D02*
X135836114Y-94586846D01*
X135836114Y-94586846D02*
X135788495Y-94539227D01*
X135788495Y-94539227D02*
X135693257Y-94491608D01*
X135693257Y-94491608D02*
X135550400Y-94491608D01*
X135550400Y-94491608D02*
X135455162Y-94539227D01*
X135455162Y-94539227D02*
X135407543Y-94586846D01*
X135407543Y-94586846D02*
X135359924Y-94682084D01*
X135359924Y-94682084D02*
X135359924Y-94967798D01*
X135359924Y-94967798D02*
X135407543Y-95063036D01*
X135407543Y-95063036D02*
X135455162Y-95110656D01*
X135455162Y-95110656D02*
X135550400Y-95158275D01*
X135550400Y-95158275D02*
X135693257Y-95158275D01*
X134931352Y-94491608D02*
X134931352Y-95158275D01*
X134931352Y-94586846D02*
X134883733Y-94539227D01*
X134883733Y-94539227D02*
X134788495Y-94491608D01*
X134788495Y-94491608D02*
X134645638Y-94491608D01*
X134645638Y-94491608D02*
X134550400Y-94539227D01*
X134550400Y-94539227D02*
X134502781Y-94634465D01*
X134502781Y-94634465D02*
X134502781Y-95158275D01*
X133312304Y-94872560D02*
X132836114Y-94872560D01*
X133407542Y-95158275D02*
X133074209Y-94158275D01*
X133074209Y-94158275D02*
X132740876Y-95158275D01*
X144074209Y-96768219D02*
X144074209Y-95768219D01*
X144074209Y-95768219D02*
X143836114Y-95768219D01*
X143836114Y-95768219D02*
X143693257Y-95815838D01*
X143693257Y-95815838D02*
X143598019Y-95911076D01*
X143598019Y-95911076D02*
X143550400Y-96006314D01*
X143550400Y-96006314D02*
X143502781Y-96196790D01*
X143502781Y-96196790D02*
X143502781Y-96339647D01*
X143502781Y-96339647D02*
X143550400Y-96530123D01*
X143550400Y-96530123D02*
X143598019Y-96625361D01*
X143598019Y-96625361D02*
X143693257Y-96720600D01*
X143693257Y-96720600D02*
X143836114Y-96768219D01*
X143836114Y-96768219D02*
X144074209Y-96768219D01*
X143074209Y-96768219D02*
X143074209Y-96101552D01*
X143074209Y-96292028D02*
X143026590Y-96196790D01*
X143026590Y-96196790D02*
X142978971Y-96149171D01*
X142978971Y-96149171D02*
X142883733Y-96101552D01*
X142883733Y-96101552D02*
X142788495Y-96101552D01*
X142074209Y-96720600D02*
X142169447Y-96768219D01*
X142169447Y-96768219D02*
X142359923Y-96768219D01*
X142359923Y-96768219D02*
X142455161Y-96720600D01*
X142455161Y-96720600D02*
X142502780Y-96625361D01*
X142502780Y-96625361D02*
X142502780Y-96244409D01*
X142502780Y-96244409D02*
X142455161Y-96149171D01*
X142455161Y-96149171D02*
X142359923Y-96101552D01*
X142359923Y-96101552D02*
X142169447Y-96101552D01*
X142169447Y-96101552D02*
X142074209Y-96149171D01*
X142074209Y-96149171D02*
X142026590Y-96244409D01*
X142026590Y-96244409D02*
X142026590Y-96339647D01*
X142026590Y-96339647D02*
X142502780Y-96434885D01*
X141693256Y-96101552D02*
X141502780Y-96768219D01*
X141502780Y-96768219D02*
X141312304Y-96292028D01*
X141312304Y-96292028D02*
X141121828Y-96768219D01*
X141121828Y-96768219D02*
X140931352Y-96101552D01*
X139788494Y-96768219D02*
X139788494Y-95768219D01*
X139788494Y-95768219D02*
X139455161Y-96482504D01*
X139455161Y-96482504D02*
X139121828Y-95768219D01*
X139121828Y-95768219D02*
X139121828Y-96768219D01*
X138217066Y-96768219D02*
X138217066Y-96244409D01*
X138217066Y-96244409D02*
X138264685Y-96149171D01*
X138264685Y-96149171D02*
X138359923Y-96101552D01*
X138359923Y-96101552D02*
X138550399Y-96101552D01*
X138550399Y-96101552D02*
X138645637Y-96149171D01*
X138217066Y-96720600D02*
X138312304Y-96768219D01*
X138312304Y-96768219D02*
X138550399Y-96768219D01*
X138550399Y-96768219D02*
X138645637Y-96720600D01*
X138645637Y-96720600D02*
X138693256Y-96625361D01*
X138693256Y-96625361D02*
X138693256Y-96530123D01*
X138693256Y-96530123D02*
X138645637Y-96434885D01*
X138645637Y-96434885D02*
X138550399Y-96387266D01*
X138550399Y-96387266D02*
X138312304Y-96387266D01*
X138312304Y-96387266D02*
X138217066Y-96339647D01*
X137312304Y-96768219D02*
X137312304Y-96244409D01*
X137312304Y-96244409D02*
X137359923Y-96149171D01*
X137359923Y-96149171D02*
X137455161Y-96101552D01*
X137455161Y-96101552D02*
X137645637Y-96101552D01*
X137645637Y-96101552D02*
X137740875Y-96149171D01*
X137312304Y-96720600D02*
X137407542Y-96768219D01*
X137407542Y-96768219D02*
X137645637Y-96768219D01*
X137645637Y-96768219D02*
X137740875Y-96720600D01*
X137740875Y-96720600D02*
X137788494Y-96625361D01*
X137788494Y-96625361D02*
X137788494Y-96530123D01*
X137788494Y-96530123D02*
X137740875Y-96434885D01*
X137740875Y-96434885D02*
X137645637Y-96387266D01*
X137645637Y-96387266D02*
X137407542Y-96387266D01*
X137407542Y-96387266D02*
X137312304Y-96339647D01*
X136978970Y-96101552D02*
X136598018Y-96101552D01*
X136836113Y-95768219D02*
X136836113Y-96625361D01*
X136836113Y-96625361D02*
X136788494Y-96720600D01*
X136788494Y-96720600D02*
X136693256Y-96768219D01*
X136693256Y-96768219D02*
X136598018Y-96768219D01*
X136264684Y-96768219D02*
X136264684Y-96101552D01*
X136264684Y-96196790D02*
X136217065Y-96149171D01*
X136217065Y-96149171D02*
X136121827Y-96101552D01*
X136121827Y-96101552D02*
X135978970Y-96101552D01*
X135978970Y-96101552D02*
X135883732Y-96149171D01*
X135883732Y-96149171D02*
X135836113Y-96244409D01*
X135836113Y-96244409D02*
X135836113Y-96768219D01*
X135836113Y-96244409D02*
X135788494Y-96149171D01*
X135788494Y-96149171D02*
X135693256Y-96101552D01*
X135693256Y-96101552D02*
X135550399Y-96101552D01*
X135550399Y-96101552D02*
X135455160Y-96149171D01*
X135455160Y-96149171D02*
X135407541Y-96244409D01*
X135407541Y-96244409D02*
X135407541Y-96768219D01*
X134502780Y-96768219D02*
X134502780Y-96244409D01*
X134502780Y-96244409D02*
X134550399Y-96149171D01*
X134550399Y-96149171D02*
X134645637Y-96101552D01*
X134645637Y-96101552D02*
X134836113Y-96101552D01*
X134836113Y-96101552D02*
X134931351Y-96149171D01*
X134502780Y-96720600D02*
X134598018Y-96768219D01*
X134598018Y-96768219D02*
X134836113Y-96768219D01*
X134836113Y-96768219D02*
X134931351Y-96720600D01*
X134931351Y-96720600D02*
X134978970Y-96625361D01*
X134978970Y-96625361D02*
X134978970Y-96530123D01*
X134978970Y-96530123D02*
X134931351Y-96434885D01*
X134931351Y-96434885D02*
X134836113Y-96387266D01*
X134836113Y-96387266D02*
X134598018Y-96387266D01*
X134598018Y-96387266D02*
X134502780Y-96339647D01*
X134026589Y-96101552D02*
X134026589Y-96768219D01*
X134026589Y-96196790D02*
X133978970Y-96149171D01*
X133978970Y-96149171D02*
X133883732Y-96101552D01*
X133883732Y-96101552D02*
X133740875Y-96101552D01*
X133740875Y-96101552D02*
X133645637Y-96149171D01*
X133645637Y-96149171D02*
X133598018Y-96244409D01*
X133598018Y-96244409D02*
X133598018Y-96768219D01*
X132407541Y-95863457D02*
X132359922Y-95815838D01*
X132359922Y-95815838D02*
X132264684Y-95768219D01*
X132264684Y-95768219D02*
X132026589Y-95768219D01*
X132026589Y-95768219D02*
X131931351Y-95815838D01*
X131931351Y-95815838D02*
X131883732Y-95863457D01*
X131883732Y-95863457D02*
X131836113Y-95958695D01*
X131836113Y-95958695D02*
X131836113Y-96053933D01*
X131836113Y-96053933D02*
X131883732Y-96196790D01*
X131883732Y-96196790D02*
X132455160Y-96768219D01*
X132455160Y-96768219D02*
X131836113Y-96768219D01*
X131217065Y-95768219D02*
X131121827Y-95768219D01*
X131121827Y-95768219D02*
X131026589Y-95815838D01*
X131026589Y-95815838D02*
X130978970Y-95863457D01*
X130978970Y-95863457D02*
X130931351Y-95958695D01*
X130931351Y-95958695D02*
X130883732Y-96149171D01*
X130883732Y-96149171D02*
X130883732Y-96387266D01*
X130883732Y-96387266D02*
X130931351Y-96577742D01*
X130931351Y-96577742D02*
X130978970Y-96672980D01*
X130978970Y-96672980D02*
X131026589Y-96720600D01*
X131026589Y-96720600D02*
X131121827Y-96768219D01*
X131121827Y-96768219D02*
X131217065Y-96768219D01*
X131217065Y-96768219D02*
X131312303Y-96720600D01*
X131312303Y-96720600D02*
X131359922Y-96672980D01*
X131359922Y-96672980D02*
X131407541Y-96577742D01*
X131407541Y-96577742D02*
X131455160Y-96387266D01*
X131455160Y-96387266D02*
X131455160Y-96149171D01*
X131455160Y-96149171D02*
X131407541Y-95958695D01*
X131407541Y-95958695D02*
X131359922Y-95863457D01*
X131359922Y-95863457D02*
X131312303Y-95815838D01*
X131312303Y-95815838D02*
X131217065Y-95768219D01*
X130502779Y-95863457D02*
X130455160Y-95815838D01*
X130455160Y-95815838D02*
X130359922Y-95768219D01*
X130359922Y-95768219D02*
X130121827Y-95768219D01*
X130121827Y-95768219D02*
X130026589Y-95815838D01*
X130026589Y-95815838D02*
X129978970Y-95863457D01*
X129978970Y-95863457D02*
X129931351Y-95958695D01*
X129931351Y-95958695D02*
X129931351Y-96053933D01*
X129931351Y-96053933D02*
X129978970Y-96196790D01*
X129978970Y-96196790D02*
X130550398Y-96768219D01*
X130550398Y-96768219D02*
X129931351Y-96768219D01*
X129074208Y-95768219D02*
X129264684Y-95768219D01*
X129264684Y-95768219D02*
X129359922Y-95815838D01*
X129359922Y-95815838D02*
X129407541Y-95863457D01*
X129407541Y-95863457D02*
X129502779Y-96006314D01*
X129502779Y-96006314D02*
X129550398Y-96196790D01*
X129550398Y-96196790D02*
X129550398Y-96577742D01*
X129550398Y-96577742D02*
X129502779Y-96672980D01*
X129502779Y-96672980D02*
X129455160Y-96720600D01*
X129455160Y-96720600D02*
X129359922Y-96768219D01*
X129359922Y-96768219D02*
X129169446Y-96768219D01*
X129169446Y-96768219D02*
X129074208Y-96720600D01*
X129074208Y-96720600D02*
X129026589Y-96672980D01*
X129026589Y-96672980D02*
X128978970Y-96577742D01*
X128978970Y-96577742D02*
X128978970Y-96339647D01*
X128978970Y-96339647D02*
X129026589Y-96244409D01*
X129026589Y-96244409D02*
X129074208Y-96196790D01*
X129074208Y-96196790D02*
X129169446Y-96149171D01*
X129169446Y-96149171D02*
X129359922Y-96149171D01*
X129359922Y-96149171D02*
X129455160Y-96196790D01*
X129455160Y-96196790D02*
X129502779Y-96244409D01*
X129502779Y-96244409D02*
X129550398Y-96339647D01*
D11*
G36*
X129864820Y-112679628D02*
G01*
X129576573Y-112679628D01*
X129508057Y-112645370D01*
X129477650Y-112614963D01*
X129443392Y-112546447D01*
X129443392Y-112439000D01*
X129477650Y-112370484D01*
X129508057Y-112340077D01*
X129576573Y-112305819D01*
X129864820Y-112305819D01*
X129864820Y-112679628D01*
G37*
G36*
X130125931Y-113416930D02*
G01*
X124469437Y-113416930D01*
X124469437Y-112882853D01*
X124580548Y-112882853D01*
X124580548Y-112912117D01*
X124591747Y-112939153D01*
X124612439Y-112959845D01*
X124639475Y-112971044D01*
X124654107Y-112972485D01*
X124721964Y-112972485D01*
X124721964Y-113230819D01*
X124723405Y-113245451D01*
X124734604Y-113272487D01*
X124755296Y-113293179D01*
X124782332Y-113304378D01*
X124811596Y-113304378D01*
X124838632Y-113293179D01*
X124859324Y-113272487D01*
X124870523Y-113245451D01*
X124871964Y-113230819D01*
X124871964Y-112972485D01*
X125273154Y-112972485D01*
X125280559Y-112971755D01*
X125282534Y-112971896D01*
X125283959Y-112971420D01*
X125287786Y-112971044D01*
X125298895Y-112966442D01*
X125310296Y-112962642D01*
X125312331Y-112960876D01*
X125314822Y-112959845D01*
X125323324Y-112951342D01*
X125332404Y-112943468D01*
X125333608Y-112941058D01*
X125335514Y-112939153D01*
X125340116Y-112928041D01*
X125345490Y-112917294D01*
X125345680Y-112914608D01*
X125346713Y-112912117D01*
X125346713Y-112900089D01*
X125347565Y-112888104D01*
X125346713Y-112884357D01*
X125346713Y-112882853D01*
X125345954Y-112881022D01*
X125344305Y-112873767D01*
X125125111Y-112216187D01*
X125485310Y-112216187D01*
X125485310Y-112245451D01*
X125496509Y-112272487D01*
X125517201Y-112293179D01*
X125544237Y-112304378D01*
X125558869Y-112305819D01*
X125769583Y-112305819D01*
X125769583Y-113230819D01*
X125771024Y-113245451D01*
X125782223Y-113272487D01*
X125802915Y-113293179D01*
X125829951Y-113304378D01*
X125859215Y-113304378D01*
X125886251Y-113293179D01*
X125906943Y-113272487D01*
X125918142Y-113245451D01*
X125919583Y-113230819D01*
X125919583Y-112305819D01*
X126130297Y-112305819D01*
X126144929Y-112304378D01*
X126171965Y-112293179D01*
X126192657Y-112272487D01*
X126203856Y-112245451D01*
X126203856Y-112230819D01*
X126388630Y-112230819D01*
X126388630Y-113230819D01*
X126390071Y-113245451D01*
X126401270Y-113272487D01*
X126421962Y-113293179D01*
X126448998Y-113304378D01*
X126478262Y-113304378D01*
X126505298Y-113293179D01*
X126525990Y-113272487D01*
X126537189Y-113245451D01*
X126538630Y-113230819D01*
X126538630Y-113226737D01*
X126817313Y-113226737D01*
X126821452Y-113255706D01*
X126836361Y-113280887D01*
X126859772Y-113298445D01*
X126888120Y-113305708D01*
X126917089Y-113301569D01*
X126942270Y-113286660D01*
X126952202Y-113275819D01*
X127328887Y-112773570D01*
X127388630Y-112833313D01*
X127388630Y-113230819D01*
X127390071Y-113245451D01*
X127401270Y-113272487D01*
X127421962Y-113293179D01*
X127448998Y-113304378D01*
X127478262Y-113304378D01*
X127505298Y-113293179D01*
X127525990Y-113272487D01*
X127537189Y-113245451D01*
X127538630Y-113230819D01*
X127538630Y-112311426D01*
X127818643Y-112311426D01*
X127818643Y-112340688D01*
X127829842Y-112367725D01*
X127850534Y-112388417D01*
X127877571Y-112399616D01*
X127906833Y-112399616D01*
X127933870Y-112388417D01*
X127945235Y-112379090D01*
X127980335Y-112343990D01*
X128094848Y-112305819D01*
X128165746Y-112305819D01*
X128280259Y-112343990D01*
X128354372Y-112418103D01*
X128392865Y-112495090D01*
X128436249Y-112668624D01*
X128436249Y-112793013D01*
X128392865Y-112966547D01*
X128354371Y-113043534D01*
X128280259Y-113117647D01*
X128165746Y-113155819D01*
X128094848Y-113155819D01*
X127980335Y-113117648D01*
X127945236Y-113082548D01*
X127933870Y-113073220D01*
X127906834Y-113062021D01*
X127877571Y-113062021D01*
X127850535Y-113073219D01*
X127829842Y-113093912D01*
X127818643Y-113120948D01*
X127818643Y-113150211D01*
X127829841Y-113177247D01*
X127839168Y-113188612D01*
X127886787Y-113236232D01*
X127898153Y-113245560D01*
X127900641Y-113246590D01*
X127902678Y-113248357D01*
X127916104Y-113254351D01*
X128058960Y-113301970D01*
X128066215Y-113303619D01*
X128068046Y-113304378D01*
X128070699Y-113304639D01*
X128073297Y-113305230D01*
X128075271Y-113305089D01*
X128082678Y-113305819D01*
X128177916Y-113305819D01*
X128185321Y-113305089D01*
X128187296Y-113305230D01*
X128189893Y-113304639D01*
X128192548Y-113304378D01*
X128194379Y-113303619D01*
X128201633Y-113301970D01*
X128344490Y-113254351D01*
X128357915Y-113248357D01*
X128359950Y-113246591D01*
X128362441Y-113245560D01*
X128373806Y-113236233D01*
X128469045Y-113140993D01*
X128473762Y-113135244D01*
X128475261Y-113133945D01*
X128476682Y-113131686D01*
X128478372Y-113129628D01*
X128479129Y-113127798D01*
X128483093Y-113121502D01*
X128530712Y-113026264D01*
X128531121Y-113025194D01*
X128531444Y-113024759D01*
X128533636Y-113018622D01*
X128535967Y-113012533D01*
X128536005Y-113011992D01*
X128536391Y-113010913D01*
X128584010Y-112820437D01*
X128584385Y-112817900D01*
X128584808Y-112816879D01*
X128585350Y-112811366D01*
X128586160Y-112805893D01*
X128585997Y-112804800D01*
X128586249Y-112802247D01*
X128586249Y-112659390D01*
X128585997Y-112656836D01*
X128586160Y-112655744D01*
X128585350Y-112650270D01*
X128584808Y-112644758D01*
X128584385Y-112643736D01*
X128584010Y-112641200D01*
X128536391Y-112450724D01*
X128536005Y-112449644D01*
X128535967Y-112449104D01*
X128533636Y-112443014D01*
X128531444Y-112436878D01*
X128531121Y-112436442D01*
X128530712Y-112435373D01*
X128483093Y-112340135D01*
X128479130Y-112333840D01*
X128478372Y-112332008D01*
X128476680Y-112329946D01*
X128475261Y-112327692D01*
X128473764Y-112326393D01*
X128469044Y-112320643D01*
X128379220Y-112230819D01*
X128864820Y-112230819D01*
X128864820Y-113230819D01*
X128866261Y-113245451D01*
X128877460Y-113272487D01*
X128898152Y-113293179D01*
X128925188Y-113304378D01*
X128954452Y-113304378D01*
X128981488Y-113293179D01*
X129002180Y-113272487D01*
X129013379Y-113245451D01*
X129014820Y-113230819D01*
X129014820Y-112421295D01*
X129293392Y-112421295D01*
X129293392Y-112564152D01*
X129294833Y-112578784D01*
X129295864Y-112581273D01*
X129296055Y-112583961D01*
X129301310Y-112597693D01*
X129348929Y-112692931D01*
X129352893Y-112699230D01*
X129353651Y-112701058D01*
X129355339Y-112703114D01*
X129356761Y-112705374D01*
X129358259Y-112706673D01*
X129362978Y-112712423D01*
X129410597Y-112760042D01*
X129416346Y-112764760D01*
X129417646Y-112766259D01*
X129419905Y-112767680D01*
X129421962Y-112769369D01*
X129423789Y-112770126D01*
X129430089Y-112774091D01*
X129525327Y-112821710D01*
X129539058Y-112826965D01*
X129541747Y-112827156D01*
X129544236Y-112828187D01*
X129558868Y-112829628D01*
X129864820Y-112829628D01*
X129864820Y-113230819D01*
X129866261Y-113245451D01*
X129877460Y-113272487D01*
X129898152Y-113293179D01*
X129925188Y-113304378D01*
X129954452Y-113304378D01*
X129981488Y-113293179D01*
X130002180Y-113272487D01*
X130013379Y-113245451D01*
X130014820Y-113230819D01*
X130014820Y-112230819D01*
X130013379Y-112216187D01*
X130002180Y-112189151D01*
X129981488Y-112168459D01*
X129954452Y-112157260D01*
X129939820Y-112155819D01*
X129558868Y-112155819D01*
X129544236Y-112157260D01*
X129541747Y-112158290D01*
X129539058Y-112158482D01*
X129525327Y-112163737D01*
X129430089Y-112211356D01*
X129423789Y-112215320D01*
X129421962Y-112216078D01*
X129419905Y-112217766D01*
X129417646Y-112219188D01*
X129416346Y-112220686D01*
X129410597Y-112225405D01*
X129362978Y-112273024D01*
X129358259Y-112278773D01*
X129356761Y-112280073D01*
X129355339Y-112282332D01*
X129353651Y-112284389D01*
X129352893Y-112286216D01*
X129348929Y-112292516D01*
X129301310Y-112387754D01*
X129296055Y-112401486D01*
X129295864Y-112404173D01*
X129294833Y-112406663D01*
X129293392Y-112421295D01*
X129014820Y-112421295D01*
X129014820Y-112230819D01*
X129013379Y-112216187D01*
X129002180Y-112189151D01*
X128981488Y-112168459D01*
X128954452Y-112157260D01*
X128925188Y-112157260D01*
X128898152Y-112168459D01*
X128877460Y-112189151D01*
X128866261Y-112216187D01*
X128864820Y-112230819D01*
X128379220Y-112230819D01*
X128373806Y-112225405D01*
X128362441Y-112216078D01*
X128359950Y-112215046D01*
X128357915Y-112213281D01*
X128344490Y-112207287D01*
X128201633Y-112159668D01*
X128194379Y-112158018D01*
X128192548Y-112157260D01*
X128189893Y-112156998D01*
X128187296Y-112156408D01*
X128185321Y-112156548D01*
X128177916Y-112155819D01*
X128082678Y-112155819D01*
X128075271Y-112156548D01*
X128073297Y-112156408D01*
X128070699Y-112156998D01*
X128068046Y-112157260D01*
X128066215Y-112158018D01*
X128058960Y-112159668D01*
X127916104Y-112207287D01*
X127902678Y-112213281D01*
X127900641Y-112215047D01*
X127898153Y-112216078D01*
X127886788Y-112225405D01*
X127839169Y-112273024D01*
X127829842Y-112284389D01*
X127818643Y-112311426D01*
X127538630Y-112311426D01*
X127538630Y-112230819D01*
X127537189Y-112216187D01*
X127525990Y-112189151D01*
X127505298Y-112168459D01*
X127478262Y-112157260D01*
X127448998Y-112157260D01*
X127421962Y-112168459D01*
X127401270Y-112189151D01*
X127390071Y-112216187D01*
X127388630Y-112230819D01*
X127388630Y-112621181D01*
X126945235Y-112177786D01*
X126933870Y-112168459D01*
X126906833Y-112157260D01*
X126877571Y-112157260D01*
X126850534Y-112168459D01*
X126829842Y-112189151D01*
X126818643Y-112216188D01*
X126818643Y-112245450D01*
X126829842Y-112272487D01*
X126839169Y-112283852D01*
X127221744Y-112666427D01*
X126832202Y-113185819D01*
X126824576Y-113198389D01*
X126817313Y-113226737D01*
X126538630Y-113226737D01*
X126538630Y-112230819D01*
X126537189Y-112216187D01*
X126525990Y-112189151D01*
X126505298Y-112168459D01*
X126478262Y-112157260D01*
X126448998Y-112157260D01*
X126421962Y-112168459D01*
X126401270Y-112189151D01*
X126390071Y-112216187D01*
X126388630Y-112230819D01*
X126203856Y-112230819D01*
X126203856Y-112216187D01*
X126192657Y-112189151D01*
X126171965Y-112168459D01*
X126144929Y-112157260D01*
X126130297Y-112155819D01*
X125558869Y-112155819D01*
X125544237Y-112157260D01*
X125517201Y-112168459D01*
X125496509Y-112189151D01*
X125485310Y-112216187D01*
X125125111Y-112216187D01*
X125106210Y-112159483D01*
X125100216Y-112146057D01*
X125081042Y-112123950D01*
X125054869Y-112110864D01*
X125025679Y-112108789D01*
X124997916Y-112118043D01*
X124975809Y-112137217D01*
X124962723Y-112163390D01*
X124960648Y-112192580D01*
X124963908Y-112206917D01*
X125169097Y-112822485D01*
X124871964Y-112822485D01*
X124871964Y-112564152D01*
X124870523Y-112549520D01*
X124859324Y-112522484D01*
X124838632Y-112501792D01*
X124811596Y-112490593D01*
X124782332Y-112490593D01*
X124755296Y-112501792D01*
X124734604Y-112522484D01*
X124723405Y-112549520D01*
X124721964Y-112564152D01*
X124721964Y-112822485D01*
X124654107Y-112822485D01*
X124639475Y-112823926D01*
X124612439Y-112835125D01*
X124591747Y-112855817D01*
X124580548Y-112882853D01*
X124469437Y-112882853D01*
X124469437Y-111997678D01*
X130125931Y-111997678D01*
X130125931Y-113416930D01*
G37*
G36*
X102276032Y-81993756D02*
G01*
X102007956Y-81993756D01*
X102141994Y-81591641D01*
X102276032Y-81993756D01*
G37*
G36*
X103421902Y-82540582D02*
G01*
X99717788Y-82540582D01*
X99717788Y-81354471D01*
X99828899Y-81354471D01*
X99828899Y-82354471D01*
X99830340Y-82369103D01*
X99841539Y-82396139D01*
X99862231Y-82416831D01*
X99889267Y-82428030D01*
X99918531Y-82428030D01*
X99945567Y-82416831D01*
X99966259Y-82396139D01*
X99977458Y-82369103D01*
X99978899Y-82354471D01*
X99978899Y-81905661D01*
X100400327Y-81905661D01*
X100400327Y-82354471D01*
X100401768Y-82369103D01*
X100412967Y-82396139D01*
X100433659Y-82416831D01*
X100460695Y-82428030D01*
X100489959Y-82428030D01*
X100516995Y-82416831D01*
X100537687Y-82396139D01*
X100548886Y-82369103D01*
X100550327Y-82354471D01*
X100550327Y-81435078D01*
X100830340Y-81435078D01*
X100830340Y-81464340D01*
X100841539Y-81491377D01*
X100862231Y-81512069D01*
X100889268Y-81523268D01*
X100918530Y-81523268D01*
X100945567Y-81512069D01*
X100956932Y-81502742D01*
X100992032Y-81467642D01*
X101106545Y-81429471D01*
X101177443Y-81429471D01*
X101291956Y-81467642D01*
X101366069Y-81541755D01*
X101404562Y-81618742D01*
X101447946Y-81792276D01*
X101447946Y-81916665D01*
X101404562Y-82090199D01*
X101366068Y-82167186D01*
X101291956Y-82241299D01*
X101177443Y-82279471D01*
X101106545Y-82279471D01*
X100992032Y-82241300D01*
X100956933Y-82206200D01*
X100945567Y-82196872D01*
X100918531Y-82185673D01*
X100889268Y-82185673D01*
X100862232Y-82196871D01*
X100841539Y-82217564D01*
X100830340Y-82244600D01*
X100830340Y-82273863D01*
X100841538Y-82300899D01*
X100850865Y-82312264D01*
X100898484Y-82359884D01*
X100909850Y-82369212D01*
X100912338Y-82370242D01*
X100914375Y-82372009D01*
X100927801Y-82378003D01*
X101070657Y-82425622D01*
X101077912Y-82427271D01*
X101079743Y-82428030D01*
X101082396Y-82428291D01*
X101084994Y-82428882D01*
X101086968Y-82428741D01*
X101094375Y-82429471D01*
X101189613Y-82429471D01*
X101197018Y-82428741D01*
X101198993Y-82428882D01*
X101201590Y-82428291D01*
X101204245Y-82428030D01*
X101206076Y-82427271D01*
X101213330Y-82425622D01*
X101356187Y-82378003D01*
X101369612Y-82372009D01*
X101371647Y-82370243D01*
X101374138Y-82369212D01*
X101385503Y-82359885D01*
X101400297Y-82345091D01*
X101734250Y-82345091D01*
X101736325Y-82374281D01*
X101749411Y-82400454D01*
X101771518Y-82419628D01*
X101799281Y-82428882D01*
X101828471Y-82426807D01*
X101854644Y-82413721D01*
X101873818Y-82391614D01*
X101879812Y-82378188D01*
X101957956Y-82143756D01*
X102326032Y-82143756D01*
X102404176Y-82378188D01*
X102410170Y-82391613D01*
X102429344Y-82413720D01*
X102455517Y-82426807D01*
X102484707Y-82428882D01*
X102512469Y-82419628D01*
X102534577Y-82400454D01*
X102547663Y-82374280D01*
X102549738Y-82345090D01*
X102546478Y-82330754D01*
X102216173Y-81339839D01*
X102592245Y-81339839D01*
X102592245Y-81369103D01*
X102603444Y-81396139D01*
X102624136Y-81416831D01*
X102651172Y-81428030D01*
X102665804Y-81429471D01*
X102876518Y-81429471D01*
X102876518Y-82354471D01*
X102877959Y-82369103D01*
X102889158Y-82396139D01*
X102909850Y-82416831D01*
X102936886Y-82428030D01*
X102966150Y-82428030D01*
X102993186Y-82416831D01*
X103013878Y-82396139D01*
X103025077Y-82369103D01*
X103026518Y-82354471D01*
X103026518Y-81429471D01*
X103237232Y-81429471D01*
X103251864Y-81428030D01*
X103278900Y-81416831D01*
X103299592Y-81396139D01*
X103310791Y-81369103D01*
X103310791Y-81339839D01*
X103299592Y-81312803D01*
X103278900Y-81292111D01*
X103251864Y-81280912D01*
X103237232Y-81279471D01*
X102665804Y-81279471D01*
X102651172Y-81280912D01*
X102624136Y-81292111D01*
X102603444Y-81312803D01*
X102592245Y-81339839D01*
X102216173Y-81339839D01*
X102213145Y-81330754D01*
X102207151Y-81317328D01*
X102203639Y-81313279D01*
X102201244Y-81308488D01*
X102194140Y-81302326D01*
X102187977Y-81295221D01*
X102183183Y-81292824D01*
X102179136Y-81289314D01*
X102170214Y-81286340D01*
X102161804Y-81282135D01*
X102156459Y-81281755D01*
X102151374Y-81280060D01*
X102141994Y-81280726D01*
X102132614Y-81280060D01*
X102127528Y-81281755D01*
X102122184Y-81282135D01*
X102113776Y-81286339D01*
X102104851Y-81289314D01*
X102100800Y-81292827D01*
X102096011Y-81295222D01*
X102089852Y-81302322D01*
X102082744Y-81308488D01*
X102080347Y-81313281D01*
X102076837Y-81317329D01*
X102070843Y-81330754D01*
X101737510Y-82330754D01*
X101734250Y-82345091D01*
X101400297Y-82345091D01*
X101480742Y-82264645D01*
X101485459Y-82258896D01*
X101486958Y-82257597D01*
X101488379Y-82255338D01*
X101490069Y-82253280D01*
X101490826Y-82251450D01*
X101494790Y-82245154D01*
X101542409Y-82149916D01*
X101542818Y-82148846D01*
X101543141Y-82148411D01*
X101545333Y-82142274D01*
X101547664Y-82136185D01*
X101547702Y-82135644D01*
X101548088Y-82134565D01*
X101595707Y-81944089D01*
X101596082Y-81941552D01*
X101596505Y-81940531D01*
X101597047Y-81935018D01*
X101597857Y-81929545D01*
X101597694Y-81928452D01*
X101597946Y-81925899D01*
X101597946Y-81783042D01*
X101597694Y-81780488D01*
X101597857Y-81779396D01*
X101597047Y-81773922D01*
X101596505Y-81768410D01*
X101596082Y-81767388D01*
X101595707Y-81764852D01*
X101548088Y-81574376D01*
X101547702Y-81573296D01*
X101547664Y-81572756D01*
X101545333Y-81566666D01*
X101543141Y-81560530D01*
X101542818Y-81560094D01*
X101542409Y-81559025D01*
X101494790Y-81463787D01*
X101490827Y-81457492D01*
X101490069Y-81455660D01*
X101488377Y-81453598D01*
X101486958Y-81451344D01*
X101485461Y-81450045D01*
X101480741Y-81444295D01*
X101385503Y-81349057D01*
X101374138Y-81339730D01*
X101371647Y-81338698D01*
X101369612Y-81336933D01*
X101356187Y-81330939D01*
X101213330Y-81283320D01*
X101206076Y-81281670D01*
X101204245Y-81280912D01*
X101201590Y-81280650D01*
X101198993Y-81280060D01*
X101197018Y-81280200D01*
X101189613Y-81279471D01*
X101094375Y-81279471D01*
X101086968Y-81280200D01*
X101084994Y-81280060D01*
X101082396Y-81280650D01*
X101079743Y-81280912D01*
X101077912Y-81281670D01*
X101070657Y-81283320D01*
X100927801Y-81330939D01*
X100914375Y-81336933D01*
X100912338Y-81338699D01*
X100909850Y-81339730D01*
X100898485Y-81349057D01*
X100850866Y-81396676D01*
X100841539Y-81408041D01*
X100830340Y-81435078D01*
X100550327Y-81435078D01*
X100550327Y-81354471D01*
X100548886Y-81339839D01*
X100537687Y-81312803D01*
X100516995Y-81292111D01*
X100489959Y-81280912D01*
X100460695Y-81280912D01*
X100433659Y-81292111D01*
X100412967Y-81312803D01*
X100401768Y-81339839D01*
X100400327Y-81354471D01*
X100400327Y-81755661D01*
X99978899Y-81755661D01*
X99978899Y-81354471D01*
X99977458Y-81339839D01*
X99966259Y-81312803D01*
X99945567Y-81292111D01*
X99918531Y-81280912D01*
X99889267Y-81280912D01*
X99862231Y-81292111D01*
X99841539Y-81312803D01*
X99830340Y-81339839D01*
X99828899Y-81354471D01*
X99717788Y-81354471D01*
X99717788Y-79744527D01*
X100447946Y-79744527D01*
X100447946Y-80744527D01*
X100449387Y-80759159D01*
X100460586Y-80786195D01*
X100481278Y-80806887D01*
X100508314Y-80818086D01*
X100537578Y-80818086D01*
X100564614Y-80806887D01*
X100585306Y-80786195D01*
X100596505Y-80759159D01*
X100597946Y-80744527D01*
X100597946Y-79744527D01*
X100596505Y-79729895D01*
X100877959Y-79729895D01*
X100877959Y-79759159D01*
X100889158Y-79786195D01*
X100909850Y-79806887D01*
X100936886Y-79818086D01*
X100951518Y-79819527D01*
X101352708Y-79819527D01*
X101352708Y-80145717D01*
X101094375Y-80145717D01*
X101079743Y-80147158D01*
X101052707Y-80158357D01*
X101032015Y-80179049D01*
X101020816Y-80206085D01*
X101020816Y-80235349D01*
X101032015Y-80262385D01*
X101052707Y-80283077D01*
X101079743Y-80294276D01*
X101094375Y-80295717D01*
X101352708Y-80295717D01*
X101352708Y-80669527D01*
X100951518Y-80669527D01*
X100936886Y-80670968D01*
X100909850Y-80682167D01*
X100889158Y-80702859D01*
X100877959Y-80729895D01*
X100877959Y-80759159D01*
X100889158Y-80786195D01*
X100909850Y-80806887D01*
X100936886Y-80818086D01*
X100951518Y-80819527D01*
X101427708Y-80819527D01*
X101442340Y-80818086D01*
X101469376Y-80806887D01*
X101490068Y-80786195D01*
X101501267Y-80759159D01*
X101502708Y-80744527D01*
X101502708Y-79744527D01*
X101828899Y-79744527D01*
X101828899Y-80744527D01*
X101830340Y-80759159D01*
X101841539Y-80786195D01*
X101862231Y-80806887D01*
X101889267Y-80818086D01*
X101918531Y-80818086D01*
X101945567Y-80806887D01*
X101966259Y-80786195D01*
X101977458Y-80759159D01*
X101978899Y-80744527D01*
X101978899Y-80295717D01*
X102400327Y-80295717D01*
X102400327Y-80744527D01*
X102401768Y-80759159D01*
X102412967Y-80786195D01*
X102433659Y-80806887D01*
X102460695Y-80818086D01*
X102489959Y-80818086D01*
X102516995Y-80806887D01*
X102537687Y-80786195D01*
X102548886Y-80759159D01*
X102550327Y-80744527D01*
X102550327Y-79744527D01*
X102548886Y-79729895D01*
X102537687Y-79702859D01*
X102516995Y-79682167D01*
X102489959Y-79670968D01*
X102460695Y-79670968D01*
X102433659Y-79682167D01*
X102412967Y-79702859D01*
X102401768Y-79729895D01*
X102400327Y-79744527D01*
X102400327Y-80145717D01*
X101978899Y-80145717D01*
X101978899Y-79744527D01*
X101977458Y-79729895D01*
X101966259Y-79702859D01*
X101945567Y-79682167D01*
X101918531Y-79670968D01*
X101889267Y-79670968D01*
X101862231Y-79682167D01*
X101841539Y-79702859D01*
X101830340Y-79729895D01*
X101828899Y-79744527D01*
X101502708Y-79744527D01*
X101501267Y-79729895D01*
X101490068Y-79702859D01*
X101469376Y-79682167D01*
X101442340Y-79670968D01*
X101427708Y-79669527D01*
X100951518Y-79669527D01*
X100936886Y-79670968D01*
X100909850Y-79682167D01*
X100889158Y-79702859D01*
X100877959Y-79729895D01*
X100596505Y-79729895D01*
X100585306Y-79702859D01*
X100564614Y-79682167D01*
X100537578Y-79670968D01*
X100508314Y-79670968D01*
X100481278Y-79682167D01*
X100460586Y-79702859D01*
X100449387Y-79729895D01*
X100447946Y-79744527D01*
X99717788Y-79744527D01*
X99717788Y-79558416D01*
X103421902Y-79558416D01*
X103421902Y-82540582D01*
G37*
G36*
X98812705Y-99270038D02*
G01*
X98843112Y-99300445D01*
X98877370Y-99368961D01*
X98877370Y-99619265D01*
X98843111Y-99687781D01*
X98812704Y-99718189D01*
X98744189Y-99752447D01*
X98589123Y-99752447D01*
X98551180Y-99733475D01*
X98551180Y-99254751D01*
X98589123Y-99235780D01*
X98744189Y-99235780D01*
X98812705Y-99270038D01*
G37*
G36*
X99705992Y-99264300D02*
G01*
X99734513Y-99321342D01*
X99734513Y-99402627D01*
X99408323Y-99337389D01*
X99408323Y-99321342D01*
X99436843Y-99264300D01*
X99493885Y-99235780D01*
X99648951Y-99235780D01*
X99705992Y-99264300D01*
G37*
G36*
X104805148Y-101623502D02*
G01*
X98290069Y-101623502D01*
X98290069Y-100446771D01*
X99544627Y-100446771D01*
X99547887Y-100461108D01*
X99881220Y-101461108D01*
X99887214Y-101474533D01*
X99890724Y-101478580D01*
X99893121Y-101483374D01*
X99900229Y-101489539D01*
X99906388Y-101496640D01*
X99911177Y-101499034D01*
X99915228Y-101502548D01*
X99924153Y-101505522D01*
X99932561Y-101509727D01*
X99937905Y-101510106D01*
X99942991Y-101511802D01*
X99952371Y-101511135D01*
X99961751Y-101511802D01*
X99966836Y-101510106D01*
X99972181Y-101509727D01*
X99980591Y-101505521D01*
X99989513Y-101502548D01*
X99993560Y-101499037D01*
X99998354Y-101496641D01*
X100004517Y-101489535D01*
X100011621Y-101483374D01*
X100014016Y-101478582D01*
X100017528Y-101474534D01*
X100023522Y-101461108D01*
X100301269Y-100627867D01*
X100496419Y-100627867D01*
X100496419Y-100723105D01*
X100497148Y-100730510D01*
X100497008Y-100732485D01*
X100497598Y-100735082D01*
X100497860Y-100737737D01*
X100498618Y-100739568D01*
X100500268Y-100746822D01*
X100547887Y-100889679D01*
X100553881Y-100903104D01*
X100555646Y-100905139D01*
X100556678Y-100907630D01*
X100566005Y-100918995D01*
X101009400Y-101362391D01*
X100571419Y-101362391D01*
X100556787Y-101363832D01*
X100529751Y-101375031D01*
X100509059Y-101395723D01*
X100497860Y-101422759D01*
X100497860Y-101452023D01*
X100509059Y-101479059D01*
X100529751Y-101499751D01*
X100556787Y-101510950D01*
X100571419Y-101512391D01*
X101190466Y-101512391D01*
X101205098Y-101510950D01*
X101213016Y-101507670D01*
X101232134Y-101499752D01*
X101252826Y-101479059D01*
X101264025Y-101452023D01*
X101264025Y-101422760D01*
X101264025Y-101422759D01*
X101450241Y-101422759D01*
X101450241Y-101452023D01*
X101461440Y-101479059D01*
X101482132Y-101499751D01*
X101509168Y-101510950D01*
X101523800Y-101512391D01*
X102095228Y-101512391D01*
X102109860Y-101510950D01*
X102136896Y-101499751D01*
X102157588Y-101479059D01*
X102168787Y-101452023D01*
X102168787Y-101422759D01*
X102157588Y-101395723D01*
X102136896Y-101375031D01*
X102109860Y-101363832D01*
X102095228Y-101362391D01*
X101884514Y-101362391D01*
X101884514Y-101041806D01*
X102450241Y-101041806D01*
X102450241Y-101071070D01*
X102461440Y-101098106D01*
X102482132Y-101118798D01*
X102509168Y-101129997D01*
X102523800Y-101131438D01*
X102829752Y-101131438D01*
X102829752Y-101437391D01*
X102831193Y-101452023D01*
X102842392Y-101479059D01*
X102863084Y-101499751D01*
X102890120Y-101510950D01*
X102919384Y-101510950D01*
X102946420Y-101499751D01*
X102967112Y-101479059D01*
X102978311Y-101452023D01*
X102979752Y-101437391D01*
X102979752Y-101131438D01*
X103285704Y-101131438D01*
X103300336Y-101129997D01*
X103327372Y-101118798D01*
X103348064Y-101098106D01*
X103359263Y-101071070D01*
X103359263Y-101041806D01*
X103348064Y-101014770D01*
X103327372Y-100994078D01*
X103300336Y-100982879D01*
X103285704Y-100981438D01*
X102979752Y-100981438D01*
X102979752Y-100675486D01*
X102978311Y-100660854D01*
X102967112Y-100633818D01*
X102946420Y-100613126D01*
X102919384Y-100601927D01*
X102890120Y-100601927D01*
X102863084Y-100613126D01*
X102842392Y-100633818D01*
X102831193Y-100660854D01*
X102829752Y-100675486D01*
X102829752Y-100981438D01*
X102523800Y-100981438D01*
X102509168Y-100982879D01*
X102482132Y-100994078D01*
X102461440Y-101014770D01*
X102450241Y-101041806D01*
X101884514Y-101041806D01*
X101884514Y-100666076D01*
X101946957Y-100728519D01*
X101952707Y-100733239D01*
X101954006Y-100734736D01*
X101956260Y-100736155D01*
X101958322Y-100737847D01*
X101960154Y-100738605D01*
X101966449Y-100742568D01*
X102061687Y-100790187D01*
X102075418Y-100795442D01*
X102104608Y-100797516D01*
X102132370Y-100788262D01*
X102154477Y-100769089D01*
X102167565Y-100742914D01*
X102169639Y-100713724D01*
X102160385Y-100685963D01*
X102141212Y-100663855D01*
X102128769Y-100656023D01*
X102044417Y-100613847D01*
X101963036Y-100532466D01*
X101871918Y-100395788D01*
X101871883Y-100395745D01*
X101871874Y-100395723D01*
X101871822Y-100395671D01*
X101862602Y-100384413D01*
X101856432Y-100380281D01*
X101851182Y-100375031D01*
X101844392Y-100372218D01*
X101838287Y-100368130D01*
X101831006Y-100366673D01*
X101824146Y-100363832D01*
X101816798Y-100363832D01*
X101809593Y-100362391D01*
X101802309Y-100363832D01*
X101794882Y-100363832D01*
X101788093Y-100366644D01*
X101780885Y-100368070D01*
X101774706Y-100372189D01*
X101767846Y-100375031D01*
X101762650Y-100380226D01*
X101756536Y-100384303D01*
X101752404Y-100390472D01*
X101747154Y-100395723D01*
X101744341Y-100402512D01*
X101740253Y-100408618D01*
X101738796Y-100415898D01*
X101735955Y-100422759D01*
X101734529Y-100437235D01*
X101734514Y-100437312D01*
X101734519Y-100437338D01*
X101734514Y-100437391D01*
X101734514Y-101362391D01*
X101523800Y-101362391D01*
X101509168Y-101363832D01*
X101482132Y-101375031D01*
X101461440Y-101395723D01*
X101450241Y-101422759D01*
X101264025Y-101422759D01*
X101252827Y-101395723D01*
X101243499Y-101384358D01*
X100684590Y-100825448D01*
X100646419Y-100710934D01*
X100646419Y-100645572D01*
X100680677Y-100577056D01*
X100711084Y-100546649D01*
X100779600Y-100512391D01*
X100982285Y-100512391D01*
X101050801Y-100546649D01*
X101089814Y-100585662D01*
X101101179Y-100594989D01*
X101128215Y-100606188D01*
X101157478Y-100606188D01*
X101184514Y-100594989D01*
X101205207Y-100574296D01*
X101216406Y-100547260D01*
X101216406Y-100517997D01*
X101205207Y-100490961D01*
X101195880Y-100479596D01*
X101148261Y-100431977D01*
X101142511Y-100427258D01*
X101141212Y-100425760D01*
X101138952Y-100424338D01*
X101136896Y-100422650D01*
X101135068Y-100421892D01*
X101128769Y-100417928D01*
X101033531Y-100370309D01*
X101019799Y-100365054D01*
X101017111Y-100364863D01*
X101014622Y-100363832D01*
X100999990Y-100362391D01*
X100761895Y-100362391D01*
X100747263Y-100363832D01*
X100744774Y-100364862D01*
X100742085Y-100365054D01*
X100728354Y-100370309D01*
X100633116Y-100417928D01*
X100626816Y-100421892D01*
X100624989Y-100422650D01*
X100622932Y-100424338D01*
X100620673Y-100425760D01*
X100619373Y-100427258D01*
X100613624Y-100431977D01*
X100566005Y-100479596D01*
X100561286Y-100485345D01*
X100559788Y-100486645D01*
X100558366Y-100488904D01*
X100556678Y-100490961D01*
X100555920Y-100492788D01*
X100551956Y-100499088D01*
X100504337Y-100594326D01*
X100499082Y-100608058D01*
X100498891Y-100610745D01*
X100497860Y-100613235D01*
X100496419Y-100627867D01*
X100301269Y-100627867D01*
X100356855Y-100461108D01*
X100360115Y-100446772D01*
X100358040Y-100417582D01*
X100344954Y-100391408D01*
X100322846Y-100372234D01*
X100295084Y-100362980D01*
X100265894Y-100365055D01*
X100239721Y-100378142D01*
X100220547Y-100400249D01*
X100214553Y-100413674D01*
X99952371Y-101200220D01*
X99690189Y-100413674D01*
X99684195Y-100400248D01*
X99665021Y-100378141D01*
X99638848Y-100365055D01*
X99609658Y-100362980D01*
X99581895Y-100372234D01*
X99559788Y-100391408D01*
X99546702Y-100417581D01*
X99544627Y-100446771D01*
X98290069Y-100446771D01*
X98290069Y-98827447D01*
X98401180Y-98827447D01*
X98401180Y-99827447D01*
X98402621Y-99842079D01*
X98413820Y-99869115D01*
X98434512Y-99889807D01*
X98461548Y-99901006D01*
X98490812Y-99901006D01*
X98517848Y-99889807D01*
X98521376Y-99886278D01*
X98537877Y-99894529D01*
X98551608Y-99899784D01*
X98554297Y-99899975D01*
X98556786Y-99901006D01*
X98571418Y-99902447D01*
X98761894Y-99902447D01*
X98776526Y-99901006D01*
X98779015Y-99899974D01*
X98781703Y-99899784D01*
X98795435Y-99894529D01*
X98890673Y-99846910D01*
X98896972Y-99842945D01*
X98898800Y-99842188D01*
X98900856Y-99840500D01*
X98903116Y-99839078D01*
X98904416Y-99837578D01*
X98910166Y-99832860D01*
X98957784Y-99785241D01*
X98962502Y-99779491D01*
X98964001Y-99778192D01*
X98965422Y-99775933D01*
X98967112Y-99773875D01*
X98967869Y-99772045D01*
X98971833Y-99765749D01*
X99019452Y-99670511D01*
X99024707Y-99656780D01*
X99024898Y-99654090D01*
X99025929Y-99651602D01*
X99027370Y-99636970D01*
X99027370Y-99351256D01*
X99025929Y-99336624D01*
X99024898Y-99334135D01*
X99024707Y-99331446D01*
X99019452Y-99317715D01*
X99012413Y-99303637D01*
X99258323Y-99303637D01*
X99258323Y-99398875D01*
X99259764Y-99413507D01*
X99262575Y-99420295D01*
X99264002Y-99427504D01*
X99268121Y-99433683D01*
X99270963Y-99440543D01*
X99276158Y-99445738D01*
X99280234Y-99451852D01*
X99286404Y-99455984D01*
X99291655Y-99461235D01*
X99298443Y-99464046D01*
X99304549Y-99468136D01*
X99318614Y-99472419D01*
X99734513Y-99555597D01*
X99734513Y-99666884D01*
X99705992Y-99723926D01*
X99648951Y-99752447D01*
X99493885Y-99752447D01*
X99414483Y-99712746D01*
X99400751Y-99707491D01*
X99371561Y-99705417D01*
X99343800Y-99714671D01*
X99321692Y-99733844D01*
X99308605Y-99760019D01*
X99306531Y-99789209D01*
X99315785Y-99816970D01*
X99334958Y-99839078D01*
X99347401Y-99846910D01*
X99442639Y-99894529D01*
X99456370Y-99899784D01*
X99459059Y-99899975D01*
X99461548Y-99901006D01*
X99476180Y-99902447D01*
X99666656Y-99902447D01*
X99681288Y-99901006D01*
X99683777Y-99899974D01*
X99686465Y-99899784D01*
X99700197Y-99894529D01*
X99795435Y-99846910D01*
X99797882Y-99845369D01*
X99799036Y-99844985D01*
X99800472Y-99843739D01*
X99807878Y-99839078D01*
X99814039Y-99831973D01*
X99821144Y-99825812D01*
X99825805Y-99818406D01*
X99827051Y-99816970D01*
X99827435Y-99815816D01*
X99828976Y-99813369D01*
X99876595Y-99718130D01*
X99881850Y-99704398D01*
X99882040Y-99701710D01*
X99883072Y-99699221D01*
X99884513Y-99684589D01*
X99884513Y-99303637D01*
X100163085Y-99303637D01*
X100163085Y-99827447D01*
X100164526Y-99842079D01*
X100175725Y-99869115D01*
X100196417Y-99889807D01*
X100223453Y-99901006D01*
X100252717Y-99901006D01*
X100279753Y-99889807D01*
X100300445Y-99869115D01*
X100311644Y-99842079D01*
X100313085Y-99827447D01*
X100313085Y-99321342D01*
X100341605Y-99264300D01*
X100398647Y-99235780D01*
X100506094Y-99235780D01*
X100574610Y-99270038D01*
X100591656Y-99287084D01*
X100591656Y-99827447D01*
X100593097Y-99842079D01*
X100604296Y-99869115D01*
X100624988Y-99889807D01*
X100652024Y-99901006D01*
X100681288Y-99901006D01*
X100708324Y-99889807D01*
X100729016Y-99869115D01*
X100740215Y-99842079D01*
X100741656Y-99827447D01*
X100741656Y-99199018D01*
X101020817Y-99199018D01*
X101022891Y-99228208D01*
X101035978Y-99254383D01*
X101058086Y-99273556D01*
X101085847Y-99282810D01*
X101115037Y-99280736D01*
X101128769Y-99275481D01*
X101208171Y-99235780D01*
X101363237Y-99235780D01*
X101431753Y-99270038D01*
X101462160Y-99300445D01*
X101496418Y-99368961D01*
X101496418Y-99619265D01*
X101462159Y-99687781D01*
X101431752Y-99718189D01*
X101363237Y-99752447D01*
X101208171Y-99752447D01*
X101128769Y-99712746D01*
X101115037Y-99707491D01*
X101085847Y-99705417D01*
X101058086Y-99714671D01*
X101035978Y-99733844D01*
X101022891Y-99760019D01*
X101020817Y-99789209D01*
X101030071Y-99816970D01*
X101049244Y-99839078D01*
X101061687Y-99846910D01*
X101156925Y-99894529D01*
X101170656Y-99899784D01*
X101173345Y-99899975D01*
X101175834Y-99901006D01*
X101190466Y-99902447D01*
X101380942Y-99902447D01*
X101395574Y-99901006D01*
X101398063Y-99899974D01*
X101400751Y-99899784D01*
X101414483Y-99894529D01*
X101509721Y-99846910D01*
X101516020Y-99842945D01*
X101517848Y-99842188D01*
X101519904Y-99840500D01*
X101522164Y-99839078D01*
X101523464Y-99837578D01*
X101529214Y-99832860D01*
X101576832Y-99785241D01*
X101581550Y-99779491D01*
X101583049Y-99778192D01*
X101584470Y-99775933D01*
X101586160Y-99773875D01*
X101586917Y-99772045D01*
X101590881Y-99765749D01*
X101638500Y-99670511D01*
X101643755Y-99656780D01*
X101643946Y-99654090D01*
X101644977Y-99651602D01*
X101646418Y-99636970D01*
X101646418Y-99351256D01*
X101644977Y-99336624D01*
X101643946Y-99334135D01*
X101643755Y-99331446D01*
X101638500Y-99317715D01*
X101590881Y-99222477D01*
X101586916Y-99216177D01*
X101586159Y-99214350D01*
X101584470Y-99212293D01*
X101583049Y-99210034D01*
X101581550Y-99208734D01*
X101576832Y-99202985D01*
X101529213Y-99155366D01*
X101523463Y-99150647D01*
X101522164Y-99149149D01*
X101519904Y-99147727D01*
X101517981Y-99146148D01*
X101783574Y-99146148D01*
X101783574Y-99175412D01*
X101794773Y-99202448D01*
X101815465Y-99223140D01*
X101842501Y-99234339D01*
X101857133Y-99235780D01*
X102020228Y-99235780D01*
X102020228Y-99666884D01*
X101991707Y-99723926D01*
X101934666Y-99752447D01*
X101857133Y-99752447D01*
X101842501Y-99753888D01*
X101815465Y-99765087D01*
X101794773Y-99785779D01*
X101783574Y-99812815D01*
X101783574Y-99842079D01*
X101794773Y-99869115D01*
X101815465Y-99889807D01*
X101842501Y-99901006D01*
X101857133Y-99902447D01*
X101952371Y-99902447D01*
X101967003Y-99901006D01*
X101969492Y-99899974D01*
X101972180Y-99899784D01*
X101985912Y-99894529D01*
X102081150Y-99846910D01*
X102083597Y-99845369D01*
X102084751Y-99844985D01*
X102086187Y-99843739D01*
X102093593Y-99839078D01*
X102099754Y-99831973D01*
X102106859Y-99825812D01*
X102111520Y-99818406D01*
X102112766Y-99816970D01*
X102113150Y-99815816D01*
X102114691Y-99813369D01*
X102162310Y-99718130D01*
X102167565Y-99704398D01*
X102167755Y-99701710D01*
X102168787Y-99699221D01*
X102170228Y-99684589D01*
X102170228Y-99235780D01*
X102238085Y-99235780D01*
X102252717Y-99234339D01*
X102279753Y-99223140D01*
X102300445Y-99202448D01*
X102311644Y-99175412D01*
X102311644Y-99160780D01*
X102496418Y-99160780D01*
X102496418Y-99827447D01*
X102497859Y-99842079D01*
X102509058Y-99869115D01*
X102529750Y-99889807D01*
X102556786Y-99901006D01*
X102586050Y-99901006D01*
X102613086Y-99889807D01*
X102633778Y-99869115D01*
X102644977Y-99842079D01*
X102646418Y-99827447D01*
X102646418Y-99166919D01*
X102877623Y-99166919D01*
X102880257Y-99181384D01*
X103070733Y-99848051D01*
X103076138Y-99861724D01*
X103079113Y-99865471D01*
X103080999Y-99869872D01*
X103088136Y-99876837D01*
X103094333Y-99884643D01*
X103098514Y-99886966D01*
X103101942Y-99890311D01*
X103111201Y-99894014D01*
X103119914Y-99898855D01*
X103124668Y-99899401D01*
X103129113Y-99901179D01*
X103139083Y-99901057D01*
X103148986Y-99902195D01*
X103153587Y-99900880D01*
X103158375Y-99900822D01*
X103167540Y-99896893D01*
X103177124Y-99894156D01*
X103180871Y-99891180D01*
X103185272Y-99889295D01*
X103192237Y-99882157D01*
X103200043Y-99875961D01*
X103202366Y-99871779D01*
X103205711Y-99868352D01*
X103212483Y-99855301D01*
X103333323Y-99553200D01*
X103454163Y-99855301D01*
X103460935Y-99868351D01*
X103464278Y-99871776D01*
X103466603Y-99875961D01*
X103474412Y-99882160D01*
X103481374Y-99889294D01*
X103485772Y-99891179D01*
X103489522Y-99894156D01*
X103499107Y-99896894D01*
X103508271Y-99900822D01*
X103513058Y-99900880D01*
X103517660Y-99902195D01*
X103527562Y-99901057D01*
X103537533Y-99901179D01*
X103541976Y-99899401D01*
X103546732Y-99898855D01*
X103555450Y-99894011D01*
X103564703Y-99890310D01*
X103568127Y-99886968D01*
X103572313Y-99884643D01*
X103578511Y-99876834D01*
X103585647Y-99869872D01*
X103587532Y-99865471D01*
X103590508Y-99861724D01*
X103595913Y-99848051D01*
X103683433Y-99541732D01*
X103972609Y-99541732D01*
X103972609Y-99636970D01*
X103974050Y-99651602D01*
X103975081Y-99654091D01*
X103975272Y-99656779D01*
X103980527Y-99670511D01*
X104028146Y-99765749D01*
X104032109Y-99772045D01*
X104032867Y-99773875D01*
X104034556Y-99775933D01*
X104035978Y-99778192D01*
X104037476Y-99779491D01*
X104042194Y-99785240D01*
X104089813Y-99832860D01*
X104095562Y-99837578D01*
X104096863Y-99839078D01*
X104099122Y-99840500D01*
X104101179Y-99842188D01*
X104103006Y-99842945D01*
X104109306Y-99846910D01*
X104204544Y-99894529D01*
X104218275Y-99899784D01*
X104220964Y-99899975D01*
X104223453Y-99901006D01*
X104238085Y-99902447D01*
X104476180Y-99902447D01*
X104483585Y-99901717D01*
X104485560Y-99901858D01*
X104488157Y-99901267D01*
X104490812Y-99901006D01*
X104492643Y-99900247D01*
X104499897Y-99898598D01*
X104642754Y-99850979D01*
X104656179Y-99844985D01*
X104678286Y-99825811D01*
X104691373Y-99799638D01*
X104693448Y-99770448D01*
X104684194Y-99742686D01*
X104665020Y-99720578D01*
X104638846Y-99707492D01*
X104609656Y-99705417D01*
X104595319Y-99708677D01*
X104464010Y-99752447D01*
X104255790Y-99752447D01*
X104187274Y-99718189D01*
X104156867Y-99687781D01*
X104122609Y-99619265D01*
X104122609Y-99559437D01*
X104156867Y-99490921D01*
X104187274Y-99460514D01*
X104264261Y-99422020D01*
X104446751Y-99376398D01*
X104447830Y-99376012D01*
X104448370Y-99375974D01*
X104454451Y-99373646D01*
X104460597Y-99371451D01*
X104461032Y-99371128D01*
X104462102Y-99370719D01*
X104557340Y-99323100D01*
X104563639Y-99319135D01*
X104565467Y-99318378D01*
X104567523Y-99316689D01*
X104569783Y-99315268D01*
X104571082Y-99313769D01*
X104576832Y-99309051D01*
X104624451Y-99261432D01*
X104629169Y-99255682D01*
X104630668Y-99254383D01*
X104632089Y-99252123D01*
X104633778Y-99250067D01*
X104634535Y-99248239D01*
X104638500Y-99241940D01*
X104686119Y-99146702D01*
X104691374Y-99132971D01*
X104691565Y-99130281D01*
X104692596Y-99127793D01*
X104694037Y-99113161D01*
X104694037Y-99017923D01*
X104692596Y-99003291D01*
X104691565Y-99000802D01*
X104691374Y-98998113D01*
X104686119Y-98984382D01*
X104638500Y-98889144D01*
X104634535Y-98882844D01*
X104633778Y-98881017D01*
X104632089Y-98878960D01*
X104630668Y-98876701D01*
X104629169Y-98875401D01*
X104624451Y-98869652D01*
X104576832Y-98822033D01*
X104571082Y-98817314D01*
X104569783Y-98815816D01*
X104567523Y-98814394D01*
X104565467Y-98812706D01*
X104563639Y-98811948D01*
X104557340Y-98807984D01*
X104462102Y-98760365D01*
X104448370Y-98755110D01*
X104445682Y-98754919D01*
X104443193Y-98753888D01*
X104428561Y-98752447D01*
X104190466Y-98752447D01*
X104183059Y-98753176D01*
X104181085Y-98753036D01*
X104178487Y-98753626D01*
X104175834Y-98753888D01*
X104174003Y-98754646D01*
X104166748Y-98756296D01*
X104023892Y-98803915D01*
X104010466Y-98809909D01*
X103988359Y-98829083D01*
X103975273Y-98855256D01*
X103973198Y-98884446D01*
X103982452Y-98912209D01*
X104001626Y-98934316D01*
X104027799Y-98947402D01*
X104056989Y-98949477D01*
X104071326Y-98946217D01*
X104202636Y-98902447D01*
X104410856Y-98902447D01*
X104479372Y-98936705D01*
X104509779Y-98967112D01*
X104544037Y-99035628D01*
X104544037Y-99095456D01*
X104509779Y-99163972D01*
X104479372Y-99194379D01*
X104402385Y-99232872D01*
X104219895Y-99278495D01*
X104218815Y-99278880D01*
X104218275Y-99278919D01*
X104212185Y-99281249D01*
X104206049Y-99283442D01*
X104205613Y-99283764D01*
X104204544Y-99284174D01*
X104109306Y-99331793D01*
X104103006Y-99335757D01*
X104101179Y-99336515D01*
X104099122Y-99338203D01*
X104096863Y-99339625D01*
X104095563Y-99341123D01*
X104089814Y-99345842D01*
X104042195Y-99393461D01*
X104037476Y-99399210D01*
X104035978Y-99400510D01*
X104034556Y-99402769D01*
X104032868Y-99404826D01*
X104032110Y-99406653D01*
X104028146Y-99412953D01*
X103980527Y-99508191D01*
X103975272Y-99521923D01*
X103975081Y-99524610D01*
X103974050Y-99527100D01*
X103972609Y-99541732D01*
X103683433Y-99541732D01*
X103786389Y-99181384D01*
X103789023Y-99166919D01*
X103785683Y-99137847D01*
X103771471Y-99112266D01*
X103748552Y-99094071D01*
X103720414Y-99086032D01*
X103691342Y-99089372D01*
X103665761Y-99103584D01*
X103647566Y-99126503D01*
X103642161Y-99140176D01*
X103511955Y-99595894D01*
X103402959Y-99323402D01*
X103396187Y-99310351D01*
X103395536Y-99309684D01*
X103395171Y-99308831D01*
X103385360Y-99299257D01*
X103375748Y-99289408D01*
X103374890Y-99289040D01*
X103374227Y-99288393D01*
X103361495Y-99283299D01*
X103348851Y-99277881D01*
X103347921Y-99277869D01*
X103347057Y-99277524D01*
X103333323Y-99277691D01*
X103319589Y-99277524D01*
X103318724Y-99277869D01*
X103317795Y-99277881D01*
X103305193Y-99283282D01*
X103292418Y-99288392D01*
X103291750Y-99289043D01*
X103290898Y-99289409D01*
X103281325Y-99299217D01*
X103271475Y-99308831D01*
X103271108Y-99309686D01*
X103270459Y-99310352D01*
X103263687Y-99323402D01*
X103154690Y-99595894D01*
X103024485Y-99140176D01*
X103019080Y-99126503D01*
X103000885Y-99103584D01*
X102975304Y-99089372D01*
X102946232Y-99086032D01*
X102918094Y-99094071D01*
X102895175Y-99112266D01*
X102880963Y-99137847D01*
X102877623Y-99166919D01*
X102646418Y-99166919D01*
X102646418Y-99160780D01*
X102644977Y-99146148D01*
X102633778Y-99119112D01*
X102613086Y-99098420D01*
X102586050Y-99087221D01*
X102556786Y-99087221D01*
X102529750Y-99098420D01*
X102509058Y-99119112D01*
X102497859Y-99146148D01*
X102496418Y-99160780D01*
X102311644Y-99160780D01*
X102311644Y-99146148D01*
X102300445Y-99119112D01*
X102279753Y-99098420D01*
X102252717Y-99087221D01*
X102238085Y-99085780D01*
X102170228Y-99085780D01*
X102170228Y-98860435D01*
X102450240Y-98860435D01*
X102450240Y-98889697D01*
X102461439Y-98916734D01*
X102470766Y-98928099D01*
X102518385Y-98975718D01*
X102529750Y-98985045D01*
X102556786Y-98996244D01*
X102556787Y-98996244D01*
X102586049Y-98996244D01*
X102586050Y-98996244D01*
X102613086Y-98985045D01*
X102624451Y-98975718D01*
X102672070Y-98928099D01*
X102681397Y-98916734D01*
X102692596Y-98889698D01*
X102692596Y-98860435D01*
X102687138Y-98847257D01*
X102681397Y-98833398D01*
X102672070Y-98822033D01*
X102624451Y-98774414D01*
X102613086Y-98765087D01*
X102586050Y-98753888D01*
X102586049Y-98753888D01*
X102556786Y-98753888D01*
X102529750Y-98765087D01*
X102518385Y-98774414D01*
X102470766Y-98822033D01*
X102461439Y-98833398D01*
X102450240Y-98860435D01*
X102170228Y-98860435D01*
X102170228Y-98827447D01*
X102168787Y-98812815D01*
X102157588Y-98785779D01*
X102136896Y-98765087D01*
X102109860Y-98753888D01*
X102080596Y-98753888D01*
X102053560Y-98765087D01*
X102032868Y-98785779D01*
X102021669Y-98812815D01*
X102020228Y-98827447D01*
X102020228Y-99085780D01*
X101857133Y-99085780D01*
X101842501Y-99087221D01*
X101815465Y-99098420D01*
X101794773Y-99119112D01*
X101783574Y-99146148D01*
X101517981Y-99146148D01*
X101517848Y-99146039D01*
X101516020Y-99145281D01*
X101509721Y-99141317D01*
X101414483Y-99093698D01*
X101400751Y-99088443D01*
X101398063Y-99088252D01*
X101395574Y-99087221D01*
X101380942Y-99085780D01*
X101190466Y-99085780D01*
X101175834Y-99087221D01*
X101173345Y-99088251D01*
X101170656Y-99088443D01*
X101156925Y-99093698D01*
X101061687Y-99141317D01*
X101049244Y-99149149D01*
X101030071Y-99171257D01*
X101020817Y-99199018D01*
X100741656Y-99199018D01*
X100741656Y-98827447D01*
X100740215Y-98812815D01*
X100729016Y-98785779D01*
X100708324Y-98765087D01*
X100681288Y-98753888D01*
X100652024Y-98753888D01*
X100624988Y-98765087D01*
X100604296Y-98785779D01*
X100593097Y-98812815D01*
X100591656Y-98827447D01*
X100591656Y-99110856D01*
X100557340Y-99093698D01*
X100543608Y-99088443D01*
X100540920Y-99088252D01*
X100538431Y-99087221D01*
X100523799Y-99085780D01*
X100380942Y-99085780D01*
X100366310Y-99087221D01*
X100363821Y-99088251D01*
X100361132Y-99088443D01*
X100347401Y-99093698D01*
X100252163Y-99141317D01*
X100249715Y-99142857D01*
X100248562Y-99143242D01*
X100247125Y-99144487D01*
X100239720Y-99149149D01*
X100233558Y-99156253D01*
X100226454Y-99162415D01*
X100221792Y-99169820D01*
X100220547Y-99171257D01*
X100220162Y-99172410D01*
X100218622Y-99174858D01*
X100171003Y-99270096D01*
X100165748Y-99283828D01*
X100165557Y-99286515D01*
X100164526Y-99289005D01*
X100163085Y-99303637D01*
X99884513Y-99303637D01*
X99883072Y-99289005D01*
X99882041Y-99286516D01*
X99881850Y-99283827D01*
X99876595Y-99270096D01*
X99828976Y-99174858D01*
X99827435Y-99172410D01*
X99827051Y-99171257D01*
X99825805Y-99169820D01*
X99821144Y-99162415D01*
X99814039Y-99156253D01*
X99807878Y-99149149D01*
X99800472Y-99144487D01*
X99799036Y-99143242D01*
X99797882Y-99142857D01*
X99795435Y-99141317D01*
X99700197Y-99093698D01*
X99686465Y-99088443D01*
X99683777Y-99088252D01*
X99681288Y-99087221D01*
X99666656Y-99085780D01*
X99476180Y-99085780D01*
X99461548Y-99087221D01*
X99459059Y-99088251D01*
X99456370Y-99088443D01*
X99442639Y-99093698D01*
X99347401Y-99141317D01*
X99344953Y-99142857D01*
X99343800Y-99143242D01*
X99342363Y-99144487D01*
X99334958Y-99149149D01*
X99328796Y-99156253D01*
X99321692Y-99162415D01*
X99317030Y-99169820D01*
X99315785Y-99171257D01*
X99315400Y-99172410D01*
X99313860Y-99174858D01*
X99266241Y-99270096D01*
X99260986Y-99283828D01*
X99260795Y-99286515D01*
X99259764Y-99289005D01*
X99258323Y-99303637D01*
X99012413Y-99303637D01*
X98971833Y-99222477D01*
X98967868Y-99216177D01*
X98967111Y-99214350D01*
X98965422Y-99212293D01*
X98964001Y-99210034D01*
X98962502Y-99208734D01*
X98957784Y-99202985D01*
X98910165Y-99155366D01*
X98904415Y-99150647D01*
X98903116Y-99149149D01*
X98900856Y-99147727D01*
X98898800Y-99146039D01*
X98896972Y-99145281D01*
X98890673Y-99141317D01*
X98795435Y-99093698D01*
X98781703Y-99088443D01*
X98779015Y-99088252D01*
X98776526Y-99087221D01*
X98761894Y-99085780D01*
X98571418Y-99085780D01*
X98556786Y-99087221D01*
X98554297Y-99088251D01*
X98551608Y-99088443D01*
X98551180Y-99088606D01*
X98551180Y-98827447D01*
X98549739Y-98812815D01*
X98538540Y-98785779D01*
X98517848Y-98765087D01*
X98490812Y-98753888D01*
X98461548Y-98753888D01*
X98434512Y-98765087D01*
X98413820Y-98785779D01*
X98402621Y-98812815D01*
X98401180Y-98827447D01*
X98290069Y-98827447D01*
X98290069Y-98641336D01*
X104805148Y-98641336D01*
X104805148Y-101623502D01*
G37*
G36*
X118196959Y-85654547D02*
G01*
X115777708Y-85654547D01*
X115777708Y-84468619D01*
X115888819Y-84468619D01*
X115888819Y-85468619D01*
X115889189Y-85472382D01*
X115889002Y-85473858D01*
X115889523Y-85475768D01*
X115890260Y-85483251D01*
X115894077Y-85492466D01*
X115896702Y-85502090D01*
X115899629Y-85505870D01*
X115901459Y-85510287D01*
X115908509Y-85517337D01*
X115914619Y-85525227D01*
X115918772Y-85527600D01*
X115922151Y-85530979D01*
X115931363Y-85534795D01*
X115940028Y-85539746D01*
X115944771Y-85540348D01*
X115949187Y-85542178D01*
X115959161Y-85542178D01*
X115969058Y-85543436D01*
X115973670Y-85542178D01*
X115978451Y-85542178D01*
X115987666Y-85538360D01*
X115997290Y-85535736D01*
X116001070Y-85532808D01*
X116005487Y-85530979D01*
X116012537Y-85523928D01*
X116020427Y-85517819D01*
X116024779Y-85511686D01*
X116026179Y-85510287D01*
X116026748Y-85508912D01*
X116028937Y-85505829D01*
X116460247Y-84751035D01*
X116460247Y-85468619D01*
X116461688Y-85483251D01*
X116472887Y-85510287D01*
X116493579Y-85530979D01*
X116520615Y-85542178D01*
X116549879Y-85542178D01*
X116576915Y-85530979D01*
X116597607Y-85510287D01*
X116608806Y-85483251D01*
X116610247Y-85468619D01*
X116610247Y-84468619D01*
X116936437Y-84468619D01*
X116936437Y-85468619D01*
X116937878Y-85483251D01*
X116949077Y-85510287D01*
X116969769Y-85530979D01*
X116996805Y-85542178D01*
X117026069Y-85542178D01*
X117053105Y-85530979D01*
X117073797Y-85510287D01*
X117084996Y-85483251D01*
X117086437Y-85468619D01*
X117086437Y-84477999D01*
X117270360Y-84477999D01*
X117273620Y-84492336D01*
X117606953Y-85492336D01*
X117612947Y-85505761D01*
X117616457Y-85509808D01*
X117618854Y-85514602D01*
X117625962Y-85520767D01*
X117632121Y-85527868D01*
X117636910Y-85530262D01*
X117640961Y-85533776D01*
X117649886Y-85536750D01*
X117658294Y-85540955D01*
X117663638Y-85541334D01*
X117668724Y-85543030D01*
X117678104Y-85542363D01*
X117687484Y-85543030D01*
X117692569Y-85541334D01*
X117697914Y-85540955D01*
X117706324Y-85536749D01*
X117715246Y-85533776D01*
X117719293Y-85530265D01*
X117724087Y-85527869D01*
X117730250Y-85520763D01*
X117737354Y-85514602D01*
X117739749Y-85509810D01*
X117743261Y-85505762D01*
X117749255Y-85492336D01*
X118082588Y-84492336D01*
X118085848Y-84478000D01*
X118083773Y-84448810D01*
X118070687Y-84422636D01*
X118048579Y-84403462D01*
X118020817Y-84394208D01*
X117991627Y-84396283D01*
X117965454Y-84409370D01*
X117946280Y-84431477D01*
X117940286Y-84444902D01*
X117678104Y-85231448D01*
X117415922Y-84444902D01*
X117409928Y-84431476D01*
X117390754Y-84409369D01*
X117364581Y-84396283D01*
X117335391Y-84394208D01*
X117307628Y-84403462D01*
X117285521Y-84422636D01*
X117272435Y-84448809D01*
X117270360Y-84477999D01*
X117086437Y-84477999D01*
X117086437Y-84468619D01*
X117084996Y-84453987D01*
X117073797Y-84426951D01*
X117053105Y-84406259D01*
X117026069Y-84395060D01*
X116996805Y-84395060D01*
X116969769Y-84406259D01*
X116949077Y-84426951D01*
X116937878Y-84453987D01*
X116936437Y-84468619D01*
X116610247Y-84468619D01*
X116609876Y-84464855D01*
X116610064Y-84463380D01*
X116609542Y-84461469D01*
X116608806Y-84453987D01*
X116604988Y-84444771D01*
X116602364Y-84435148D01*
X116599436Y-84431367D01*
X116597607Y-84426951D01*
X116590556Y-84419900D01*
X116584447Y-84412011D01*
X116580293Y-84409637D01*
X116576915Y-84406259D01*
X116567702Y-84402442D01*
X116559038Y-84397492D01*
X116554294Y-84396889D01*
X116549879Y-84395060D01*
X116539905Y-84395060D01*
X116530008Y-84393802D01*
X116525396Y-84395060D01*
X116520615Y-84395060D01*
X116511398Y-84398877D01*
X116501777Y-84401502D01*
X116497997Y-84404428D01*
X116493579Y-84406259D01*
X116486527Y-84413310D01*
X116478639Y-84419419D01*
X116474284Y-84425553D01*
X116472887Y-84426951D01*
X116472318Y-84428323D01*
X116470129Y-84431408D01*
X116038819Y-85186202D01*
X116038819Y-84468619D01*
X116037378Y-84453987D01*
X116026179Y-84426951D01*
X116005487Y-84406259D01*
X115978451Y-84395060D01*
X115949187Y-84395060D01*
X115922151Y-84406259D01*
X115901459Y-84426951D01*
X115890260Y-84453987D01*
X115888819Y-84468619D01*
X115777708Y-84468619D01*
X115777708Y-84282691D01*
X118196959Y-84282691D01*
X118196959Y-85654547D01*
G37*
G36*
X124969294Y-63803619D02*
G01*
X124818369Y-63803619D01*
X124703856Y-63765448D01*
X124629743Y-63691334D01*
X124591249Y-63614347D01*
X124547866Y-63440813D01*
X124547866Y-63316424D01*
X124591249Y-63142890D01*
X124629743Y-63065903D01*
X124703856Y-62991790D01*
X124818369Y-62953619D01*
X124969294Y-62953619D01*
X124969294Y-63803619D01*
G37*
G36*
X127325643Y-64064730D02*
G01*
X124286755Y-64064730D01*
X124286755Y-63307190D01*
X124397866Y-63307190D01*
X124397866Y-63450047D01*
X124398117Y-63452600D01*
X124397955Y-63453693D01*
X124398764Y-63459166D01*
X124399307Y-63464679D01*
X124399729Y-63465700D01*
X124400105Y-63468237D01*
X124447724Y-63658713D01*
X124448109Y-63659792D01*
X124448148Y-63660332D01*
X124450475Y-63666413D01*
X124452671Y-63672559D01*
X124452993Y-63672994D01*
X124453403Y-63674064D01*
X124501022Y-63769302D01*
X124504985Y-63775598D01*
X124505743Y-63777428D01*
X124507432Y-63779486D01*
X124508854Y-63781745D01*
X124510352Y-63783044D01*
X124515071Y-63788794D01*
X124610309Y-63884033D01*
X124621674Y-63893361D01*
X124624164Y-63894392D01*
X124626199Y-63896157D01*
X124639625Y-63902151D01*
X124782481Y-63949770D01*
X124789736Y-63951419D01*
X124791567Y-63952178D01*
X124794220Y-63952439D01*
X124796818Y-63953030D01*
X124798792Y-63952889D01*
X124806199Y-63953619D01*
X125044294Y-63953619D01*
X125058926Y-63952178D01*
X125085962Y-63940979D01*
X125106654Y-63920287D01*
X125117853Y-63893251D01*
X125119294Y-63878619D01*
X125119294Y-62878619D01*
X125445485Y-62878619D01*
X125445485Y-63878619D01*
X125445855Y-63882382D01*
X125445668Y-63883858D01*
X125446189Y-63885768D01*
X125446926Y-63893251D01*
X125450743Y-63902466D01*
X125453368Y-63912090D01*
X125456295Y-63915870D01*
X125458125Y-63920287D01*
X125465175Y-63927337D01*
X125471285Y-63935227D01*
X125475438Y-63937600D01*
X125478817Y-63940979D01*
X125488029Y-63944795D01*
X125496694Y-63949746D01*
X125501437Y-63950348D01*
X125505853Y-63952178D01*
X125515827Y-63952178D01*
X125525724Y-63953436D01*
X125530336Y-63952178D01*
X125535117Y-63952178D01*
X125544332Y-63948360D01*
X125553956Y-63945736D01*
X125557736Y-63942808D01*
X125562153Y-63940979D01*
X125569203Y-63933928D01*
X125577093Y-63927819D01*
X125581445Y-63921686D01*
X125582845Y-63920287D01*
X125583414Y-63918912D01*
X125585603Y-63915829D01*
X126016913Y-63161035D01*
X126016913Y-63878619D01*
X126018354Y-63893251D01*
X126029553Y-63920287D01*
X126050245Y-63940979D01*
X126077281Y-63952178D01*
X126106545Y-63952178D01*
X126133581Y-63940979D01*
X126154273Y-63920287D01*
X126165472Y-63893251D01*
X126166913Y-63878619D01*
X126166913Y-63450047D01*
X126445485Y-63450047D01*
X126445485Y-63783380D01*
X126446926Y-63798012D01*
X126450843Y-63807468D01*
X126458124Y-63825047D01*
X126467451Y-63836412D01*
X126515070Y-63884032D01*
X126526436Y-63893360D01*
X126528924Y-63894390D01*
X126530961Y-63896157D01*
X126544387Y-63902151D01*
X126687243Y-63949770D01*
X126694498Y-63951419D01*
X126696329Y-63952178D01*
X126698982Y-63952439D01*
X126701580Y-63953030D01*
X126703554Y-63952889D01*
X126710961Y-63953619D01*
X126806199Y-63953619D01*
X126813604Y-63952889D01*
X126815579Y-63953030D01*
X126818176Y-63952439D01*
X126820831Y-63952178D01*
X126822662Y-63951419D01*
X126829916Y-63949770D01*
X126972773Y-63902151D01*
X126986198Y-63896157D01*
X126988233Y-63894391D01*
X126990724Y-63893360D01*
X127002089Y-63884033D01*
X127097328Y-63788793D01*
X127102045Y-63783044D01*
X127103544Y-63781745D01*
X127104965Y-63779486D01*
X127106655Y-63777428D01*
X127107412Y-63775598D01*
X127111376Y-63769302D01*
X127158995Y-63674064D01*
X127159404Y-63672994D01*
X127159727Y-63672559D01*
X127161919Y-63666422D01*
X127164250Y-63660333D01*
X127164288Y-63659792D01*
X127164674Y-63658713D01*
X127212293Y-63468237D01*
X127212668Y-63465700D01*
X127213091Y-63464679D01*
X127213633Y-63459166D01*
X127214443Y-63453693D01*
X127214280Y-63452600D01*
X127214532Y-63450047D01*
X127214532Y-63307190D01*
X127214280Y-63304636D01*
X127214443Y-63303544D01*
X127213633Y-63298070D01*
X127213091Y-63292558D01*
X127212668Y-63291536D01*
X127212293Y-63289000D01*
X127164674Y-63098524D01*
X127164288Y-63097444D01*
X127164250Y-63096904D01*
X127161919Y-63090814D01*
X127159727Y-63084678D01*
X127159404Y-63084242D01*
X127158995Y-63083173D01*
X127111376Y-62987935D01*
X127107413Y-62981640D01*
X127106655Y-62979808D01*
X127104963Y-62977746D01*
X127103544Y-62975492D01*
X127102047Y-62974193D01*
X127097327Y-62968443D01*
X127002089Y-62873205D01*
X126990724Y-62863878D01*
X126988233Y-62862846D01*
X126986198Y-62861081D01*
X126972773Y-62855087D01*
X126829916Y-62807468D01*
X126822662Y-62805818D01*
X126820831Y-62805060D01*
X126818176Y-62804798D01*
X126815579Y-62804208D01*
X126813604Y-62804348D01*
X126806199Y-62803619D01*
X126663342Y-62803619D01*
X126648710Y-62805060D01*
X126646221Y-62806090D01*
X126643532Y-62806282D01*
X126629801Y-62811537D01*
X126534563Y-62859156D01*
X126522120Y-62866988D01*
X126502947Y-62889096D01*
X126493693Y-62916857D01*
X126495767Y-62946047D01*
X126508854Y-62972222D01*
X126530962Y-62991395D01*
X126558723Y-63000649D01*
X126587913Y-62998575D01*
X126601645Y-62993320D01*
X126681047Y-62953619D01*
X126794029Y-62953619D01*
X126908542Y-62991790D01*
X126982655Y-63065903D01*
X127021148Y-63142890D01*
X127064532Y-63316424D01*
X127064532Y-63440813D01*
X127021148Y-63614347D01*
X126982654Y-63691334D01*
X126908542Y-63765447D01*
X126794029Y-63803619D01*
X126723131Y-63803619D01*
X126608618Y-63765448D01*
X126595485Y-63752314D01*
X126595485Y-63525047D01*
X126710961Y-63525047D01*
X126725593Y-63523606D01*
X126752629Y-63512407D01*
X126773321Y-63491715D01*
X126784520Y-63464679D01*
X126784520Y-63435415D01*
X126773321Y-63408379D01*
X126752629Y-63387687D01*
X126725593Y-63376488D01*
X126710961Y-63375047D01*
X126520485Y-63375047D01*
X126505853Y-63376488D01*
X126478817Y-63387687D01*
X126458125Y-63408379D01*
X126446926Y-63435415D01*
X126445485Y-63450047D01*
X126166913Y-63450047D01*
X126166913Y-62878619D01*
X126166542Y-62874855D01*
X126166730Y-62873380D01*
X126166208Y-62871469D01*
X126165472Y-62863987D01*
X126161654Y-62854771D01*
X126159030Y-62845148D01*
X126156102Y-62841367D01*
X126154273Y-62836951D01*
X126147222Y-62829900D01*
X126141113Y-62822011D01*
X126136959Y-62819637D01*
X126133581Y-62816259D01*
X126124368Y-62812442D01*
X126115704Y-62807492D01*
X126110960Y-62806889D01*
X126106545Y-62805060D01*
X126096571Y-62805060D01*
X126086674Y-62803802D01*
X126082062Y-62805060D01*
X126077281Y-62805060D01*
X126068064Y-62808877D01*
X126058443Y-62811502D01*
X126054663Y-62814428D01*
X126050245Y-62816259D01*
X126043193Y-62823310D01*
X126035305Y-62829419D01*
X126030950Y-62835553D01*
X126029553Y-62836951D01*
X126028984Y-62838323D01*
X126026795Y-62841408D01*
X125595485Y-63596202D01*
X125595485Y-62878619D01*
X125594044Y-62863987D01*
X125582845Y-62836951D01*
X125562153Y-62816259D01*
X125535117Y-62805060D01*
X125505853Y-62805060D01*
X125478817Y-62816259D01*
X125458125Y-62836951D01*
X125446926Y-62863987D01*
X125445485Y-62878619D01*
X125119294Y-62878619D01*
X125117853Y-62863987D01*
X125106654Y-62836951D01*
X125085962Y-62816259D01*
X125058926Y-62805060D01*
X125044294Y-62803619D01*
X124806199Y-62803619D01*
X124798792Y-62804348D01*
X124796818Y-62804208D01*
X124794220Y-62804798D01*
X124791567Y-62805060D01*
X124789736Y-62805818D01*
X124782481Y-62807468D01*
X124639625Y-62855087D01*
X124626199Y-62861081D01*
X124624164Y-62862845D01*
X124621674Y-62863877D01*
X124610309Y-62873205D01*
X124515071Y-62968443D01*
X124510352Y-62974192D01*
X124508854Y-62975492D01*
X124507432Y-62977751D01*
X124505744Y-62979808D01*
X124504986Y-62981635D01*
X124501022Y-62987935D01*
X124453403Y-63083173D01*
X124452993Y-63084242D01*
X124452671Y-63084678D01*
X124450475Y-63090823D01*
X124448148Y-63096905D01*
X124448109Y-63097444D01*
X124447724Y-63098524D01*
X124400105Y-63289000D01*
X124399729Y-63291536D01*
X124399307Y-63292558D01*
X124398764Y-63298070D01*
X124397955Y-63303544D01*
X124398117Y-63304636D01*
X124397866Y-63307190D01*
X124286755Y-63307190D01*
X124286755Y-62692508D01*
X127325643Y-62692508D01*
X127325643Y-64064730D01*
G37*
G36*
X143866894Y-67308819D02*
G01*
X143715969Y-67308819D01*
X143601456Y-67270648D01*
X143527343Y-67196534D01*
X143488849Y-67119547D01*
X143445466Y-66946013D01*
X143445466Y-66821624D01*
X143488849Y-66648090D01*
X143527343Y-66571103D01*
X143601456Y-66496990D01*
X143715969Y-66458819D01*
X143866894Y-66458819D01*
X143866894Y-67308819D01*
G37*
G36*
X146223243Y-67569930D02*
G01*
X143184355Y-67569930D01*
X143184355Y-66812390D01*
X143295466Y-66812390D01*
X143295466Y-66955247D01*
X143295717Y-66957800D01*
X143295555Y-66958893D01*
X143296364Y-66964366D01*
X143296907Y-66969879D01*
X143297329Y-66970900D01*
X143297705Y-66973437D01*
X143345324Y-67163913D01*
X143345709Y-67164992D01*
X143345748Y-67165532D01*
X143348075Y-67171613D01*
X143350271Y-67177759D01*
X143350593Y-67178194D01*
X143351003Y-67179264D01*
X143398622Y-67274502D01*
X143402585Y-67280798D01*
X143403343Y-67282628D01*
X143405032Y-67284686D01*
X143406454Y-67286945D01*
X143407952Y-67288244D01*
X143412671Y-67293994D01*
X143507909Y-67389233D01*
X143519274Y-67398561D01*
X143521764Y-67399592D01*
X143523799Y-67401357D01*
X143537225Y-67407351D01*
X143680081Y-67454970D01*
X143687336Y-67456619D01*
X143689167Y-67457378D01*
X143691820Y-67457639D01*
X143694418Y-67458230D01*
X143696392Y-67458089D01*
X143703799Y-67458819D01*
X143941894Y-67458819D01*
X143956526Y-67457378D01*
X143983562Y-67446179D01*
X144004254Y-67425487D01*
X144015453Y-67398451D01*
X144016894Y-67383819D01*
X144016894Y-66383819D01*
X144343085Y-66383819D01*
X144343085Y-67383819D01*
X144343455Y-67387582D01*
X144343268Y-67389058D01*
X144343789Y-67390968D01*
X144344526Y-67398451D01*
X144348343Y-67407666D01*
X144350968Y-67417290D01*
X144353895Y-67421070D01*
X144355725Y-67425487D01*
X144362775Y-67432537D01*
X144368885Y-67440427D01*
X144373038Y-67442800D01*
X144376417Y-67446179D01*
X144385629Y-67449995D01*
X144394294Y-67454946D01*
X144399037Y-67455548D01*
X144403453Y-67457378D01*
X144413427Y-67457378D01*
X144423324Y-67458636D01*
X144427936Y-67457378D01*
X144432717Y-67457378D01*
X144441932Y-67453560D01*
X144451556Y-67450936D01*
X144455336Y-67448008D01*
X144459753Y-67446179D01*
X144466803Y-67439128D01*
X144474693Y-67433019D01*
X144479045Y-67426886D01*
X144480445Y-67425487D01*
X144481014Y-67424112D01*
X144483203Y-67421029D01*
X144914513Y-66666235D01*
X144914513Y-67383819D01*
X144915954Y-67398451D01*
X144927153Y-67425487D01*
X144947845Y-67446179D01*
X144974881Y-67457378D01*
X145004145Y-67457378D01*
X145031181Y-67446179D01*
X145051873Y-67425487D01*
X145063072Y-67398451D01*
X145064513Y-67383819D01*
X145064513Y-66955247D01*
X145343085Y-66955247D01*
X145343085Y-67288580D01*
X145344526Y-67303212D01*
X145348443Y-67312668D01*
X145355724Y-67330247D01*
X145365051Y-67341612D01*
X145412670Y-67389232D01*
X145424036Y-67398560D01*
X145426524Y-67399590D01*
X145428561Y-67401357D01*
X145441987Y-67407351D01*
X145584843Y-67454970D01*
X145592098Y-67456619D01*
X145593929Y-67457378D01*
X145596582Y-67457639D01*
X145599180Y-67458230D01*
X145601154Y-67458089D01*
X145608561Y-67458819D01*
X145703799Y-67458819D01*
X145711204Y-67458089D01*
X145713179Y-67458230D01*
X145715776Y-67457639D01*
X145718431Y-67457378D01*
X145720262Y-67456619D01*
X145727516Y-67454970D01*
X145870373Y-67407351D01*
X145883798Y-67401357D01*
X145885833Y-67399591D01*
X145888324Y-67398560D01*
X145899689Y-67389233D01*
X145994928Y-67293993D01*
X145999645Y-67288244D01*
X146001144Y-67286945D01*
X146002565Y-67284686D01*
X146004255Y-67282628D01*
X146005012Y-67280798D01*
X146008976Y-67274502D01*
X146056595Y-67179264D01*
X146057004Y-67178194D01*
X146057327Y-67177759D01*
X146059519Y-67171622D01*
X146061850Y-67165533D01*
X146061888Y-67164992D01*
X146062274Y-67163913D01*
X146109893Y-66973437D01*
X146110268Y-66970900D01*
X146110691Y-66969879D01*
X146111233Y-66964366D01*
X146112043Y-66958893D01*
X146111880Y-66957800D01*
X146112132Y-66955247D01*
X146112132Y-66812390D01*
X146111880Y-66809836D01*
X146112043Y-66808744D01*
X146111233Y-66803270D01*
X146110691Y-66797758D01*
X146110268Y-66796736D01*
X146109893Y-66794200D01*
X146062274Y-66603724D01*
X146061888Y-66602644D01*
X146061850Y-66602104D01*
X146059519Y-66596014D01*
X146057327Y-66589878D01*
X146057004Y-66589442D01*
X146056595Y-66588373D01*
X146008976Y-66493135D01*
X146005013Y-66486840D01*
X146004255Y-66485008D01*
X146002563Y-66482946D01*
X146001144Y-66480692D01*
X145999647Y-66479393D01*
X145994927Y-66473643D01*
X145899689Y-66378405D01*
X145888324Y-66369078D01*
X145885833Y-66368046D01*
X145883798Y-66366281D01*
X145870373Y-66360287D01*
X145727516Y-66312668D01*
X145720262Y-66311018D01*
X145718431Y-66310260D01*
X145715776Y-66309998D01*
X145713179Y-66309408D01*
X145711204Y-66309548D01*
X145703799Y-66308819D01*
X145560942Y-66308819D01*
X145546310Y-66310260D01*
X145543821Y-66311290D01*
X145541132Y-66311482D01*
X145527401Y-66316737D01*
X145432163Y-66364356D01*
X145419720Y-66372188D01*
X145400547Y-66394296D01*
X145391293Y-66422057D01*
X145393367Y-66451247D01*
X145406454Y-66477422D01*
X145428562Y-66496595D01*
X145456323Y-66505849D01*
X145485513Y-66503775D01*
X145499245Y-66498520D01*
X145578647Y-66458819D01*
X145691629Y-66458819D01*
X145806142Y-66496990D01*
X145880255Y-66571103D01*
X145918748Y-66648090D01*
X145962132Y-66821624D01*
X145962132Y-66946013D01*
X145918748Y-67119547D01*
X145880254Y-67196534D01*
X145806142Y-67270647D01*
X145691629Y-67308819D01*
X145620731Y-67308819D01*
X145506218Y-67270648D01*
X145493085Y-67257514D01*
X145493085Y-67030247D01*
X145608561Y-67030247D01*
X145623193Y-67028806D01*
X145650229Y-67017607D01*
X145670921Y-66996915D01*
X145682120Y-66969879D01*
X145682120Y-66940615D01*
X145670921Y-66913579D01*
X145650229Y-66892887D01*
X145623193Y-66881688D01*
X145608561Y-66880247D01*
X145418085Y-66880247D01*
X145403453Y-66881688D01*
X145376417Y-66892887D01*
X145355725Y-66913579D01*
X145344526Y-66940615D01*
X145343085Y-66955247D01*
X145064513Y-66955247D01*
X145064513Y-66383819D01*
X145064142Y-66380055D01*
X145064330Y-66378580D01*
X145063808Y-66376669D01*
X145063072Y-66369187D01*
X145059254Y-66359971D01*
X145056630Y-66350348D01*
X145053702Y-66346567D01*
X145051873Y-66342151D01*
X145044822Y-66335100D01*
X145038713Y-66327211D01*
X145034559Y-66324837D01*
X145031181Y-66321459D01*
X145021968Y-66317642D01*
X145013304Y-66312692D01*
X145008560Y-66312089D01*
X145004145Y-66310260D01*
X144994171Y-66310260D01*
X144984274Y-66309002D01*
X144979662Y-66310260D01*
X144974881Y-66310260D01*
X144965664Y-66314077D01*
X144956043Y-66316702D01*
X144952263Y-66319628D01*
X144947845Y-66321459D01*
X144940793Y-66328510D01*
X144932905Y-66334619D01*
X144928550Y-66340753D01*
X144927153Y-66342151D01*
X144926584Y-66343523D01*
X144924395Y-66346608D01*
X144493085Y-67101402D01*
X144493085Y-66383819D01*
X144491644Y-66369187D01*
X144480445Y-66342151D01*
X144459753Y-66321459D01*
X144432717Y-66310260D01*
X144403453Y-66310260D01*
X144376417Y-66321459D01*
X144355725Y-66342151D01*
X144344526Y-66369187D01*
X144343085Y-66383819D01*
X144016894Y-66383819D01*
X144015453Y-66369187D01*
X144004254Y-66342151D01*
X143983562Y-66321459D01*
X143956526Y-66310260D01*
X143941894Y-66308819D01*
X143703799Y-66308819D01*
X143696392Y-66309548D01*
X143694418Y-66309408D01*
X143691820Y-66309998D01*
X143689167Y-66310260D01*
X143687336Y-66311018D01*
X143680081Y-66312668D01*
X143537225Y-66360287D01*
X143523799Y-66366281D01*
X143521764Y-66368045D01*
X143519274Y-66369077D01*
X143507909Y-66378405D01*
X143412671Y-66473643D01*
X143407952Y-66479392D01*
X143406454Y-66480692D01*
X143405032Y-66482951D01*
X143403344Y-66485008D01*
X143402586Y-66486835D01*
X143398622Y-66493135D01*
X143351003Y-66588373D01*
X143350593Y-66589442D01*
X143350271Y-66589878D01*
X143348075Y-66596023D01*
X143345748Y-66602105D01*
X143345709Y-66602644D01*
X143345324Y-66603724D01*
X143297705Y-66794200D01*
X143297329Y-66796736D01*
X143296907Y-66797758D01*
X143296364Y-66803270D01*
X143295555Y-66808744D01*
X143295717Y-66809836D01*
X143295466Y-66812390D01*
X143184355Y-66812390D01*
X143184355Y-66197708D01*
X146223243Y-66197708D01*
X146223243Y-67569930D01*
G37*
G36*
X132404277Y-88093130D02*
G01*
X129319800Y-88093130D01*
X129319800Y-86916399D01*
X129430911Y-86916399D01*
X129434171Y-86930736D01*
X129767504Y-87930736D01*
X129773498Y-87944161D01*
X129777008Y-87948208D01*
X129779405Y-87953002D01*
X129786513Y-87959167D01*
X129792672Y-87966268D01*
X129797461Y-87968662D01*
X129801512Y-87972176D01*
X129810437Y-87975150D01*
X129818845Y-87979355D01*
X129824189Y-87979734D01*
X129829275Y-87981430D01*
X129838655Y-87980763D01*
X129848035Y-87981430D01*
X129853120Y-87979734D01*
X129858465Y-87979355D01*
X129866875Y-87975149D01*
X129875797Y-87972176D01*
X129879844Y-87968665D01*
X129884638Y-87966269D01*
X129890801Y-87959163D01*
X129897905Y-87953002D01*
X129900300Y-87948210D01*
X129903812Y-87944162D01*
X129909806Y-87930736D01*
X130060569Y-87478447D01*
X130382703Y-87478447D01*
X130382703Y-87716542D01*
X130384144Y-87731174D01*
X130385175Y-87733663D01*
X130385366Y-87736351D01*
X130390621Y-87750083D01*
X130438240Y-87845321D01*
X130442203Y-87851617D01*
X130442961Y-87853447D01*
X130444650Y-87855505D01*
X130446072Y-87857764D01*
X130447570Y-87859063D01*
X130452288Y-87864812D01*
X130499907Y-87912432D01*
X130505656Y-87917150D01*
X130506957Y-87918650D01*
X130509216Y-87920072D01*
X130511273Y-87921760D01*
X130513100Y-87922517D01*
X130519400Y-87926482D01*
X130614638Y-87974101D01*
X130628369Y-87979356D01*
X130631058Y-87979547D01*
X130633547Y-87980578D01*
X130648179Y-87982019D01*
X130886274Y-87982019D01*
X130900906Y-87980578D01*
X130903395Y-87979546D01*
X130906083Y-87979356D01*
X130919815Y-87974101D01*
X131015053Y-87926482D01*
X131021352Y-87922517D01*
X131023180Y-87921760D01*
X131025236Y-87920072D01*
X131027496Y-87918650D01*
X131028796Y-87917150D01*
X131034546Y-87912432D01*
X131082164Y-87864813D01*
X131091492Y-87853447D01*
X131102690Y-87826411D01*
X131102690Y-87797148D01*
X131091491Y-87770112D01*
X131070798Y-87749419D01*
X131043762Y-87738221D01*
X131014499Y-87738221D01*
X130987463Y-87749420D01*
X130976097Y-87758748D01*
X130937084Y-87797761D01*
X130868569Y-87832019D01*
X130665884Y-87832019D01*
X130597368Y-87797761D01*
X130566961Y-87767353D01*
X130532703Y-87698837D01*
X130532703Y-87511434D01*
X131384144Y-87511434D01*
X131384144Y-87540698D01*
X131395343Y-87567734D01*
X131416035Y-87588426D01*
X131443071Y-87599625D01*
X131457703Y-87601066D01*
X131763655Y-87601066D01*
X131763655Y-87907019D01*
X131765096Y-87921651D01*
X131776295Y-87948687D01*
X131796987Y-87969379D01*
X131824023Y-87980578D01*
X131853287Y-87980578D01*
X131880323Y-87969379D01*
X131901015Y-87948687D01*
X131912214Y-87921651D01*
X131913655Y-87907019D01*
X131913655Y-87601066D01*
X132219607Y-87601066D01*
X132234239Y-87599625D01*
X132261275Y-87588426D01*
X132281967Y-87567734D01*
X132293166Y-87540698D01*
X132293166Y-87511434D01*
X132281967Y-87484398D01*
X132261275Y-87463706D01*
X132234239Y-87452507D01*
X132219607Y-87451066D01*
X131913655Y-87451066D01*
X131913655Y-87145114D01*
X131912214Y-87130482D01*
X131901015Y-87103446D01*
X131880323Y-87082754D01*
X131853287Y-87071555D01*
X131824023Y-87071555D01*
X131796987Y-87082754D01*
X131776295Y-87103446D01*
X131765096Y-87130482D01*
X131763655Y-87145114D01*
X131763655Y-87451066D01*
X131457703Y-87451066D01*
X131443071Y-87452507D01*
X131416035Y-87463706D01*
X131395343Y-87484398D01*
X131384144Y-87511434D01*
X130532703Y-87511434D01*
X130532703Y-87496152D01*
X130566961Y-87427636D01*
X130597368Y-87397229D01*
X130665884Y-87362971D01*
X130868569Y-87362971D01*
X130937085Y-87397229D01*
X130976098Y-87436242D01*
X130987463Y-87445569D01*
X130990951Y-87447014D01*
X130993875Y-87449406D01*
X131004372Y-87452573D01*
X131014499Y-87456768D01*
X131018275Y-87456768D01*
X131021891Y-87457859D01*
X131032801Y-87456768D01*
X131043762Y-87456768D01*
X131047250Y-87455322D01*
X131051010Y-87454947D01*
X131060673Y-87449762D01*
X131070798Y-87445569D01*
X131073468Y-87442898D01*
X131076797Y-87441113D01*
X131083742Y-87432624D01*
X131091491Y-87424876D01*
X131092935Y-87421389D01*
X131095328Y-87418465D01*
X131098496Y-87407964D01*
X131102690Y-87397840D01*
X131102690Y-87394064D01*
X131103781Y-87390449D01*
X131103759Y-87375746D01*
X131056140Y-86899556D01*
X131055071Y-86894223D01*
X131055071Y-86892387D01*
X131054357Y-86890664D01*
X131053250Y-86885140D01*
X131048067Y-86875480D01*
X131043872Y-86865351D01*
X131041200Y-86862679D01*
X131039416Y-86859353D01*
X131030933Y-86852412D01*
X131023180Y-86844659D01*
X131019691Y-86843213D01*
X131016768Y-86840822D01*
X131006270Y-86837654D01*
X130996144Y-86833460D01*
X130990538Y-86832907D01*
X130988752Y-86832369D01*
X130986923Y-86832551D01*
X130981512Y-86832019D01*
X130505322Y-86832019D01*
X130490690Y-86833460D01*
X130463654Y-86844659D01*
X130442962Y-86865351D01*
X130431763Y-86892387D01*
X130431763Y-86921651D01*
X130442962Y-86948687D01*
X130463654Y-86969379D01*
X130490690Y-86980578D01*
X130505322Y-86982019D01*
X130913638Y-86982019D01*
X130938456Y-87230209D01*
X130919815Y-87220889D01*
X130906083Y-87215634D01*
X130903395Y-87215443D01*
X130900906Y-87214412D01*
X130886274Y-87212971D01*
X130648179Y-87212971D01*
X130633547Y-87214412D01*
X130631058Y-87215442D01*
X130628369Y-87215634D01*
X130614638Y-87220889D01*
X130519400Y-87268508D01*
X130513100Y-87272472D01*
X130511273Y-87273230D01*
X130509216Y-87274918D01*
X130506957Y-87276340D01*
X130505657Y-87277838D01*
X130499908Y-87282557D01*
X130452289Y-87330176D01*
X130447570Y-87335925D01*
X130446072Y-87337225D01*
X130444650Y-87339484D01*
X130442962Y-87341541D01*
X130442204Y-87343368D01*
X130438240Y-87349668D01*
X130390621Y-87444906D01*
X130385366Y-87458638D01*
X130385175Y-87461325D01*
X130384144Y-87463815D01*
X130382703Y-87478447D01*
X130060569Y-87478447D01*
X130243139Y-86930736D01*
X130246399Y-86916400D01*
X130244324Y-86887210D01*
X130231238Y-86861036D01*
X130209130Y-86841862D01*
X130181368Y-86832608D01*
X130152178Y-86834683D01*
X130126005Y-86847770D01*
X130106831Y-86869877D01*
X130100837Y-86883302D01*
X129838655Y-87669848D01*
X129576473Y-86883302D01*
X129570479Y-86869876D01*
X129551305Y-86847769D01*
X129525132Y-86834683D01*
X129495942Y-86832608D01*
X129468179Y-86841862D01*
X129446072Y-86861036D01*
X129432986Y-86887209D01*
X129430911Y-86916399D01*
X129319800Y-86916399D01*
X129319800Y-86720908D01*
X132404277Y-86720908D01*
X132404277Y-88093130D01*
G37*
G36*
X135027788Y-78824628D02*
G01*
X134739541Y-78824628D01*
X134671025Y-78790370D01*
X134640618Y-78759963D01*
X134606360Y-78691447D01*
X134606360Y-78584000D01*
X134640618Y-78515484D01*
X134671025Y-78485077D01*
X134739541Y-78450819D01*
X135027788Y-78450819D01*
X135027788Y-78824628D01*
G37*
G36*
X138146042Y-79561930D02*
G01*
X134345249Y-79561930D01*
X134345249Y-78566295D01*
X134456360Y-78566295D01*
X134456360Y-78709152D01*
X134457801Y-78723784D01*
X134458832Y-78726273D01*
X134459023Y-78728961D01*
X134464278Y-78742693D01*
X134511897Y-78837931D01*
X134515861Y-78844230D01*
X134516619Y-78846058D01*
X134518307Y-78848114D01*
X134519729Y-78850374D01*
X134521227Y-78851673D01*
X134525946Y-78857423D01*
X134573565Y-78905042D01*
X134579314Y-78909760D01*
X134580614Y-78911259D01*
X134582873Y-78912680D01*
X134584930Y-78914369D01*
X134586757Y-78915126D01*
X134593057Y-78919091D01*
X134688295Y-78966710D01*
X134702026Y-78971965D01*
X134704715Y-78972156D01*
X134707204Y-78973187D01*
X134720721Y-78974518D01*
X134469918Y-79332809D01*
X134462707Y-79345623D01*
X134456378Y-79374194D01*
X134461463Y-79403011D01*
X134477190Y-79427690D01*
X134501164Y-79444472D01*
X134529735Y-79450801D01*
X134558552Y-79445716D01*
X134583231Y-79429989D01*
X134592802Y-79418829D01*
X134903742Y-78974628D01*
X135027788Y-78974628D01*
X135027788Y-79375819D01*
X135029229Y-79390451D01*
X135040428Y-79417487D01*
X135061120Y-79438179D01*
X135088156Y-79449378D01*
X135117420Y-79449378D01*
X135144456Y-79438179D01*
X135165148Y-79417487D01*
X135176347Y-79390451D01*
X135177788Y-79375819D01*
X135177788Y-79371737D01*
X135456471Y-79371737D01*
X135460610Y-79400706D01*
X135475519Y-79425887D01*
X135498930Y-79443445D01*
X135527278Y-79450708D01*
X135556247Y-79446569D01*
X135581428Y-79431660D01*
X135591360Y-79420819D01*
X135968045Y-78918570D01*
X136027788Y-78978313D01*
X136027788Y-79375819D01*
X136029229Y-79390451D01*
X136040428Y-79417487D01*
X136061120Y-79438179D01*
X136088156Y-79449378D01*
X136117420Y-79449378D01*
X136144456Y-79438179D01*
X136165148Y-79417487D01*
X136176347Y-79390451D01*
X136177788Y-79375819D01*
X136177788Y-79361187D01*
X136362563Y-79361187D01*
X136362563Y-79390451D01*
X136373762Y-79417487D01*
X136394454Y-79438179D01*
X136421490Y-79449378D01*
X136436122Y-79450819D01*
X136912312Y-79450819D01*
X136926944Y-79449378D01*
X136953980Y-79438179D01*
X136974672Y-79417487D01*
X136985871Y-79390451D01*
X136987312Y-79375819D01*
X136987312Y-78456426D01*
X137267325Y-78456426D01*
X137267325Y-78485688D01*
X137278524Y-78512725D01*
X137299216Y-78533417D01*
X137326253Y-78544616D01*
X137355515Y-78544616D01*
X137382552Y-78533417D01*
X137393917Y-78524090D01*
X137429017Y-78488990D01*
X137543530Y-78450819D01*
X137614428Y-78450819D01*
X137728941Y-78488990D01*
X137803054Y-78563103D01*
X137841547Y-78640090D01*
X137884931Y-78813624D01*
X137884931Y-78938013D01*
X137841547Y-79111547D01*
X137803053Y-79188534D01*
X137728941Y-79262647D01*
X137614428Y-79300819D01*
X137543530Y-79300819D01*
X137429017Y-79262648D01*
X137393918Y-79227548D01*
X137382552Y-79218220D01*
X137355516Y-79207021D01*
X137326253Y-79207021D01*
X137299217Y-79218219D01*
X137278524Y-79238912D01*
X137267325Y-79265948D01*
X137267325Y-79295211D01*
X137278523Y-79322247D01*
X137287850Y-79333612D01*
X137335469Y-79381232D01*
X137346835Y-79390560D01*
X137349323Y-79391590D01*
X137351360Y-79393357D01*
X137364786Y-79399351D01*
X137507642Y-79446970D01*
X137514897Y-79448619D01*
X137516728Y-79449378D01*
X137519381Y-79449639D01*
X137521979Y-79450230D01*
X137523953Y-79450089D01*
X137531360Y-79450819D01*
X137626598Y-79450819D01*
X137634003Y-79450089D01*
X137635978Y-79450230D01*
X137638575Y-79449639D01*
X137641230Y-79449378D01*
X137643061Y-79448619D01*
X137650315Y-79446970D01*
X137793172Y-79399351D01*
X137806597Y-79393357D01*
X137808632Y-79391591D01*
X137811123Y-79390560D01*
X137822488Y-79381233D01*
X137917727Y-79285993D01*
X137922444Y-79280244D01*
X137923943Y-79278945D01*
X137925364Y-79276686D01*
X137927054Y-79274628D01*
X137927811Y-79272798D01*
X137931775Y-79266502D01*
X137979394Y-79171264D01*
X137979803Y-79170194D01*
X137980126Y-79169759D01*
X137982318Y-79163622D01*
X137984649Y-79157533D01*
X137984687Y-79156992D01*
X137985073Y-79155913D01*
X138032692Y-78965437D01*
X138033067Y-78962900D01*
X138033490Y-78961879D01*
X138034032Y-78956366D01*
X138034842Y-78950893D01*
X138034679Y-78949800D01*
X138034931Y-78947247D01*
X138034931Y-78804390D01*
X138034679Y-78801836D01*
X138034842Y-78800744D01*
X138034032Y-78795270D01*
X138033490Y-78789758D01*
X138033067Y-78788736D01*
X138032692Y-78786200D01*
X137985073Y-78595724D01*
X137984687Y-78594644D01*
X137984649Y-78594104D01*
X137982318Y-78588014D01*
X137980126Y-78581878D01*
X137979803Y-78581442D01*
X137979394Y-78580373D01*
X137931775Y-78485135D01*
X137927812Y-78478840D01*
X137927054Y-78477008D01*
X137925362Y-78474946D01*
X137923943Y-78472692D01*
X137922446Y-78471393D01*
X137917726Y-78465643D01*
X137822488Y-78370405D01*
X137811123Y-78361078D01*
X137808632Y-78360046D01*
X137806597Y-78358281D01*
X137793172Y-78352287D01*
X137650315Y-78304668D01*
X137643061Y-78303018D01*
X137641230Y-78302260D01*
X137638575Y-78301998D01*
X137635978Y-78301408D01*
X137634003Y-78301548D01*
X137626598Y-78300819D01*
X137531360Y-78300819D01*
X137523953Y-78301548D01*
X137521979Y-78301408D01*
X137519381Y-78301998D01*
X137516728Y-78302260D01*
X137514897Y-78303018D01*
X137507642Y-78304668D01*
X137364786Y-78352287D01*
X137351360Y-78358281D01*
X137349323Y-78360047D01*
X137346835Y-78361078D01*
X137335470Y-78370405D01*
X137287851Y-78418024D01*
X137278524Y-78429389D01*
X137267325Y-78456426D01*
X136987312Y-78456426D01*
X136987312Y-78375819D01*
X136985871Y-78361187D01*
X136974672Y-78334151D01*
X136953980Y-78313459D01*
X136926944Y-78302260D01*
X136897680Y-78302260D01*
X136870644Y-78313459D01*
X136849952Y-78334151D01*
X136838753Y-78361187D01*
X136837312Y-78375819D01*
X136837312Y-79300819D01*
X136436122Y-79300819D01*
X136421490Y-79302260D01*
X136394454Y-79313459D01*
X136373762Y-79334151D01*
X136362563Y-79361187D01*
X136177788Y-79361187D01*
X136177788Y-78375819D01*
X136176347Y-78361187D01*
X136165148Y-78334151D01*
X136144456Y-78313459D01*
X136117420Y-78302260D01*
X136088156Y-78302260D01*
X136061120Y-78313459D01*
X136040428Y-78334151D01*
X136029229Y-78361187D01*
X136027788Y-78375819D01*
X136027788Y-78766181D01*
X135584393Y-78322786D01*
X135573028Y-78313459D01*
X135545991Y-78302260D01*
X135516729Y-78302260D01*
X135489692Y-78313459D01*
X135469000Y-78334151D01*
X135457801Y-78361188D01*
X135457801Y-78390450D01*
X135469000Y-78417487D01*
X135478327Y-78428852D01*
X135860902Y-78811427D01*
X135471360Y-79330819D01*
X135463734Y-79343389D01*
X135456471Y-79371737D01*
X135177788Y-79371737D01*
X135177788Y-78375819D01*
X135176347Y-78361187D01*
X135165148Y-78334151D01*
X135144456Y-78313459D01*
X135117420Y-78302260D01*
X135102788Y-78300819D01*
X134721836Y-78300819D01*
X134707204Y-78302260D01*
X134704715Y-78303290D01*
X134702026Y-78303482D01*
X134688295Y-78308737D01*
X134593057Y-78356356D01*
X134586757Y-78360320D01*
X134584930Y-78361078D01*
X134582873Y-78362766D01*
X134580614Y-78364188D01*
X134579314Y-78365686D01*
X134573565Y-78370405D01*
X134525946Y-78418024D01*
X134521227Y-78423773D01*
X134519729Y-78425073D01*
X134518307Y-78427332D01*
X134516619Y-78429389D01*
X134515861Y-78431216D01*
X134511897Y-78437516D01*
X134464278Y-78532754D01*
X134459023Y-78546486D01*
X134458832Y-78549173D01*
X134457801Y-78551663D01*
X134456360Y-78566295D01*
X134345249Y-78566295D01*
X134345249Y-78189708D01*
X138146042Y-78189708D01*
X138146042Y-79561930D01*
G37*
G36*
X142408266Y-71627077D02*
G01*
X142480208Y-71699019D01*
X142520550Y-71860386D01*
X142520550Y-72175251D01*
X142480208Y-72336617D01*
X142408265Y-72408561D01*
X142339750Y-72442819D01*
X142184684Y-72442819D01*
X142116168Y-72408561D01*
X142044225Y-72336617D01*
X142003884Y-72175251D01*
X142003884Y-71860386D01*
X142044225Y-71699019D01*
X142116168Y-71627077D01*
X142184684Y-71592819D01*
X142339750Y-71592819D01*
X142408266Y-71627077D01*
G37*
G36*
X146265409Y-71627077D02*
G01*
X146337351Y-71699019D01*
X146377693Y-71860386D01*
X146377693Y-72175251D01*
X146337351Y-72336617D01*
X146265408Y-72408561D01*
X146196893Y-72442819D01*
X146041827Y-72442819D01*
X145973311Y-72408561D01*
X145901368Y-72336617D01*
X145861027Y-72175251D01*
X145861027Y-71860386D01*
X145901368Y-71699019D01*
X145973311Y-71627077D01*
X146041827Y-71592819D01*
X146196893Y-71592819D01*
X146265409Y-71627077D01*
G37*
G36*
X144301017Y-72157104D02*
G01*
X144032941Y-72157104D01*
X144166979Y-71754989D01*
X144301017Y-72157104D01*
G37*
G36*
X145282455Y-71966628D02*
G01*
X144994208Y-71966628D01*
X144925692Y-71932370D01*
X144895285Y-71901963D01*
X144861027Y-71833447D01*
X144861027Y-71726000D01*
X144895285Y-71657484D01*
X144925692Y-71627077D01*
X144994208Y-71592819D01*
X145282455Y-71592819D01*
X145282455Y-71966628D01*
G37*
G36*
X146638804Y-72703930D02*
G01*
X139839452Y-72703930D01*
X139839452Y-71503187D01*
X139950563Y-71503187D01*
X139950563Y-71532451D01*
X139961762Y-71559487D01*
X139982454Y-71580179D01*
X140009490Y-71591378D01*
X140024122Y-71592819D01*
X140234836Y-71592819D01*
X140234836Y-72517819D01*
X140236277Y-72532451D01*
X140247476Y-72559487D01*
X140268168Y-72580179D01*
X140295204Y-72591378D01*
X140324468Y-72591378D01*
X140351504Y-72580179D01*
X140372196Y-72559487D01*
X140383395Y-72532451D01*
X140384836Y-72517819D01*
X140384836Y-71592819D01*
X140595550Y-71592819D01*
X140610182Y-71591378D01*
X140637218Y-71580179D01*
X140657910Y-71559487D01*
X140669109Y-71532451D01*
X140669109Y-71517819D01*
X140853884Y-71517819D01*
X140853884Y-72327342D01*
X140855325Y-72341974D01*
X140856356Y-72344463D01*
X140856547Y-72347151D01*
X140861802Y-72360883D01*
X140909421Y-72456121D01*
X140913384Y-72462417D01*
X140914142Y-72464247D01*
X140915831Y-72466305D01*
X140917253Y-72468564D01*
X140918751Y-72469863D01*
X140923469Y-72475612D01*
X140971088Y-72523232D01*
X140976837Y-72527950D01*
X140978138Y-72529450D01*
X140980397Y-72530872D01*
X140982454Y-72532560D01*
X140984281Y-72533317D01*
X140990581Y-72537282D01*
X141085819Y-72584901D01*
X141099550Y-72590156D01*
X141102239Y-72590347D01*
X141104728Y-72591378D01*
X141119360Y-72592819D01*
X141309836Y-72592819D01*
X141324468Y-72591378D01*
X141326957Y-72590346D01*
X141329645Y-72590156D01*
X141343377Y-72584901D01*
X141438615Y-72537282D01*
X141444914Y-72533317D01*
X141446742Y-72532560D01*
X141448798Y-72530872D01*
X141451058Y-72529450D01*
X141452358Y-72527950D01*
X141458108Y-72523232D01*
X141505726Y-72475613D01*
X141510444Y-72469863D01*
X141511943Y-72468564D01*
X141513364Y-72466305D01*
X141515054Y-72464247D01*
X141515811Y-72462417D01*
X141519775Y-72456121D01*
X141567394Y-72360883D01*
X141572649Y-72347152D01*
X141572840Y-72344462D01*
X141573871Y-72341974D01*
X141575312Y-72327342D01*
X141575312Y-71851152D01*
X141853884Y-71851152D01*
X141853884Y-72184485D01*
X141854135Y-72187038D01*
X141853973Y-72188131D01*
X141854782Y-72193604D01*
X141855325Y-72199117D01*
X141855747Y-72200138D01*
X141856123Y-72202675D01*
X141903742Y-72393151D01*
X141908689Y-72406997D01*
X141912008Y-72411476D01*
X141914142Y-72416628D01*
X141923470Y-72427994D01*
X142018708Y-72523233D01*
X142024458Y-72527953D01*
X142025757Y-72529450D01*
X142028011Y-72530869D01*
X142030073Y-72532561D01*
X142031905Y-72533319D01*
X142038200Y-72537282D01*
X142133438Y-72584901D01*
X142147169Y-72590156D01*
X142149858Y-72590347D01*
X142152347Y-72591378D01*
X142166979Y-72592819D01*
X142357455Y-72592819D01*
X142372087Y-72591378D01*
X142374576Y-72590346D01*
X142377264Y-72590156D01*
X142390996Y-72584901D01*
X142486234Y-72537282D01*
X142492533Y-72533317D01*
X142494361Y-72532560D01*
X142496417Y-72530871D01*
X142498677Y-72529450D01*
X142499976Y-72527951D01*
X142505726Y-72523233D01*
X142525772Y-72503187D01*
X142902944Y-72503187D01*
X142902944Y-72532451D01*
X142914143Y-72559487D01*
X142934835Y-72580179D01*
X142961871Y-72591378D01*
X142976503Y-72592819D01*
X143547931Y-72592819D01*
X143562563Y-72591378D01*
X143589599Y-72580179D01*
X143610291Y-72559487D01*
X143621490Y-72532451D01*
X143621490Y-72508439D01*
X143759235Y-72508439D01*
X143761310Y-72537629D01*
X143774396Y-72563802D01*
X143796503Y-72582976D01*
X143824266Y-72592230D01*
X143853456Y-72590155D01*
X143879629Y-72577069D01*
X143898803Y-72554962D01*
X143904797Y-72541536D01*
X143982941Y-72307104D01*
X144351017Y-72307104D01*
X144429161Y-72541536D01*
X144435155Y-72554961D01*
X144454329Y-72577068D01*
X144480502Y-72590155D01*
X144509692Y-72592230D01*
X144537454Y-72582976D01*
X144559562Y-72563802D01*
X144572648Y-72537628D01*
X144574723Y-72508438D01*
X144571463Y-72494102D01*
X144309528Y-71708295D01*
X144711027Y-71708295D01*
X144711027Y-71851152D01*
X144712468Y-71865784D01*
X144713499Y-71868273D01*
X144713690Y-71870961D01*
X144718945Y-71884693D01*
X144766564Y-71979931D01*
X144770528Y-71986230D01*
X144771286Y-71988058D01*
X144772974Y-71990114D01*
X144774396Y-71992374D01*
X144775894Y-71993673D01*
X144780613Y-71999423D01*
X144828232Y-72047042D01*
X144833981Y-72051760D01*
X144835281Y-72053259D01*
X144837540Y-72054680D01*
X144839597Y-72056369D01*
X144841424Y-72057126D01*
X144847724Y-72061091D01*
X144942962Y-72108710D01*
X144956693Y-72113965D01*
X144959382Y-72114156D01*
X144961871Y-72115187D01*
X144976503Y-72116628D01*
X145282455Y-72116628D01*
X145282455Y-72517819D01*
X145283896Y-72532451D01*
X145295095Y-72559487D01*
X145315787Y-72580179D01*
X145342823Y-72591378D01*
X145372087Y-72591378D01*
X145399123Y-72580179D01*
X145419815Y-72559487D01*
X145431014Y-72532451D01*
X145432455Y-72517819D01*
X145432455Y-71851152D01*
X145711027Y-71851152D01*
X145711027Y-72184485D01*
X145711278Y-72187038D01*
X145711116Y-72188131D01*
X145711925Y-72193604D01*
X145712468Y-72199117D01*
X145712890Y-72200138D01*
X145713266Y-72202675D01*
X145760885Y-72393151D01*
X145765832Y-72406997D01*
X145769151Y-72411476D01*
X145771285Y-72416628D01*
X145780613Y-72427994D01*
X145875851Y-72523233D01*
X145881601Y-72527953D01*
X145882900Y-72529450D01*
X145885154Y-72530869D01*
X145887216Y-72532561D01*
X145889048Y-72533319D01*
X145895343Y-72537282D01*
X145990581Y-72584901D01*
X146004312Y-72590156D01*
X146007001Y-72590347D01*
X146009490Y-72591378D01*
X146024122Y-72592819D01*
X146214598Y-72592819D01*
X146229230Y-72591378D01*
X146231719Y-72590346D01*
X146234407Y-72590156D01*
X146248139Y-72584901D01*
X146343377Y-72537282D01*
X146349676Y-72533317D01*
X146351504Y-72532560D01*
X146353560Y-72530871D01*
X146355820Y-72529450D01*
X146357119Y-72527951D01*
X146362869Y-72523233D01*
X146458108Y-72427993D01*
X146467435Y-72416628D01*
X146469568Y-72411476D01*
X146472888Y-72406997D01*
X146477835Y-72393151D01*
X146525454Y-72202675D01*
X146525829Y-72200138D01*
X146526252Y-72199117D01*
X146526794Y-72193604D01*
X146527604Y-72188131D01*
X146527441Y-72187038D01*
X146527693Y-72184485D01*
X146527693Y-71851152D01*
X146527441Y-71848598D01*
X146527604Y-71847506D01*
X146526794Y-71842032D01*
X146526252Y-71836520D01*
X146525829Y-71835498D01*
X146525454Y-71832962D01*
X146477835Y-71642486D01*
X146472888Y-71628640D01*
X146469569Y-71624161D01*
X146467435Y-71619008D01*
X146458107Y-71607643D01*
X146362869Y-71512405D01*
X146357119Y-71507686D01*
X146355820Y-71506188D01*
X146353560Y-71504766D01*
X146351504Y-71503078D01*
X146349676Y-71502320D01*
X146343377Y-71498356D01*
X146248139Y-71450737D01*
X146234407Y-71445482D01*
X146231719Y-71445291D01*
X146229230Y-71444260D01*
X146214598Y-71442819D01*
X146024122Y-71442819D01*
X146009490Y-71444260D01*
X146007001Y-71445290D01*
X146004312Y-71445482D01*
X145990581Y-71450737D01*
X145895343Y-71498356D01*
X145889048Y-71502318D01*
X145887216Y-71503077D01*
X145885154Y-71504768D01*
X145882900Y-71506188D01*
X145881601Y-71507684D01*
X145875851Y-71512405D01*
X145780613Y-71607643D01*
X145771286Y-71619008D01*
X145769152Y-71624158D01*
X145765832Y-71628640D01*
X145760885Y-71642486D01*
X145713266Y-71832962D01*
X145712890Y-71835498D01*
X145712468Y-71836520D01*
X145711925Y-71842032D01*
X145711116Y-71847506D01*
X145711278Y-71848598D01*
X145711027Y-71851152D01*
X145432455Y-71851152D01*
X145432455Y-71517819D01*
X145431014Y-71503187D01*
X145419815Y-71476151D01*
X145399123Y-71455459D01*
X145372087Y-71444260D01*
X145357455Y-71442819D01*
X144976503Y-71442819D01*
X144961871Y-71444260D01*
X144959382Y-71445290D01*
X144956693Y-71445482D01*
X144942962Y-71450737D01*
X144847724Y-71498356D01*
X144841424Y-71502320D01*
X144839597Y-71503078D01*
X144837540Y-71504766D01*
X144835281Y-71506188D01*
X144833981Y-71507686D01*
X144828232Y-71512405D01*
X144780613Y-71560024D01*
X144775894Y-71565773D01*
X144774396Y-71567073D01*
X144772974Y-71569332D01*
X144771286Y-71571389D01*
X144770528Y-71573216D01*
X144766564Y-71579516D01*
X144718945Y-71674754D01*
X144713690Y-71688486D01*
X144713499Y-71691173D01*
X144712468Y-71693663D01*
X144711027Y-71708295D01*
X144309528Y-71708295D01*
X144238130Y-71494102D01*
X144232136Y-71480676D01*
X144228624Y-71476627D01*
X144226229Y-71471836D01*
X144219125Y-71465674D01*
X144212962Y-71458569D01*
X144208168Y-71456172D01*
X144204121Y-71452662D01*
X144195199Y-71449688D01*
X144186789Y-71445483D01*
X144181444Y-71445103D01*
X144176359Y-71443408D01*
X144166979Y-71444074D01*
X144157599Y-71443408D01*
X144152513Y-71445103D01*
X144147169Y-71445483D01*
X144138761Y-71449687D01*
X144129836Y-71452662D01*
X144125785Y-71456175D01*
X144120996Y-71458570D01*
X144114837Y-71465670D01*
X144107729Y-71471836D01*
X144105332Y-71476629D01*
X144101822Y-71480677D01*
X144095828Y-71494102D01*
X143762495Y-72494102D01*
X143759235Y-72508439D01*
X143621490Y-72508439D01*
X143621490Y-72503187D01*
X143610291Y-72476151D01*
X143589599Y-72455459D01*
X143562563Y-72444260D01*
X143547931Y-72442819D01*
X143337217Y-72442819D01*
X143337217Y-71746504D01*
X143399660Y-71808947D01*
X143405410Y-71813667D01*
X143406709Y-71815164D01*
X143408963Y-71816583D01*
X143411025Y-71818275D01*
X143412857Y-71819033D01*
X143419152Y-71822996D01*
X143514390Y-71870615D01*
X143528121Y-71875870D01*
X143557311Y-71877944D01*
X143585073Y-71868690D01*
X143607180Y-71849517D01*
X143620268Y-71823342D01*
X143622342Y-71794152D01*
X143613088Y-71766391D01*
X143593915Y-71744283D01*
X143581472Y-71736451D01*
X143497120Y-71694275D01*
X143415739Y-71612894D01*
X143324621Y-71476216D01*
X143324586Y-71476173D01*
X143324577Y-71476151D01*
X143324525Y-71476099D01*
X143315305Y-71464841D01*
X143309135Y-71460709D01*
X143303885Y-71455459D01*
X143297095Y-71452646D01*
X143290990Y-71448558D01*
X143283709Y-71447101D01*
X143276849Y-71444260D01*
X143269501Y-71444260D01*
X143262296Y-71442819D01*
X143255012Y-71444260D01*
X143247585Y-71444260D01*
X143240796Y-71447072D01*
X143233588Y-71448498D01*
X143227409Y-71452617D01*
X143220549Y-71455459D01*
X143215353Y-71460654D01*
X143209239Y-71464731D01*
X143205107Y-71470900D01*
X143199857Y-71476151D01*
X143197044Y-71482940D01*
X143192956Y-71489046D01*
X143191499Y-71496326D01*
X143188658Y-71503187D01*
X143187232Y-71517663D01*
X143187217Y-71517740D01*
X143187222Y-71517766D01*
X143187217Y-71517819D01*
X143187217Y-72442819D01*
X142976503Y-72442819D01*
X142961871Y-72444260D01*
X142934835Y-72455459D01*
X142914143Y-72476151D01*
X142902944Y-72503187D01*
X142525772Y-72503187D01*
X142600965Y-72427993D01*
X142610292Y-72416628D01*
X142612425Y-72411476D01*
X142615745Y-72406997D01*
X142620692Y-72393151D01*
X142668311Y-72202675D01*
X142668686Y-72200138D01*
X142669109Y-72199117D01*
X142669651Y-72193604D01*
X142670461Y-72188131D01*
X142670298Y-72187038D01*
X142670550Y-72184485D01*
X142670550Y-71851152D01*
X142670298Y-71848598D01*
X142670461Y-71847506D01*
X142669651Y-71842032D01*
X142669109Y-71836520D01*
X142668686Y-71835498D01*
X142668311Y-71832962D01*
X142620692Y-71642486D01*
X142615745Y-71628640D01*
X142612426Y-71624161D01*
X142610292Y-71619008D01*
X142600964Y-71607643D01*
X142505726Y-71512405D01*
X142499976Y-71507686D01*
X142498677Y-71506188D01*
X142496417Y-71504766D01*
X142494361Y-71503078D01*
X142492533Y-71502320D01*
X142486234Y-71498356D01*
X142390996Y-71450737D01*
X142377264Y-71445482D01*
X142374576Y-71445291D01*
X142372087Y-71444260D01*
X142357455Y-71442819D01*
X142166979Y-71442819D01*
X142152347Y-71444260D01*
X142149858Y-71445290D01*
X142147169Y-71445482D01*
X142133438Y-71450737D01*
X142038200Y-71498356D01*
X142031905Y-71502318D01*
X142030073Y-71503077D01*
X142028011Y-71504768D01*
X142025757Y-71506188D01*
X142024458Y-71507684D01*
X142018708Y-71512405D01*
X141923470Y-71607643D01*
X141914143Y-71619008D01*
X141912009Y-71624158D01*
X141908689Y-71628640D01*
X141903742Y-71642486D01*
X141856123Y-71832962D01*
X141855747Y-71835498D01*
X141855325Y-71836520D01*
X141854782Y-71842032D01*
X141853973Y-71847506D01*
X141854135Y-71848598D01*
X141853884Y-71851152D01*
X141575312Y-71851152D01*
X141575312Y-71517819D01*
X141573871Y-71503187D01*
X141562672Y-71476151D01*
X141541980Y-71455459D01*
X141514944Y-71444260D01*
X141485680Y-71444260D01*
X141458644Y-71455459D01*
X141437952Y-71476151D01*
X141426753Y-71503187D01*
X141425312Y-71517819D01*
X141425312Y-72309637D01*
X141391053Y-72378153D01*
X141360646Y-72408561D01*
X141292131Y-72442819D01*
X141137065Y-72442819D01*
X141068549Y-72408561D01*
X141038142Y-72378153D01*
X141003884Y-72309637D01*
X141003884Y-71517819D01*
X141002443Y-71503187D01*
X140991244Y-71476151D01*
X140970552Y-71455459D01*
X140943516Y-71444260D01*
X140914252Y-71444260D01*
X140887216Y-71455459D01*
X140866524Y-71476151D01*
X140855325Y-71503187D01*
X140853884Y-71517819D01*
X140669109Y-71517819D01*
X140669109Y-71503187D01*
X140657910Y-71476151D01*
X140637218Y-71455459D01*
X140610182Y-71444260D01*
X140595550Y-71442819D01*
X140024122Y-71442819D01*
X140009490Y-71444260D01*
X139982454Y-71455459D01*
X139961762Y-71476151D01*
X139950563Y-71503187D01*
X139839452Y-71503187D01*
X139839452Y-71331708D01*
X146638804Y-71331708D01*
X146638804Y-72703930D01*
G37*
G36*
X142408266Y-73659077D02*
G01*
X142480208Y-73731019D01*
X142520550Y-73892386D01*
X142520550Y-74207251D01*
X142480208Y-74368617D01*
X142408265Y-74440561D01*
X142339750Y-74474819D01*
X142184684Y-74474819D01*
X142116168Y-74440561D01*
X142044225Y-74368617D01*
X142003884Y-74207251D01*
X142003884Y-73892386D01*
X142044225Y-73731019D01*
X142116168Y-73659077D01*
X142184684Y-73624819D01*
X142339750Y-73624819D01*
X142408266Y-73659077D01*
G37*
G36*
X144734042Y-74735930D02*
G01*
X139839452Y-74735930D01*
X139839452Y-73535187D01*
X139950563Y-73535187D01*
X139950563Y-73564451D01*
X139961762Y-73591487D01*
X139982454Y-73612179D01*
X140009490Y-73623378D01*
X140024122Y-73624819D01*
X140234836Y-73624819D01*
X140234836Y-74549819D01*
X140236277Y-74564451D01*
X140247476Y-74591487D01*
X140268168Y-74612179D01*
X140295204Y-74623378D01*
X140324468Y-74623378D01*
X140351504Y-74612179D01*
X140372196Y-74591487D01*
X140383395Y-74564451D01*
X140384836Y-74549819D01*
X140384836Y-73624819D01*
X140595550Y-73624819D01*
X140610182Y-73623378D01*
X140637218Y-73612179D01*
X140657910Y-73591487D01*
X140669109Y-73564451D01*
X140669109Y-73549819D01*
X140853884Y-73549819D01*
X140853884Y-74359342D01*
X140855325Y-74373974D01*
X140856356Y-74376463D01*
X140856547Y-74379151D01*
X140861802Y-74392883D01*
X140909421Y-74488121D01*
X140913384Y-74494417D01*
X140914142Y-74496247D01*
X140915831Y-74498305D01*
X140917253Y-74500564D01*
X140918751Y-74501863D01*
X140923469Y-74507612D01*
X140971088Y-74555232D01*
X140976837Y-74559950D01*
X140978138Y-74561450D01*
X140980397Y-74562872D01*
X140982454Y-74564560D01*
X140984281Y-74565317D01*
X140990581Y-74569282D01*
X141085819Y-74616901D01*
X141099550Y-74622156D01*
X141102239Y-74622347D01*
X141104728Y-74623378D01*
X141119360Y-74624819D01*
X141309836Y-74624819D01*
X141324468Y-74623378D01*
X141326957Y-74622346D01*
X141329645Y-74622156D01*
X141343377Y-74616901D01*
X141438615Y-74569282D01*
X141444914Y-74565317D01*
X141446742Y-74564560D01*
X141448798Y-74562872D01*
X141451058Y-74561450D01*
X141452358Y-74559950D01*
X141458108Y-74555232D01*
X141505726Y-74507613D01*
X141510444Y-74501863D01*
X141511943Y-74500564D01*
X141513364Y-74498305D01*
X141515054Y-74496247D01*
X141515811Y-74494417D01*
X141519775Y-74488121D01*
X141567394Y-74392883D01*
X141572649Y-74379152D01*
X141572840Y-74376462D01*
X141573871Y-74373974D01*
X141575312Y-74359342D01*
X141575312Y-73883152D01*
X141853884Y-73883152D01*
X141853884Y-74216485D01*
X141854135Y-74219038D01*
X141853973Y-74220131D01*
X141854782Y-74225604D01*
X141855325Y-74231117D01*
X141855747Y-74232138D01*
X141856123Y-74234675D01*
X141903742Y-74425151D01*
X141908689Y-74438997D01*
X141912008Y-74443476D01*
X141914142Y-74448628D01*
X141923470Y-74459994D01*
X142018708Y-74555233D01*
X142024458Y-74559953D01*
X142025757Y-74561450D01*
X142028011Y-74562869D01*
X142030073Y-74564561D01*
X142031905Y-74565319D01*
X142038200Y-74569282D01*
X142133438Y-74616901D01*
X142147169Y-74622156D01*
X142149858Y-74622347D01*
X142152347Y-74623378D01*
X142166979Y-74624819D01*
X142357455Y-74624819D01*
X142372087Y-74623378D01*
X142374576Y-74622346D01*
X142377264Y-74622156D01*
X142390996Y-74616901D01*
X142486234Y-74569282D01*
X142492533Y-74565317D01*
X142494361Y-74564560D01*
X142496417Y-74562871D01*
X142498677Y-74561450D01*
X142499976Y-74559951D01*
X142505726Y-74555233D01*
X142600965Y-74459993D01*
X142610292Y-74448628D01*
X142612425Y-74443476D01*
X142615745Y-74438997D01*
X142620692Y-74425151D01*
X142668311Y-74234675D01*
X142668686Y-74232138D01*
X142669109Y-74231117D01*
X142669651Y-74225604D01*
X142670461Y-74220131D01*
X142670298Y-74219038D01*
X142670550Y-74216485D01*
X142670550Y-73883152D01*
X142670298Y-73880598D01*
X142670461Y-73879506D01*
X142669651Y-73874032D01*
X142669109Y-73868520D01*
X142668686Y-73867498D01*
X142668311Y-73864962D01*
X142637144Y-73740295D01*
X142901503Y-73740295D01*
X142901503Y-73835533D01*
X142902232Y-73842938D01*
X142902092Y-73844913D01*
X142902682Y-73847510D01*
X142902944Y-73850165D01*
X142903702Y-73851996D01*
X142905352Y-73859250D01*
X142952971Y-74002107D01*
X142958965Y-74015532D01*
X142960730Y-74017567D01*
X142961762Y-74020058D01*
X142971089Y-74031423D01*
X143414484Y-74474819D01*
X142976503Y-74474819D01*
X142961871Y-74476260D01*
X142934835Y-74487459D01*
X142914143Y-74508151D01*
X142902944Y-74535187D01*
X142902944Y-74564451D01*
X142914143Y-74591487D01*
X142934835Y-74612179D01*
X142961871Y-74623378D01*
X142976503Y-74624819D01*
X143595550Y-74624819D01*
X143610182Y-74623378D01*
X143618100Y-74620098D01*
X143637218Y-74612180D01*
X143657910Y-74591487D01*
X143669109Y-74564451D01*
X143669109Y-74535188D01*
X143657911Y-74508151D01*
X143648583Y-74496786D01*
X143089674Y-73937876D01*
X143051503Y-73823362D01*
X143051503Y-73758000D01*
X143085761Y-73689484D01*
X143116168Y-73659077D01*
X143184684Y-73624819D01*
X143387369Y-73624819D01*
X143455885Y-73659077D01*
X143494898Y-73698090D01*
X143506263Y-73707417D01*
X143533299Y-73718616D01*
X143562562Y-73718616D01*
X143589598Y-73707417D01*
X143610291Y-73686724D01*
X143621490Y-73659688D01*
X143621490Y-73630426D01*
X143855325Y-73630426D01*
X143855325Y-73659688D01*
X143866524Y-73686725D01*
X143887216Y-73707417D01*
X143914253Y-73718616D01*
X143943515Y-73718616D01*
X143970552Y-73707417D01*
X143981917Y-73698090D01*
X144017017Y-73662990D01*
X144131530Y-73624819D01*
X144202428Y-73624819D01*
X144316941Y-73662990D01*
X144391054Y-73737103D01*
X144429547Y-73814090D01*
X144472931Y-73987624D01*
X144472931Y-74112013D01*
X144429547Y-74285547D01*
X144391053Y-74362534D01*
X144316941Y-74436647D01*
X144202428Y-74474819D01*
X144131530Y-74474819D01*
X144017017Y-74436648D01*
X143981918Y-74401548D01*
X143970552Y-74392220D01*
X143943516Y-74381021D01*
X143914253Y-74381021D01*
X143887217Y-74392219D01*
X143866524Y-74412912D01*
X143855325Y-74439948D01*
X143855325Y-74469211D01*
X143866523Y-74496247D01*
X143875850Y-74507612D01*
X143923469Y-74555232D01*
X143934835Y-74564560D01*
X143937323Y-74565590D01*
X143939360Y-74567357D01*
X143952786Y-74573351D01*
X144095642Y-74620970D01*
X144102897Y-74622619D01*
X144104728Y-74623378D01*
X144107381Y-74623639D01*
X144109979Y-74624230D01*
X144111953Y-74624089D01*
X144119360Y-74624819D01*
X144214598Y-74624819D01*
X144222003Y-74624089D01*
X144223978Y-74624230D01*
X144226575Y-74623639D01*
X144229230Y-74623378D01*
X144231061Y-74622619D01*
X144238315Y-74620970D01*
X144381172Y-74573351D01*
X144394597Y-74567357D01*
X144396632Y-74565591D01*
X144399123Y-74564560D01*
X144410488Y-74555233D01*
X144505727Y-74459993D01*
X144510444Y-74454244D01*
X144511943Y-74452945D01*
X144513364Y-74450686D01*
X144515054Y-74448628D01*
X144515811Y-74446798D01*
X144519775Y-74440502D01*
X144567394Y-74345264D01*
X144567803Y-74344194D01*
X144568126Y-74343759D01*
X144570318Y-74337622D01*
X144572649Y-74331533D01*
X144572687Y-74330992D01*
X144573073Y-74329913D01*
X144620692Y-74139437D01*
X144621067Y-74136900D01*
X144621490Y-74135879D01*
X144622032Y-74130366D01*
X144622842Y-74124893D01*
X144622679Y-74123800D01*
X144622931Y-74121247D01*
X144622931Y-73978390D01*
X144622679Y-73975836D01*
X144622842Y-73974744D01*
X144622032Y-73969270D01*
X144621490Y-73963758D01*
X144621067Y-73962736D01*
X144620692Y-73960200D01*
X144573073Y-73769724D01*
X144572687Y-73768644D01*
X144572649Y-73768104D01*
X144570318Y-73762014D01*
X144568126Y-73755878D01*
X144567803Y-73755442D01*
X144567394Y-73754373D01*
X144519775Y-73659135D01*
X144515812Y-73652840D01*
X144515054Y-73651008D01*
X144513362Y-73648946D01*
X144511943Y-73646692D01*
X144510446Y-73645393D01*
X144505726Y-73639643D01*
X144410488Y-73544405D01*
X144399123Y-73535078D01*
X144396632Y-73534046D01*
X144394597Y-73532281D01*
X144381172Y-73526287D01*
X144238315Y-73478668D01*
X144231061Y-73477018D01*
X144229230Y-73476260D01*
X144226575Y-73475998D01*
X144223978Y-73475408D01*
X144222003Y-73475548D01*
X144214598Y-73474819D01*
X144119360Y-73474819D01*
X144111953Y-73475548D01*
X144109979Y-73475408D01*
X144107381Y-73475998D01*
X144104728Y-73476260D01*
X144102897Y-73477018D01*
X144095642Y-73478668D01*
X143952786Y-73526287D01*
X143939360Y-73532281D01*
X143937323Y-73534047D01*
X143934835Y-73535078D01*
X143923470Y-73544405D01*
X143875851Y-73592024D01*
X143866524Y-73603389D01*
X143855325Y-73630426D01*
X143621490Y-73630426D01*
X143621490Y-73630425D01*
X143610291Y-73603389D01*
X143600964Y-73592024D01*
X143553345Y-73544405D01*
X143547595Y-73539686D01*
X143546296Y-73538188D01*
X143544036Y-73536766D01*
X143541980Y-73535078D01*
X143540152Y-73534320D01*
X143533853Y-73530356D01*
X143438615Y-73482737D01*
X143424883Y-73477482D01*
X143422195Y-73477291D01*
X143419706Y-73476260D01*
X143405074Y-73474819D01*
X143166979Y-73474819D01*
X143152347Y-73476260D01*
X143149858Y-73477290D01*
X143147169Y-73477482D01*
X143133438Y-73482737D01*
X143038200Y-73530356D01*
X143031900Y-73534320D01*
X143030073Y-73535078D01*
X143028016Y-73536766D01*
X143025757Y-73538188D01*
X143024457Y-73539686D01*
X143018708Y-73544405D01*
X142971089Y-73592024D01*
X142966370Y-73597773D01*
X142964872Y-73599073D01*
X142963450Y-73601332D01*
X142961762Y-73603389D01*
X142961004Y-73605216D01*
X142957040Y-73611516D01*
X142909421Y-73706754D01*
X142904166Y-73720486D01*
X142903975Y-73723173D01*
X142902944Y-73725663D01*
X142901503Y-73740295D01*
X142637144Y-73740295D01*
X142620692Y-73674486D01*
X142615745Y-73660640D01*
X142612426Y-73656161D01*
X142610292Y-73651008D01*
X142600964Y-73639643D01*
X142505726Y-73544405D01*
X142499976Y-73539686D01*
X142498677Y-73538188D01*
X142496417Y-73536766D01*
X142494361Y-73535078D01*
X142492533Y-73534320D01*
X142486234Y-73530356D01*
X142390996Y-73482737D01*
X142377264Y-73477482D01*
X142374576Y-73477291D01*
X142372087Y-73476260D01*
X142357455Y-73474819D01*
X142166979Y-73474819D01*
X142152347Y-73476260D01*
X142149858Y-73477290D01*
X142147169Y-73477482D01*
X142133438Y-73482737D01*
X142038200Y-73530356D01*
X142031905Y-73534318D01*
X142030073Y-73535077D01*
X142028011Y-73536768D01*
X142025757Y-73538188D01*
X142024458Y-73539684D01*
X142018708Y-73544405D01*
X141923470Y-73639643D01*
X141914143Y-73651008D01*
X141912009Y-73656158D01*
X141908689Y-73660640D01*
X141903742Y-73674486D01*
X141856123Y-73864962D01*
X141855747Y-73867498D01*
X141855325Y-73868520D01*
X141854782Y-73874032D01*
X141853973Y-73879506D01*
X141854135Y-73880598D01*
X141853884Y-73883152D01*
X141575312Y-73883152D01*
X141575312Y-73549819D01*
X141573871Y-73535187D01*
X141562672Y-73508151D01*
X141541980Y-73487459D01*
X141514944Y-73476260D01*
X141485680Y-73476260D01*
X141458644Y-73487459D01*
X141437952Y-73508151D01*
X141426753Y-73535187D01*
X141425312Y-73549819D01*
X141425312Y-74341637D01*
X141391053Y-74410153D01*
X141360646Y-74440561D01*
X141292131Y-74474819D01*
X141137065Y-74474819D01*
X141068549Y-74440561D01*
X141038142Y-74410153D01*
X141003884Y-74341637D01*
X141003884Y-73549819D01*
X141002443Y-73535187D01*
X140991244Y-73508151D01*
X140970552Y-73487459D01*
X140943516Y-73476260D01*
X140914252Y-73476260D01*
X140887216Y-73487459D01*
X140866524Y-73508151D01*
X140855325Y-73535187D01*
X140853884Y-73549819D01*
X140669109Y-73549819D01*
X140669109Y-73535187D01*
X140657910Y-73508151D01*
X140637218Y-73487459D01*
X140610182Y-73476260D01*
X140595550Y-73474819D01*
X140024122Y-73474819D01*
X140009490Y-73476260D01*
X139982454Y-73487459D01*
X139961762Y-73508151D01*
X139950563Y-73535187D01*
X139839452Y-73535187D01*
X139839452Y-73363708D01*
X144734042Y-73363708D01*
X144734042Y-74735930D01*
G37*
X123689819Y-101155714D02*
X124499342Y-101155714D01*
X124499342Y-101155714D02*
X124594580Y-101203333D01*
X124594580Y-101203333D02*
X124642200Y-101250952D01*
X124642200Y-101250952D02*
X124689819Y-101346190D01*
X124689819Y-101346190D02*
X124689819Y-101536666D01*
X124689819Y-101536666D02*
X124642200Y-101631904D01*
X124642200Y-101631904D02*
X124594580Y-101679523D01*
X124594580Y-101679523D02*
X124499342Y-101727142D01*
X124499342Y-101727142D02*
X123689819Y-101727142D01*
X123689819Y-102631904D02*
X123689819Y-102441428D01*
X123689819Y-102441428D02*
X123737438Y-102346190D01*
X123737438Y-102346190D02*
X123785057Y-102298571D01*
X123785057Y-102298571D02*
X123927914Y-102203333D01*
X123927914Y-102203333D02*
X124118390Y-102155714D01*
X124118390Y-102155714D02*
X124499342Y-102155714D01*
X124499342Y-102155714D02*
X124594580Y-102203333D01*
X124594580Y-102203333D02*
X124642200Y-102250952D01*
X124642200Y-102250952D02*
X124689819Y-102346190D01*
X124689819Y-102346190D02*
X124689819Y-102536666D01*
X124689819Y-102536666D02*
X124642200Y-102631904D01*
X124642200Y-102631904D02*
X124594580Y-102679523D01*
X124594580Y-102679523D02*
X124499342Y-102727142D01*
X124499342Y-102727142D02*
X124261247Y-102727142D01*
X124261247Y-102727142D02*
X124166009Y-102679523D01*
X124166009Y-102679523D02*
X124118390Y-102631904D01*
X124118390Y-102631904D02*
X124070771Y-102536666D01*
X124070771Y-102536666D02*
X124070771Y-102346190D01*
X124070771Y-102346190D02*
X124118390Y-102250952D01*
X124118390Y-102250952D02*
X124166009Y-102203333D01*
X124166009Y-102203333D02*
X124261247Y-102155714D01*
X123689819Y-103346190D02*
X123689819Y-103441428D01*
X123689819Y-103441428D02*
X123737438Y-103536666D01*
X123737438Y-103536666D02*
X123785057Y-103584285D01*
X123785057Y-103584285D02*
X123880295Y-103631904D01*
X123880295Y-103631904D02*
X124070771Y-103679523D01*
X124070771Y-103679523D02*
X124308866Y-103679523D01*
X124308866Y-103679523D02*
X124499342Y-103631904D01*
X124499342Y-103631904D02*
X124594580Y-103584285D01*
X124594580Y-103584285D02*
X124642200Y-103536666D01*
X124642200Y-103536666D02*
X124689819Y-103441428D01*
X124689819Y-103441428D02*
X124689819Y-103346190D01*
X124689819Y-103346190D02*
X124642200Y-103250952D01*
X124642200Y-103250952D02*
X124594580Y-103203333D01*
X124594580Y-103203333D02*
X124499342Y-103155714D01*
X124499342Y-103155714D02*
X124308866Y-103108095D01*
X124308866Y-103108095D02*
X124070771Y-103108095D01*
X124070771Y-103108095D02*
X123880295Y-103155714D01*
X123880295Y-103155714D02*
X123785057Y-103203333D01*
X123785057Y-103203333D02*
X123737438Y-103250952D01*
X123737438Y-103250952D02*
X123689819Y-103346190D01*
X123785057Y-104060476D02*
X123737438Y-104108095D01*
X123737438Y-104108095D02*
X123689819Y-104203333D01*
X123689819Y-104203333D02*
X123689819Y-104441428D01*
X123689819Y-104441428D02*
X123737438Y-104536666D01*
X123737438Y-104536666D02*
X123785057Y-104584285D01*
X123785057Y-104584285D02*
X123880295Y-104631904D01*
X123880295Y-104631904D02*
X123975533Y-104631904D01*
X123975533Y-104631904D02*
X124118390Y-104584285D01*
X124118390Y-104584285D02*
X124689819Y-104012857D01*
X124689819Y-104012857D02*
X124689819Y-104631904D01*
X125539285Y-73974819D02*
X125539285Y-74784342D01*
X125539285Y-74784342D02*
X125491666Y-74879580D01*
X125491666Y-74879580D02*
X125444047Y-74927200D01*
X125444047Y-74927200D02*
X125348809Y-74974819D01*
X125348809Y-74974819D02*
X125158333Y-74974819D01*
X125158333Y-74974819D02*
X125063095Y-74927200D01*
X125063095Y-74927200D02*
X125015476Y-74879580D01*
X125015476Y-74879580D02*
X124967857Y-74784342D01*
X124967857Y-74784342D02*
X124967857Y-73974819D01*
X124063095Y-74308152D02*
X124063095Y-74974819D01*
X124301190Y-73927200D02*
X124539285Y-74641485D01*
X124539285Y-74641485D02*
X123920238Y-74641485D01*
X123348809Y-73974819D02*
X123253571Y-73974819D01*
X123253571Y-73974819D02*
X123158333Y-74022438D01*
X123158333Y-74022438D02*
X123110714Y-74070057D01*
X123110714Y-74070057D02*
X123063095Y-74165295D01*
X123063095Y-74165295D02*
X123015476Y-74355771D01*
X123015476Y-74355771D02*
X123015476Y-74593866D01*
X123015476Y-74593866D02*
X123063095Y-74784342D01*
X123063095Y-74784342D02*
X123110714Y-74879580D01*
X123110714Y-74879580D02*
X123158333Y-74927200D01*
X123158333Y-74927200D02*
X123253571Y-74974819D01*
X123253571Y-74974819D02*
X123348809Y-74974819D01*
X123348809Y-74974819D02*
X123444047Y-74927200D01*
X123444047Y-74927200D02*
X123491666Y-74879580D01*
X123491666Y-74879580D02*
X123539285Y-74784342D01*
X123539285Y-74784342D02*
X123586904Y-74593866D01*
X123586904Y-74593866D02*
X123586904Y-74355771D01*
X123586904Y-74355771D02*
X123539285Y-74165295D01*
X123539285Y-74165295D02*
X123491666Y-74070057D01*
X123491666Y-74070057D02*
X123444047Y-74022438D01*
X123444047Y-74022438D02*
X123348809Y-73974819D01*
X122063095Y-74974819D02*
X122634523Y-74974819D01*
X122348809Y-74974819D02*
X122348809Y-73974819D01*
X122348809Y-73974819D02*
X122444047Y-74117676D01*
X122444047Y-74117676D02*
X122539285Y-74212914D01*
X122539285Y-74212914D02*
X122634523Y-74260533D01*
X119443285Y-67526819D02*
X119443285Y-68336342D01*
X119443285Y-68336342D02*
X119395666Y-68431580D01*
X119395666Y-68431580D02*
X119348047Y-68479200D01*
X119348047Y-68479200D02*
X119252809Y-68526819D01*
X119252809Y-68526819D02*
X119062333Y-68526819D01*
X119062333Y-68526819D02*
X118967095Y-68479200D01*
X118967095Y-68479200D02*
X118919476Y-68431580D01*
X118919476Y-68431580D02*
X118871857Y-68336342D01*
X118871857Y-68336342D02*
X118871857Y-67526819D01*
X117967095Y-67860152D02*
X117967095Y-68526819D01*
X118205190Y-67479200D02*
X118443285Y-68193485D01*
X118443285Y-68193485D02*
X117824238Y-68193485D01*
X117252809Y-67526819D02*
X117157571Y-67526819D01*
X117157571Y-67526819D02*
X117062333Y-67574438D01*
X117062333Y-67574438D02*
X117014714Y-67622057D01*
X117014714Y-67622057D02*
X116967095Y-67717295D01*
X116967095Y-67717295D02*
X116919476Y-67907771D01*
X116919476Y-67907771D02*
X116919476Y-68145866D01*
X116919476Y-68145866D02*
X116967095Y-68336342D01*
X116967095Y-68336342D02*
X117014714Y-68431580D01*
X117014714Y-68431580D02*
X117062333Y-68479200D01*
X117062333Y-68479200D02*
X117157571Y-68526819D01*
X117157571Y-68526819D02*
X117252809Y-68526819D01*
X117252809Y-68526819D02*
X117348047Y-68479200D01*
X117348047Y-68479200D02*
X117395666Y-68431580D01*
X117395666Y-68431580D02*
X117443285Y-68336342D01*
X117443285Y-68336342D02*
X117490904Y-68145866D01*
X117490904Y-68145866D02*
X117490904Y-67907771D01*
X117490904Y-67907771D02*
X117443285Y-67717295D01*
X117443285Y-67717295D02*
X117395666Y-67622057D01*
X117395666Y-67622057D02*
X117348047Y-67574438D01*
X117348047Y-67574438D02*
X117252809Y-67526819D01*
X116538523Y-67622057D02*
X116490904Y-67574438D01*
X116490904Y-67574438D02*
X116395666Y-67526819D01*
X116395666Y-67526819D02*
X116157571Y-67526819D01*
X116157571Y-67526819D02*
X116062333Y-67574438D01*
X116062333Y-67574438D02*
X116014714Y-67622057D01*
X116014714Y-67622057D02*
X115967095Y-67717295D01*
X115967095Y-67717295D02*
X115967095Y-67812533D01*
X115967095Y-67812533D02*
X116014714Y-67955390D01*
X116014714Y-67955390D02*
X116586142Y-68526819D01*
X116586142Y-68526819D02*
X115967095Y-68526819D01*
X136718485Y-71015819D02*
X136718485Y-71825342D01*
X136718485Y-71825342D02*
X136670866Y-71920580D01*
X136670866Y-71920580D02*
X136623247Y-71968200D01*
X136623247Y-71968200D02*
X136528009Y-72015819D01*
X136528009Y-72015819D02*
X136337533Y-72015819D01*
X136337533Y-72015819D02*
X136242295Y-71968200D01*
X136242295Y-71968200D02*
X136194676Y-71920580D01*
X136194676Y-71920580D02*
X136147057Y-71825342D01*
X136147057Y-71825342D02*
X136147057Y-71015819D01*
X135194676Y-71015819D02*
X135670866Y-71015819D01*
X135670866Y-71015819D02*
X135718485Y-71492009D01*
X135718485Y-71492009D02*
X135670866Y-71444390D01*
X135670866Y-71444390D02*
X135575628Y-71396771D01*
X135575628Y-71396771D02*
X135337533Y-71396771D01*
X135337533Y-71396771D02*
X135242295Y-71444390D01*
X135242295Y-71444390D02*
X135194676Y-71492009D01*
X135194676Y-71492009D02*
X135147057Y-71587247D01*
X135147057Y-71587247D02*
X135147057Y-71825342D01*
X135147057Y-71825342D02*
X135194676Y-71920580D01*
X135194676Y-71920580D02*
X135242295Y-71968200D01*
X135242295Y-71968200D02*
X135337533Y-72015819D01*
X135337533Y-72015819D02*
X135575628Y-72015819D01*
X135575628Y-72015819D02*
X135670866Y-71968200D01*
X135670866Y-71968200D02*
X135718485Y-71920580D01*
X134528009Y-71015819D02*
X134432771Y-71015819D01*
X134432771Y-71015819D02*
X134337533Y-71063438D01*
X134337533Y-71063438D02*
X134289914Y-71111057D01*
X134289914Y-71111057D02*
X134242295Y-71206295D01*
X134242295Y-71206295D02*
X134194676Y-71396771D01*
X134194676Y-71396771D02*
X134194676Y-71634866D01*
X134194676Y-71634866D02*
X134242295Y-71825342D01*
X134242295Y-71825342D02*
X134289914Y-71920580D01*
X134289914Y-71920580D02*
X134337533Y-71968200D01*
X134337533Y-71968200D02*
X134432771Y-72015819D01*
X134432771Y-72015819D02*
X134528009Y-72015819D01*
X134528009Y-72015819D02*
X134623247Y-71968200D01*
X134623247Y-71968200D02*
X134670866Y-71920580D01*
X134670866Y-71920580D02*
X134718485Y-71825342D01*
X134718485Y-71825342D02*
X134766104Y-71634866D01*
X134766104Y-71634866D02*
X134766104Y-71396771D01*
X134766104Y-71396771D02*
X134718485Y-71206295D01*
X134718485Y-71206295D02*
X134670866Y-71111057D01*
X134670866Y-71111057D02*
X134623247Y-71063438D01*
X134623247Y-71063438D02*
X134528009Y-71015819D01*
X133242295Y-72015819D02*
X133813723Y-72015819D01*
X133528009Y-72015819D02*
X133528009Y-71015819D01*
X133528009Y-71015819D02*
X133623247Y-71158676D01*
X133623247Y-71158676D02*
X133718485Y-71253914D01*
X133718485Y-71253914D02*
X133813723Y-71301533D01*
X114673619Y-88100114D02*
X115483142Y-88100114D01*
X115483142Y-88100114D02*
X115578380Y-88147733D01*
X115578380Y-88147733D02*
X115626000Y-88195352D01*
X115626000Y-88195352D02*
X115673619Y-88290590D01*
X115673619Y-88290590D02*
X115673619Y-88481066D01*
X115673619Y-88481066D02*
X115626000Y-88576304D01*
X115626000Y-88576304D02*
X115578380Y-88623923D01*
X115578380Y-88623923D02*
X115483142Y-88671542D01*
X115483142Y-88671542D02*
X114673619Y-88671542D01*
X114768857Y-89100114D02*
X114721238Y-89147733D01*
X114721238Y-89147733D02*
X114673619Y-89242971D01*
X114673619Y-89242971D02*
X114673619Y-89481066D01*
X114673619Y-89481066D02*
X114721238Y-89576304D01*
X114721238Y-89576304D02*
X114768857Y-89623923D01*
X114768857Y-89623923D02*
X114864095Y-89671542D01*
X114864095Y-89671542D02*
X114959333Y-89671542D01*
X114959333Y-89671542D02*
X115102190Y-89623923D01*
X115102190Y-89623923D02*
X115673619Y-89052495D01*
X115673619Y-89052495D02*
X115673619Y-89671542D01*
X114673619Y-90290590D02*
X114673619Y-90385828D01*
X114673619Y-90385828D02*
X114721238Y-90481066D01*
X114721238Y-90481066D02*
X114768857Y-90528685D01*
X114768857Y-90528685D02*
X114864095Y-90576304D01*
X114864095Y-90576304D02*
X115054571Y-90623923D01*
X115054571Y-90623923D02*
X115292666Y-90623923D01*
X115292666Y-90623923D02*
X115483142Y-90576304D01*
X115483142Y-90576304D02*
X115578380Y-90528685D01*
X115578380Y-90528685D02*
X115626000Y-90481066D01*
X115626000Y-90481066D02*
X115673619Y-90385828D01*
X115673619Y-90385828D02*
X115673619Y-90290590D01*
X115673619Y-90290590D02*
X115626000Y-90195352D01*
X115626000Y-90195352D02*
X115578380Y-90147733D01*
X115578380Y-90147733D02*
X115483142Y-90100114D01*
X115483142Y-90100114D02*
X115292666Y-90052495D01*
X115292666Y-90052495D02*
X115054571Y-90052495D01*
X115054571Y-90052495D02*
X114864095Y-90100114D01*
X114864095Y-90100114D02*
X114768857Y-90147733D01*
X114768857Y-90147733D02*
X114721238Y-90195352D01*
X114721238Y-90195352D02*
X114673619Y-90290590D01*
X115673619Y-91576304D02*
X115673619Y-91004876D01*
X115673619Y-91290590D02*
X114673619Y-91290590D01*
X114673619Y-91290590D02*
X114816476Y-91195352D01*
X114816476Y-91195352D02*
X114911714Y-91100114D01*
X114911714Y-91100114D02*
X114959333Y-91004876D01*
X129374685Y-93511019D02*
X129374685Y-94320542D01*
X129374685Y-94320542D02*
X129327066Y-94415780D01*
X129327066Y-94415780D02*
X129279447Y-94463400D01*
X129279447Y-94463400D02*
X129184209Y-94511019D01*
X129184209Y-94511019D02*
X128993733Y-94511019D01*
X128993733Y-94511019D02*
X128898495Y-94463400D01*
X128898495Y-94463400D02*
X128850876Y-94415780D01*
X128850876Y-94415780D02*
X128803257Y-94320542D01*
X128803257Y-94320542D02*
X128803257Y-93511019D01*
X128422304Y-93511019D02*
X127803257Y-93511019D01*
X127803257Y-93511019D02*
X128136590Y-93891971D01*
X128136590Y-93891971D02*
X127993733Y-93891971D01*
X127993733Y-93891971D02*
X127898495Y-93939590D01*
X127898495Y-93939590D02*
X127850876Y-93987209D01*
X127850876Y-93987209D02*
X127803257Y-94082447D01*
X127803257Y-94082447D02*
X127803257Y-94320542D01*
X127803257Y-94320542D02*
X127850876Y-94415780D01*
X127850876Y-94415780D02*
X127898495Y-94463400D01*
X127898495Y-94463400D02*
X127993733Y-94511019D01*
X127993733Y-94511019D02*
X128279447Y-94511019D01*
X128279447Y-94511019D02*
X128374685Y-94463400D01*
X128374685Y-94463400D02*
X128422304Y-94415780D01*
X127184209Y-93511019D02*
X127088971Y-93511019D01*
X127088971Y-93511019D02*
X126993733Y-93558638D01*
X126993733Y-93558638D02*
X126946114Y-93606257D01*
X126946114Y-93606257D02*
X126898495Y-93701495D01*
X126898495Y-93701495D02*
X126850876Y-93891971D01*
X126850876Y-93891971D02*
X126850876Y-94130066D01*
X126850876Y-94130066D02*
X126898495Y-94320542D01*
X126898495Y-94320542D02*
X126946114Y-94415780D01*
X126946114Y-94415780D02*
X126993733Y-94463400D01*
X126993733Y-94463400D02*
X127088971Y-94511019D01*
X127088971Y-94511019D02*
X127184209Y-94511019D01*
X127184209Y-94511019D02*
X127279447Y-94463400D01*
X127279447Y-94463400D02*
X127327066Y-94415780D01*
X127327066Y-94415780D02*
X127374685Y-94320542D01*
X127374685Y-94320542D02*
X127422304Y-94130066D01*
X127422304Y-94130066D02*
X127422304Y-93891971D01*
X127422304Y-93891971D02*
X127374685Y-93701495D01*
X127374685Y-93701495D02*
X127327066Y-93606257D01*
X127327066Y-93606257D02*
X127279447Y-93558638D01*
X127279447Y-93558638D02*
X127184209Y-93511019D01*
X125898495Y-94511019D02*
X126469923Y-94511019D01*
X126184209Y-94511019D02*
X126184209Y-93511019D01*
X126184209Y-93511019D02*
X126279447Y-93653876D01*
X126279447Y-93653876D02*
X126374685Y-93749114D01*
X126374685Y-93749114D02*
X126469923Y-93796733D01*
D12*
%TO.C,G\u002A\u002A\u002A*%
X145531792Y-86548509D02*
X145505808Y-86590411D01*
X145455654Y-86783286D01*
X145502208Y-86977171D01*
X145573998Y-87084098D01*
X145694776Y-87224510D01*
X145730556Y-86964360D01*
X145739930Y-86771801D01*
X145716352Y-86619980D01*
X145668211Y-86522854D01*
X145603895Y-86494378D01*
X145531792Y-86548509D01*
G36*
X145668211Y-86522854D02*
G01*
X145716352Y-86619980D01*
X145739930Y-86771801D01*
X145730556Y-86964360D01*
X145694776Y-87224510D01*
X145573998Y-87084098D01*
X145502208Y-86977171D01*
X145455654Y-86783286D01*
X145505808Y-86590411D01*
X145531792Y-86548509D01*
X145603895Y-86494378D01*
X145668211Y-86522854D01*
G37*
X146392191Y-86652187D02*
X146312420Y-86705920D01*
X146226319Y-86817666D01*
X146205166Y-86855239D01*
X146148973Y-87011563D01*
X146139869Y-87150463D01*
X146169782Y-87253621D01*
X146230642Y-87302724D01*
X146314377Y-87279455D01*
X146369019Y-87227065D01*
X146411478Y-87132729D01*
X146446690Y-86980518D01*
X146458389Y-86891802D01*
X146468858Y-86740562D01*
X146458087Y-86667086D01*
X146419796Y-86648642D01*
X146392191Y-86652187D01*
G36*
X146458087Y-86667086D02*
G01*
X146468858Y-86740562D01*
X146458389Y-86891802D01*
X146446690Y-86980518D01*
X146411478Y-87132729D01*
X146369019Y-87227065D01*
X146314377Y-87279455D01*
X146230642Y-87302724D01*
X146169782Y-87253621D01*
X146139869Y-87150463D01*
X146148973Y-87011563D01*
X146205166Y-86855239D01*
X146226319Y-86817666D01*
X146312420Y-86705920D01*
X146392191Y-86652187D01*
X146419796Y-86648642D01*
X146458087Y-86667086D01*
G37*
X146683699Y-87068386D02*
X146681322Y-87184386D01*
X146741745Y-87373282D01*
X146772652Y-87444651D01*
X146866498Y-87601490D01*
X146960138Y-87657136D01*
X147054388Y-87611987D01*
X147072555Y-87591900D01*
X147098298Y-87491277D01*
X147071339Y-87350438D01*
X147005521Y-87205942D01*
X146914686Y-87094349D01*
X146873728Y-87066748D01*
X146748095Y-87028200D01*
X146683699Y-87068386D01*
G36*
X146873728Y-87066748D02*
G01*
X146914686Y-87094349D01*
X147005521Y-87205942D01*
X147071339Y-87350438D01*
X147098298Y-87491277D01*
X147072555Y-87591900D01*
X147054388Y-87611987D01*
X146960138Y-87657136D01*
X146866498Y-87601490D01*
X146772652Y-87444651D01*
X146741745Y-87373282D01*
X146681322Y-87184386D01*
X146683699Y-87068386D01*
X146748095Y-87028200D01*
X146873728Y-87066748D01*
G37*
X144360947Y-87841339D02*
X144240214Y-87912156D01*
X144122793Y-88003880D01*
X144035508Y-88094991D01*
X144005180Y-88163968D01*
X144008583Y-88173668D01*
X144084823Y-88211103D01*
X144221195Y-88211751D01*
X144383930Y-88177629D01*
X144469222Y-88146179D01*
X144588461Y-88082590D01*
X144661876Y-88022248D01*
X144664095Y-88018942D01*
X144667705Y-87934438D01*
X144599661Y-87857114D01*
X144487788Y-87814803D01*
X144458168Y-87812951D01*
X144360947Y-87841339D01*
G36*
X144487788Y-87814803D02*
G01*
X144599661Y-87857114D01*
X144667705Y-87934438D01*
X144664095Y-88018942D01*
X144661876Y-88022248D01*
X144588461Y-88082590D01*
X144469222Y-88146179D01*
X144383930Y-88177629D01*
X144221195Y-88211751D01*
X144084823Y-88211103D01*
X144008583Y-88173668D01*
X144005180Y-88163968D01*
X144035508Y-88094991D01*
X144122793Y-88003880D01*
X144240214Y-87912156D01*
X144360947Y-87841339D01*
X144458168Y-87812951D01*
X144487788Y-87814803D01*
G37*
X156154404Y-88842879D02*
X156140489Y-88904806D01*
X156153343Y-88968651D01*
X156199177Y-89083904D01*
X156280762Y-89234960D01*
X156377213Y-89388155D01*
X156467644Y-89509824D01*
X156521192Y-89561578D01*
X156589253Y-89561735D01*
X156596735Y-89555703D01*
X156617076Y-89488652D01*
X156628392Y-89360649D01*
X156629220Y-89312588D01*
X156608547Y-89141646D01*
X156531540Y-89011731D01*
X156486741Y-88965455D01*
X156365005Y-88875621D01*
X156248810Y-88830277D01*
X156231773Y-88828951D01*
X156154404Y-88842879D01*
G36*
X156248810Y-88830277D02*
G01*
X156365005Y-88875621D01*
X156486741Y-88965455D01*
X156531540Y-89011731D01*
X156608547Y-89141646D01*
X156629220Y-89312588D01*
X156628392Y-89360649D01*
X156617076Y-89488652D01*
X156596735Y-89555703D01*
X156589253Y-89561735D01*
X156521192Y-89561578D01*
X156467644Y-89509824D01*
X156377213Y-89388155D01*
X156280762Y-89234960D01*
X156199177Y-89083904D01*
X156153343Y-88968651D01*
X156140489Y-88904806D01*
X156154404Y-88842879D01*
X156231773Y-88828951D01*
X156248810Y-88830277D01*
G37*
X155899066Y-89249012D02*
X155867220Y-89302046D01*
X155898932Y-89375775D01*
X155975386Y-89469199D01*
X156068562Y-89555562D01*
X156150439Y-89608106D01*
X156188243Y-89608595D01*
X156224040Y-89511653D01*
X156204022Y-89390214D01*
X156138623Y-89296815D01*
X156124560Y-89287938D01*
X155993579Y-89240899D01*
X155899066Y-89249012D01*
G36*
X156124560Y-89287938D02*
G01*
X156138623Y-89296815D01*
X156204022Y-89390214D01*
X156224040Y-89511653D01*
X156188243Y-89608595D01*
X156150439Y-89608106D01*
X156068562Y-89555562D01*
X155975386Y-89469199D01*
X155898932Y-89375775D01*
X155867220Y-89302046D01*
X155899066Y-89249012D01*
X155993579Y-89240899D01*
X156124560Y-89287938D01*
G37*
X145038607Y-89356646D02*
X144964081Y-89410843D01*
X144979991Y-89492205D01*
X145085263Y-89593395D01*
X145257298Y-89696263D01*
X145448698Y-89774984D01*
X145582446Y-89789323D01*
X145649917Y-89739202D01*
X145656420Y-89699968D01*
X145623468Y-89600766D01*
X145543014Y-89483796D01*
X145531846Y-89471368D01*
X145403998Y-89371824D01*
X145244423Y-89337764D01*
X145204644Y-89336951D01*
X145038607Y-89356646D01*
G36*
X145244423Y-89337764D02*
G01*
X145403998Y-89371824D01*
X145531846Y-89471368D01*
X145543014Y-89483796D01*
X145623468Y-89600766D01*
X145656420Y-89699968D01*
X145649917Y-89739202D01*
X145582446Y-89789323D01*
X145448698Y-89774984D01*
X145257298Y-89696263D01*
X145085263Y-89593395D01*
X144979991Y-89492205D01*
X144964081Y-89410843D01*
X145038607Y-89356646D01*
X145204644Y-89336951D01*
X145244423Y-89337764D01*
G37*
X144860597Y-90681568D02*
X144706915Y-90752660D01*
X144567410Y-90854833D01*
X144468845Y-90972732D01*
X144437220Y-91076331D01*
X144443612Y-91135665D01*
X144476871Y-91156549D01*
X144558128Y-91138472D01*
X144708511Y-91080924D01*
X144737812Y-91069068D01*
X144906262Y-90982021D01*
X145036094Y-90880290D01*
X145110107Y-90781519D01*
X145111095Y-90703353D01*
X145103443Y-90694053D01*
X145001694Y-90656914D01*
X144860597Y-90681568D01*
G36*
X145103443Y-90694053D02*
G01*
X145111095Y-90703353D01*
X145110107Y-90781519D01*
X145036094Y-90880290D01*
X144906262Y-90982021D01*
X144737812Y-91069068D01*
X144708511Y-91080924D01*
X144558128Y-91138472D01*
X144476871Y-91156549D01*
X144443612Y-91135665D01*
X144437220Y-91076331D01*
X144468845Y-90972732D01*
X144567410Y-90854833D01*
X144706915Y-90752660D01*
X144860597Y-90681568D01*
X145001694Y-90656914D01*
X145103443Y-90694053D01*
G37*
X145614250Y-90950158D02*
X145539463Y-91072084D01*
X145485165Y-91228549D01*
X145478738Y-91259190D01*
X145460620Y-91397856D01*
X145482876Y-91447532D01*
X145555829Y-91416280D01*
X145619365Y-91369043D01*
X145721224Y-91251079D01*
X145783379Y-91106883D01*
X145795242Y-90972108D01*
X145760417Y-90894030D01*
X145693308Y-90883798D01*
X145614250Y-90950158D01*
G36*
X145760417Y-90894030D02*
G01*
X145795242Y-90972108D01*
X145783379Y-91106883D01*
X145721224Y-91251079D01*
X145619365Y-91369043D01*
X145555829Y-91416280D01*
X145482876Y-91447532D01*
X145460620Y-91397856D01*
X145478738Y-91259190D01*
X145485165Y-91228549D01*
X145539463Y-91072084D01*
X145614250Y-90950158D01*
X145693308Y-90883798D01*
X145760417Y-90894030D01*
G37*
X150363390Y-80797586D02*
X150361790Y-80912490D01*
X150366367Y-80993050D01*
X150372848Y-81137240D01*
X150377121Y-81358138D01*
X150379183Y-81630876D01*
X150379030Y-81930587D01*
X150376659Y-82232402D01*
X150372068Y-82511453D01*
X150366583Y-82707551D01*
X150370073Y-82877706D01*
X150387007Y-83087082D01*
X150401142Y-83201358D01*
X150421811Y-83366549D01*
X150418904Y-83460468D01*
X150385887Y-83512000D01*
X150322987Y-83546950D01*
X150163498Y-83670834D01*
X150019979Y-83890090D01*
X149891035Y-84207050D01*
X149851541Y-84333151D01*
X149700819Y-84971543D01*
X149633732Y-85576628D01*
X149644668Y-86070075D01*
X149665666Y-86321067D01*
X149683637Y-86577823D01*
X149695219Y-86791451D01*
X149696393Y-86822351D01*
X149735928Y-87295169D01*
X149818895Y-87679557D01*
X149851687Y-87775879D01*
X149899027Y-87931478D01*
X149922921Y-88067871D01*
X149923620Y-88086274D01*
X149944434Y-88182638D01*
X150000313Y-88343342D01*
X150081416Y-88541591D01*
X150133128Y-88656746D01*
X150232276Y-88878337D01*
X150329800Y-89109817D01*
X150417015Y-89328943D01*
X150485238Y-89513470D01*
X150525786Y-89641154D01*
X150533220Y-89681648D01*
X150487268Y-89694906D01*
X150360864Y-89683300D01*
X150171192Y-89650084D01*
X149935432Y-89598508D01*
X149670766Y-89531825D01*
X149517273Y-89489365D01*
X149153955Y-89370611D01*
X148872773Y-89243676D01*
X148715969Y-89146613D01*
X148544242Y-89027889D01*
X148378935Y-88918315D01*
X148283493Y-88858449D01*
X148155316Y-88773327D01*
X147989907Y-88652311D01*
X147857253Y-88548826D01*
X147703713Y-88442240D01*
X147474118Y-88305125D01*
X147186143Y-88146168D01*
X146857461Y-87974056D01*
X146505744Y-87797475D01*
X146148666Y-87625111D01*
X145803901Y-87465651D01*
X145489120Y-87327782D01*
X145221998Y-87220190D01*
X145020208Y-87151561D01*
X145007001Y-87147902D01*
X144788456Y-87095516D01*
X144628923Y-87071103D01*
X144545670Y-87077158D01*
X144541054Y-87080610D01*
X144502522Y-87158385D01*
X144466495Y-87288987D01*
X144461842Y-87312736D01*
X144447366Y-87426317D01*
X144469945Y-87499928D01*
X144549014Y-87566161D01*
X144648389Y-87625593D01*
X144838183Y-87721881D01*
X145051698Y-87811925D01*
X145122996Y-87837408D01*
X145301447Y-87903260D01*
X145522560Y-87993747D01*
X145732596Y-88086622D01*
X145923065Y-88174309D01*
X146092945Y-88251630D01*
X146208150Y-88303080D01*
X146215220Y-88306149D01*
X146293678Y-88350843D01*
X146278626Y-88380833D01*
X146266020Y-88385445D01*
X146121421Y-88420793D01*
X145906796Y-88460151D01*
X145653353Y-88498927D01*
X145392304Y-88532531D01*
X145154855Y-88556372D01*
X145059520Y-88562939D01*
X144844554Y-88582057D01*
X144724173Y-88611648D01*
X144691220Y-88647818D01*
X144738827Y-88687513D01*
X144869214Y-88720814D01*
X145063731Y-88747202D01*
X145303728Y-88766162D01*
X145570555Y-88777175D01*
X145845563Y-88779725D01*
X146110102Y-88773293D01*
X146345522Y-88757364D01*
X146533173Y-88731420D01*
X146639424Y-88701850D01*
X146768187Y-88656462D01*
X146860479Y-88660129D01*
X146970344Y-88715755D01*
X146977385Y-88720024D01*
X147095028Y-88804083D01*
X147250026Y-88931041D01*
X147397877Y-89063358D01*
X147559084Y-89209193D01*
X147717675Y-89343767D01*
X147828887Y-89430190D01*
X147959519Y-89546899D01*
X148060955Y-89677306D01*
X148069787Y-89693259D01*
X148099794Y-89753440D01*
X148111846Y-89799649D01*
X148094607Y-89834635D01*
X148036743Y-89861145D01*
X147926918Y-89881928D01*
X147753798Y-89899731D01*
X147506047Y-89917304D01*
X147172330Y-89937393D01*
X147028020Y-89945826D01*
X146697990Y-89967083D01*
X146374052Y-89991453D01*
X146081467Y-90016784D01*
X145845491Y-90040925D01*
X145717448Y-90057473D01*
X145346675Y-90114169D01*
X145361848Y-90347860D01*
X145377020Y-90581551D01*
X145870930Y-90565121D01*
X146195536Y-90567237D01*
X146552324Y-90589882D01*
X146861530Y-90626790D01*
X147213696Y-90667053D01*
X147656333Y-90692028D01*
X148179388Y-90701195D01*
X148298020Y-90701065D01*
X148639608Y-90699656D01*
X148985900Y-90698193D01*
X149308196Y-90696801D01*
X149577794Y-90695602D01*
X149720420Y-90694942D01*
X150002091Y-90698321D01*
X150311110Y-90709352D01*
X150588999Y-90725819D01*
X150636668Y-90729652D01*
X151070316Y-90766663D01*
X151341927Y-91498996D01*
X151467962Y-91829510D01*
X151568186Y-92069362D01*
X151646386Y-92225082D01*
X151706349Y-92303200D01*
X151751860Y-92310246D01*
X151783714Y-92260911D01*
X151814210Y-92219232D01*
X151858689Y-92252745D01*
X151910568Y-92331390D01*
X152004496Y-92454145D01*
X152077328Y-92481072D01*
X152122294Y-92423051D01*
X152164463Y-92410388D01*
X152245184Y-92484590D01*
X152257214Y-92499251D01*
X152397520Y-92613403D01*
X152553356Y-92627411D01*
X152722657Y-92541197D01*
X152750798Y-92518146D01*
X152860356Y-92440686D01*
X152941587Y-92433978D01*
X152979096Y-92452208D01*
X153100347Y-92473352D01*
X153236282Y-92411296D01*
X153365341Y-92277755D01*
X153401029Y-92222919D01*
X153472628Y-92125838D01*
X153521746Y-92120303D01*
X153531503Y-92132703D01*
X153602227Y-92174596D01*
X153693849Y-92134261D01*
X153786015Y-92022318D01*
X153803492Y-91990789D01*
X153850268Y-91878387D01*
X153912996Y-91698246D01*
X153981386Y-91480781D01*
X154014965Y-91365875D01*
X154077611Y-91155884D01*
X154134944Y-90982188D01*
X154178810Y-90868616D01*
X154195138Y-90839390D01*
X154256225Y-90825803D01*
X154404447Y-90812674D01*
X154625335Y-90800683D01*
X154904425Y-90790512D01*
X155227249Y-90782839D01*
X155472221Y-90779313D01*
X155879216Y-90772585D01*
X156315395Y-90761170D01*
X156763626Y-90745882D01*
X157206776Y-90727534D01*
X157627712Y-90706940D01*
X158009304Y-90684913D01*
X158334418Y-90662267D01*
X158585922Y-90639815D01*
X158699320Y-90626071D01*
X158864420Y-90602347D01*
X158864420Y-89579414D01*
X158648520Y-89609814D01*
X158523723Y-89622106D01*
X158309178Y-89637199D01*
X158016679Y-89654516D01*
X157658022Y-89673480D01*
X157245003Y-89693515D01*
X156789417Y-89714042D01*
X156303059Y-89734486D01*
X155797725Y-89754270D01*
X155392231Y-89769074D01*
X155112132Y-89776732D01*
X154872902Y-89779002D01*
X154690559Y-89776084D01*
X154581122Y-89768180D01*
X154556710Y-89758618D01*
X154588724Y-89690362D01*
X154644708Y-89567461D01*
X154668458Y-89514751D01*
X154743065Y-89367280D01*
X154816804Y-89249506D01*
X154834465Y-89227389D01*
X154887969Y-89133253D01*
X154947430Y-88978924D01*
X154985215Y-88852098D01*
X155038566Y-88673324D01*
X155095428Y-88521308D01*
X155129058Y-88453659D01*
X155172698Y-88354117D01*
X155230853Y-88179633D01*
X155296653Y-87954589D01*
X155363229Y-87703368D01*
X155423711Y-87450351D01*
X155459865Y-87279551D01*
X155477611Y-87159117D01*
X155500309Y-86960148D01*
X155525631Y-86705445D01*
X155551250Y-86417812D01*
X155564803Y-86251560D01*
X155590783Y-85879252D01*
X155600999Y-85581912D01*
X155592637Y-85333738D01*
X155562883Y-85108926D01*
X155508923Y-84881673D01*
X155427943Y-84626176D01*
X155369434Y-84460288D01*
X155257958Y-84196279D01*
X155126985Y-83989212D01*
X154989891Y-83834539D01*
X154862397Y-83702665D01*
X154794313Y-83613172D01*
X154773451Y-83536360D01*
X154787619Y-83442529D01*
X154803741Y-83381020D01*
X154835597Y-83205012D01*
X154852696Y-82990396D01*
X154854855Y-82770827D01*
X154841893Y-82579960D01*
X154813631Y-82451451D01*
X154808799Y-82441033D01*
X154760020Y-82298719D01*
X154746257Y-82217779D01*
X154131305Y-82217779D01*
X154118735Y-82327099D01*
X154091329Y-82469764D01*
X154055000Y-82613426D01*
X154027564Y-82696903D01*
X153919255Y-82850804D01*
X153748851Y-82947898D01*
X153542095Y-82982436D01*
X153324731Y-82948670D01*
X153185815Y-82884870D01*
X153035428Y-82767499D01*
X152985063Y-82664881D01*
X152045734Y-82664881D01*
X151983441Y-82759712D01*
X151908728Y-82838458D01*
X151724566Y-82959601D01*
X151511984Y-82983236D01*
X151271165Y-82909348D01*
X151248225Y-82897972D01*
X151091327Y-82798031D01*
X151013367Y-82683127D01*
X150999227Y-82522196D01*
X151011765Y-82412087D01*
X151035587Y-82270751D01*
X151062274Y-82212197D01*
X151109518Y-82218693D01*
X151168386Y-82255130D01*
X151269737Y-82371351D01*
X151305092Y-82521040D01*
X151326438Y-82647647D01*
X151378495Y-82705255D01*
X151461093Y-82723699D01*
X151607685Y-82700379D01*
X151712632Y-82615154D01*
X151803831Y-82532562D01*
X151885739Y-82523328D01*
X151940460Y-82543659D01*
X152030685Y-82599566D01*
X152045734Y-82664881D01*
X152985063Y-82664881D01*
X152982555Y-82659772D01*
X153028447Y-82564776D01*
X153049276Y-82547804D01*
X153157659Y-82486938D01*
X153228972Y-82509630D01*
X153285664Y-82605951D01*
X153377094Y-82711840D01*
X153460396Y-82732951D01*
X153582766Y-82695462D01*
X153693273Y-82604367D01*
X153761142Y-82491717D01*
X153766139Y-82414528D01*
X153779996Y-82337817D01*
X153876206Y-82269708D01*
X153922073Y-82249174D01*
X154042743Y-82200877D01*
X154116428Y-82175350D01*
X154123126Y-82174151D01*
X154131305Y-82217779D01*
X154746257Y-82217779D01*
X154729112Y-82116956D01*
X154719891Y-81936962D01*
X154736172Y-81799956D01*
X154746926Y-81772784D01*
X154775317Y-81640858D01*
X154751800Y-81437854D01*
X154749764Y-81427950D01*
X154724362Y-81222184D01*
X154750122Y-81044035D01*
X154770488Y-80980351D01*
X154810436Y-80851288D01*
X154825428Y-80769221D01*
X154822902Y-80757613D01*
X154765930Y-80759863D01*
X154664752Y-80795982D01*
X154561898Y-80846926D01*
X154499897Y-80893654D01*
X154495620Y-80904151D01*
X154446176Y-80952171D01*
X154301759Y-81010400D01*
X154068240Y-81076694D01*
X153936820Y-81108316D01*
X153720883Y-81169787D01*
X153487483Y-81253344D01*
X153383444Y-81297237D01*
X153242353Y-81356805D01*
X153121519Y-81390630D01*
X152987818Y-81402677D01*
X152808126Y-81396914D01*
X152648232Y-81385279D01*
X152286444Y-81338208D01*
X151934290Y-81249479D01*
X151703009Y-81170477D01*
X151493466Y-81095952D01*
X151254065Y-81014986D01*
X151006576Y-80934434D01*
X150772773Y-80861150D01*
X150574428Y-80801988D01*
X150433313Y-80763804D01*
X150376913Y-80752989D01*
X150363390Y-80797586D01*
G36*
X154760020Y-82298719D02*
G01*
X154808799Y-82441033D01*
X154813631Y-82451451D01*
X154841893Y-82579960D01*
X154854855Y-82770827D01*
X154852696Y-82990396D01*
X154835597Y-83205012D01*
X154803741Y-83381020D01*
X154787619Y-83442529D01*
X154773451Y-83536360D01*
X154794313Y-83613172D01*
X154862397Y-83702665D01*
X154989891Y-83834539D01*
X155126985Y-83989212D01*
X155257958Y-84196279D01*
X155369434Y-84460288D01*
X155427943Y-84626176D01*
X155508923Y-84881673D01*
X155562883Y-85108926D01*
X155592637Y-85333738D01*
X155600999Y-85581912D01*
X155590783Y-85879252D01*
X155564803Y-86251560D01*
X155551250Y-86417812D01*
X155525631Y-86705445D01*
X155500309Y-86960148D01*
X155477611Y-87159117D01*
X155459865Y-87279551D01*
X155423711Y-87450351D01*
X155363229Y-87703368D01*
X155296653Y-87954589D01*
X155230853Y-88179633D01*
X155172698Y-88354117D01*
X155129058Y-88453659D01*
X155095428Y-88521308D01*
X155038566Y-88673324D01*
X154985215Y-88852098D01*
X154947430Y-88978924D01*
X154887969Y-89133253D01*
X154834465Y-89227389D01*
X154816804Y-89249506D01*
X154743065Y-89367280D01*
X154668458Y-89514751D01*
X154644708Y-89567461D01*
X154588724Y-89690362D01*
X154556710Y-89758618D01*
X154581122Y-89768180D01*
X154690559Y-89776084D01*
X154872902Y-89779002D01*
X155112132Y-89776732D01*
X155392231Y-89769074D01*
X155797725Y-89754270D01*
X156303059Y-89734486D01*
X156789417Y-89714042D01*
X157245003Y-89693515D01*
X157658022Y-89673480D01*
X158016679Y-89654516D01*
X158309178Y-89637199D01*
X158523723Y-89622106D01*
X158648520Y-89609814D01*
X158864420Y-89579414D01*
X158864420Y-90602347D01*
X158699320Y-90626071D01*
X158585922Y-90639815D01*
X158334418Y-90662267D01*
X158009304Y-90684913D01*
X157627712Y-90706940D01*
X157206776Y-90727534D01*
X156763626Y-90745882D01*
X156315395Y-90761170D01*
X155879216Y-90772585D01*
X155472221Y-90779313D01*
X155227249Y-90782839D01*
X154904425Y-90790512D01*
X154625335Y-90800683D01*
X154404447Y-90812674D01*
X154256225Y-90825803D01*
X154195138Y-90839390D01*
X154178810Y-90868616D01*
X154134944Y-90982188D01*
X154077611Y-91155884D01*
X154014965Y-91365875D01*
X153981386Y-91480781D01*
X153912996Y-91698246D01*
X153850268Y-91878387D01*
X153803492Y-91990789D01*
X153786015Y-92022318D01*
X153693849Y-92134261D01*
X153602227Y-92174596D01*
X153531503Y-92132703D01*
X153521746Y-92120303D01*
X153472628Y-92125838D01*
X153401029Y-92222919D01*
X153365341Y-92277755D01*
X153236282Y-92411296D01*
X153100347Y-92473352D01*
X152979096Y-92452208D01*
X152941587Y-92433978D01*
X152860356Y-92440686D01*
X152750798Y-92518146D01*
X152722657Y-92541197D01*
X152553356Y-92627411D01*
X152397520Y-92613403D01*
X152257214Y-92499251D01*
X152245184Y-92484590D01*
X152164463Y-92410388D01*
X152122294Y-92423051D01*
X152077328Y-92481072D01*
X152004496Y-92454145D01*
X151910568Y-92331390D01*
X151858689Y-92252745D01*
X151814210Y-92219232D01*
X151783714Y-92260911D01*
X151751860Y-92310246D01*
X151706349Y-92303200D01*
X151646386Y-92225082D01*
X151568186Y-92069362D01*
X151467962Y-91829510D01*
X151341927Y-91498996D01*
X151070316Y-90766663D01*
X150636668Y-90729652D01*
X150588999Y-90725819D01*
X150311110Y-90709352D01*
X150002091Y-90698321D01*
X149720420Y-90694942D01*
X149577794Y-90695602D01*
X149308196Y-90696801D01*
X148985900Y-90698193D01*
X148639608Y-90699656D01*
X148298020Y-90701065D01*
X148179388Y-90701195D01*
X147656333Y-90692028D01*
X147213696Y-90667053D01*
X146861530Y-90626790D01*
X146552324Y-90589882D01*
X146195536Y-90567237D01*
X145870930Y-90565121D01*
X145377020Y-90581551D01*
X145361848Y-90347860D01*
X145346675Y-90114169D01*
X145717448Y-90057473D01*
X145845491Y-90040925D01*
X146081467Y-90016784D01*
X146374052Y-89991453D01*
X146697990Y-89967083D01*
X147028020Y-89945826D01*
X147172330Y-89937393D01*
X147506047Y-89917304D01*
X147753798Y-89899731D01*
X147926918Y-89881928D01*
X148036743Y-89861145D01*
X148094607Y-89834635D01*
X148111846Y-89799649D01*
X148099794Y-89753440D01*
X148069787Y-89693259D01*
X148060955Y-89677306D01*
X147959519Y-89546899D01*
X147828887Y-89430190D01*
X147717675Y-89343767D01*
X147559084Y-89209193D01*
X147397877Y-89063358D01*
X147250026Y-88931041D01*
X147095028Y-88804083D01*
X146977385Y-88720024D01*
X146970344Y-88715755D01*
X146860479Y-88660129D01*
X146768187Y-88656462D01*
X146639424Y-88701850D01*
X146533173Y-88731420D01*
X146345522Y-88757364D01*
X146110102Y-88773293D01*
X145845563Y-88779725D01*
X145570555Y-88777175D01*
X145303728Y-88766162D01*
X145063731Y-88747202D01*
X144869214Y-88720814D01*
X144738827Y-88687513D01*
X144691220Y-88647818D01*
X144724173Y-88611648D01*
X144844554Y-88582057D01*
X145059520Y-88562939D01*
X145154855Y-88556372D01*
X145392304Y-88532531D01*
X145653353Y-88498927D01*
X145906796Y-88460151D01*
X146121421Y-88420793D01*
X146266020Y-88385445D01*
X146278626Y-88380833D01*
X146293678Y-88350843D01*
X146215220Y-88306149D01*
X146208150Y-88303080D01*
X146092945Y-88251630D01*
X145923065Y-88174309D01*
X145732596Y-88086622D01*
X145522560Y-87993747D01*
X145301447Y-87903260D01*
X145122996Y-87837408D01*
X145051698Y-87811925D01*
X144838183Y-87721881D01*
X144648389Y-87625593D01*
X144549014Y-87566161D01*
X144469945Y-87499928D01*
X144447366Y-87426317D01*
X144461842Y-87312736D01*
X144466495Y-87288987D01*
X144502522Y-87158385D01*
X144541054Y-87080610D01*
X144545670Y-87077158D01*
X144628923Y-87071103D01*
X144788456Y-87095516D01*
X145007001Y-87147902D01*
X145020208Y-87151561D01*
X145221998Y-87220190D01*
X145489120Y-87327782D01*
X145803901Y-87465651D01*
X146148666Y-87625111D01*
X146505744Y-87797475D01*
X146857461Y-87974056D01*
X147186143Y-88146168D01*
X147474118Y-88305125D01*
X147703713Y-88442240D01*
X147857253Y-88548826D01*
X147989907Y-88652311D01*
X148155316Y-88773327D01*
X148283493Y-88858449D01*
X148378935Y-88918315D01*
X148544242Y-89027889D01*
X148715969Y-89146613D01*
X148872773Y-89243676D01*
X149153955Y-89370611D01*
X149517273Y-89489365D01*
X149670766Y-89531825D01*
X149935432Y-89598508D01*
X150171192Y-89650084D01*
X150360864Y-89683300D01*
X150487268Y-89694906D01*
X150533220Y-89681648D01*
X150525786Y-89641154D01*
X150485238Y-89513470D01*
X150417015Y-89328943D01*
X150329800Y-89109817D01*
X150232276Y-88878337D01*
X150133128Y-88656746D01*
X150081416Y-88541591D01*
X150000313Y-88343342D01*
X149944434Y-88182638D01*
X149923620Y-88086274D01*
X149922921Y-88067871D01*
X149899027Y-87931478D01*
X149851687Y-87775879D01*
X149818895Y-87679557D01*
X149735928Y-87295169D01*
X149696393Y-86822351D01*
X149695219Y-86791451D01*
X149683637Y-86577823D01*
X149665666Y-86321067D01*
X149644668Y-86070075D01*
X149633732Y-85576628D01*
X149700819Y-84971543D01*
X149851541Y-84333151D01*
X149891035Y-84207050D01*
X150019979Y-83890090D01*
X150163498Y-83670834D01*
X150322987Y-83546950D01*
X150385887Y-83512000D01*
X150418904Y-83460468D01*
X150421811Y-83366549D01*
X150401142Y-83201358D01*
X150387007Y-83087082D01*
X150370073Y-82877706D01*
X150366583Y-82707551D01*
X150371768Y-82522196D01*
X150999227Y-82522196D01*
X151013367Y-82683127D01*
X151091327Y-82798031D01*
X151248225Y-82897972D01*
X151271165Y-82909348D01*
X151511984Y-82983236D01*
X151724566Y-82959601D01*
X151908728Y-82838458D01*
X151983441Y-82759712D01*
X152045734Y-82664881D01*
X152044557Y-82659772D01*
X152982555Y-82659772D01*
X152985063Y-82664881D01*
X153035428Y-82767499D01*
X153185815Y-82884870D01*
X153324731Y-82948670D01*
X153542095Y-82982436D01*
X153748851Y-82947898D01*
X153919255Y-82850804D01*
X154027564Y-82696903D01*
X154055000Y-82613426D01*
X154091329Y-82469764D01*
X154118735Y-82327099D01*
X154131305Y-82217779D01*
X154123126Y-82174151D01*
X154116428Y-82175350D01*
X154042743Y-82200877D01*
X153922073Y-82249174D01*
X153876206Y-82269708D01*
X153779996Y-82337817D01*
X153766139Y-82414528D01*
X153761142Y-82491717D01*
X153693273Y-82604367D01*
X153582766Y-82695462D01*
X153460396Y-82732951D01*
X153377094Y-82711840D01*
X153285664Y-82605951D01*
X153228972Y-82509630D01*
X153157659Y-82486938D01*
X153049276Y-82547804D01*
X153028447Y-82564776D01*
X152982555Y-82659772D01*
X152044557Y-82659772D01*
X152030685Y-82599566D01*
X151940460Y-82543659D01*
X151885739Y-82523328D01*
X151803831Y-82532562D01*
X151712632Y-82615154D01*
X151607685Y-82700379D01*
X151461093Y-82723699D01*
X151378495Y-82705255D01*
X151326438Y-82647647D01*
X151305092Y-82521040D01*
X151269737Y-82371351D01*
X151168386Y-82255130D01*
X151109518Y-82218693D01*
X151062274Y-82212197D01*
X151035587Y-82270751D01*
X151011765Y-82412087D01*
X150999227Y-82522196D01*
X150371768Y-82522196D01*
X150372068Y-82511453D01*
X150376659Y-82232402D01*
X150379030Y-81930587D01*
X150379183Y-81630876D01*
X150377121Y-81358138D01*
X150372848Y-81137240D01*
X150366367Y-80993050D01*
X150361790Y-80912490D01*
X150363390Y-80797586D01*
X150376913Y-80752989D01*
X150433313Y-80763804D01*
X150574428Y-80801988D01*
X150772773Y-80861150D01*
X151006576Y-80934434D01*
X151254065Y-81014986D01*
X151493466Y-81095952D01*
X151703009Y-81170477D01*
X151934290Y-81249479D01*
X152286444Y-81338208D01*
X152648232Y-81385279D01*
X152808126Y-81396914D01*
X152987818Y-81402677D01*
X153121519Y-81390630D01*
X153242353Y-81356805D01*
X153383444Y-81297237D01*
X153487483Y-81253344D01*
X153720883Y-81169787D01*
X153936820Y-81108316D01*
X154068240Y-81076694D01*
X154301759Y-81010400D01*
X154446176Y-80952171D01*
X154495620Y-80904151D01*
X154499897Y-80893654D01*
X154561898Y-80846926D01*
X154664752Y-80795982D01*
X154765930Y-80759863D01*
X154822902Y-80757613D01*
X154825428Y-80769221D01*
X154810436Y-80851288D01*
X154770488Y-80980351D01*
X154750122Y-81044035D01*
X154724362Y-81222184D01*
X154749764Y-81427950D01*
X154751800Y-81437854D01*
X154775317Y-81640858D01*
X154746926Y-81772784D01*
X154736172Y-81799956D01*
X154719891Y-81936962D01*
X154729112Y-82116956D01*
X154746257Y-82217779D01*
X154760020Y-82298719D01*
G37*
%TO.C,TP201*%
D13*
X117576600Y-61823600D02*
X117576600Y-63093600D01*
X117576600Y-63093600D02*
X118846600Y-63093600D01*
X120006600Y-61393600D02*
X120236600Y-61393600D01*
X120006600Y-62253600D02*
X120236600Y-62253600D01*
X120236600Y-60443600D02*
X122996600Y-60443600D01*
X122996600Y-63203600D01*
X120236600Y-63203600D01*
X120236600Y-60443600D01*
X122996600Y-61393600D02*
X128996600Y-61393600D01*
X128996600Y-62253600D01*
X122996600Y-62253600D01*
X122996600Y-61393600D01*
G36*
X122996600Y-61393600D02*
G01*
X128996600Y-61393600D01*
X128996600Y-62253600D01*
X122996600Y-62253600D01*
X122996600Y-61393600D01*
G37*
%TO.C,R407*%
X118977000Y-70100000D02*
X118977000Y-69600000D01*
X120037000Y-69600000D02*
X120037000Y-70100000D01*
%TO.C,TP301*%
X128741400Y-87452200D02*
G75*
G02*
X127341400Y-87452200I-700000J0D01*
G01*
X127341400Y-87452200D02*
G75*
G02*
X128741400Y-87452200I700000J0D01*
G01*
%TO.C,U602*%
X125075000Y-100810000D02*
X125075000Y-104930000D01*
X125075000Y-104930000D02*
X125170000Y-104930000D01*
X125170000Y-100810000D02*
X125075000Y-100810000D01*
X130100000Y-104930000D02*
X130195000Y-104930000D01*
X130195000Y-100810000D02*
X130100000Y-100810000D01*
X130195000Y-104930000D02*
X130195000Y-100810000D01*
X125165000Y-100270000D02*
X124835000Y-100030000D01*
X124835000Y-100510000D01*
X125165000Y-100270000D01*
G36*
X125165000Y-100270000D02*
G01*
X124835000Y-100510000D01*
X124835000Y-100030000D01*
X125165000Y-100270000D01*
G37*
%TO.C,Q703*%
X146622450Y-102349400D02*
X146622450Y-102679400D01*
X146622450Y-103649400D02*
X148092450Y-103649400D01*
X148092450Y-101379400D02*
X146622450Y-101379400D01*
X148092450Y-102029400D02*
X148092450Y-101379400D01*
X148092450Y-103649400D02*
X148092450Y-102999400D01*
X146177450Y-102674400D02*
X146317450Y-102484400D01*
X146037450Y-102484400D01*
X146177450Y-102674400D01*
G36*
X146177450Y-102674400D02*
G01*
X146037450Y-102484400D01*
X146317450Y-102484400D01*
X146177450Y-102674400D01*
G37*
%TO.C,R303*%
X123828400Y-95957200D02*
X123828400Y-95457200D01*
X124888400Y-95457200D02*
X124888400Y-95957200D01*
%TO.C,TP501*%
X139260200Y-74095000D02*
G75*
G02*
X137860200Y-74095000I-700000J0D01*
G01*
X137860200Y-74095000D02*
G75*
G02*
X139260200Y-74095000I700000J0D01*
G01*
%TO.C,R401*%
X105910295Y-67400158D02*
X107110295Y-67400158D01*
X107110295Y-65640158D02*
X105910295Y-65640158D01*
%TO.C,J401*%
D14*
X97480106Y-69457556D02*
X97635275Y-69457556D01*
X97480106Y-77585556D02*
X97480106Y-69457556D01*
X97635275Y-77585556D02*
X97480106Y-77585556D01*
X100449137Y-69457556D02*
X102639075Y-69457556D01*
X102639075Y-77585556D02*
X100449137Y-77585556D01*
X105452937Y-69457556D02*
X105608106Y-69457556D01*
X105608106Y-69457556D02*
X105608106Y-77585556D01*
X105608106Y-77585556D02*
X105452937Y-77585556D01*
%TO.C,R608*%
D13*
X108856800Y-105236400D02*
X108856800Y-104736400D01*
X109916800Y-104736400D02*
X109916800Y-105236400D01*
%TO.C,R206*%
X112068800Y-86236400D02*
X112568800Y-86236400D01*
X112568800Y-87296400D02*
X112068800Y-87296400D01*
%TO.C,L301*%
X126417400Y-89282600D02*
X127141400Y-89282600D01*
X126417400Y-92530600D02*
X126417400Y-89282600D01*
X127141400Y-92530600D02*
X126417400Y-92530600D01*
X128941400Y-92530600D02*
X129665400Y-92530600D01*
X129665400Y-89282600D02*
X128941400Y-89282600D01*
X129665400Y-92530600D02*
X129665400Y-89282600D01*
%TO.C,R201*%
X113592800Y-92078400D02*
X114092800Y-92078400D01*
X114092800Y-93138400D02*
X113592800Y-93138400D01*
%TO.C,C401*%
X118749000Y-71920000D02*
X119249000Y-71920000D01*
X119249000Y-72860000D02*
X118749000Y-72860000D01*
%TO.C,R402*%
X113530295Y-67400158D02*
X114730295Y-67400158D01*
X114730295Y-65640158D02*
X113530295Y-65640158D01*
%TO.C,D301*%
X128855800Y-80373600D02*
X128855800Y-81023600D01*
X128855800Y-81993600D02*
X128855800Y-82643600D01*
X128855800Y-82643600D02*
X130325800Y-82643600D01*
X130325800Y-80373600D02*
X128855800Y-80373600D01*
X130325800Y-81673600D02*
X130325800Y-81343600D01*
X130770800Y-81348600D02*
X130630800Y-81538600D01*
X130910800Y-81538600D01*
X130770800Y-81348600D01*
G36*
X130910800Y-81538600D02*
G01*
X130630800Y-81538600D01*
X130770800Y-81348600D01*
X130910800Y-81538600D01*
G37*
%TO.C,R202*%
X111814800Y-92078400D02*
X112314800Y-92078400D01*
X112314800Y-93138400D02*
X111814800Y-93138400D01*
%TO.C,J501*%
X131110200Y-111193400D02*
X131110200Y-113853400D01*
X131110200Y-113853400D02*
X151550200Y-113853400D01*
X132060200Y-110796329D02*
X132060200Y-111193400D01*
X132060200Y-119853400D02*
X132060200Y-113853400D01*
X132820200Y-110796329D02*
X132820200Y-111193400D01*
X132820200Y-113853400D02*
X132820200Y-119853400D01*
X132820200Y-119853400D02*
X132060200Y-119853400D01*
X133710200Y-111193400D02*
X133710200Y-113853400D01*
X134600200Y-110796329D02*
X134600200Y-111193400D01*
X134600200Y-119853400D02*
X134600200Y-113853400D01*
X135360200Y-110796329D02*
X135360200Y-111193400D01*
X135360200Y-113853400D02*
X135360200Y-119853400D01*
X135360200Y-119853400D02*
X134600200Y-119853400D01*
X136250200Y-111193400D02*
X136250200Y-113853400D01*
X137140200Y-110796329D02*
X137140200Y-111193400D01*
X137140200Y-119853400D02*
X137140200Y-113853400D01*
X137900200Y-110796329D02*
X137900200Y-111193400D01*
X137900200Y-113853400D02*
X137900200Y-119853400D01*
X137900200Y-119853400D02*
X137140200Y-119853400D01*
X138790200Y-111193400D02*
X138790200Y-113853400D01*
X139680200Y-110796329D02*
X139680200Y-111193400D01*
X139680200Y-119853400D02*
X139680200Y-113853400D01*
X140440200Y-110796329D02*
X140440200Y-111193400D01*
X140440200Y-113853400D02*
X140440200Y-119853400D01*
X140440200Y-119853400D02*
X139680200Y-119853400D01*
X141330200Y-111193400D02*
X141330200Y-113853400D01*
X142220200Y-110796329D02*
X142220200Y-111193400D01*
X142220200Y-119853400D02*
X142220200Y-113853400D01*
X142980200Y-110796329D02*
X142980200Y-111193400D01*
X142980200Y-113853400D02*
X142980200Y-119853400D01*
X142980200Y-119853400D02*
X142220200Y-119853400D01*
X143870200Y-111193400D02*
X143870200Y-113853400D01*
X144760200Y-110796329D02*
X144760200Y-111193400D01*
X144760200Y-119853400D02*
X144760200Y-113853400D01*
X145520200Y-110796329D02*
X145520200Y-111193400D01*
X145520200Y-113853400D02*
X145520200Y-119853400D01*
X145520200Y-119853400D02*
X144760200Y-119853400D01*
X146410200Y-111193400D02*
X146410200Y-113853400D01*
X147300200Y-110796329D02*
X147300200Y-111193400D01*
X147300200Y-119853400D02*
X147300200Y-113853400D01*
X148060200Y-110796329D02*
X148060200Y-111193400D01*
X148060200Y-113853400D02*
X148060200Y-119853400D01*
X148060200Y-119853400D02*
X147300200Y-119853400D01*
X148950200Y-111193400D02*
X148950200Y-113853400D01*
X149840200Y-110863400D02*
X149840200Y-111193400D01*
X149840200Y-119853400D02*
X149840200Y-113853400D01*
X149940200Y-113853400D02*
X149940200Y-119853400D01*
X150060200Y-113853400D02*
X150060200Y-119853400D01*
X150180200Y-113853400D02*
X150180200Y-119853400D01*
X150220200Y-108483400D02*
X151490200Y-108483400D01*
X150300200Y-113853400D02*
X150300200Y-119853400D01*
X150420200Y-113853400D02*
X150420200Y-119853400D01*
X150540200Y-113853400D02*
X150540200Y-119853400D01*
X150600200Y-110863400D02*
X150600200Y-111193400D01*
X150600200Y-113853400D02*
X150600200Y-119853400D01*
X150600200Y-119853400D02*
X149840200Y-119853400D01*
X151490200Y-108483400D02*
X151490200Y-109753400D01*
X151550200Y-111193400D02*
X131110200Y-111193400D01*
X151550200Y-113853400D02*
X151550200Y-111193400D01*
%TO.C,R304*%
X125860400Y-95957200D02*
X125860400Y-95457200D01*
X126920400Y-95457200D02*
X126920400Y-95957200D01*
%TO.C,R306*%
X131677000Y-83866800D02*
X131677000Y-83366800D01*
X132737000Y-83366800D02*
X132737000Y-83866800D01*
%TO.C,C303*%
X120205400Y-93925200D02*
X120205400Y-93425200D01*
X121145400Y-93425200D02*
X121145400Y-93925200D01*
%TO.C,D402*%
X112657682Y-72352000D02*
X112657682Y-72682000D01*
X112657682Y-73652000D02*
X114127682Y-73652000D01*
X114127682Y-71382000D02*
X112657682Y-71382000D01*
X114127682Y-72032000D02*
X114127682Y-71382000D01*
X114127682Y-73652000D02*
X114127682Y-73002000D01*
X112212682Y-72677000D02*
X112352682Y-72487000D01*
X112072682Y-72487000D01*
X112212682Y-72677000D01*
G36*
X112212682Y-72677000D02*
G01*
X112072682Y-72487000D01*
X112352682Y-72487000D01*
X112212682Y-72677000D01*
G37*
%TO.C,R707*%
X153091600Y-95664400D02*
X153091600Y-96664400D01*
X154451600Y-96664400D02*
X154451600Y-95664400D01*
%TO.C,R701*%
X144798939Y-95931801D02*
X144798939Y-95431801D01*
X145858939Y-95431801D02*
X145858939Y-95931801D01*
%TO.C,J601*%
X106545000Y-110283600D02*
X106545000Y-108873600D01*
X114085000Y-106203600D02*
X114885000Y-106203600D01*
X114885000Y-106203600D02*
X114885000Y-106353600D01*
X115705000Y-110283600D02*
X115705000Y-108873600D01*
%TO.C,U401*%
X121765000Y-68560000D02*
X121765000Y-68655000D01*
X121765000Y-73585000D02*
X121765000Y-73680000D01*
X121765000Y-73680000D02*
X125885000Y-73680000D01*
X125885000Y-68560000D02*
X121765000Y-68560000D01*
X125885000Y-68655000D02*
X125885000Y-68560000D01*
X125885000Y-73680000D02*
X125885000Y-73585000D01*
X121225000Y-73590000D02*
X120985000Y-73920000D01*
X121465000Y-73920000D01*
X121225000Y-73590000D01*
G36*
X121465000Y-73920000D02*
G01*
X120985000Y-73920000D01*
X121225000Y-73590000D01*
X121465000Y-73920000D01*
G37*
%TO.C,C404*%
X127673000Y-71878000D02*
X127673000Y-71378000D01*
X128613000Y-71378000D02*
X128613000Y-71878000D01*
%TO.C,C607*%
X116878100Y-101460200D02*
X117378100Y-101460200D01*
X117378100Y-102400200D02*
X116878100Y-102400200D01*
%TO.C,R708*%
X154869600Y-95664400D02*
X154869600Y-96664400D01*
X156229600Y-96664400D02*
X156229600Y-95664400D01*
%TO.C,U402*%
X116619000Y-69623000D02*
X116619000Y-71093000D01*
X116619000Y-71093000D02*
X116644000Y-71093000D01*
X116644000Y-69623000D02*
X116619000Y-69623000D01*
X117944000Y-69623000D02*
X117514000Y-69623000D01*
X118814000Y-71093000D02*
X118839000Y-71093000D01*
X118839000Y-69623000D02*
X118814000Y-69623000D01*
X118839000Y-71093000D02*
X118839000Y-69623000D01*
X118819000Y-71538000D02*
X119009000Y-71678000D01*
X119009000Y-71398000D01*
X118819000Y-71538000D01*
G36*
X119009000Y-71678000D02*
G01*
X118819000Y-71538000D01*
X119009000Y-71398000D01*
X119009000Y-71678000D01*
G37*
%TO.C,C501*%
X146155600Y-106819600D02*
X146655600Y-106819600D01*
X146655600Y-107759600D02*
X146155600Y-107759600D01*
%TO.C,C611*%
X106376800Y-105236400D02*
X106376800Y-104736400D01*
X107316800Y-104736400D02*
X107316800Y-105236400D01*
%TO.C,U501*%
X133394200Y-72739000D02*
X133394200Y-73189000D01*
X133394200Y-75509000D02*
X133394200Y-75959000D01*
X133394200Y-75959000D02*
X133844200Y-75959000D01*
X133844200Y-72739000D02*
X133394200Y-72739000D01*
X136164200Y-75959000D02*
X136614200Y-75959000D01*
X136614200Y-72739000D02*
X136164200Y-72739000D01*
X136614200Y-73189000D02*
X136614200Y-72739000D01*
X136614200Y-75959000D02*
X136614200Y-75509000D01*
X132884200Y-75149000D02*
X132554200Y-74909000D01*
X132554200Y-75389000D01*
X132884200Y-75149000D01*
G36*
X132884200Y-75149000D02*
G01*
X132554200Y-75389000D01*
X132554200Y-74909000D01*
X132884200Y-75149000D01*
G37*
%TO.C,C302*%
X122330400Y-94983200D02*
X122830400Y-94983200D01*
X122830400Y-95923200D02*
X122330400Y-95923200D01*
%TO.C,R709*%
X156647600Y-95664400D02*
X156647600Y-96664400D01*
X158007600Y-96664400D02*
X158007600Y-95664400D01*
%TO.C,R607*%
X111904800Y-105236400D02*
X111904800Y-104736400D01*
X112964800Y-104736400D02*
X112964800Y-105236400D01*
%TO.C,C608*%
X116878100Y-102476200D02*
X117378100Y-102476200D01*
X117378100Y-103416200D02*
X116878100Y-103416200D01*
%TO.C,R203*%
X110036800Y-92078400D02*
X110536800Y-92078400D01*
X110536800Y-93138400D02*
X110036800Y-93138400D01*
%TO.C,TP503*%
X133672200Y-78921000D02*
G75*
G02*
X132272200Y-78921000I-700000J0D01*
G01*
X132272200Y-78921000D02*
G75*
G02*
X133672200Y-78921000I700000J0D01*
G01*
%TO.C,R205*%
X113846800Y-86236400D02*
X114346800Y-86236400D01*
X114346800Y-87296400D02*
X113846800Y-87296400D01*
%TO.C,TP502*%
X139260200Y-72063000D02*
G75*
G02*
X137860200Y-72063000I-700000J0D01*
G01*
X137860200Y-72063000D02*
G75*
G02*
X139260200Y-72063000I700000J0D01*
G01*
%TO.C,U201*%
X110718800Y-88214400D02*
X110818800Y-88214400D01*
X110718800Y-89014400D02*
X110718800Y-88214400D01*
X110718800Y-91414400D02*
X110718800Y-90614400D01*
X110818800Y-91414400D02*
X110718800Y-91414400D01*
X113918800Y-88214400D02*
X113818800Y-88214400D01*
X113918800Y-89014400D02*
X113918800Y-88214400D01*
X113918800Y-90614400D02*
X113918800Y-91074400D01*
X113798800Y-91414400D02*
X113798800Y-91894400D01*
X114278800Y-91414400D01*
X113798800Y-91414400D01*
G36*
X113798800Y-91894400D02*
G01*
X113798800Y-91414400D01*
X114278800Y-91414400D01*
X113798800Y-91894400D01*
G37*
%TO.C,Q702*%
X146622450Y-98818800D02*
X146622450Y-99148800D01*
X146622450Y-100118800D02*
X148092450Y-100118800D01*
X148092450Y-97848800D02*
X146622450Y-97848800D01*
X148092450Y-98498800D02*
X148092450Y-97848800D01*
X148092450Y-100118800D02*
X148092450Y-99468800D01*
X146177450Y-99143800D02*
X146317450Y-98953800D01*
X146037450Y-98953800D01*
X146177450Y-99143800D01*
G36*
X146177450Y-99143800D02*
G01*
X146037450Y-98953800D01*
X146317450Y-98953800D01*
X146177450Y-99143800D01*
G37*
%TO.C,R501*%
X131953400Y-76594400D02*
X132453400Y-76594400D01*
X132453400Y-77654400D02*
X131953400Y-77654400D01*
%TO.C,L601*%
X107586800Y-105236400D02*
X107586800Y-104736400D01*
X108646800Y-104736400D02*
X108646800Y-105236400D01*
%TO.C,L602*%
X105046800Y-105236400D02*
X105046800Y-104736400D01*
X106106800Y-104736400D02*
X106106800Y-105236400D01*
%TO.C,C407*%
X128813000Y-71278000D02*
X128813000Y-71978000D01*
X130013000Y-71978000D02*
X130013000Y-71278000D01*
%TO.C,R703*%
X144795450Y-102764400D02*
X144795450Y-102264400D01*
X145855450Y-102264400D02*
X145855450Y-102764400D01*
%TO.C,U301*%
X121859400Y-91049200D02*
X121859400Y-91524200D01*
X121859400Y-93794200D02*
X121859400Y-94269200D01*
X121859400Y-94269200D02*
X122334400Y-94269200D01*
X122334400Y-91049200D02*
X121859400Y-91049200D01*
X124604400Y-94269200D02*
X125079400Y-94269200D01*
X125079400Y-91049200D02*
X124604400Y-91049200D01*
X125079400Y-91524200D02*
X125079400Y-91049200D01*
X125079400Y-94269200D02*
X125079400Y-93794200D01*
X125609400Y-91909200D02*
X125939400Y-92149200D01*
X125939400Y-91669200D01*
X125609400Y-91909200D01*
G36*
X125939400Y-92149200D02*
G01*
X125609400Y-91909200D01*
X125939400Y-91669200D01*
X125939400Y-92149200D01*
G37*
%TO.C,C301*%
X119147400Y-91119200D02*
X119147400Y-89119200D01*
X121187400Y-89119200D02*
X121187400Y-91119200D01*
%TO.C,TP202*%
X117641600Y-86766400D02*
G75*
G02*
X116241600Y-86766400I-700000J0D01*
G01*
X116241600Y-86766400D02*
G75*
G02*
X117641600Y-86766400I700000J0D01*
G01*
%TO.C,Q701*%
X146622450Y-95516800D02*
X146622450Y-95846800D01*
X146622450Y-96816800D02*
X148092450Y-96816800D01*
X148092450Y-94546800D02*
X146622450Y-94546800D01*
X148092450Y-95196800D02*
X148092450Y-94546800D01*
X148092450Y-96816800D02*
X148092450Y-96166800D01*
X146177450Y-95841800D02*
X146317450Y-95651800D01*
X146037450Y-95651800D01*
X146177450Y-95841800D01*
G36*
X146177450Y-95841800D02*
G01*
X146037450Y-95651800D01*
X146317450Y-95651800D01*
X146177450Y-95841800D01*
G37*
%TO.C,J201*%
D14*
X97453450Y-88227150D02*
X97608619Y-88227150D01*
X97453450Y-96355150D02*
X97453450Y-88227150D01*
X97608619Y-96355150D02*
X97453450Y-96355150D01*
X100422481Y-88227150D02*
X102612419Y-88227150D01*
X102612419Y-96355150D02*
X100422481Y-96355150D01*
X105426281Y-88227150D02*
X105581450Y-88227150D01*
X105581450Y-88227150D02*
X105581450Y-96355150D01*
X105581450Y-96355150D02*
X105426281Y-96355150D01*
%TO.C,R403*%
D13*
X116793200Y-71860000D02*
X117293200Y-71860000D01*
X117293200Y-72920000D02*
X116793200Y-72920000D01*
%TO.C,C502*%
X135008200Y-76419000D02*
X135508200Y-76419000D01*
X135508200Y-77359000D02*
X135008200Y-77359000D01*
%TO.C,C304*%
X122723400Y-88210200D02*
X124723400Y-88210200D01*
X124723400Y-90250200D02*
X122723400Y-90250200D01*
%TO.C,R305*%
X124844400Y-95957200D02*
X124844400Y-95457200D01*
X125904400Y-95457200D02*
X125904400Y-95957200D01*
%TO.C,C201*%
X106890800Y-96622200D02*
X114955800Y-96622200D01*
X114955800Y-96622200D02*
X114955800Y-101142200D01*
X114955800Y-101142200D02*
X106890800Y-101142200D01*
%TO.C,R702*%
X144795450Y-99233800D02*
X144795450Y-98733800D01*
X145855450Y-98733800D02*
X145855450Y-99233800D01*
%TO.C,C402*%
X118749000Y-72936000D02*
X119249000Y-72936000D01*
X119249000Y-73876000D02*
X118749000Y-73876000D01*
%TO.C,R502*%
X131946600Y-75534400D02*
X132446600Y-75534400D01*
X132446600Y-76594400D02*
X131946600Y-76594400D01*
%TO.C,C305*%
X129672600Y-84216800D02*
X130372600Y-84216800D01*
X130372600Y-83016800D02*
X129672600Y-83016800D01*
%TO.C,D401*%
X113159400Y-60029200D02*
X107349400Y-60029200D01*
X113159400Y-60029200D02*
X113159400Y-64329200D01*
X113159400Y-64329200D02*
X107349400Y-64329200D01*
%TD*%
M02*
